<?xml version="1.0" encoding="utf-8" standalone="no"?>
<!DOCTYPE svg PUBLIC "-//W3C//DTD SVG 1.1//EN"
  "http://www.w3.org/Graphics/SVG/1.1/DTD/svg11.dtd">
<svg xmlns:xlink="http://www.w3.org/1999/xlink" width="700.539457pt" height="413.648562pt" viewBox="0 0 700.539457 413.648562" xmlns="http://www.w3.org/2000/svg" version="1.1">
 <metadata>
  <rdf:RDF xmlns:dc="http://purl.org/dc/elements/1.1/" xmlns:cc="http://creativecommons.org/ns#" xmlns:rdf="http://www.w3.org/1999/02/22-rdf-syntax-ns#">
   <cc:Work>
    <dc:type rdf:resource="http://purl.org/dc/dcmitype/StillImage"/>
    <dc:date>2024-08-17T22:17:51.959802</dc:date>
    <dc:format>image/svg+xml</dc:format>
    <dc:creator>
     <cc:Agent>
      <dc:title>Matplotlib v3.9.1.post1, https://matplotlib.org/</dc:title>
     </cc:Agent>
    </dc:creator>
   </cc:Work>
  </rdf:RDF>
 </metadata>
 <defs>
  <style type="text/css">*{stroke-linejoin: round; stroke-linecap: butt}</style>
 </defs>
 <g id="figure_1">
  <g id="patch_1">
   <path d="M 0 413.648562 
L 700.539457 413.648562 
L 700.539457 0 
L 0 0 
z
" style="fill: #ffffff"/>
  </g>
  <g id="axes_1">
   <g id="patch_2">
    <path d="M 92.910657 354.349812 
L 559.401907 354.349812 
L 559.401907 57.837812 
L 92.910657 57.837812 
z
" style="fill: #ffffff"/>
   </g>
   <g id="matplotlib.axis_1">
    <g id="xtick_1">
     <g id="line2d_1">
      <path d="M 92.910657 354.349812 
L 92.910657 57.837812 
" clip-path="url(#pc14ba9ba3a)" style="fill: none; stroke: #b0b0b0; stroke-width: 0.3; stroke-linecap: square"/>
     </g>
     <g id="line2d_2">
      <defs>
       <path id="m4c988b56e4" d="M 0 0 
L 0 3.5 
" style="stroke: #000000; stroke-width: 0.4"/>
      </defs>
      <g>
       <use xlink:href="#m4c988b56e4" x="92.910657" y="354.349812" style="stroke: #000000; stroke-width: 0.4"/>
      </g>
     </g>
     <g id="text_1">
      <!-- $\mathdefault{10^{0}}$ -->
      <g transform="translate(80.590657 371.987625) scale(0.14 -0.14)">
       <defs>
        <path id="DejaVuSans-31" d="M 794 531 
L 1825 531 
L 1825 4091 
L 703 3866 
L 703 4441 
L 1819 4666 
L 2450 4666 
L 2450 531 
L 3481 531 
L 3481 0 
L 794 0 
L 794 531 
z
" transform="scale(0.015625)"/>
        <path id="DejaVuSans-30" d="M 2034 4250 
Q 1547 4250 1301 3770 
Q 1056 3291 1056 2328 
Q 1056 1369 1301 889 
Q 1547 409 2034 409 
Q 2525 409 2770 889 
Q 3016 1369 3016 2328 
Q 3016 3291 2770 3770 
Q 2525 4250 2034 4250 
z
M 2034 4750 
Q 2819 4750 3233 4129 
Q 3647 3509 3647 2328 
Q 3647 1150 3233 529 
Q 2819 -91 2034 -91 
Q 1250 -91 836 529 
Q 422 1150 422 2328 
Q 422 3509 836 4129 
Q 1250 4750 2034 4750 
z
" transform="scale(0.015625)"/>
       </defs>
       <use xlink:href="#DejaVuSans-31" transform="translate(0 0.765625)"/>
       <use xlink:href="#DejaVuSans-30" transform="translate(63.623047 0.765625)"/>
       <use xlink:href="#DejaVuSans-30" transform="translate(128.203125 39.046875) scale(0.7)"/>
      </g>
     </g>
    </g>
    <g id="xtick_2">
     <g id="line2d_3">
      <path d="M 198.579426 354.349812 
L 198.579426 57.837812 
" clip-path="url(#pc14ba9ba3a)" style="fill: none; stroke: #b0b0b0; stroke-width: 0.3; stroke-linecap: square"/>
     </g>
     <g id="line2d_4">
      <g>
       <use xlink:href="#m4c988b56e4" x="198.579426" y="354.349812" style="stroke: #000000; stroke-width: 0.4"/>
      </g>
     </g>
     <g id="text_2">
      <!-- $\mathdefault{10^{1}}$ -->
      <g transform="translate(186.259426 371.987625) scale(0.14 -0.14)">
       <use xlink:href="#DejaVuSans-31" transform="translate(0 0.684375)"/>
       <use xlink:href="#DejaVuSans-30" transform="translate(63.623047 0.684375)"/>
       <use xlink:href="#DejaVuSans-31" transform="translate(128.203125 38.965625) scale(0.7)"/>
      </g>
     </g>
    </g>
    <g id="xtick_3">
     <g id="line2d_5">
      <path d="M 304.248195 354.349812 
L 304.248195 57.837812 
" clip-path="url(#pc14ba9ba3a)" style="fill: none; stroke: #b0b0b0; stroke-width: 0.3; stroke-linecap: square"/>
     </g>
     <g id="line2d_6">
      <g>
       <use xlink:href="#m4c988b56e4" x="304.248195" y="354.349812" style="stroke: #000000; stroke-width: 0.4"/>
      </g>
     </g>
     <g id="text_3">
      <!-- $\mathdefault{10^{2}}$ -->
      <g transform="translate(291.928195 371.987625) scale(0.14 -0.14)">
       <defs>
        <path id="DejaVuSans-32" d="M 1228 531 
L 3431 531 
L 3431 0 
L 469 0 
L 469 531 
Q 828 903 1448 1529 
Q 2069 2156 2228 2338 
Q 2531 2678 2651 2914 
Q 2772 3150 2772 3378 
Q 2772 3750 2511 3984 
Q 2250 4219 1831 4219 
Q 1534 4219 1204 4116 
Q 875 4013 500 3803 
L 500 4441 
Q 881 4594 1212 4672 
Q 1544 4750 1819 4750 
Q 2544 4750 2975 4387 
Q 3406 4025 3406 3419 
Q 3406 3131 3298 2873 
Q 3191 2616 2906 2266 
Q 2828 2175 2409 1742 
Q 1991 1309 1228 531 
z
" transform="scale(0.015625)"/>
       </defs>
       <use xlink:href="#DejaVuSans-31" transform="translate(0 0.765625)"/>
       <use xlink:href="#DejaVuSans-30" transform="translate(63.623047 0.765625)"/>
       <use xlink:href="#DejaVuSans-32" transform="translate(128.203125 39.046875) scale(0.7)"/>
      </g>
     </g>
    </g>
    <g id="xtick_4">
     <g id="line2d_7">
      <path d="M 409.916963 354.349812 
L 409.916963 57.837812 
" clip-path="url(#pc14ba9ba3a)" style="fill: none; stroke: #b0b0b0; stroke-width: 0.3; stroke-linecap: square"/>
     </g>
     <g id="line2d_8">
      <g>
       <use xlink:href="#m4c988b56e4" x="409.916963" y="354.349812" style="stroke: #000000; stroke-width: 0.4"/>
      </g>
     </g>
     <g id="text_4">
      <!-- $\mathdefault{10^{3}}$ -->
      <g transform="translate(397.596963 371.987625) scale(0.14 -0.14)">
       <defs>
        <path id="DejaVuSans-33" d="M 2597 2516 
Q 3050 2419 3304 2112 
Q 3559 1806 3559 1356 
Q 3559 666 3084 287 
Q 2609 -91 1734 -91 
Q 1441 -91 1130 -33 
Q 819 25 488 141 
L 488 750 
Q 750 597 1062 519 
Q 1375 441 1716 441 
Q 2309 441 2620 675 
Q 2931 909 2931 1356 
Q 2931 1769 2642 2001 
Q 2353 2234 1838 2234 
L 1294 2234 
L 1294 2753 
L 1863 2753 
Q 2328 2753 2575 2939 
Q 2822 3125 2822 3475 
Q 2822 3834 2567 4026 
Q 2313 4219 1838 4219 
Q 1578 4219 1281 4162 
Q 984 4106 628 3988 
L 628 4550 
Q 988 4650 1302 4700 
Q 1616 4750 1894 4750 
Q 2613 4750 3031 4423 
Q 3450 4097 3450 3541 
Q 3450 3153 3228 2886 
Q 3006 2619 2597 2516 
z
" transform="scale(0.015625)"/>
       </defs>
       <use xlink:href="#DejaVuSans-31" transform="translate(0 0.765625)"/>
       <use xlink:href="#DejaVuSans-30" transform="translate(63.623047 0.765625)"/>
       <use xlink:href="#DejaVuSans-33" transform="translate(128.203125 39.046875) scale(0.7)"/>
      </g>
     </g>
    </g>
    <g id="xtick_5">
     <g id="line2d_9">
      <path d="M 515.585732 354.349812 
L 515.585732 57.837812 
" clip-path="url(#pc14ba9ba3a)" style="fill: none; stroke: #b0b0b0; stroke-width: 0.3; stroke-linecap: square"/>
     </g>
     <g id="line2d_10">
      <g>
       <use xlink:href="#m4c988b56e4" x="515.585732" y="354.349812" style="stroke: #000000; stroke-width: 0.4"/>
      </g>
     </g>
     <g id="text_5">
      <!-- $\mathdefault{10^{4}}$ -->
      <g transform="translate(503.265732 371.987625) scale(0.14 -0.14)">
       <defs>
        <path id="DejaVuSans-34" d="M 2419 4116 
L 825 1625 
L 2419 1625 
L 2419 4116 
z
M 2253 4666 
L 3047 4666 
L 3047 1625 
L 3713 1625 
L 3713 1100 
L 3047 1100 
L 3047 0 
L 2419 0 
L 2419 1100 
L 313 1100 
L 313 1709 
L 2253 4666 
z
" transform="scale(0.015625)"/>
       </defs>
       <use xlink:href="#DejaVuSans-31" transform="translate(0 0.684375)"/>
       <use xlink:href="#DejaVuSans-30" transform="translate(63.623047 0.684375)"/>
       <use xlink:href="#DejaVuSans-34" transform="translate(128.203125 38.965625) scale(0.7)"/>
      </g>
     </g>
    </g>
    <g id="xtick_6">
     <g id="line2d_11">
      <path d="M 124.720126 354.349812 
L 124.720126 57.837812 
" clip-path="url(#pc14ba9ba3a)" style="fill: none; stroke: #b0b0b0; stroke-width: 0.3; stroke-linecap: square"/>
     </g>
    </g>
    <g id="xtick_7">
     <g id="line2d_12">
      <path d="M 143.327472 354.349812 
L 143.327472 57.837812 
" clip-path="url(#pc14ba9ba3a)" style="fill: none; stroke: #b0b0b0; stroke-width: 0.3; stroke-linecap: square"/>
     </g>
    </g>
    <g id="xtick_8">
     <g id="line2d_13">
      <path d="M 156.529595 354.349812 
L 156.529595 57.837812 
" clip-path="url(#pc14ba9ba3a)" style="fill: none; stroke: #b0b0b0; stroke-width: 0.3; stroke-linecap: square"/>
     </g>
    </g>
    <g id="xtick_9">
     <g id="line2d_14">
      <path d="M 166.769957 354.349812 
L 166.769957 57.837812 
" clip-path="url(#pc14ba9ba3a)" style="fill: none; stroke: #b0b0b0; stroke-width: 0.3; stroke-linecap: square"/>
     </g>
    </g>
    <g id="xtick_10">
     <g id="line2d_15">
      <path d="M 175.136941 354.349812 
L 175.136941 57.837812 
" clip-path="url(#pc14ba9ba3a)" style="fill: none; stroke: #b0b0b0; stroke-width: 0.3; stroke-linecap: square"/>
     </g>
    </g>
    <g id="xtick_11">
     <g id="line2d_16">
      <path d="M 182.211126 354.349812 
L 182.211126 57.837812 
" clip-path="url(#pc14ba9ba3a)" style="fill: none; stroke: #b0b0b0; stroke-width: 0.3; stroke-linecap: square"/>
     </g>
    </g>
    <g id="xtick_12">
     <g id="line2d_17">
      <path d="M 188.339064 354.349812 
L 188.339064 57.837812 
" clip-path="url(#pc14ba9ba3a)" style="fill: none; stroke: #b0b0b0; stroke-width: 0.3; stroke-linecap: square"/>
     </g>
    </g>
    <g id="xtick_13">
     <g id="line2d_18">
      <path d="M 193.744288 354.349812 
L 193.744288 57.837812 
" clip-path="url(#pc14ba9ba3a)" style="fill: none; stroke: #b0b0b0; stroke-width: 0.3; stroke-linecap: square"/>
     </g>
    </g>
    <g id="xtick_14">
     <g id="line2d_19">
      <path d="M 230.388895 354.349812 
L 230.388895 57.837812 
" clip-path="url(#pc14ba9ba3a)" style="fill: none; stroke: #b0b0b0; stroke-width: 0.3; stroke-linecap: square"/>
     </g>
    </g>
    <g id="xtick_15">
     <g id="line2d_20">
      <path d="M 248.996241 354.349812 
L 248.996241 57.837812 
" clip-path="url(#pc14ba9ba3a)" style="fill: none; stroke: #b0b0b0; stroke-width: 0.3; stroke-linecap: square"/>
     </g>
    </g>
    <g id="xtick_16">
     <g id="line2d_21">
      <path d="M 262.198364 354.349812 
L 262.198364 57.837812 
" clip-path="url(#pc14ba9ba3a)" style="fill: none; stroke: #b0b0b0; stroke-width: 0.3; stroke-linecap: square"/>
     </g>
    </g>
    <g id="xtick_17">
     <g id="line2d_22">
      <path d="M 272.438726 354.349812 
L 272.438726 57.837812 
" clip-path="url(#pc14ba9ba3a)" style="fill: none; stroke: #b0b0b0; stroke-width: 0.3; stroke-linecap: square"/>
     </g>
    </g>
    <g id="xtick_18">
     <g id="line2d_23">
      <path d="M 280.80571 354.349812 
L 280.80571 57.837812 
" clip-path="url(#pc14ba9ba3a)" style="fill: none; stroke: #b0b0b0; stroke-width: 0.3; stroke-linecap: square"/>
     </g>
    </g>
    <g id="xtick_19">
     <g id="line2d_24">
      <path d="M 287.879895 354.349812 
L 287.879895 57.837812 
" clip-path="url(#pc14ba9ba3a)" style="fill: none; stroke: #b0b0b0; stroke-width: 0.3; stroke-linecap: square"/>
     </g>
    </g>
    <g id="xtick_20">
     <g id="line2d_25">
      <path d="M 294.007833 354.349812 
L 294.007833 57.837812 
" clip-path="url(#pc14ba9ba3a)" style="fill: none; stroke: #b0b0b0; stroke-width: 0.3; stroke-linecap: square"/>
     </g>
    </g>
    <g id="xtick_21">
     <g id="line2d_26">
      <path d="M 299.413057 354.349812 
L 299.413057 57.837812 
" clip-path="url(#pc14ba9ba3a)" style="fill: none; stroke: #b0b0b0; stroke-width: 0.3; stroke-linecap: square"/>
     </g>
    </g>
    <g id="xtick_22">
     <g id="line2d_27">
      <path d="M 336.057664 354.349812 
L 336.057664 57.837812 
" clip-path="url(#pc14ba9ba3a)" style="fill: none; stroke: #b0b0b0; stroke-width: 0.3; stroke-linecap: square"/>
     </g>
    </g>
    <g id="xtick_23">
     <g id="line2d_28">
      <path d="M 354.66501 354.349812 
L 354.66501 57.837812 
" clip-path="url(#pc14ba9ba3a)" style="fill: none; stroke: #b0b0b0; stroke-width: 0.3; stroke-linecap: square"/>
     </g>
    </g>
    <g id="xtick_24">
     <g id="line2d_29">
      <path d="M 367.867133 354.349812 
L 367.867133 57.837812 
" clip-path="url(#pc14ba9ba3a)" style="fill: none; stroke: #b0b0b0; stroke-width: 0.3; stroke-linecap: square"/>
     </g>
    </g>
    <g id="xtick_25">
     <g id="line2d_30">
      <path d="M 378.107494 354.349812 
L 378.107494 57.837812 
" clip-path="url(#pc14ba9ba3a)" style="fill: none; stroke: #b0b0b0; stroke-width: 0.3; stroke-linecap: square"/>
     </g>
    </g>
    <g id="xtick_26">
     <g id="line2d_31">
      <path d="M 386.474479 354.349812 
L 386.474479 57.837812 
" clip-path="url(#pc14ba9ba3a)" style="fill: none; stroke: #b0b0b0; stroke-width: 0.3; stroke-linecap: square"/>
     </g>
    </g>
    <g id="xtick_27">
     <g id="line2d_32">
      <path d="M 393.548664 354.349812 
L 393.548664 57.837812 
" clip-path="url(#pc14ba9ba3a)" style="fill: none; stroke: #b0b0b0; stroke-width: 0.3; stroke-linecap: square"/>
     </g>
    </g>
    <g id="xtick_28">
     <g id="line2d_33">
      <path d="M 399.676602 354.349812 
L 399.676602 57.837812 
" clip-path="url(#pc14ba9ba3a)" style="fill: none; stroke: #b0b0b0; stroke-width: 0.3; stroke-linecap: square"/>
     </g>
    </g>
    <g id="xtick_29">
     <g id="line2d_34">
      <path d="M 405.081826 354.349812 
L 405.081826 57.837812 
" clip-path="url(#pc14ba9ba3a)" style="fill: none; stroke: #b0b0b0; stroke-width: 0.3; stroke-linecap: square"/>
     </g>
    </g>
    <g id="xtick_30">
     <g id="line2d_35">
      <path d="M 441.726432 354.349812 
L 441.726432 57.837812 
" clip-path="url(#pc14ba9ba3a)" style="fill: none; stroke: #b0b0b0; stroke-width: 0.3; stroke-linecap: square"/>
     </g>
    </g>
    <g id="xtick_31">
     <g id="line2d_36">
      <path d="M 460.333779 354.349812 
L 460.333779 57.837812 
" clip-path="url(#pc14ba9ba3a)" style="fill: none; stroke: #b0b0b0; stroke-width: 0.3; stroke-linecap: square"/>
     </g>
    </g>
    <g id="xtick_32">
     <g id="line2d_37">
      <path d="M 473.535902 354.349812 
L 473.535902 57.837812 
" clip-path="url(#pc14ba9ba3a)" style="fill: none; stroke: #b0b0b0; stroke-width: 0.3; stroke-linecap: square"/>
     </g>
    </g>
    <g id="xtick_33">
     <g id="line2d_38">
      <path d="M 483.776263 354.349812 
L 483.776263 57.837812 
" clip-path="url(#pc14ba9ba3a)" style="fill: none; stroke: #b0b0b0; stroke-width: 0.3; stroke-linecap: square"/>
     </g>
    </g>
    <g id="xtick_34">
     <g id="line2d_39">
      <path d="M 492.143248 354.349812 
L 492.143248 57.837812 
" clip-path="url(#pc14ba9ba3a)" style="fill: none; stroke: #b0b0b0; stroke-width: 0.3; stroke-linecap: square"/>
     </g>
    </g>
    <g id="xtick_35">
     <g id="line2d_40">
      <path d="M 499.217433 354.349812 
L 499.217433 57.837812 
" clip-path="url(#pc14ba9ba3a)" style="fill: none; stroke: #b0b0b0; stroke-width: 0.3; stroke-linecap: square"/>
     </g>
    </g>
    <g id="xtick_36">
     <g id="line2d_41">
      <path d="M 505.345371 354.349812 
L 505.345371 57.837812 
" clip-path="url(#pc14ba9ba3a)" style="fill: none; stroke: #b0b0b0; stroke-width: 0.3; stroke-linecap: square"/>
     </g>
    </g>
    <g id="xtick_37">
     <g id="line2d_42">
      <path d="M 510.750595 354.349812 
L 510.750595 57.837812 
" clip-path="url(#pc14ba9ba3a)" style="fill: none; stroke: #b0b0b0; stroke-width: 0.3; stroke-linecap: square"/>
     </g>
    </g>
    <g id="xtick_38">
     <g id="line2d_43">
      <path d="M 547.395201 354.349812 
L 547.395201 57.837812 
" clip-path="url(#pc14ba9ba3a)" style="fill: none; stroke: #b0b0b0; stroke-width: 0.3; stroke-linecap: square"/>
     </g>
    </g>
    <g id="text_6">
     <!-- Order of the Chebyshev Polynomial Basis -->
     <g transform="translate(181.767063 403.537) scale(0.14 -0.14)">
      <defs>
       <path id="DejaVuSans-4f" d="M 2522 4238 
Q 1834 4238 1429 3725 
Q 1025 3213 1025 2328 
Q 1025 1447 1429 934 
Q 1834 422 2522 422 
Q 3209 422 3611 934 
Q 4013 1447 4013 2328 
Q 4013 3213 3611 3725 
Q 3209 4238 2522 4238 
z
M 2522 4750 
Q 3503 4750 4090 4092 
Q 4678 3434 4678 2328 
Q 4678 1225 4090 567 
Q 3503 -91 2522 -91 
Q 1538 -91 948 565 
Q 359 1222 359 2328 
Q 359 3434 948 4092 
Q 1538 4750 2522 4750 
z
" transform="scale(0.015625)"/>
       <path id="DejaVuSans-72" d="M 2631 2963 
Q 2534 3019 2420 3045 
Q 2306 3072 2169 3072 
Q 1681 3072 1420 2755 
Q 1159 2438 1159 1844 
L 1159 0 
L 581 0 
L 581 3500 
L 1159 3500 
L 1159 2956 
Q 1341 3275 1631 3429 
Q 1922 3584 2338 3584 
Q 2397 3584 2469 3576 
Q 2541 3569 2628 3553 
L 2631 2963 
z
" transform="scale(0.015625)"/>
       <path id="DejaVuSans-64" d="M 2906 2969 
L 2906 4863 
L 3481 4863 
L 3481 0 
L 2906 0 
L 2906 525 
Q 2725 213 2448 61 
Q 2172 -91 1784 -91 
Q 1150 -91 751 415 
Q 353 922 353 1747 
Q 353 2572 751 3078 
Q 1150 3584 1784 3584 
Q 2172 3584 2448 3432 
Q 2725 3281 2906 2969 
z
M 947 1747 
Q 947 1113 1208 752 
Q 1469 391 1925 391 
Q 2381 391 2643 752 
Q 2906 1113 2906 1747 
Q 2906 2381 2643 2742 
Q 2381 3103 1925 3103 
Q 1469 3103 1208 2742 
Q 947 2381 947 1747 
z
" transform="scale(0.015625)"/>
       <path id="DejaVuSans-65" d="M 3597 1894 
L 3597 1613 
L 953 1613 
Q 991 1019 1311 708 
Q 1631 397 2203 397 
Q 2534 397 2845 478 
Q 3156 559 3463 722 
L 3463 178 
Q 3153 47 2828 -22 
Q 2503 -91 2169 -91 
Q 1331 -91 842 396 
Q 353 884 353 1716 
Q 353 2575 817 3079 
Q 1281 3584 2069 3584 
Q 2775 3584 3186 3129 
Q 3597 2675 3597 1894 
z
M 3022 2063 
Q 3016 2534 2758 2815 
Q 2500 3097 2075 3097 
Q 1594 3097 1305 2825 
Q 1016 2553 972 2059 
L 3022 2063 
z
" transform="scale(0.015625)"/>
       <path id="DejaVuSans-20" transform="scale(0.015625)"/>
       <path id="DejaVuSans-6f" d="M 1959 3097 
Q 1497 3097 1228 2736 
Q 959 2375 959 1747 
Q 959 1119 1226 758 
Q 1494 397 1959 397 
Q 2419 397 2687 759 
Q 2956 1122 2956 1747 
Q 2956 2369 2687 2733 
Q 2419 3097 1959 3097 
z
M 1959 3584 
Q 2709 3584 3137 3096 
Q 3566 2609 3566 1747 
Q 3566 888 3137 398 
Q 2709 -91 1959 -91 
Q 1206 -91 779 398 
Q 353 888 353 1747 
Q 353 2609 779 3096 
Q 1206 3584 1959 3584 
z
" transform="scale(0.015625)"/>
       <path id="DejaVuSans-66" d="M 2375 4863 
L 2375 4384 
L 1825 4384 
Q 1516 4384 1395 4259 
Q 1275 4134 1275 3809 
L 1275 3500 
L 2222 3500 
L 2222 3053 
L 1275 3053 
L 1275 0 
L 697 0 
L 697 3053 
L 147 3053 
L 147 3500 
L 697 3500 
L 697 3744 
Q 697 4328 969 4595 
Q 1241 4863 1831 4863 
L 2375 4863 
z
" transform="scale(0.015625)"/>
       <path id="DejaVuSans-74" d="M 1172 4494 
L 1172 3500 
L 2356 3500 
L 2356 3053 
L 1172 3053 
L 1172 1153 
Q 1172 725 1289 603 
Q 1406 481 1766 481 
L 2356 481 
L 2356 0 
L 1766 0 
Q 1100 0 847 248 
Q 594 497 594 1153 
L 594 3053 
L 172 3053 
L 172 3500 
L 594 3500 
L 594 4494 
L 1172 4494 
z
" transform="scale(0.015625)"/>
       <path id="DejaVuSans-68" d="M 3513 2113 
L 3513 0 
L 2938 0 
L 2938 2094 
Q 2938 2591 2744 2837 
Q 2550 3084 2163 3084 
Q 1697 3084 1428 2787 
Q 1159 2491 1159 1978 
L 1159 0 
L 581 0 
L 581 4863 
L 1159 4863 
L 1159 2956 
Q 1366 3272 1645 3428 
Q 1925 3584 2291 3584 
Q 2894 3584 3203 3211 
Q 3513 2838 3513 2113 
z
" transform="scale(0.015625)"/>
       <path id="DejaVuSans-43" d="M 4122 4306 
L 4122 3641 
Q 3803 3938 3442 4084 
Q 3081 4231 2675 4231 
Q 1875 4231 1450 3742 
Q 1025 3253 1025 2328 
Q 1025 1406 1450 917 
Q 1875 428 2675 428 
Q 3081 428 3442 575 
Q 3803 722 4122 1019 
L 4122 359 
Q 3791 134 3420 21 
Q 3050 -91 2638 -91 
Q 1578 -91 968 557 
Q 359 1206 359 2328 
Q 359 3453 968 4101 
Q 1578 4750 2638 4750 
Q 3056 4750 3426 4639 
Q 3797 4528 4122 4306 
z
" transform="scale(0.015625)"/>
       <path id="DejaVuSans-62" d="M 3116 1747 
Q 3116 2381 2855 2742 
Q 2594 3103 2138 3103 
Q 1681 3103 1420 2742 
Q 1159 2381 1159 1747 
Q 1159 1113 1420 752 
Q 1681 391 2138 391 
Q 2594 391 2855 752 
Q 3116 1113 3116 1747 
z
M 1159 2969 
Q 1341 3281 1617 3432 
Q 1894 3584 2278 3584 
Q 2916 3584 3314 3078 
Q 3713 2572 3713 1747 
Q 3713 922 3314 415 
Q 2916 -91 2278 -91 
Q 1894 -91 1617 61 
Q 1341 213 1159 525 
L 1159 0 
L 581 0 
L 581 4863 
L 1159 4863 
L 1159 2969 
z
" transform="scale(0.015625)"/>
       <path id="DejaVuSans-79" d="M 2059 -325 
Q 1816 -950 1584 -1140 
Q 1353 -1331 966 -1331 
L 506 -1331 
L 506 -850 
L 844 -850 
Q 1081 -850 1212 -737 
Q 1344 -625 1503 -206 
L 1606 56 
L 191 3500 
L 800 3500 
L 1894 763 
L 2988 3500 
L 3597 3500 
L 2059 -325 
z
" transform="scale(0.015625)"/>
       <path id="DejaVuSans-73" d="M 2834 3397 
L 2834 2853 
Q 2591 2978 2328 3040 
Q 2066 3103 1784 3103 
Q 1356 3103 1142 2972 
Q 928 2841 928 2578 
Q 928 2378 1081 2264 
Q 1234 2150 1697 2047 
L 1894 2003 
Q 2506 1872 2764 1633 
Q 3022 1394 3022 966 
Q 3022 478 2636 193 
Q 2250 -91 1575 -91 
Q 1294 -91 989 -36 
Q 684 19 347 128 
L 347 722 
Q 666 556 975 473 
Q 1284 391 1588 391 
Q 1994 391 2212 530 
Q 2431 669 2431 922 
Q 2431 1156 2273 1281 
Q 2116 1406 1581 1522 
L 1381 1569 
Q 847 1681 609 1914 
Q 372 2147 372 2553 
Q 372 3047 722 3315 
Q 1072 3584 1716 3584 
Q 2034 3584 2315 3537 
Q 2597 3491 2834 3397 
z
" transform="scale(0.015625)"/>
       <path id="DejaVuSans-76" d="M 191 3500 
L 800 3500 
L 1894 563 
L 2988 3500 
L 3597 3500 
L 2284 0 
L 1503 0 
L 191 3500 
z
" transform="scale(0.015625)"/>
       <path id="DejaVuSans-50" d="M 1259 4147 
L 1259 2394 
L 2053 2394 
Q 2494 2394 2734 2622 
Q 2975 2850 2975 3272 
Q 2975 3691 2734 3919 
Q 2494 4147 2053 4147 
L 1259 4147 
z
M 628 4666 
L 2053 4666 
Q 2838 4666 3239 4311 
Q 3641 3956 3641 3272 
Q 3641 2581 3239 2228 
Q 2838 1875 2053 1875 
L 1259 1875 
L 1259 0 
L 628 0 
L 628 4666 
z
" transform="scale(0.015625)"/>
       <path id="DejaVuSans-6c" d="M 603 4863 
L 1178 4863 
L 1178 0 
L 603 0 
L 603 4863 
z
" transform="scale(0.015625)"/>
       <path id="DejaVuSans-6e" d="M 3513 2113 
L 3513 0 
L 2938 0 
L 2938 2094 
Q 2938 2591 2744 2837 
Q 2550 3084 2163 3084 
Q 1697 3084 1428 2787 
Q 1159 2491 1159 1978 
L 1159 0 
L 581 0 
L 581 3500 
L 1159 3500 
L 1159 2956 
Q 1366 3272 1645 3428 
Q 1925 3584 2291 3584 
Q 2894 3584 3203 3211 
Q 3513 2838 3513 2113 
z
" transform="scale(0.015625)"/>
       <path id="DejaVuSans-6d" d="M 3328 2828 
Q 3544 3216 3844 3400 
Q 4144 3584 4550 3584 
Q 5097 3584 5394 3201 
Q 5691 2819 5691 2113 
L 5691 0 
L 5113 0 
L 5113 2094 
Q 5113 2597 4934 2840 
Q 4756 3084 4391 3084 
Q 3944 3084 3684 2787 
Q 3425 2491 3425 1978 
L 3425 0 
L 2847 0 
L 2847 2094 
Q 2847 2600 2669 2842 
Q 2491 3084 2119 3084 
Q 1678 3084 1418 2786 
Q 1159 2488 1159 1978 
L 1159 0 
L 581 0 
L 581 3500 
L 1159 3500 
L 1159 2956 
Q 1356 3278 1631 3431 
Q 1906 3584 2284 3584 
Q 2666 3584 2933 3390 
Q 3200 3197 3328 2828 
z
" transform="scale(0.015625)"/>
       <path id="DejaVuSans-69" d="M 603 3500 
L 1178 3500 
L 1178 0 
L 603 0 
L 603 3500 
z
M 603 4863 
L 1178 4863 
L 1178 4134 
L 603 4134 
L 603 4863 
z
" transform="scale(0.015625)"/>
       <path id="DejaVuSans-61" d="M 2194 1759 
Q 1497 1759 1228 1600 
Q 959 1441 959 1056 
Q 959 750 1161 570 
Q 1363 391 1709 391 
Q 2188 391 2477 730 
Q 2766 1069 2766 1631 
L 2766 1759 
L 2194 1759 
z
M 3341 1997 
L 3341 0 
L 2766 0 
L 2766 531 
Q 2569 213 2275 61 
Q 1981 -91 1556 -91 
Q 1019 -91 701 211 
Q 384 513 384 1019 
Q 384 1609 779 1909 
Q 1175 2209 1959 2209 
L 2766 2209 
L 2766 2266 
Q 2766 2663 2505 2880 
Q 2244 3097 1772 3097 
Q 1472 3097 1187 3025 
Q 903 2953 641 2809 
L 641 3341 
Q 956 3463 1253 3523 
Q 1550 3584 1831 3584 
Q 2591 3584 2966 3190 
Q 3341 2797 3341 1997 
z
" transform="scale(0.015625)"/>
       <path id="DejaVuSans-42" d="M 1259 2228 
L 1259 519 
L 2272 519 
Q 2781 519 3026 730 
Q 3272 941 3272 1375 
Q 3272 1813 3026 2020 
Q 2781 2228 2272 2228 
L 1259 2228 
z
M 1259 4147 
L 1259 2741 
L 2194 2741 
Q 2656 2741 2882 2914 
Q 3109 3088 3109 3444 
Q 3109 3797 2882 3972 
Q 2656 4147 2194 4147 
L 1259 4147 
z
M 628 4666 
L 2241 4666 
Q 2963 4666 3353 4366 
Q 3744 4066 3744 3513 
Q 3744 3084 3544 2831 
Q 3344 2578 2956 2516 
Q 3422 2416 3680 2098 
Q 3938 1781 3938 1306 
Q 3938 681 3513 340 
Q 3088 0 2303 0 
L 628 0 
L 628 4666 
z
" transform="scale(0.015625)"/>
      </defs>
      <use xlink:href="#DejaVuSans-4f"/>
      <use xlink:href="#DejaVuSans-72" x="78.710938"/>
      <use xlink:href="#DejaVuSans-64" x="118.074219"/>
      <use xlink:href="#DejaVuSans-65" x="181.550781"/>
      <use xlink:href="#DejaVuSans-72" x="243.074219"/>
      <use xlink:href="#DejaVuSans-20" x="284.1875"/>
      <use xlink:href="#DejaVuSans-6f" x="315.974609"/>
      <use xlink:href="#DejaVuSans-66" x="377.15625"/>
      <use xlink:href="#DejaVuSans-20" x="412.361328"/>
      <use xlink:href="#DejaVuSans-74" x="444.148438"/>
      <use xlink:href="#DejaVuSans-68" x="483.357422"/>
      <use xlink:href="#DejaVuSans-65" x="546.736328"/>
      <use xlink:href="#DejaVuSans-20" x="608.259766"/>
      <use xlink:href="#DejaVuSans-43" x="640.046875"/>
      <use xlink:href="#DejaVuSans-68" x="709.871094"/>
      <use xlink:href="#DejaVuSans-65" x="773.25"/>
      <use xlink:href="#DejaVuSans-62" x="834.773438"/>
      <use xlink:href="#DejaVuSans-79" x="898.25"/>
      <use xlink:href="#DejaVuSans-73" x="957.429688"/>
      <use xlink:href="#DejaVuSans-68" x="1009.529297"/>
      <use xlink:href="#DejaVuSans-65" x="1072.908203"/>
      <use xlink:href="#DejaVuSans-76" x="1134.431641"/>
      <use xlink:href="#DejaVuSans-20" x="1193.611328"/>
      <use xlink:href="#DejaVuSans-50" x="1225.398438"/>
      <use xlink:href="#DejaVuSans-6f" x="1282.076172"/>
      <use xlink:href="#DejaVuSans-6c" x="1343.257812"/>
      <use xlink:href="#DejaVuSans-79" x="1371.041016"/>
      <use xlink:href="#DejaVuSans-6e" x="1430.220703"/>
      <use xlink:href="#DejaVuSans-6f" x="1493.599609"/>
      <use xlink:href="#DejaVuSans-6d" x="1554.78125"/>
      <use xlink:href="#DejaVuSans-69" x="1652.193359"/>
      <use xlink:href="#DejaVuSans-61" x="1679.976562"/>
      <use xlink:href="#DejaVuSans-6c" x="1741.255859"/>
      <use xlink:href="#DejaVuSans-20" x="1769.039062"/>
      <use xlink:href="#DejaVuSans-42" x="1800.826172"/>
      <use xlink:href="#DejaVuSans-61" x="1869.429688"/>
      <use xlink:href="#DejaVuSans-73" x="1930.708984"/>
      <use xlink:href="#DejaVuSans-69" x="1982.808594"/>
      <use xlink:href="#DejaVuSans-73" x="2010.591797"/>
     </g>
    </g>
   </g>
   <g id="matplotlib.axis_2">
    <g id="ytick_1">
     <g id="line2d_44">
      <defs>
       <path id="ma56243e41c" d="M 0 0 
L -3.5 0 
" style="stroke: #000000; stroke-width: 0.3"/>
      </defs>
      <g>
       <use xlink:href="#ma56243e41c" x="92.910657" y="332.337601" style="stroke: #000000; stroke-width: 0.3"/>
      </g>
     </g>
     <g id="text_7">
      <!-- $\mathdefault{10^{-4}}$ -->
      <g transform="translate(53.010657 337.656507) scale(0.14 -0.14)">
       <defs>
        <path id="DejaVuSans-2212" d="M 678 2272 
L 4684 2272 
L 4684 1741 
L 678 1741 
L 678 2272 
z
" transform="scale(0.015625)"/>
       </defs>
       <use xlink:href="#DejaVuSans-31" transform="translate(0 0.684375)"/>
       <use xlink:href="#DejaVuSans-30" transform="translate(63.623047 0.684375)"/>
       <use xlink:href="#DejaVuSans-2212" transform="translate(128.203125 38.965625) scale(0.7)"/>
       <use xlink:href="#DejaVuSans-34" transform="translate(186.855469 38.965625) scale(0.7)"/>
      </g>
     </g>
    </g>
    <g id="ytick_2">
     <g id="line2d_45">
      <g>
       <use xlink:href="#ma56243e41c" x="92.910657" y="262.888142" style="stroke: #000000; stroke-width: 0.3"/>
      </g>
     </g>
     <g id="text_8">
      <!-- $\mathdefault{10^{-3}}$ -->
      <g transform="translate(53.010657 268.207048) scale(0.14 -0.14)">
       <use xlink:href="#DejaVuSans-31" transform="translate(0 0.765625)"/>
       <use xlink:href="#DejaVuSans-30" transform="translate(63.623047 0.765625)"/>
       <use xlink:href="#DejaVuSans-2212" transform="translate(128.203125 39.046875) scale(0.7)"/>
       <use xlink:href="#DejaVuSans-33" transform="translate(186.855469 39.046875) scale(0.7)"/>
      </g>
     </g>
    </g>
    <g id="ytick_3">
     <g id="line2d_46">
      <g>
       <use xlink:href="#ma56243e41c" x="92.910657" y="193.438683" style="stroke: #000000; stroke-width: 0.3"/>
      </g>
     </g>
     <g id="text_9">
      <!-- $\mathdefault{10^{-2}}$ -->
      <g transform="translate(53.010657 198.757589) scale(0.14 -0.14)">
       <use xlink:href="#DejaVuSans-31" transform="translate(0 0.765625)"/>
       <use xlink:href="#DejaVuSans-30" transform="translate(63.623047 0.765625)"/>
       <use xlink:href="#DejaVuSans-2212" transform="translate(128.203125 39.046875) scale(0.7)"/>
       <use xlink:href="#DejaVuSans-32" transform="translate(186.855469 39.046875) scale(0.7)"/>
      </g>
     </g>
    </g>
    <g id="ytick_4">
     <g id="line2d_47">
      <g>
       <use xlink:href="#ma56243e41c" x="92.910657" y="123.989224" style="stroke: #000000; stroke-width: 0.3"/>
      </g>
     </g>
     <g id="text_10">
      <!-- $\mathdefault{10^{-1}}$ -->
      <g transform="translate(53.010657 129.30813) scale(0.14 -0.14)">
       <use xlink:href="#DejaVuSans-31" transform="translate(0 0.684375)"/>
       <use xlink:href="#DejaVuSans-30" transform="translate(63.623047 0.684375)"/>
       <use xlink:href="#DejaVuSans-2212" transform="translate(128.203125 38.965625) scale(0.7)"/>
       <use xlink:href="#DejaVuSans-31" transform="translate(186.855469 38.965625) scale(0.7)"/>
      </g>
     </g>
    </g>
    <g id="ytick_5">
     <g id="line2d_48">
      <path d="M 92.910657 353.243971 
L 559.401907 353.243971 
" clip-path="url(#pc14ba9ba3a)" style="fill: none; stroke: #b0b0b0; stroke-width: 0.3; stroke-linecap: square"/>
     </g>
    </g>
    <g id="ytick_6">
     <g id="line2d_49">
      <path d="M 92.910657 347.744876 
L 559.401907 347.744876 
" clip-path="url(#pc14ba9ba3a)" style="fill: none; stroke: #b0b0b0; stroke-width: 0.3; stroke-linecap: square"/>
     </g>
    </g>
    <g id="ytick_7">
     <g id="line2d_50">
      <path d="M 92.910657 343.095458 
L 559.401907 343.095458 
" clip-path="url(#pc14ba9ba3a)" style="fill: none; stroke: #b0b0b0; stroke-width: 0.3; stroke-linecap: square"/>
     </g>
    </g>
    <g id="ytick_8">
     <g id="line2d_51">
      <path d="M 92.910657 339.067949 
L 559.401907 339.067949 
" clip-path="url(#pc14ba9ba3a)" style="fill: none; stroke: #b0b0b0; stroke-width: 0.3; stroke-linecap: square"/>
     </g>
    </g>
    <g id="ytick_9">
     <g id="line2d_52">
      <path d="M 92.910657 335.515434 
L 559.401907 335.515434 
" clip-path="url(#pc14ba9ba3a)" style="fill: none; stroke: #b0b0b0; stroke-width: 0.3; stroke-linecap: square"/>
     </g>
    </g>
    <g id="ytick_10">
     <g id="line2d_53">
      <path d="M 92.910657 311.43123 
L 559.401907 311.43123 
" clip-path="url(#pc14ba9ba3a)" style="fill: none; stroke: #b0b0b0; stroke-width: 0.3; stroke-linecap: square"/>
     </g>
    </g>
    <g id="ytick_11">
     <g id="line2d_54">
      <path d="M 92.910657 299.201788 
L 559.401907 299.201788 
" clip-path="url(#pc14ba9ba3a)" style="fill: none; stroke: #b0b0b0; stroke-width: 0.3; stroke-linecap: square"/>
     </g>
    </g>
    <g id="ytick_12">
     <g id="line2d_55">
      <path d="M 92.910657 290.52486 
L 559.401907 290.52486 
" clip-path="url(#pc14ba9ba3a)" style="fill: none; stroke: #b0b0b0; stroke-width: 0.3; stroke-linecap: square"/>
     </g>
    </g>
    <g id="ytick_13">
     <g id="line2d_56">
      <path d="M 92.910657 283.794512 
L 559.401907 283.794512 
" clip-path="url(#pc14ba9ba3a)" style="fill: none; stroke: #b0b0b0; stroke-width: 0.3; stroke-linecap: square"/>
     </g>
    </g>
    <g id="ytick_14">
     <g id="line2d_57">
      <path d="M 92.910657 278.295417 
L 559.401907 278.295417 
" clip-path="url(#pc14ba9ba3a)" style="fill: none; stroke: #b0b0b0; stroke-width: 0.3; stroke-linecap: square"/>
     </g>
    </g>
    <g id="ytick_15">
     <g id="line2d_58">
      <path d="M 92.910657 273.645999 
L 559.401907 273.645999 
" clip-path="url(#pc14ba9ba3a)" style="fill: none; stroke: #b0b0b0; stroke-width: 0.3; stroke-linecap: square"/>
     </g>
    </g>
    <g id="ytick_16">
     <g id="line2d_59">
      <path d="M 92.910657 269.61849 
L 559.401907 269.61849 
" clip-path="url(#pc14ba9ba3a)" style="fill: none; stroke: #b0b0b0; stroke-width: 0.3; stroke-linecap: square"/>
     </g>
    </g>
    <g id="ytick_17">
     <g id="line2d_60">
      <path d="M 92.910657 266.065975 
L 559.401907 266.065975 
" clip-path="url(#pc14ba9ba3a)" style="fill: none; stroke: #b0b0b0; stroke-width: 0.3; stroke-linecap: square"/>
     </g>
    </g>
    <g id="ytick_18">
     <g id="line2d_61">
      <path d="M 92.910657 241.981771 
L 559.401907 241.981771 
" clip-path="url(#pc14ba9ba3a)" style="fill: none; stroke: #b0b0b0; stroke-width: 0.3; stroke-linecap: square"/>
     </g>
    </g>
    <g id="ytick_19">
     <g id="line2d_62">
      <path d="M 92.910657 229.752329 
L 559.401907 229.752329 
" clip-path="url(#pc14ba9ba3a)" style="fill: none; stroke: #b0b0b0; stroke-width: 0.3; stroke-linecap: square"/>
     </g>
    </g>
    <g id="ytick_20">
     <g id="line2d_63">
      <path d="M 92.910657 221.075401 
L 559.401907 221.075401 
" clip-path="url(#pc14ba9ba3a)" style="fill: none; stroke: #b0b0b0; stroke-width: 0.3; stroke-linecap: square"/>
     </g>
    </g>
    <g id="ytick_21">
     <g id="line2d_64">
      <path d="M 92.910657 214.345053 
L 559.401907 214.345053 
" clip-path="url(#pc14ba9ba3a)" style="fill: none; stroke: #b0b0b0; stroke-width: 0.3; stroke-linecap: square"/>
     </g>
    </g>
    <g id="ytick_22">
     <g id="line2d_65">
      <path d="M 92.910657 208.845958 
L 559.401907 208.845958 
" clip-path="url(#pc14ba9ba3a)" style="fill: none; stroke: #b0b0b0; stroke-width: 0.3; stroke-linecap: square"/>
     </g>
    </g>
    <g id="ytick_23">
     <g id="line2d_66">
      <path d="M 92.910657 204.19654 
L 559.401907 204.19654 
" clip-path="url(#pc14ba9ba3a)" style="fill: none; stroke: #b0b0b0; stroke-width: 0.3; stroke-linecap: square"/>
     </g>
    </g>
    <g id="ytick_24">
     <g id="line2d_67">
      <path d="M 92.910657 200.169031 
L 559.401907 200.169031 
" clip-path="url(#pc14ba9ba3a)" style="fill: none; stroke: #b0b0b0; stroke-width: 0.3; stroke-linecap: square"/>
     </g>
    </g>
    <g id="ytick_25">
     <g id="line2d_68">
      <path d="M 92.910657 196.616516 
L 559.401907 196.616516 
" clip-path="url(#pc14ba9ba3a)" style="fill: none; stroke: #b0b0b0; stroke-width: 0.3; stroke-linecap: square"/>
     </g>
    </g>
    <g id="ytick_26">
     <g id="line2d_69">
      <path d="M 92.910657 172.532312 
L 559.401907 172.532312 
" clip-path="url(#pc14ba9ba3a)" style="fill: none; stroke: #b0b0b0; stroke-width: 0.3; stroke-linecap: square"/>
     </g>
    </g>
    <g id="ytick_27">
     <g id="line2d_70">
      <path d="M 92.910657 160.30287 
L 559.401907 160.30287 
" clip-path="url(#pc14ba9ba3a)" style="fill: none; stroke: #b0b0b0; stroke-width: 0.3; stroke-linecap: square"/>
     </g>
    </g>
    <g id="ytick_28">
     <g id="line2d_71">
      <path d="M 92.910657 151.625942 
L 559.401907 151.625942 
" clip-path="url(#pc14ba9ba3a)" style="fill: none; stroke: #b0b0b0; stroke-width: 0.3; stroke-linecap: square"/>
     </g>
    </g>
    <g id="ytick_29">
     <g id="line2d_72">
      <path d="M 92.910657 144.895594 
L 559.401907 144.895594 
" clip-path="url(#pc14ba9ba3a)" style="fill: none; stroke: #b0b0b0; stroke-width: 0.3; stroke-linecap: square"/>
     </g>
    </g>
    <g id="ytick_30">
     <g id="line2d_73">
      <path d="M 92.910657 139.396499 
L 559.401907 139.396499 
" clip-path="url(#pc14ba9ba3a)" style="fill: none; stroke: #b0b0b0; stroke-width: 0.3; stroke-linecap: square"/>
     </g>
    </g>
    <g id="ytick_31">
     <g id="line2d_74">
      <path d="M 92.910657 134.747081 
L 559.401907 134.747081 
" clip-path="url(#pc14ba9ba3a)" style="fill: none; stroke: #b0b0b0; stroke-width: 0.3; stroke-linecap: square"/>
     </g>
    </g>
    <g id="ytick_32">
     <g id="line2d_75">
      <path d="M 92.910657 130.719572 
L 559.401907 130.719572 
" clip-path="url(#pc14ba9ba3a)" style="fill: none; stroke: #b0b0b0; stroke-width: 0.3; stroke-linecap: square"/>
     </g>
    </g>
    <g id="ytick_33">
     <g id="line2d_76">
      <path d="M 92.910657 127.167057 
L 559.401907 127.167057 
" clip-path="url(#pc14ba9ba3a)" style="fill: none; stroke: #b0b0b0; stroke-width: 0.3; stroke-linecap: square"/>
     </g>
    </g>
    <g id="ytick_34">
     <g id="line2d_77">
      <path d="M 92.910657 103.082853 
L 559.401907 103.082853 
" clip-path="url(#pc14ba9ba3a)" style="fill: none; stroke: #b0b0b0; stroke-width: 0.3; stroke-linecap: square"/>
     </g>
    </g>
    <g id="ytick_35">
     <g id="line2d_78">
      <path d="M 92.910657 90.85341 
L 559.401907 90.85341 
" clip-path="url(#pc14ba9ba3a)" style="fill: none; stroke: #b0b0b0; stroke-width: 0.3; stroke-linecap: square"/>
     </g>
    </g>
    <g id="ytick_36">
     <g id="line2d_79">
      <path d="M 92.910657 82.176483 
L 559.401907 82.176483 
" clip-path="url(#pc14ba9ba3a)" style="fill: none; stroke: #b0b0b0; stroke-width: 0.3; stroke-linecap: square"/>
     </g>
    </g>
    <g id="ytick_37">
     <g id="line2d_80">
      <path d="M 92.910657 75.446135 
L 559.401907 75.446135 
" clip-path="url(#pc14ba9ba3a)" style="fill: none; stroke: #b0b0b0; stroke-width: 0.3; stroke-linecap: square"/>
     </g>
    </g>
    <g id="ytick_38">
     <g id="line2d_81">
      <path d="M 92.910657 69.94704 
L 559.401907 69.94704 
" clip-path="url(#pc14ba9ba3a)" style="fill: none; stroke: #b0b0b0; stroke-width: 0.3; stroke-linecap: square"/>
     </g>
    </g>
    <g id="ytick_39">
     <g id="line2d_82">
      <path d="M 92.910657 65.297622 
L 559.401907 65.297622 
" clip-path="url(#pc14ba9ba3a)" style="fill: none; stroke: #b0b0b0; stroke-width: 0.3; stroke-linecap: square"/>
     </g>
    </g>
    <g id="ytick_40">
     <g id="line2d_83">
      <path d="M 92.910657 61.270112 
L 559.401907 61.270112 
" clip-path="url(#pc14ba9ba3a)" style="fill: none; stroke: #b0b0b0; stroke-width: 0.3; stroke-linecap: square"/>
     </g>
    </g>
    <g id="text_11">
     <!-- Runtime [s] -->
     <g transform="translate(7.2 91.426461) scale(0.14 -0.14)">
      <defs>
       <path id="DejaVuSans-52" d="M 2841 2188 
Q 3044 2119 3236 1894 
Q 3428 1669 3622 1275 
L 4263 0 
L 3584 0 
L 2988 1197 
Q 2756 1666 2539 1819 
Q 2322 1972 1947 1972 
L 1259 1972 
L 1259 0 
L 628 0 
L 628 4666 
L 2053 4666 
Q 2853 4666 3247 4331 
Q 3641 3997 3641 3322 
Q 3641 2881 3436 2590 
Q 3231 2300 2841 2188 
z
M 1259 4147 
L 1259 2491 
L 2053 2491 
Q 2509 2491 2742 2702 
Q 2975 2913 2975 3322 
Q 2975 3731 2742 3939 
Q 2509 4147 2053 4147 
L 1259 4147 
z
" transform="scale(0.015625)"/>
       <path id="DejaVuSans-75" d="M 544 1381 
L 544 3500 
L 1119 3500 
L 1119 1403 
Q 1119 906 1312 657 
Q 1506 409 1894 409 
Q 2359 409 2629 706 
Q 2900 1003 2900 1516 
L 2900 3500 
L 3475 3500 
L 3475 0 
L 2900 0 
L 2900 538 
Q 2691 219 2414 64 
Q 2138 -91 1772 -91 
Q 1169 -91 856 284 
Q 544 659 544 1381 
z
M 1991 3584 
L 1991 3584 
z
" transform="scale(0.015625)"/>
       <path id="DejaVuSans-5b" d="M 550 4863 
L 1875 4863 
L 1875 4416 
L 1125 4416 
L 1125 -397 
L 1875 -397 
L 1875 -844 
L 550 -844 
L 550 4863 
z
" transform="scale(0.015625)"/>
       <path id="DejaVuSans-5d" d="M 1947 4863 
L 1947 -844 
L 622 -844 
L 622 -397 
L 1369 -397 
L 1369 4416 
L 622 4416 
L 622 4863 
L 1947 4863 
z
" transform="scale(0.015625)"/>
      </defs>
      <use xlink:href="#DejaVuSans-52"/>
      <use xlink:href="#DejaVuSans-75" x="64.982422"/>
      <use xlink:href="#DejaVuSans-6e" x="128.361328"/>
      <use xlink:href="#DejaVuSans-74" x="191.740234"/>
      <use xlink:href="#DejaVuSans-69" x="230.949219"/>
      <use xlink:href="#DejaVuSans-6d" x="258.732422"/>
      <use xlink:href="#DejaVuSans-65" x="356.144531"/>
      <use xlink:href="#DejaVuSans-20" x="417.667969"/>
      <use xlink:href="#DejaVuSans-5b" x="449.455078"/>
      <use xlink:href="#DejaVuSans-73" x="488.46875"/>
      <use xlink:href="#DejaVuSans-5d" x="540.568359"/>
     </g>
    </g>
   </g>
   <g id="line2d_84">
    <path d="M 92.910657 336.503307 
L 92.910657 337.453078 
L 92.910657 336.992046 
L 92.910657 337.560478 
L 124.720126 335.954277 
L 143.327472 328.306321 
L 143.327472 332.793451 
L 166.769957 314.895276 
L 175.136941 320.840863 
L 182.211126 319.92773 
L 198.579426 308.337968 
L 206.946411 309.560149 
L 217.186772 303.425264 
L 230.388895 293.711072 
L 240.629257 288.49827 
L 250.501011 286.270112 
L 262.198364 278.776796 
L 272.438726 228.814948 
L 283.044757 241.820837 
L 294.007833 234.492536 
L 304.704829 230.314518 
L 315.217006 220.129738 
L 326.10323 217.61149 
L 336.740922 208.818825 
L 347.206795 193.894533 
L 357.912699 195.478384 
L 368.550391 191.114349 
L 379.106159 183.978098 
L 389.722168 170.484438 
L 400.35986 161.185 
L 410.96051 164.002971 
L 421.567253 142.697071 
L 432.169329 139.430249 
L 442.769979 136.212725 
L 453.376723 131.321223 
L 463.978798 126.532314 
L 474.579448 117.556306 
L 485.186192 98.897689 
L 495.788268 106.061009 
L 506.388917 97.994477 
L 516.99121 88.098947 
L 527.594204 78.116612 
L 538.198386 68.537628 
L 548.800679 65.648878 
L 559.401907 57.837812 
" clip-path="url(#pc14ba9ba3a)" style="fill: none; stroke: #1f77b4; stroke-width: 1.5; stroke-linecap: square"/>
   </g>
   <g id="line2d_85">
    <path d="M 92.910657 351.486492 
L 92.910657 354.349812 
L 92.910657 351.945232 
L 92.910657 353.730458 
L 124.720126 347.049193 
L 143.327472 349.344921 
L 143.327472 350.978616 
L 166.769957 344.870177 
L 175.136941 342.20392 
L 182.211126 337.524636 
L 198.579426 333.039418 
L 206.946411 330.551681 
L 217.186772 325.128488 
L 230.388895 312.772648 
L 240.629257 313.361728 
L 250.501011 308.61142 
L 262.198364 301.596733 
L 272.438726 233.288636 
L 283.044757 254.988761 
L 294.007833 247.348446 
L 304.704829 241.427401 
L 315.217006 235.525323 
L 326.10323 228.724445 
L 336.740922 222.060245 
L 347.206795 211.256146 
L 357.912699 208.605626 
L 368.550391 203.587859 
L 379.106159 188.236375 
L 389.722168 181.431037 
L 400.35986 177.328218 
L 410.96051 175.299737 
L 421.567253 164.666492 
L 432.169329 161.624743 
L 442.769979 152.655849 
L 453.376723 147.835223 
L 463.978798 138.26245 
L 474.579448 131.635314 
L 485.186192 126.768056 
L 495.788268 119.064433 
L 506.388917 112.32824 
L 516.99121 93.876688 
L 527.594204 94.562322 
L 538.198386 88.755283 
L 548.800679 83.359806 
L 559.401907 74.757577 
" clip-path="url(#pc14ba9ba3a)" style="fill: none; stroke: #ff7f0e; stroke-width: 1.5; stroke-linecap: square"/>
   </g>
   <g id="patch_3">
    <path d="M 92.910657 354.349812 
L 92.910657 57.837812 
" style="fill: none; stroke: #000000; stroke-width: 0.5; stroke-linejoin: miter; stroke-linecap: square"/>
   </g>
   <g id="patch_4">
    <path d="M 559.401907 354.349812 
L 559.401907 57.837812 
" style="fill: none; stroke: #000000; stroke-width: 0.5; stroke-linejoin: miter; stroke-linecap: square"/>
   </g>
   <g id="patch_5">
    <path d="M 92.910657 354.349812 
L 559.401907 354.349812 
" style="fill: none; stroke: #000000; stroke-width: 0.5; stroke-linejoin: miter; stroke-linecap: square"/>
   </g>
   <g id="patch_6">
    <path d="M 92.910657 57.837812 
L 559.401907 57.837812 
" style="fill: none; stroke: #000000; stroke-width: 0.5; stroke-linejoin: miter; stroke-linecap: square"/>
   </g>
   <g id="text_12">
    <!-- NumPy Full Basis -->
    <g style="fill: #1f77b4" transform="translate(573.396644 61.700938) scale(0.14 -0.14)">
     <defs>
      <path id="DejaVuSans-4e" d="M 628 4666 
L 1478 4666 
L 3547 763 
L 3547 4666 
L 4159 4666 
L 4159 0 
L 3309 0 
L 1241 3903 
L 1241 0 
L 628 0 
L 628 4666 
z
" transform="scale(0.015625)"/>
      <path id="DejaVuSans-46" d="M 628 4666 
L 3309 4666 
L 3309 4134 
L 1259 4134 
L 1259 2759 
L 3109 2759 
L 3109 2228 
L 1259 2228 
L 1259 0 
L 628 0 
L 628 4666 
z
" transform="scale(0.015625)"/>
     </defs>
     <use xlink:href="#DejaVuSans-4e"/>
     <use xlink:href="#DejaVuSans-75" x="74.804688"/>
     <use xlink:href="#DejaVuSans-6d" x="138.183594"/>
     <use xlink:href="#DejaVuSans-50" x="235.595703"/>
     <use xlink:href="#DejaVuSans-79" x="295.898438"/>
     <use xlink:href="#DejaVuSans-20" x="355.078125"/>
     <use xlink:href="#DejaVuSans-46" x="386.865234"/>
     <use xlink:href="#DejaVuSans-75" x="438.884766"/>
     <use xlink:href="#DejaVuSans-6c" x="502.263672"/>
     <use xlink:href="#DejaVuSans-6c" x="530.046875"/>
     <use xlink:href="#DejaVuSans-20" x="557.830078"/>
     <use xlink:href="#DejaVuSans-42" x="589.617188"/>
     <use xlink:href="#DejaVuSans-61" x="658.220703"/>
     <use xlink:href="#DejaVuSans-73" x="719.5"/>
     <use xlink:href="#DejaVuSans-69" x="771.599609"/>
     <use xlink:href="#DejaVuSans-73" x="799.382812"/>
    </g>
   </g>
   <g id="text_13">
    <!-- Numba Full Basis -->
    <g style="fill: #ff7f0e" transform="translate(573.396644 78.620702) scale(0.14 -0.14)">
     <use xlink:href="#DejaVuSans-4e"/>
     <use xlink:href="#DejaVuSans-75" x="74.804688"/>
     <use xlink:href="#DejaVuSans-6d" x="138.183594"/>
     <use xlink:href="#DejaVuSans-62" x="235.595703"/>
     <use xlink:href="#DejaVuSans-61" x="299.072266"/>
     <use xlink:href="#DejaVuSans-20" x="360.351562"/>
     <use xlink:href="#DejaVuSans-46" x="392.138672"/>
     <use xlink:href="#DejaVuSans-75" x="444.158203"/>
     <use xlink:href="#DejaVuSans-6c" x="507.537109"/>
     <use xlink:href="#DejaVuSans-6c" x="535.320312"/>
     <use xlink:href="#DejaVuSans-20" x="563.103516"/>
     <use xlink:href="#DejaVuSans-42" x="594.890625"/>
     <use xlink:href="#DejaVuSans-61" x="663.494141"/>
     <use xlink:href="#DejaVuSans-73" x="724.773438"/>
     <use xlink:href="#DejaVuSans-69" x="776.873047"/>
     <use xlink:href="#DejaVuSans-73" x="804.65625"/>
    </g>
   </g>
   <g id="text_14">
    <!-- Performance of Chebyshev Polynomials for 2501 x-values -->
    <g transform="translate(124.560657 17.837812) scale(0.14 -0.14)">
     <defs>
      <path id="DejaVuSans-63" d="M 3122 3366 
L 3122 2828 
Q 2878 2963 2633 3030 
Q 2388 3097 2138 3097 
Q 1578 3097 1268 2742 
Q 959 2388 959 1747 
Q 959 1106 1268 751 
Q 1578 397 2138 397 
Q 2388 397 2633 464 
Q 2878 531 3122 666 
L 3122 134 
Q 2881 22 2623 -34 
Q 2366 -91 2075 -91 
Q 1284 -91 818 406 
Q 353 903 353 1747 
Q 353 2603 823 3093 
Q 1294 3584 2113 3584 
Q 2378 3584 2631 3529 
Q 2884 3475 3122 3366 
z
" transform="scale(0.015625)"/>
      <path id="DejaVuSans-35" d="M 691 4666 
L 3169 4666 
L 3169 4134 
L 1269 4134 
L 1269 2991 
Q 1406 3038 1543 3061 
Q 1681 3084 1819 3084 
Q 2600 3084 3056 2656 
Q 3513 2228 3513 1497 
Q 3513 744 3044 326 
Q 2575 -91 1722 -91 
Q 1428 -91 1123 -41 
Q 819 9 494 109 
L 494 744 
Q 775 591 1075 516 
Q 1375 441 1709 441 
Q 2250 441 2565 725 
Q 2881 1009 2881 1497 
Q 2881 1984 2565 2268 
Q 2250 2553 1709 2553 
Q 1456 2553 1204 2497 
Q 953 2441 691 2322 
L 691 4666 
z
" transform="scale(0.015625)"/>
      <path id="DejaVuSans-78" d="M 3513 3500 
L 2247 1797 
L 3578 0 
L 2900 0 
L 1881 1375 
L 863 0 
L 184 0 
L 1544 1831 
L 300 3500 
L 978 3500 
L 1906 2253 
L 2834 3500 
L 3513 3500 
z
" transform="scale(0.015625)"/>
      <path id="DejaVuSans-2d" d="M 313 2009 
L 1997 2009 
L 1997 1497 
L 313 1497 
L 313 2009 
z
" transform="scale(0.015625)"/>
     </defs>
     <use xlink:href="#DejaVuSans-50"/>
     <use xlink:href="#DejaVuSans-65" x="56.677734"/>
     <use xlink:href="#DejaVuSans-72" x="118.201172"/>
     <use xlink:href="#DejaVuSans-66" x="159.314453"/>
     <use xlink:href="#DejaVuSans-6f" x="194.519531"/>
     <use xlink:href="#DejaVuSans-72" x="255.701172"/>
     <use xlink:href="#DejaVuSans-6d" x="295.064453"/>
     <use xlink:href="#DejaVuSans-61" x="392.476562"/>
     <use xlink:href="#DejaVuSans-6e" x="453.755859"/>
     <use xlink:href="#DejaVuSans-63" x="517.134766"/>
     <use xlink:href="#DejaVuSans-65" x="572.115234"/>
     <use xlink:href="#DejaVuSans-20" x="633.638672"/>
     <use xlink:href="#DejaVuSans-6f" x="665.425781"/>
     <use xlink:href="#DejaVuSans-66" x="726.607422"/>
     <use xlink:href="#DejaVuSans-20" x="761.8125"/>
     <use xlink:href="#DejaVuSans-43" x="793.599609"/>
     <use xlink:href="#DejaVuSans-68" x="863.423828"/>
     <use xlink:href="#DejaVuSans-65" x="926.802734"/>
     <use xlink:href="#DejaVuSans-62" x="988.326172"/>
     <use xlink:href="#DejaVuSans-79" x="1051.802734"/>
     <use xlink:href="#DejaVuSans-73" x="1110.982422"/>
     <use xlink:href="#DejaVuSans-68" x="1163.082031"/>
     <use xlink:href="#DejaVuSans-65" x="1226.460938"/>
     <use xlink:href="#DejaVuSans-76" x="1287.984375"/>
     <use xlink:href="#DejaVuSans-20" x="1347.164062"/>
     <use xlink:href="#DejaVuSans-50" x="1378.951172"/>
     <use xlink:href="#DejaVuSans-6f" x="1435.628906"/>
     <use xlink:href="#DejaVuSans-6c" x="1496.810547"/>
     <use xlink:href="#DejaVuSans-79" x="1524.59375"/>
     <use xlink:href="#DejaVuSans-6e" x="1583.773438"/>
     <use xlink:href="#DejaVuSans-6f" x="1647.152344"/>
     <use xlink:href="#DejaVuSans-6d" x="1708.333984"/>
     <use xlink:href="#DejaVuSans-69" x="1805.746094"/>
     <use xlink:href="#DejaVuSans-61" x="1833.529297"/>
     <use xlink:href="#DejaVuSans-6c" x="1894.808594"/>
     <use xlink:href="#DejaVuSans-73" x="1922.591797"/>
     <use xlink:href="#DejaVuSans-20" x="1974.691406"/>
     <use xlink:href="#DejaVuSans-66" x="2006.478516"/>
     <use xlink:href="#DejaVuSans-6f" x="2041.683594"/>
     <use xlink:href="#DejaVuSans-72" x="2102.865234"/>
     <use xlink:href="#DejaVuSans-20" x="2143.978516"/>
     <use xlink:href="#DejaVuSans-32" x="2175.765625"/>
     <use xlink:href="#DejaVuSans-35" x="2239.388672"/>
     <use xlink:href="#DejaVuSans-30" x="2303.011719"/>
     <use xlink:href="#DejaVuSans-31" x="2366.634766"/>
     <use xlink:href="#DejaVuSans-20" x="2430.257812"/>
     <use xlink:href="#DejaVuSans-78" x="2462.044922"/>
     <use xlink:href="#DejaVuSans-2d" x="2521.224609"/>
     <use xlink:href="#DejaVuSans-76" x="2554.683594"/>
     <use xlink:href="#DejaVuSans-61" x="2613.863281"/>
     <use xlink:href="#DejaVuSans-6c" x="2675.142578"/>
     <use xlink:href="#DejaVuSans-75" x="2702.925781"/>
     <use xlink:href="#DejaVuSans-65" x="2766.304688"/>
     <use xlink:href="#DejaVuSans-73" x="2827.828125"/>
    </g>
   </g>
  </g>
 </g>
 <defs>
  <clipPath id="pc14ba9ba3a">
   <rect x="92.910657" y="57.837812" width="466.49125" height="296.512"/>
  </clipPath>
 </defs>
</svg>
