<?xml version="1.0" encoding="utf-8" standalone="no"?>
<!DOCTYPE svg PUBLIC "-//W3C//DTD SVG 1.1//EN"
  "http://www.w3.org/Graphics/SVG/1.1/DTD/svg11.dtd">
<svg xmlns:xlink="http://www.w3.org/1999/xlink" width="263.65pt" height="48.65pt" viewBox="0 0 263.65 48.65" xmlns="http://www.w3.org/2000/svg" version="1.1">
 <metadata>
  <rdf:RDF xmlns:dc="http://purl.org/dc/elements/1.1/" xmlns:cc="http://creativecommons.org/ns#" xmlns:rdf="http://www.w3.org/1999/02/22-rdf-syntax-ns#">
   <cc:Work>
    <dc:type rdf:resource="http://purl.org/dc/dcmitype/StillImage"/>
    <dc:date>2024-08-04T18:44:01.071042</dc:date>
    <dc:format>image/svg+xml</dc:format>
    <dc:creator>
     <cc:Agent>
      <dc:title>Matplotlib v3.9.1, https://matplotlib.org/</dc:title>
     </cc:Agent>
    </dc:creator>
   </cc:Work>
  </rdf:RDF>
 </metadata>
 <defs>
  <style type="text/css">*{stroke-linejoin: round; stroke-linecap: butt}</style>
 </defs>
 <g id="figure_1">
  <g id="patch_1">
   <path d="M 0 48.65 
L 263.65 48.65 
L 263.65 -0 
L 0 -0 
z
" style="fill: #ffffff"/>
  </g>
  <g id="text_1">
   <!-- $\psi_{n}^{\left(\alpha;\mu\right)}\left(x\right)=\frac{1}{\sqrt{\alpha}}\cdot\psi_{n}\left(\frac{x-\mu}{\alpha}\right)$ -->
   <g transform="translate(7.2 28.45) scale(0.25 -0.25)">
    <defs>
     <path id="Cmmi10-c3" d="M 1522 -1247 
L 1825 -56 
Q 1547 -56 1286 48 
Q 1025 153 864 356 
Q 703 559 703 850 
Q 703 1016 762 1228 
Q 822 1441 889 1619 
Q 956 1797 1069 2088 
Q 1153 2322 1153 2472 
Q 1153 2663 1013 2663 
Q 759 2663 595 2402 
Q 431 2141 353 1819 
Q 341 1778 300 1778 
L 225 1778 
Q 172 1778 172 1838 
L 172 1856 
Q 275 2238 487 2533 
Q 700 2828 1025 2828 
Q 1253 2828 1411 2678 
Q 1569 2528 1569 2297 
Q 1569 2178 1516 2047 
Q 1403 1756 1337 1584 
Q 1272 1413 1212 1195 
Q 1153 978 1153 806 
Q 1153 494 1348 322 
Q 1544 150 1863 109 
L 2938 4403 
Q 2950 4441 2988 4441 
L 3066 4441 
Q 3116 4441 3116 4378 
L 2047 97 
L 2119 97 
Q 2388 97 2686 256 
Q 2984 416 3229 675 
Q 3475 934 3619 1232 
Q 3763 1531 3763 1791 
Q 3763 1984 3700 2092 
Q 3638 2200 3538 2317 
Q 3438 2434 3438 2503 
Q 3438 2628 3541 2731 
Q 3644 2834 3769 2834 
Q 3922 2834 3989 2693 
Q 4056 2553 4056 2375 
Q 4056 2188 4018 2000 
Q 3981 1813 3916 1556 
Q 3769 972 3303 506 
Q 3144 347 2951 214 
Q 2759 81 2545 4 
Q 2331 -72 2113 -72 
L 2009 -72 
L 1709 -1275 
Q 1697 -1313 1656 -1313 
L 1581 -1313 
Q 1556 -1313 1539 -1292 
Q 1522 -1272 1522 -1247 
z
" transform="scale(0.015625)"/>
     <path id="Cmr10-28" d="M 1984 -1588 
Q 1628 -1306 1370 -942 
Q 1113 -578 948 -165 
Q 784 247 703 697 
Q 622 1147 622 1600 
Q 622 2059 703 2509 
Q 784 2959 951 3375 
Q 1119 3791 1378 4153 
Q 1638 4516 1984 4788 
Q 1984 4800 2016 4800 
L 2075 4800 
Q 2094 4800 2109 4783 
Q 2125 4766 2125 4744 
Q 2125 4716 2113 4703 
Q 1800 4397 1592 4047 
Q 1384 3697 1257 3301 
Q 1131 2906 1075 2482 
Q 1019 2059 1019 1600 
Q 1019 -434 2106 -1491 
Q 2125 -1509 2125 -1544 
Q 2125 -1559 2108 -1579 
Q 2091 -1600 2075 -1600 
L 2016 -1600 
Q 1984 -1600 1984 -1588 
z
" transform="scale(0.015625)"/>
     <path id="Cmmi10-ae" d="M 1288 -72 
Q 984 -72 748 72 
Q 513 216 384 459 
Q 256 703 256 1013 
Q 256 1447 498 1872 
Q 741 2297 1142 2562 
Q 1544 2828 1984 2828 
Q 2309 2828 2556 2658 
Q 2803 2488 2931 2205 
Q 3059 1922 3059 1600 
L 3066 1172 
Q 3284 1475 3436 1801 
Q 3588 2128 3669 2478 
Q 3681 2516 3719 2516 
L 3794 2516 
Q 3853 2516 3853 2456 
Q 3853 2450 3847 2438 
Q 3772 2144 3659 1873 
Q 3547 1603 3395 1350 
Q 3244 1097 3066 891 
Q 3066 97 3250 97 
Q 3369 97 3445 167 
Q 3522 238 3580 341 
Q 3638 444 3653 447 
L 3731 447 
Q 3781 447 3781 384 
Q 3781 225 3598 76 
Q 3416 -72 3238 -72 
Q 3006 -72 2853 78 
Q 2700 228 2644 469 
Q 2344 213 1994 70 
Q 1644 -72 1288 -72 
z
M 1300 97 
Q 1984 97 2613 659 
Q 2609 697 2603 751 
Q 2597 806 2597 813 
L 2597 1503 
Q 2597 2663 1972 2663 
Q 1597 2663 1315 2342 
Q 1034 2022 892 1576 
Q 750 1131 750 763 
Q 750 484 892 290 
Q 1034 97 1300 97 
z
" transform="scale(0.015625)"/>
     <path id="Cmr10-3b" d="M 634 -1153 
Q 634 -1125 647 -1113 
Q 1094 -628 1094 25 
L 1094 56 
Q 1000 0 891 0 
Q 744 0 641 103 
Q 538 206 538 353 
Q 538 503 641 603 
Q 744 703 891 703 
Q 1113 703 1186 498 
Q 1259 294 1259 25 
Q 1259 -200 1204 -419 
Q 1150 -638 1039 -847 
Q 928 -1056 775 -1222 
Q 756 -1241 728 -1241 
Q 697 -1241 665 -1212 
Q 634 -1184 634 -1153 
z
M 538 2406 
Q 538 2497 584 2578 
Q 631 2659 714 2709 
Q 797 2759 891 2759 
Q 981 2759 1064 2709 
Q 1147 2659 1194 2578 
Q 1241 2497 1241 2406 
Q 1241 2263 1139 2158 
Q 1038 2053 891 2053 
Q 747 2053 642 2158 
Q 538 2263 538 2406 
z
" transform="scale(0.015625)"/>
     <path id="Cmmi10-b9" d="M 178 -1203 
Q 178 -1166 184 -1153 
L 1125 2625 
Q 1153 2716 1226 2772 
Q 1300 2828 1394 2828 
Q 1475 2828 1531 2779 
Q 1588 2731 1588 2650 
Q 1588 2631 1586 2620 
Q 1584 2609 1581 2597 
L 1203 1100 
Q 1141 834 1141 641 
Q 1141 403 1253 250 
Q 1366 97 1594 97 
Q 2059 97 2413 678 
Q 2416 684 2417 687 
Q 2419 691 2419 697 
L 2881 2553 
Q 2903 2638 2981 2698 
Q 3059 2759 3150 2759 
Q 3225 2759 3283 2709 
Q 3341 2659 3341 2578 
Q 3341 2541 3334 2528 
L 2875 684 
Q 2828 503 2828 372 
Q 2828 97 3016 97 
Q 3216 97 3317 344 
Q 3419 591 3494 941 
Q 3506 978 3547 978 
L 3622 978 
Q 3647 978 3664 958 
Q 3681 938 3681 916 
Q 3569 469 3436 198 
Q 3303 -72 3003 -72 
Q 2791 -72 2627 50 
Q 2463 172 2413 378 
Q 2253 178 2039 53 
Q 1825 -72 1588 -72 
Q 1188 -72 959 116 
L 634 -1178 
Q 616 -1269 541 -1325 
Q 466 -1381 372 -1381 
Q 294 -1381 236 -1332 
Q 178 -1284 178 -1203 
z
" transform="scale(0.015625)"/>
     <path id="Cmr10-29" d="M 416 -1600 
Q 359 -1600 359 -1544 
Q 359 -1516 372 -1503 
Q 1466 -434 1466 1600 
Q 1466 3634 384 4691 
Q 359 4706 359 4744 
Q 359 4766 376 4783 
Q 394 4800 416 4800 
L 475 4800 
Q 494 4800 506 4788 
Q 966 4425 1272 3906 
Q 1578 3388 1720 2800 
Q 1863 2213 1863 1600 
Q 1863 1147 1786 708 
Q 1709 269 1542 -157 
Q 1375 -584 1119 -945 
Q 863 -1306 506 -1588 
Q 494 -1600 475 -1600 
L 416 -1600 
z
" transform="scale(0.015625)"/>
     <path id="Cmmi10-6e" d="M 494 109 
Q 494 147 500 166 
L 978 2075 
Q 1025 2253 1025 2388 
Q 1025 2663 838 2663 
Q 638 2663 541 2423 
Q 444 2184 353 1819 
Q 353 1800 334 1789 
Q 316 1778 300 1778 
L 225 1778 
Q 203 1778 187 1801 
Q 172 1825 172 1844 
Q 241 2122 305 2315 
Q 369 2509 505 2668 
Q 641 2828 844 2828 
Q 1084 2828 1268 2676 
Q 1453 2525 1453 2291 
Q 1644 2541 1900 2684 
Q 2156 2828 2444 2828 
Q 2672 2828 2837 2750 
Q 3003 2672 3095 2514 
Q 3188 2356 3188 2138 
Q 3188 1875 3070 1503 
Q 2953 1131 2778 672 
Q 2688 463 2688 288 
Q 2688 97 2834 97 
Q 3084 97 3251 365 
Q 3419 634 3488 941 
Q 3500 978 3541 978 
L 3616 978 
Q 3641 978 3658 962 
Q 3675 947 3675 922 
Q 3675 916 3669 903 
Q 3581 541 3364 234 
Q 3147 -72 2822 -72 
Q 2597 -72 2437 83 
Q 2278 238 2278 459 
Q 2278 578 2328 709 
Q 2409 919 2514 1209 
Q 2619 1500 2686 1765 
Q 2753 2031 2753 2234 
Q 2753 2413 2679 2538 
Q 2606 2663 2431 2663 
Q 2197 2663 2000 2559 
Q 1803 2456 1656 2286 
Q 1509 2116 1388 1881 
L 953 141 
Q 931 53 854 -9 
Q 778 -72 684 -72 
Q 606 -72 550 -22 
Q 494 28 494 109 
z
" transform="scale(0.015625)"/>
     <path id="Cmmi10-78" d="M 500 184 
Q 613 97 819 97 
Q 1019 97 1172 289 
Q 1325 481 1381 709 
L 1672 1844 
Q 1741 2153 1741 2266 
Q 1741 2425 1652 2544 
Q 1563 2663 1403 2663 
Q 1200 2663 1022 2536 
Q 844 2409 722 2214 
Q 600 2019 550 1819 
Q 538 1778 500 1778 
L 422 1778 
Q 372 1778 372 1838 
L 372 1856 
Q 434 2094 584 2320 
Q 734 2547 951 2687 
Q 1169 2828 1416 2828 
Q 1650 2828 1839 2703 
Q 2028 2578 2106 2363 
Q 2216 2559 2386 2693 
Q 2556 2828 2759 2828 
Q 2897 2828 3040 2779 
Q 3184 2731 3275 2631 
Q 3366 2531 3366 2381 
Q 3366 2219 3261 2101 
Q 3156 1984 2994 1984 
Q 2891 1984 2822 2050 
Q 2753 2116 2753 2216 
Q 2753 2350 2845 2451 
Q 2938 2553 3066 2572 
Q 2950 2663 2747 2663 
Q 2541 2663 2389 2472 
Q 2238 2281 2175 2047 
L 1894 916 
Q 1825 659 1825 494 
Q 1825 331 1917 214 
Q 2009 97 2163 97 
Q 2463 97 2698 361 
Q 2934 625 3009 941 
Q 3022 978 3059 978 
L 3138 978 
Q 3163 978 3178 961 
Q 3194 944 3194 922 
Q 3194 916 3188 903 
Q 3097 522 2806 225 
Q 2516 -72 2150 -72 
Q 1916 -72 1727 54 
Q 1538 181 1459 397 
Q 1359 209 1182 68 
Q 1006 -72 806 -72 
Q 669 -72 523 -23 
Q 378 25 287 125 
Q 197 225 197 378 
Q 197 528 301 651 
Q 406 775 563 775 
Q 669 775 741 711 
Q 813 647 813 544 
Q 813 409 723 309 
Q 634 209 500 184 
z
" transform="scale(0.015625)"/>
     <path id="Cmr10-3d" d="M 481 850 
Q 428 850 393 890 
Q 359 931 359 978 
Q 359 1031 393 1068 
Q 428 1106 481 1106 
L 4500 1106 
Q 4547 1106 4581 1068 
Q 4616 1031 4616 978 
Q 4616 931 4581 890 
Q 4547 850 4500 850 
L 481 850 
z
M 481 2094 
Q 428 2094 393 2131 
Q 359 2169 359 2222 
Q 359 2269 393 2309 
Q 428 2350 481 2350 
L 4500 2350 
Q 4547 2350 4581 2309 
Q 4616 2269 4616 2222 
Q 4616 2169 4581 2131 
Q 4547 2094 4500 2094 
L 481 2094 
z
" transform="scale(0.015625)"/>
     <path id="Cmr10-31" d="M 594 0 
L 594 225 
Q 1394 225 1394 428 
L 1394 3788 
Q 1063 3628 556 3628 
L 556 3853 
Q 1341 3853 1741 4263 
L 1831 4263 
Q 1853 4263 1873 4245 
Q 1894 4228 1894 4206 
L 1894 428 
Q 1894 225 2694 225 
L 2694 0 
L 594 0 
z
" transform="scale(0.015625)"/>
     <path id="Cmex10-70" d="M 2713 -7425 
L 1269 -4063 
L 819 -4409 
L 703 -4294 
L 1619 -3584 
L 2969 -6725 
L 6291 197 
Q 6322 256 6400 256 
Q 6453 256 6490 218 
Q 6528 181 6528 128 
Q 6528 97 6522 84 
L 2950 -7366 
Q 2925 -7425 2853 -7425 
L 2713 -7425 
z
" transform="scale(0.015625)"/>
     <path id="Cmsy10-a2" d="M 538 1600 
Q 538 1691 584 1772 
Q 631 1853 714 1903 
Q 797 1953 891 1953 
Q 981 1953 1064 1903 
Q 1147 1853 1194 1772 
Q 1241 1691 1241 1600 
Q 1241 1456 1139 1351 
Q 1038 1247 891 1247 
Q 747 1247 642 1351 
Q 538 1456 538 1600 
z
" transform="scale(0.015625)"/>
     <path id="Cmsy10-a1" d="M 653 1472 
Q 600 1472 565 1512 
Q 531 1553 531 1600 
Q 531 1647 565 1687 
Q 600 1728 653 1728 
L 4325 1728 
Q 4375 1728 4408 1687 
Q 4441 1647 4441 1600 
Q 4441 1553 4408 1512 
Q 4375 1472 4325 1472 
L 653 1472 
z
" transform="scale(0.015625)"/>
    </defs>
    <use xlink:href="#Cmmi10-c3" transform="translate(0 0.873438)"/>
    <use xlink:href="#Cmr10-28" transform="translate(76.683828 35.539063) scale(0.460359)"/>
    <use xlink:href="#Cmmi10-ae" transform="translate(94.554218 39.1375) scale(0.7)"/>
    <use xlink:href="#Cmr10-3b" transform="translate(139.295429 39.1375) scale(0.7)"/>
    <use xlink:href="#Cmmi10-b9" transform="translate(170.966328 39.1375) scale(0.7)"/>
    <use xlink:href="#Cmr10-29" transform="translate(213.109883 35.539063) scale(0.460359)"/>
    <use xlink:href="#Cmmi10-6e" transform="translate(65.087891 -24.635937) scale(0.7)"/>
    <use xlink:href="#Cmr10-28" transform="translate(237.357617 11.076563) scale(0.453125)"/>
    <use xlink:href="#Cmmi10-78" transform="translate(254.947186 0.873438)"/>
    <use xlink:href="#Cmr10-29" transform="translate(312.027264 11.076563) scale(0.453125)"/>
    <use xlink:href="#Cmr10-3d" transform="translate(347.175427 0.873438)"/>
    <use xlink:href="#Cmr10-31" transform="translate(478.419567 38.373438) scale(0.7)"/>
    <use xlink:href="#Cmex10-70" transform="translate(442.419567 1.138281) scale(0.446556)"/>
    <use xlink:href="#Cmmi10-ae" transform="translate(495.816442 -50.182813) scale(0.7)"/>
    <use xlink:href="#Cmsy10-a2" transform="translate(579.366247 0.873438)"/>
    <use xlink:href="#Cmmi10-c3" transform="translate(624.610388 0.873438)"/>
    <use xlink:href="#Cmmi10-6e" transform="translate(689.698278 -16.132812) scale(0.7)"/>
    <use xlink:href="#Cmr10-28" transform="translate(738.082458 2.654688) scale(1.090047)"/>
    <use xlink:href="#Cmmi10-78" transform="translate(780.39447 53.478125) scale(0.7)"/>
    <use xlink:href="#Cmsy10-a1" transform="translate(832.64154 53.478125) scale(0.7)"/>
    <use xlink:href="#Cmmi10-b9" transform="translate(899.312438 53.478125) scale(0.7)"/>
    <use xlink:href="#Cmmi10-ae" transform="translate(838.39447 -23.807812) scale(0.7)"/>
    <use xlink:href="#Cmr10-29" transform="translate(953.955993 2.654688) scale(1.090047)"/>
    <path d="M 442.419567 13.373437 
L 442.419567 19.623437 
L 549.307653 19.623437 
L 549.307653 13.373437 
L 442.419567 13.373437 
z
"/>
    <path d="M 487.066442 -1.626563 
L 487.066442 2.748437 
L 549.307653 2.748437 
L 549.307653 -1.626563 
L 487.066442 -1.626563 
z
"/>
    <path d="M 780.39447 13.373437 
L 780.39447 19.623437 
L 941.455993 19.623437 
L 941.455993 13.373437 
L 780.39447 13.373437 
z
"/>
   </g>
  </g>
 </g>
</svg>
