<?xml version="1.0" encoding="utf-8" standalone="no"?>
<!DOCTYPE svg PUBLIC "-//W3C//DTD SVG 1.1//EN"
  "http://www.w3.org/Graphics/SVG/1.1/DTD/svg11.dtd">
<svg xmlns:xlink="http://www.w3.org/1999/xlink" width="579.14pt" height="163.374375pt" viewBox="0 0 579.14 163.374375" xmlns="http://www.w3.org/2000/svg" version="1.1">
 <metadata>
  <rdf:RDF xmlns:dc="http://purl.org/dc/elements/1.1/" xmlns:cc="http://creativecommons.org/ns#" xmlns:rdf="http://www.w3.org/1999/02/22-rdf-syntax-ns#">
   <cc:Work>
    <dc:type rdf:resource="http://purl.org/dc/dcmitype/StillImage"/>
    <dc:date>2024-09-12T23:41:20.654708</dc:date>
    <dc:format>image/svg+xml</dc:format>
    <dc:creator>
     <cc:Agent>
      <dc:title>Matplotlib v3.9.1.post1, https://matplotlib.org/</dc:title>
     </cc:Agent>
    </dc:creator>
   </cc:Work>
  </rdf:RDF>
 </metadata>
 <defs>
  <style type="text/css">*{stroke-linejoin: round; stroke-linecap: butt}</style>
 </defs>
 <g id="figure_1">
  <g id="patch_1">
   <path d="M 0 163.374375 
L 579.14 163.374375 
L 579.14 -0 
L 0 -0 
z
" style="fill: #ffffff"/>
  </g>
  <g id="text_1">
   <!-- $\widehat{\lambda}_{j}^{\left(\beta;\gamma; t_{0};\omega_{0}\right)}\left( t\right)=\lambda_{j}^{\left(\beta;\gamma; t_{0};\omega_{0}\right)}\left( t\right)+\tilde{\lambda}_{j}^{\left(\beta;\gamma; t_{0};\omega_{0}\right)}\left( t\right)=$ -->
   <g transform="translate(85.74 28.76) scale(0.22 -0.22)">
    <defs>
     <path id="Cmex10-63" d="M 25 3659 
L -25 3841 
L 3200 4941 
L 6419 3841 
L 6369 3659 
L 3200 4538 
L 25 3659 
z
" transform="scale(0.015625)"/>
     <path id="Cmmi10-b8" d="M 325 109 
Q 325 203 409 288 
L 2209 2053 
L 1575 3834 
Q 1500 4038 1417 4156 
Q 1334 4275 1178 4275 
Q 1106 4275 1106 4359 
Q 1113 4397 1138 4419 
Q 1163 4441 1203 4441 
Q 1875 4441 2016 4044 
L 3316 416 
Q 3400 144 3488 50 
Q 3519 3 3519 -13 
Q 3519 -72 3469 -72 
L 3122 -72 
Q 2963 -25 2869 206 
L 2284 1844 
L 738 25 
Q 622 -84 531 -84 
Q 450 -84 387 -28 
Q 325 28 325 109 
z
" transform="scale(0.015625)"/>
     <path id="Cmr10-28" d="M 1984 -1588 
Q 1628 -1306 1370 -942 
Q 1113 -578 948 -165 
Q 784 247 703 697 
Q 622 1147 622 1600 
Q 622 2059 703 2509 
Q 784 2959 951 3375 
Q 1119 3791 1378 4153 
Q 1638 4516 1984 4788 
Q 1984 4800 2016 4800 
L 2075 4800 
Q 2094 4800 2109 4783 
Q 2125 4766 2125 4744 
Q 2125 4716 2113 4703 
Q 1800 4397 1592 4047 
Q 1384 3697 1257 3301 
Q 1131 2906 1075 2482 
Q 1019 2059 1019 1600 
Q 1019 -434 2106 -1491 
Q 2125 -1509 2125 -1544 
Q 2125 -1559 2108 -1579 
Q 2091 -1600 2075 -1600 
L 2016 -1600 
Q 1984 -1600 1984 -1588 
z
" transform="scale(0.015625)"/>
     <path id="Cmmi10-af" d="M 172 -1241 
Q 153 -1241 137 -1219 
Q 122 -1197 122 -1178 
L 1106 2778 
Q 1191 3097 1353 3397 
Q 1516 3697 1761 3955 
Q 2006 4213 2300 4363 
Q 2594 4513 2925 4513 
Q 3163 4513 3355 4408 
Q 3547 4303 3658 4114 
Q 3769 3925 3769 3688 
Q 3769 3459 3681 3251 
Q 3594 3044 3437 2864 
Q 3281 2684 3103 2572 
Q 3206 2506 3287 2404 
Q 3369 2303 3419 2192 
Q 3469 2081 3497 1945 
Q 3525 1809 3525 1691 
Q 3525 1363 3384 1044 
Q 3244 725 3001 465 
Q 2759 206 2446 54 
Q 2134 -97 1806 -97 
Q 1447 -97 1159 100 
Q 872 297 763 634 
L 300 -1203 
Q 300 -1241 250 -1241 
L 172 -1241 
z
M 1819 78 
Q 2106 78 2339 267 
Q 2572 456 2723 742 
Q 2875 1028 2954 1348 
Q 3034 1669 3034 1931 
Q 3034 2256 2847 2444 
Q 2628 2363 2419 2363 
Q 1913 2363 1913 2534 
Q 1913 2759 2491 2759 
Q 2697 2759 2869 2694 
Q 3006 2800 3118 3006 
Q 3231 3213 3289 3438 
Q 3347 3663 3347 3859 
Q 3347 4069 3236 4208 
Q 3125 4347 2913 4347 
Q 2522 4347 2186 4106 
Q 1850 3866 1619 3498 
Q 1388 3131 1288 2741 
L 934 1325 
Q 900 1178 891 997 
Q 891 597 1153 337 
Q 1416 78 1819 78 
z
M 2106 2553 
Q 2203 2528 2425 2528 
Q 2534 2528 2644 2566 
Q 2638 2572 2619 2572 
Q 2550 2591 2472 2591 
Q 2181 2591 2106 2553 
z
" transform="scale(0.015625)"/>
     <path id="Cmr10-3b" d="M 634 -1153 
Q 634 -1125 647 -1113 
Q 1094 -628 1094 25 
L 1094 56 
Q 1000 0 891 0 
Q 744 0 641 103 
Q 538 206 538 353 
Q 538 503 641 603 
Q 744 703 891 703 
Q 1113 703 1186 498 
Q 1259 294 1259 25 
Q 1259 -200 1204 -419 
Q 1150 -638 1039 -847 
Q 928 -1056 775 -1222 
Q 756 -1241 728 -1241 
Q 697 -1241 665 -1212 
Q 634 -1184 634 -1153 
z
M 538 2406 
Q 538 2497 584 2578 
Q 631 2659 714 2709 
Q 797 2759 891 2759 
Q 981 2759 1064 2709 
Q 1147 2659 1194 2578 
Q 1241 2497 1241 2406 
Q 1241 2263 1139 2158 
Q 1038 2053 891 2053 
Q 747 2053 642 2158 
Q 538 2263 538 2406 
z
" transform="scale(0.015625)"/>
     <path id="Cmmi10-b0" d="M 1888 -1253 
Q 1888 -1109 1952 -834 
Q 2016 -559 2108 -248 
Q 2200 63 2266 263 
Q 2291 581 2291 744 
Q 2291 1156 2209 1511 
Q 2128 1866 1903 2105 
Q 1678 2344 1275 2344 
Q 1063 2344 852 2253 
Q 641 2163 489 2000 
Q 338 1838 281 1631 
Q 269 1594 231 1594 
L 153 1594 
Q 103 1594 103 1650 
L 103 1672 
Q 175 1959 358 2226 
Q 541 2494 805 2661 
Q 1069 2828 1363 2828 
Q 1663 2828 1881 2625 
Q 2100 2422 2231 2109 
Q 2363 1797 2420 1478 
Q 2478 1159 2478 878 
Q 2800 1753 3200 2534 
L 3297 2741 
Q 3316 2759 3341 2759 
L 3419 2759 
Q 3469 2759 3469 2700 
Q 3469 2688 3456 2663 
L 3359 2463 
Q 3081 1909 2848 1340 
Q 2616 772 2450 244 
Q 2425 28 2354 -347 
Q 2284 -722 2184 -1045 
Q 2084 -1369 1984 -1381 
Q 1888 -1381 1888 -1253 
z
" transform="scale(0.015625)"/>
     <path id="Cmmi10-74" d="M 397 519 
Q 397 613 416 697 
L 878 2534 
L 206 2534 
Q 141 2534 141 2619 
Q 166 2759 225 2759 
L 934 2759 
L 1191 3803 
Q 1216 3888 1291 3947 
Q 1366 4006 1459 4006 
Q 1541 4006 1595 3957 
Q 1650 3909 1650 3828 
Q 1650 3809 1648 3798 
Q 1647 3788 1644 3775 
L 1388 2759 
L 2047 2759 
Q 2113 2759 2113 2675 
Q 2109 2659 2100 2621 
Q 2091 2584 2075 2559 
Q 2059 2534 2028 2534 
L 1331 2534 
L 872 684 
Q 825 503 825 372 
Q 825 97 1013 97 
Q 1294 97 1511 361 
Q 1728 625 1844 941 
Q 1869 978 1894 978 
L 1972 978 
Q 1997 978 2012 961 
Q 2028 944 2028 922 
Q 2028 909 2022 903 
Q 1881 516 1612 222 
Q 1344 -72 997 -72 
Q 744 -72 570 93 
Q 397 259 397 519 
z
" transform="scale(0.015625)"/>
     <path id="Cmr10-30" d="M 1600 -141 
Q 816 -141 533 504 
Q 250 1150 250 2041 
Q 250 2597 351 3087 
Q 453 3578 754 3920 
Q 1056 4263 1600 4263 
Q 2022 4263 2290 4056 
Q 2559 3850 2700 3523 
Q 2841 3197 2892 2823 
Q 2944 2450 2944 2041 
Q 2944 1491 2842 1011 
Q 2741 531 2444 195 
Q 2147 -141 1600 -141 
z
M 1600 25 
Q 1956 25 2131 390 
Q 2306 756 2347 1200 
Q 2388 1644 2388 2144 
Q 2388 2625 2347 3031 
Q 2306 3438 2132 3767 
Q 1959 4097 1600 4097 
Q 1238 4097 1063 3765 
Q 888 3434 847 3029 
Q 806 2625 806 2144 
Q 806 1788 823 1472 
Q 841 1156 916 820 
Q 991 484 1158 254 
Q 1325 25 1600 25 
z
" transform="scale(0.015625)"/>
     <path id="Cmmi10-21" d="M 775 -72 
Q 413 -72 252 193 
Q 91 459 91 844 
Q 91 1097 136 1339 
Q 181 1581 273 1829 
Q 366 2078 484 2295 
Q 603 2513 750 2719 
Q 778 2759 825 2759 
Q 866 2759 891 2734 
Q 916 2709 916 2675 
Q 916 2641 897 2613 
Q 313 1809 313 1131 
Q 313 838 448 627 
Q 584 416 863 416 
Q 1103 416 1308 556 
Q 1513 697 1663 916 
Q 1663 1028 1702 1265 
Q 1741 1503 1823 1689 
Q 1906 1875 2022 1875 
Q 2169 1875 2169 1703 
Q 2169 1603 2126 1451 
Q 2084 1300 2032 1169 
Q 1981 1038 1906 872 
Q 1981 416 2363 416 
Q 2584 416 2807 544 
Q 3031 672 3203 880 
Q 3375 1088 3473 1328 
Q 3572 1569 3572 1784 
Q 3572 1978 3511 2086 
Q 3450 2194 3350 2312 
Q 3250 2431 3250 2503 
Q 3250 2628 3356 2731 
Q 3463 2834 3584 2834 
Q 3741 2834 3806 2692 
Q 3872 2550 3872 2369 
Q 3872 2075 3755 1628 
Q 3638 1181 3488 884 
Q 3281 481 2970 204 
Q 2659 -72 2272 -72 
Q 2025 -72 1873 76 
Q 1722 225 1678 481 
Q 1500 228 1272 78 
Q 1044 -72 775 -72 
z
" transform="scale(0.015625)"/>
     <path id="Cmr10-29" d="M 416 -1600 
Q 359 -1600 359 -1544 
Q 359 -1516 372 -1503 
Q 1466 -434 1466 1600 
Q 1466 3634 384 4691 
Q 359 4706 359 4744 
Q 359 4766 376 4783 
Q 394 4800 416 4800 
L 475 4800 
Q 494 4800 506 4788 
Q 966 4425 1272 3906 
Q 1578 3388 1720 2800 
Q 1863 2213 1863 1600 
Q 1863 1147 1786 708 
Q 1709 269 1542 -157 
Q 1375 -584 1119 -945 
Q 863 -1306 506 -1588 
Q 494 -1600 475 -1600 
L 416 -1600 
z
" transform="scale(0.015625)"/>
     <path id="Cmmi10-6a" d="M -84 -909 
Q -84 -753 23 -639 
Q 131 -525 288 -525 
Q 391 -525 461 -589 
Q 531 -653 531 -756 
Q 531 -878 454 -976 
Q 378 -1075 263 -1106 
Q 375 -1147 488 -1147 
Q 759 -1147 959 -895 
Q 1159 -644 1241 -331 
L 1844 2075 
Q 1888 2259 1888 2388 
Q 1888 2663 1697 2663 
Q 1416 2663 1205 2408 
Q 994 2153 863 1819 
Q 850 1778 813 1778 
L 738 1778 
Q 684 1778 684 1838 
L 684 1856 
Q 828 2241 1093 2534 
Q 1359 2828 1709 2828 
Q 1975 2828 2145 2662 
Q 2316 2497 2316 2241 
Q 2316 2150 2297 2059 
L 1691 -372 
Q 1625 -631 1440 -847 
Q 1256 -1063 1000 -1188 
Q 744 -1313 475 -1313 
Q 259 -1313 87 -1209 
Q -84 -1106 -84 -909 
z
M 1941 3878 
Q 1941 4019 2050 4125 
Q 2159 4231 2297 4231 
Q 2406 4231 2476 4164 
Q 2547 4097 2547 3994 
Q 2547 3850 2433 3742 
Q 2319 3634 2181 3634 
Q 2078 3634 2009 3706 
Q 1941 3778 1941 3878 
z
" transform="scale(0.015625)"/>
     <path id="Cmr10-3d" d="M 481 850 
Q 428 850 393 890 
Q 359 931 359 978 
Q 359 1031 393 1068 
Q 428 1106 481 1106 
L 4500 1106 
Q 4547 1106 4581 1068 
Q 4616 1031 4616 978 
Q 4616 931 4581 890 
Q 4547 850 4500 850 
L 481 850 
z
M 481 2094 
Q 428 2094 393 2131 
Q 359 2169 359 2222 
Q 359 2269 393 2309 
Q 428 2350 481 2350 
L 4500 2350 
Q 4547 2350 4581 2309 
Q 4616 2269 4616 2222 
Q 4616 2169 4581 2131 
Q 4547 2094 4500 2094 
L 481 2094 
z
" transform="scale(0.015625)"/>
     <path id="Cmr10-2b" d="M 481 1472 
Q 428 1472 393 1512 
Q 359 1553 359 1600 
Q 359 1647 393 1687 
Q 428 1728 481 1728 
L 2363 1728 
L 2363 3616 
Q 2363 3666 2400 3698 
Q 2438 3731 2491 3731 
Q 2538 3731 2578 3698 
Q 2619 3666 2619 3616 
L 2619 1728 
L 4500 1728 
Q 4547 1728 4581 1687 
Q 4616 1647 4616 1600 
Q 4616 1553 4581 1512 
Q 4547 1472 4500 1472 
L 2619 1472 
L 2619 -416 
Q 2619 -466 2578 -498 
Q 2538 -531 2491 -531 
Q 2438 -531 2400 -498 
Q 2363 -466 2363 -416 
L 2363 1472 
L 481 1472 
z
" transform="scale(0.015625)"/>
     <path id="Cmr10-7e" d="M 531 3769 
L 716 3988 
Q 966 4275 1216 4275 
Q 1338 4275 1483 4203 
Q 1628 4131 1773 4059 
Q 1919 3988 2041 3988 
Q 2297 3988 2534 4275 
L 2663 4166 
L 2478 3950 
Q 2225 3659 1978 3659 
Q 1856 3659 1711 3732 
Q 1566 3806 1420 3878 
Q 1275 3950 1153 3950 
Q 897 3950 659 3659 
L 531 3769 
z
" transform="scale(0.015625)"/>
    </defs>
    <use xlink:href="#Cmex10-63" transform="translate(7.80957 49.053125) scale(0.579027)"/>
    <use xlink:href="#Cmmi10-b8" transform="translate(0 0.25625)"/>
    <use xlink:href="#Cmr10-28" transform="translate(62.764922 49.645313) scale(0.644656)"/>
    <use xlink:href="#Cmmi10-af" transform="translate(87.78942 48.628125) scale(0.7)"/>
    <use xlink:href="#Cmr10-3b" transform="translate(127.335318 48.628125) scale(0.7)"/>
    <use xlink:href="#Cmmi10-b0" transform="translate(159.006217 48.628125) scale(0.7)"/>
    <use xlink:href="#Cmr10-3b" transform="translate(195.202506 48.628125) scale(0.7)"/>
    <use xlink:href="#Cmmi10-74" transform="translate(226.873404 48.628125) scale(0.7)"/>
    <use xlink:href="#Cmr10-30" transform="translate(252.132193 36.72375) scale(0.49)"/>
    <use xlink:href="#Cmr10-3b" transform="translate(281.096334 48.628125) scale(0.7)"/>
    <use xlink:href="#Cmmi10-21" transform="translate(312.767232 48.628125) scale(0.7)"/>
    <use xlink:href="#Cmr10-30" transform="translate(356.312154 36.72375) scale(0.49)"/>
    <use xlink:href="#Cmr10-29" transform="translate(385.276295 49.645313) scale(0.644656)"/>
    <use xlink:href="#Cmmi10-6a" transform="translate(62.764922 -25.253125) scale(0.7)"/>
    <use xlink:href="#Cmr10-28" transform="translate(416.678137 15.06875) scale(0.637188)"/>
    <use xlink:href="#Cmmi10-74" transform="translate(441.41271 0.25625)"/>
    <use xlink:href="#Cmr10-29" transform="translate(477.496694 15.06875) scale(0.637188)"/>
    <use xlink:href="#Cmr10-3d" transform="translate(519.789861 0.25625)"/>
    <use xlink:href="#Cmmi10-b8" transform="translate(615.034002 0.25625)"/>
    <use xlink:href="#Cmr10-28" transform="translate(684.930721 49.645313) scale(0.644656)"/>
    <use xlink:href="#Cmmi10-af" transform="translate(709.955219 48.628125) scale(0.7)"/>
    <use xlink:href="#Cmr10-3b" transform="translate(749.501117 48.628125) scale(0.7)"/>
    <use xlink:href="#Cmmi10-b0" transform="translate(781.172016 48.628125) scale(0.7)"/>
    <use xlink:href="#Cmr10-3b" transform="translate(817.368305 48.628125) scale(0.7)"/>
    <use xlink:href="#Cmmi10-74" transform="translate(849.039203 48.628125) scale(0.7)"/>
    <use xlink:href="#Cmr10-30" transform="translate(874.297992 36.72375) scale(0.49)"/>
    <use xlink:href="#Cmr10-3b" transform="translate(903.262133 48.628125) scale(0.7)"/>
    <use xlink:href="#Cmmi10-21" transform="translate(934.933031 48.628125) scale(0.7)"/>
    <use xlink:href="#Cmr10-30" transform="translate(978.477953 36.72375) scale(0.49)"/>
    <use xlink:href="#Cmr10-29" transform="translate(1007.442094 49.645313) scale(0.644656)"/>
    <use xlink:href="#Cmmi10-6a" transform="translate(673.334783 -25.253125) scale(0.7)"/>
    <use xlink:href="#Cmr10-28" transform="translate(1038.843936 15.06875) scale(0.637188)"/>
    <use xlink:href="#Cmmi10-74" transform="translate(1063.578509 0.25625)"/>
    <use xlink:href="#Cmr10-29" transform="translate(1099.662493 15.06875) scale(0.637188)"/>
    <use xlink:href="#Cmr10-2b" transform="translate(1141.95566 0.25625)"/>
    <use xlink:href="#Cmr10-7e" transform="translate(1248.478121 24.975)"/>
    <use xlink:href="#Cmmi10-b8" transform="translate(1237.199801 0.25625)"/>
    <use xlink:href="#Cmr10-28" transform="translate(1299.964723 49.645313) scale(0.644656)"/>
    <use xlink:href="#Cmmi10-af" transform="translate(1324.989221 48.628125) scale(0.7)"/>
    <use xlink:href="#Cmr10-3b" transform="translate(1364.535119 48.628125) scale(0.7)"/>
    <use xlink:href="#Cmmi10-b0" transform="translate(1396.206018 48.628125) scale(0.7)"/>
    <use xlink:href="#Cmr10-3b" transform="translate(1432.402307 48.628125) scale(0.7)"/>
    <use xlink:href="#Cmmi10-74" transform="translate(1464.073205 48.628125) scale(0.7)"/>
    <use xlink:href="#Cmr10-30" transform="translate(1489.331994 36.72375) scale(0.49)"/>
    <use xlink:href="#Cmr10-3b" transform="translate(1518.296135 48.628125) scale(0.7)"/>
    <use xlink:href="#Cmmi10-21" transform="translate(1549.967033 48.628125) scale(0.7)"/>
    <use xlink:href="#Cmr10-30" transform="translate(1593.511955 36.72375) scale(0.49)"/>
    <use xlink:href="#Cmr10-29" transform="translate(1622.476096 49.645313) scale(0.644656)"/>
    <use xlink:href="#Cmmi10-6a" transform="translate(1299.964723 -25.253125) scale(0.7)"/>
    <use xlink:href="#Cmr10-28" transform="translate(1653.877938 15.06875) scale(0.637188)"/>
    <use xlink:href="#Cmmi10-74" transform="translate(1678.612511 0.25625)"/>
    <use xlink:href="#Cmr10-29" transform="translate(1714.696495 15.06875) scale(0.637188)"/>
    <use xlink:href="#Cmr10-3d" transform="translate(1756.989662 0.25625)"/>
   </g>
   <!--  -->
   <g transform="translate(289.57 57.619875) scale(0.22 -0.22)"/>
   <!-- $\left(exp\left(i\cdot\omega_{0}\cdot\left(t-t_{0}\right)\right)+exp\left(-i\cdot\omega_{0}\cdot\left(t-t_{0}\right)\right)\right)\cdot\psi_{j}^{\left(\alpha=\beta;\mu=t_{0}\right)}\left( t\right)=$ -->
   <g transform="translate(7.2 88.067188) scale(0.22 -0.22)">
    <defs>
     <path id="Cmmi10-65" d="M 1288 -72 
Q 981 -72 751 87 
Q 522 247 401 517 
Q 281 788 281 1088 
Q 281 1544 511 1945 
Q 741 2347 1134 2587 
Q 1528 2828 1978 2828 
Q 2253 2828 2458 2686 
Q 2663 2544 2663 2278 
Q 2663 1909 2369 1729 
Q 2075 1550 1706 1508 
Q 1338 1466 891 1466 
L 872 1466 
Q 769 1084 769 813 
Q 769 528 900 312 
Q 1031 97 1300 97 
Q 1681 97 2032 272 
Q 2384 447 2606 756 
Q 2625 775 2656 775 
Q 2688 775 2720 739 
Q 2753 703 2753 672 
Q 2753 647 2741 634 
Q 2506 306 2109 117 
Q 1713 -72 1288 -72 
z
M 909 1631 
Q 1281 1631 1597 1665 
Q 1913 1700 2169 1839 
Q 2425 1978 2425 2272 
Q 2425 2391 2359 2480 
Q 2294 2569 2189 2616 
Q 2084 2663 1972 2663 
Q 1700 2663 1483 2516 
Q 1266 2369 1125 2133 
Q 984 1897 909 1631 
z
" transform="scale(0.015625)"/>
     <path id="Cmmi10-78" d="M 500 184 
Q 613 97 819 97 
Q 1019 97 1172 289 
Q 1325 481 1381 709 
L 1672 1844 
Q 1741 2153 1741 2266 
Q 1741 2425 1652 2544 
Q 1563 2663 1403 2663 
Q 1200 2663 1022 2536 
Q 844 2409 722 2214 
Q 600 2019 550 1819 
Q 538 1778 500 1778 
L 422 1778 
Q 372 1778 372 1838 
L 372 1856 
Q 434 2094 584 2320 
Q 734 2547 951 2687 
Q 1169 2828 1416 2828 
Q 1650 2828 1839 2703 
Q 2028 2578 2106 2363 
Q 2216 2559 2386 2693 
Q 2556 2828 2759 2828 
Q 2897 2828 3040 2779 
Q 3184 2731 3275 2631 
Q 3366 2531 3366 2381 
Q 3366 2219 3261 2101 
Q 3156 1984 2994 1984 
Q 2891 1984 2822 2050 
Q 2753 2116 2753 2216 
Q 2753 2350 2845 2451 
Q 2938 2553 3066 2572 
Q 2950 2663 2747 2663 
Q 2541 2663 2389 2472 
Q 2238 2281 2175 2047 
L 1894 916 
Q 1825 659 1825 494 
Q 1825 331 1917 214 
Q 2009 97 2163 97 
Q 2463 97 2698 361 
Q 2934 625 3009 941 
Q 3022 978 3059 978 
L 3138 978 
Q 3163 978 3178 961 
Q 3194 944 3194 922 
Q 3194 916 3188 903 
Q 3097 522 2806 225 
Q 2516 -72 2150 -72 
Q 1916 -72 1727 54 
Q 1538 181 1459 397 
Q 1359 209 1182 68 
Q 1006 -72 806 -72 
Q 669 -72 523 -23 
Q 378 25 287 125 
Q 197 225 197 378 
Q 197 528 301 651 
Q 406 775 563 775 
Q 669 775 741 711 
Q 813 647 813 544 
Q 813 409 723 309 
Q 634 209 500 184 
z
" transform="scale(0.015625)"/>
     <path id="Cmmi10-70" d="M -159 -1241 
Q -219 -1241 -219 -1159 
Q -197 -1019 -134 -1019 
Q 66 -1019 145 -983 
Q 225 -947 269 -800 
L 991 2081 
Q 1038 2200 1038 2388 
Q 1038 2663 850 2663 
Q 650 2663 553 2423 
Q 456 2184 366 1819 
Q 366 1778 313 1778 
L 238 1778 
Q 222 1778 203 1801 
Q 184 1825 184 1844 
Q 253 2122 317 2315 
Q 381 2509 517 2668 
Q 653 2828 856 2828 
Q 1075 2828 1240 2704 
Q 1406 2581 1453 2369 
Q 1628 2572 1840 2700 
Q 2053 2828 2278 2828 
Q 2547 2828 2745 2684 
Q 2944 2541 3044 2308 
Q 3144 2075 3144 1806 
Q 3144 1394 2933 953 
Q 2722 513 2361 220 
Q 2000 -72 1588 -72 
Q 1400 -72 1248 34 
Q 1097 141 1013 313 
L 722 -825 
Q 706 -919 703 -934 
Q 703 -1019 1125 -1019 
Q 1191 -1019 1191 -1100 
Q 1169 -1184 1155 -1212 
Q 1141 -1241 1081 -1241 
L -159 -1241 
z
M 1594 97 
Q 1816 97 2006 280 
Q 2197 463 2316 691 
Q 2403 863 2479 1111 
Q 2556 1359 2612 1640 
Q 2669 1922 2669 2088 
Q 2669 2234 2630 2362 
Q 2591 2491 2502 2577 
Q 2413 2663 2266 2663 
Q 2031 2663 1823 2495 
Q 1616 2328 1447 2081 
L 1447 2059 
L 1094 647 
Q 1138 419 1263 258 
Q 1388 97 1594 97 
z
" transform="scale(0.015625)"/>
     <path id="Cmmi10-69" d="M 500 459 
Q 500 578 550 709 
L 1069 2088 
Q 1153 2322 1153 2472 
Q 1153 2663 1013 2663 
Q 759 2663 595 2402 
Q 431 2141 353 1819 
Q 341 1778 300 1778 
L 225 1778 
Q 172 1778 172 1838 
L 172 1856 
Q 275 2238 487 2533 
Q 700 2828 1025 2828 
Q 1253 2828 1411 2678 
Q 1569 2528 1569 2297 
Q 1569 2178 1516 2047 
L 997 672 
Q 909 459 909 288 
Q 909 97 1056 97 
Q 1306 97 1473 364 
Q 1641 631 1709 941 
Q 1722 978 1759 978 
L 1838 978 
Q 1863 978 1878 961 
Q 1894 944 1894 922 
Q 1894 916 1888 903 
Q 1800 541 1583 234 
Q 1366 -72 1044 -72 
Q 819 -72 659 83 
Q 500 238 500 459 
z
M 1222 3878 
Q 1222 4013 1334 4122 
Q 1447 4231 1581 4231 
Q 1691 4231 1761 4164 
Q 1831 4097 1831 3994 
Q 1831 3850 1717 3742 
Q 1603 3634 1466 3634 
Q 1363 3634 1292 3704 
Q 1222 3775 1222 3878 
z
" transform="scale(0.015625)"/>
     <path id="Cmsy10-a2" d="M 538 1600 
Q 538 1691 584 1772 
Q 631 1853 714 1903 
Q 797 1953 891 1953 
Q 981 1953 1064 1903 
Q 1147 1853 1194 1772 
Q 1241 1691 1241 1600 
Q 1241 1456 1139 1351 
Q 1038 1247 891 1247 
Q 747 1247 642 1351 
Q 538 1456 538 1600 
z
" transform="scale(0.015625)"/>
     <path id="Cmsy10-a1" d="M 653 1472 
Q 600 1472 565 1512 
Q 531 1553 531 1600 
Q 531 1647 565 1687 
Q 600 1728 653 1728 
L 4325 1728 
Q 4375 1728 4408 1687 
Q 4441 1647 4441 1600 
Q 4441 1553 4408 1512 
Q 4375 1472 4325 1472 
L 653 1472 
z
" transform="scale(0.015625)"/>
     <path id="Cmmi10-c3" d="M 1522 -1247 
L 1825 -56 
Q 1547 -56 1286 48 
Q 1025 153 864 356 
Q 703 559 703 850 
Q 703 1016 762 1228 
Q 822 1441 889 1619 
Q 956 1797 1069 2088 
Q 1153 2322 1153 2472 
Q 1153 2663 1013 2663 
Q 759 2663 595 2402 
Q 431 2141 353 1819 
Q 341 1778 300 1778 
L 225 1778 
Q 172 1778 172 1838 
L 172 1856 
Q 275 2238 487 2533 
Q 700 2828 1025 2828 
Q 1253 2828 1411 2678 
Q 1569 2528 1569 2297 
Q 1569 2178 1516 2047 
Q 1403 1756 1337 1584 
Q 1272 1413 1212 1195 
Q 1153 978 1153 806 
Q 1153 494 1348 322 
Q 1544 150 1863 109 
L 2938 4403 
Q 2950 4441 2988 4441 
L 3066 4441 
Q 3116 4441 3116 4378 
L 2047 97 
L 2119 97 
Q 2388 97 2686 256 
Q 2984 416 3229 675 
Q 3475 934 3619 1232 
Q 3763 1531 3763 1791 
Q 3763 1984 3700 2092 
Q 3638 2200 3538 2317 
Q 3438 2434 3438 2503 
Q 3438 2628 3541 2731 
Q 3644 2834 3769 2834 
Q 3922 2834 3989 2693 
Q 4056 2553 4056 2375 
Q 4056 2188 4018 2000 
Q 3981 1813 3916 1556 
Q 3769 972 3303 506 
Q 3144 347 2951 214 
Q 2759 81 2545 4 
Q 2331 -72 2113 -72 
L 2009 -72 
L 1709 -1275 
Q 1697 -1313 1656 -1313 
L 1581 -1313 
Q 1556 -1313 1539 -1292 
Q 1522 -1272 1522 -1247 
z
" transform="scale(0.015625)"/>
     <path id="Cmmi10-ae" d="M 1288 -72 
Q 984 -72 748 72 
Q 513 216 384 459 
Q 256 703 256 1013 
Q 256 1447 498 1872 
Q 741 2297 1142 2562 
Q 1544 2828 1984 2828 
Q 2309 2828 2556 2658 
Q 2803 2488 2931 2205 
Q 3059 1922 3059 1600 
L 3066 1172 
Q 3284 1475 3436 1801 
Q 3588 2128 3669 2478 
Q 3681 2516 3719 2516 
L 3794 2516 
Q 3853 2516 3853 2456 
Q 3853 2450 3847 2438 
Q 3772 2144 3659 1873 
Q 3547 1603 3395 1350 
Q 3244 1097 3066 891 
Q 3066 97 3250 97 
Q 3369 97 3445 167 
Q 3522 238 3580 341 
Q 3638 444 3653 447 
L 3731 447 
Q 3781 447 3781 384 
Q 3781 225 3598 76 
Q 3416 -72 3238 -72 
Q 3006 -72 2853 78 
Q 2700 228 2644 469 
Q 2344 213 1994 70 
Q 1644 -72 1288 -72 
z
M 1300 97 
Q 1984 97 2613 659 
Q 2609 697 2603 751 
Q 2597 806 2597 813 
L 2597 1503 
Q 2597 2663 1972 2663 
Q 1597 2663 1315 2342 
Q 1034 2022 892 1576 
Q 750 1131 750 763 
Q 750 484 892 290 
Q 1034 97 1300 97 
z
" transform="scale(0.015625)"/>
     <path id="Cmmi10-b9" d="M 178 -1203 
Q 178 -1166 184 -1153 
L 1125 2625 
Q 1153 2716 1226 2772 
Q 1300 2828 1394 2828 
Q 1475 2828 1531 2779 
Q 1588 2731 1588 2650 
Q 1588 2631 1586 2620 
Q 1584 2609 1581 2597 
L 1203 1100 
Q 1141 834 1141 641 
Q 1141 403 1253 250 
Q 1366 97 1594 97 
Q 2059 97 2413 678 
Q 2416 684 2417 687 
Q 2419 691 2419 697 
L 2881 2553 
Q 2903 2638 2981 2698 
Q 3059 2759 3150 2759 
Q 3225 2759 3283 2709 
Q 3341 2659 3341 2578 
Q 3341 2541 3334 2528 
L 2875 684 
Q 2828 503 2828 372 
Q 2828 97 3016 97 
Q 3216 97 3317 344 
Q 3419 591 3494 941 
Q 3506 978 3547 978 
L 3622 978 
Q 3647 978 3664 958 
Q 3681 938 3681 916 
Q 3569 469 3436 198 
Q 3303 -72 3003 -72 
Q 2791 -72 2627 50 
Q 2463 172 2413 378 
Q 2253 178 2039 53 
Q 1825 -72 1588 -72 
Q 1188 -72 959 116 
L 634 -1178 
Q 616 -1269 541 -1325 
Q 466 -1381 372 -1381 
Q 294 -1381 236 -1332 
Q 178 -1284 178 -1203 
z
" transform="scale(0.015625)"/>
    </defs>
    <use xlink:href="#Cmr10-28" transform="translate(0 2.240625) scale(0.855141)"/>
    <use xlink:href="#Cmmi10-65" transform="translate(33.189697 0.25625)"/>
    <use xlink:href="#Cmmi10-78" transform="translate(79.674072 0.25625)"/>
    <use xlink:href="#Cmmi10-70" transform="translate(136.75415 0.25625)"/>
    <use xlink:href="#Cmr10-28" transform="translate(187.047119 2.879687) scale(0.846578)"/>
    <use xlink:href="#Cmmi10-69" transform="translate(219.909286 0.25625)"/>
    <use xlink:href="#Cmsy10-a2" transform="translate(271.891708 0.25625)"/>
    <use xlink:href="#Cmmi10-21" transform="translate(317.135849 0.25625)"/>
    <use xlink:href="#Cmr10-30" transform="translate(379.34288 -16.75) scale(0.7)"/>
    <use xlink:href="#Cmsy10-a2" transform="translate(438.278818 0.25625)"/>
    <use xlink:href="#Cmr10-28" transform="translate(483.522958 1.989062) scale(0.811422)"/>
    <use xlink:href="#Cmmi10-74" transform="translate(515.02041 0.25625)"/>
    <use xlink:href="#Cmsy10-a1" transform="translate(568.662988 0.25625)"/>
    <use xlink:href="#Cmmi10-74" transform="translate(663.907129 0.25625)"/>
    <use xlink:href="#Cmr10-30" transform="translate(699.991113 -16.75) scale(0.7)"/>
    <use xlink:href="#Cmr10-29" transform="translate(741.368457 1.989062) scale(0.811422)"/>
    <use xlink:href="#Cmr10-29" transform="translate(772.865909 2.879687) scale(0.846578)"/>
    <use xlink:href="#Cmr10-2b" transform="translate(823.28667 0.25625)"/>
    <use xlink:href="#Cmmi10-65" transform="translate(918.530811 0.25625)"/>
    <use xlink:href="#Cmmi10-78" transform="translate(965.015186 0.25625)"/>
    <use xlink:href="#Cmmi10-70" transform="translate(1022.095264 0.25625)"/>
    <use xlink:href="#Cmr10-28" transform="translate(1072.388232 2.879687) scale(0.846578)"/>
    <use xlink:href="#Cmsy10-a1" transform="translate(1105.2504 0.25625)"/>
    <use xlink:href="#Cmmi10-69" transform="translate(1182.935947 0.25625)"/>
    <use xlink:href="#Cmsy10-a2" transform="translate(1234.918369 0.25625)"/>
    <use xlink:href="#Cmmi10-21" transform="translate(1280.162509 0.25625)"/>
    <use xlink:href="#Cmr10-30" transform="translate(1342.36954 -16.75) scale(0.7)"/>
    <use xlink:href="#Cmsy10-a2" transform="translate(1401.305478 0.25625)"/>
    <use xlink:href="#Cmr10-28" transform="translate(1446.549619 1.989062) scale(0.811422)"/>
    <use xlink:href="#Cmmi10-74" transform="translate(1478.04707 0.25625)"/>
    <use xlink:href="#Cmsy10-a1" transform="translate(1531.689648 0.25625)"/>
    <use xlink:href="#Cmmi10-74" transform="translate(1626.933789 0.25625)"/>
    <use xlink:href="#Cmr10-30" transform="translate(1663.017773 -16.75) scale(0.7)"/>
    <use xlink:href="#Cmr10-29" transform="translate(1704.395117 1.989062) scale(0.811422)"/>
    <use xlink:href="#Cmr10-29" transform="translate(1735.892569 2.879687) scale(0.846578)"/>
    <use xlink:href="#Cmr10-29" transform="translate(1768.754736 2.240625) scale(0.855141)"/>
    <use xlink:href="#Cmsy10-a2" transform="translate(1819.503027 0.25625)"/>
    <use xlink:href="#Cmmi10-c3" transform="translate(1864.747168 0.25625)"/>
    <use xlink:href="#Cmr10-28" transform="translate(1941.430996 49.645313) scale(0.644656)"/>
    <use xlink:href="#Cmmi10-ae" transform="translate(1966.455494 48.628125) scale(0.7)"/>
    <use xlink:href="#Cmr10-3d" transform="translate(2023.487721 48.628125) scale(0.7)"/>
    <use xlink:href="#Cmmi10-af" transform="translate(2090.158619 48.628125) scale(0.7)"/>
    <use xlink:href="#Cmr10-3b" transform="translate(2129.704518 48.628125) scale(0.7)"/>
    <use xlink:href="#Cmmi10-b9" transform="translate(2161.375416 48.628125) scale(0.7)"/>
    <use xlink:href="#Cmr10-3d" transform="translate(2215.809986 48.628125) scale(0.7)"/>
    <use xlink:href="#Cmmi10-74" transform="translate(2282.480885 48.628125) scale(0.7)"/>
    <use xlink:href="#Cmr10-30" transform="translate(2307.739674 36.72375) scale(0.49)"/>
    <use xlink:href="#Cmr10-29" transform="translate(2336.703814 49.645313) scale(0.644656)"/>
    <use xlink:href="#Cmmi10-6a" transform="translate(1929.835059 -25.253125) scale(0.7)"/>
    <use xlink:href="#Cmr10-28" transform="translate(2368.105656 15.06875) scale(0.637188)"/>
    <use xlink:href="#Cmmi10-74" transform="translate(2392.840229 0.25625)"/>
    <use xlink:href="#Cmr10-29" transform="translate(2428.924214 15.06875) scale(0.637188)"/>
    <use xlink:href="#Cmr10-3d" transform="translate(2471.217381 0.25625)"/>
   </g>
   <!--  -->
   <g transform="translate(289.57 116.927063) scale(0.22 -0.22)"/>
   <!-- $2\cdot cos\left(\omega_{0}\cdot\left(t-t_{0}\right)\right)\cdot \psi_{j}^{\left(\alpha=\beta;\mu=t_{0}\right)}\left( t\right)$ -->
   <g transform="translate(133.15 147.374375) scale(0.22 -0.22)">
    <defs>
     <path id="Cmr10-32" d="M 319 0 
L 319 172 
Q 319 188 331 206 
L 1325 1306 
Q 1550 1550 1690 1715 
Q 1831 1881 1968 2097 
Q 2106 2313 2186 2536 
Q 2266 2759 2266 3009 
Q 2266 3272 2169 3511 
Q 2072 3750 1880 3894 
Q 1688 4038 1416 4038 
Q 1138 4038 916 3870 
Q 694 3703 603 3438 
Q 628 3444 672 3444 
Q 816 3444 917 3347 
Q 1019 3250 1019 3097 
Q 1019 2950 917 2848 
Q 816 2747 672 2747 
Q 522 2747 420 2851 
Q 319 2956 319 3097 
Q 319 3338 409 3548 
Q 500 3759 670 3923 
Q 841 4088 1055 4175 
Q 1269 4263 1509 4263 
Q 1875 4263 2190 4108 
Q 2506 3953 2690 3670 
Q 2875 3388 2875 3009 
Q 2875 2731 2753 2481 
Q 2631 2231 2440 2026 
Q 2250 1822 1953 1562 
Q 1656 1303 1563 1216 
L 838 519 
L 1453 519 
Q 1906 519 2211 526 
Q 2516 534 2534 550 
Q 2609 631 2688 1141 
L 2875 1141 
L 2694 0 
L 319 0 
z
" transform="scale(0.015625)"/>
     <path id="Cmmi10-63" d="M 750 763 
Q 750 484 892 290 
Q 1034 97 1300 97 
Q 1681 97 2032 272 
Q 2384 447 2606 756 
Q 2625 775 2656 775 
Q 2688 775 2720 739 
Q 2753 703 2753 672 
Q 2753 647 2741 634 
Q 2506 306 2109 117 
Q 1713 -72 1288 -72 
Q 981 -72 747 73 
Q 513 219 384 462 
Q 256 706 256 1013 
Q 256 1444 497 1869 
Q 738 2294 1138 2561 
Q 1538 2828 1978 2828 
Q 2266 2828 2495 2689 
Q 2725 2550 2725 2278 
Q 2725 2103 2623 1979 
Q 2522 1856 2350 1856 
Q 2247 1856 2176 1920 
Q 2106 1984 2106 2088 
Q 2106 2238 2215 2344 
Q 2325 2450 2472 2450 
L 2484 2450 
Q 2409 2559 2267 2611 
Q 2125 2663 1972 2663 
Q 1597 2663 1315 2342 
Q 1034 2022 892 1576 
Q 750 1131 750 763 
z
" transform="scale(0.015625)"/>
     <path id="Cmmi10-6f" d="M 1288 -72 
Q 984 -72 748 72 
Q 513 216 384 459 
Q 256 703 256 1013 
Q 256 1447 498 1872 
Q 741 2297 1142 2562 
Q 1544 2828 1984 2828 
Q 2222 2828 2408 2747 
Q 2594 2666 2731 2519 
Q 2869 2372 2942 2175 
Q 3016 1978 3016 1747 
Q 3016 1413 2875 1089 
Q 2734 766 2489 502 
Q 2244 238 1928 83 
Q 1613 -72 1288 -72 
z
M 1300 97 
Q 1584 97 1820 290 
Q 2056 484 2207 779 
Q 2359 1075 2440 1403 
Q 2522 1731 2522 1997 
Q 2522 2275 2383 2469 
Q 2244 2663 1972 2663 
Q 1597 2663 1315 2342 
Q 1034 2022 892 1576 
Q 750 1131 750 763 
Q 750 484 892 290 
Q 1034 97 1300 97 
z
" transform="scale(0.015625)"/>
     <path id="Cmmi10-73" d="M 556 391 
Q 728 97 1247 97 
Q 1472 97 1675 173 
Q 1878 250 2011 403 
Q 2144 556 2144 775 
Q 2144 941 2025 1047 
Q 1906 1153 1734 1191 
L 1388 1259 
Q 1150 1319 997 1481 
Q 844 1644 844 1875 
Q 844 2159 998 2378 
Q 1153 2597 1406 2712 
Q 1659 2828 1931 2828 
Q 2222 2828 2451 2689 
Q 2681 2550 2681 2278 
Q 2681 2131 2598 2018 
Q 2516 1906 2369 1906 
Q 2284 1906 2223 1961 
Q 2163 2016 2163 2100 
Q 2163 2175 2205 2245 
Q 2247 2316 2317 2358 
Q 2388 2400 2463 2400 
Q 2406 2538 2251 2600 
Q 2097 2663 1919 2663 
Q 1756 2663 1593 2597 
Q 1431 2531 1332 2404 
Q 1234 2278 1234 2106 
Q 1234 1991 1315 1903 
Q 1397 1816 1516 1778 
L 1888 1703 
Q 2066 1666 2214 1570 
Q 2363 1475 2448 1329 
Q 2534 1184 2534 997 
Q 2534 759 2401 528 
Q 2269 297 2075 159 
Q 1734 -72 1241 -72 
Q 900 -72 615 84 
Q 331 241 331 550 
Q 331 725 432 854 
Q 534 984 709 984 
Q 813 984 883 921 
Q 953 859 953 756 
Q 953 609 843 500 
Q 734 391 588 391 
L 556 391 
z
" transform="scale(0.015625)"/>
    </defs>
    <use xlink:href="#Cmr10-32" transform="translate(0 0.25625)"/>
    <use xlink:href="#Cmsy10-a2" transform="translate(67.558594 0.25625)"/>
    <use xlink:href="#Cmmi10-63" transform="translate(112.802734 0.25625)"/>
    <use xlink:href="#Cmmi10-6f" transform="translate(156.015625 0.25625)"/>
    <use xlink:href="#Cmmi10-73" transform="translate(204.404297 0.25625)"/>
    <use xlink:href="#Cmr10-28" transform="translate(251.181641 1.989062) scale(0.811422)"/>
    <use xlink:href="#Cmmi10-21" transform="translate(282.679092 0.25625)"/>
    <use xlink:href="#Cmr10-30" transform="translate(344.886124 -16.75) scale(0.7)"/>
    <use xlink:href="#Cmsy10-a2" transform="translate(403.822061 0.25625)"/>
    <use xlink:href="#Cmr10-28" transform="translate(449.066202 1.989062) scale(0.811422)"/>
    <use xlink:href="#Cmmi10-74" transform="translate(480.563654 0.25625)"/>
    <use xlink:href="#Cmsy10-a1" transform="translate(534.206232 0.25625)"/>
    <use xlink:href="#Cmmi10-74" transform="translate(629.450372 0.25625)"/>
    <use xlink:href="#Cmr10-30" transform="translate(665.534357 -16.75) scale(0.7)"/>
    <use xlink:href="#Cmr10-29" transform="translate(706.9117 1.989062) scale(0.811422)"/>
    <use xlink:href="#Cmr10-29" transform="translate(738.409152 1.989062) scale(0.811422)"/>
    <use xlink:href="#Cmsy10-a2" transform="translate(787.465198 0.25625)"/>
    <use xlink:href="#Cmmi10-c3" transform="translate(832.709338 0.25625)"/>
    <use xlink:href="#Cmr10-28" transform="translate(909.393167 49.645313) scale(0.644656)"/>
    <use xlink:href="#Cmmi10-ae" transform="translate(934.417664 48.628125) scale(0.7)"/>
    <use xlink:href="#Cmr10-3d" transform="translate(991.449891 48.628125) scale(0.7)"/>
    <use xlink:href="#Cmmi10-af" transform="translate(1058.120789 48.628125) scale(0.7)"/>
    <use xlink:href="#Cmr10-3b" transform="translate(1097.666688 48.628125) scale(0.7)"/>
    <use xlink:href="#Cmmi10-b9" transform="translate(1129.337586 48.628125) scale(0.7)"/>
    <use xlink:href="#Cmr10-3d" transform="translate(1183.772157 48.628125) scale(0.7)"/>
    <use xlink:href="#Cmmi10-74" transform="translate(1250.443055 48.628125) scale(0.7)"/>
    <use xlink:href="#Cmr10-30" transform="translate(1275.701844 36.72375) scale(0.49)"/>
    <use xlink:href="#Cmr10-29" transform="translate(1304.665985 49.645313) scale(0.644656)"/>
    <use xlink:href="#Cmmi10-6a" transform="translate(897.797229 -25.253125) scale(0.7)"/>
    <use xlink:href="#Cmr10-28" transform="translate(1336.067827 15.06875) scale(0.637188)"/>
    <use xlink:href="#Cmmi10-74" transform="translate(1360.8024 0.25625)"/>
    <use xlink:href="#Cmr10-29" transform="translate(1396.886384 15.06875) scale(0.637188)"/>
   </g>
  </g>
 </g>
</svg>
