<?xml version="1.0" encoding="utf-8" standalone="no"?>
<!DOCTYPE svg PUBLIC "-//W3C//DTD SVG 1.1//EN"
  "http://www.w3.org/Graphics/SVG/1.1/DTD/svg11.dtd">
<svg xmlns:xlink="http://www.w3.org/1999/xlink" width="353.86pt" height="144.366375pt" viewBox="0 0 353.86 144.366375" xmlns="http://www.w3.org/2000/svg" version="1.1">
 <metadata>
  <rdf:RDF xmlns:dc="http://purl.org/dc/elements/1.1/" xmlns:cc="http://creativecommons.org/ns#" xmlns:rdf="http://www.w3.org/1999/02/22-rdf-syntax-ns#">
   <cc:Work>
    <dc:type rdf:resource="http://purl.org/dc/dcmitype/StillImage"/>
    <dc:date>2024-08-12T22:35:41.965339</dc:date>
    <dc:format>image/svg+xml</dc:format>
    <dc:creator>
     <cc:Agent>
      <dc:title>Matplotlib v3.9.1.post1, https://matplotlib.org/</dc:title>
     </cc:Agent>
    </dc:creator>
   </cc:Work>
  </rdf:RDF>
 </metadata>
 <defs>
  <style type="text/css">*{stroke-linejoin: round; stroke-linecap: butt}</style>
 </defs>
 <g id="figure_1">
  <g id="patch_1">
   <path d="M 0 144.366375 
L 353.86 144.366375 
L 353.86 0 
L 0 0 
z
" style="fill: #ffffff"/>
  </g>
  <g id="text_1">
   <!-- $T_{n+1}^{\left(\alpha;\mu\right)}\left(x\right)=2\cdot \frac{x-\mu}{\alpha}\cdot T_{n}^{\left(\alpha;\mu\right)}\left(x\right)-T_{n-1}^{\left(\alpha;\mu\right)}\left(x\right)$ -->
   <g transform="translate(7.2 25.68) scale(0.22 -0.22)">
    <defs>
     <path id="Cmmi10-54" d="M 294 84 
Q 297 100 308 140 
Q 319 181 336 203 
Q 353 225 384 225 
Q 934 225 1113 256 
Q 1284 300 1319 441 
L 2194 3956 
Q 2222 4034 2222 4097 
Q 2222 4147 1997 4147 
L 1625 4147 
Q 1197 4147 964 4015 
Q 731 3884 622 3668 
Q 513 3453 341 2963 
Q 319 2906 275 2906 
L 219 2906 
Q 153 2906 153 2988 
L 609 4313 
Q 622 4372 672 4372 
L 4453 4372 
Q 4519 4372 4519 4288 
L 4306 2963 
Q 4306 2944 4284 2925 
Q 4263 2906 4244 2906 
L 4184 2906 
Q 4122 2906 4122 2988 
Q 4191 3441 4191 3628 
Q 4191 3853 4097 3968 
Q 4003 4084 3853 4115 
Q 3703 4147 3463 4147 
L 3084 4147 
Q 2913 4147 2853 4115 
Q 2794 4084 2753 3928 
L 1875 416 
Q 1872 403 1870 390 
Q 1869 378 1863 359 
Q 1863 278 1959 256 
Q 2125 225 2669 225 
Q 2731 225 2731 141 
Q 2709 50 2696 25 
Q 2684 0 2625 0 
L 359 0 
Q 294 0 294 84 
z
" transform="scale(0.015625)"/>
     <path id="Cmr10-28" d="M 1984 -1588 
Q 1628 -1306 1370 -942 
Q 1113 -578 948 -165 
Q 784 247 703 697 
Q 622 1147 622 1600 
Q 622 2059 703 2509 
Q 784 2959 951 3375 
Q 1119 3791 1378 4153 
Q 1638 4516 1984 4788 
Q 1984 4800 2016 4800 
L 2075 4800 
Q 2094 4800 2109 4783 
Q 2125 4766 2125 4744 
Q 2125 4716 2113 4703 
Q 1800 4397 1592 4047 
Q 1384 3697 1257 3301 
Q 1131 2906 1075 2482 
Q 1019 2059 1019 1600 
Q 1019 -434 2106 -1491 
Q 2125 -1509 2125 -1544 
Q 2125 -1559 2108 -1579 
Q 2091 -1600 2075 -1600 
L 2016 -1600 
Q 1984 -1600 1984 -1588 
z
" transform="scale(0.015625)"/>
     <path id="Cmmi10-ae" d="M 1288 -72 
Q 984 -72 748 72 
Q 513 216 384 459 
Q 256 703 256 1013 
Q 256 1447 498 1872 
Q 741 2297 1142 2562 
Q 1544 2828 1984 2828 
Q 2309 2828 2556 2658 
Q 2803 2488 2931 2205 
Q 3059 1922 3059 1600 
L 3066 1172 
Q 3284 1475 3436 1801 
Q 3588 2128 3669 2478 
Q 3681 2516 3719 2516 
L 3794 2516 
Q 3853 2516 3853 2456 
Q 3853 2450 3847 2438 
Q 3772 2144 3659 1873 
Q 3547 1603 3395 1350 
Q 3244 1097 3066 891 
Q 3066 97 3250 97 
Q 3369 97 3445 167 
Q 3522 238 3580 341 
Q 3638 444 3653 447 
L 3731 447 
Q 3781 447 3781 384 
Q 3781 225 3598 76 
Q 3416 -72 3238 -72 
Q 3006 -72 2853 78 
Q 2700 228 2644 469 
Q 2344 213 1994 70 
Q 1644 -72 1288 -72 
z
M 1300 97 
Q 1984 97 2613 659 
Q 2609 697 2603 751 
Q 2597 806 2597 813 
L 2597 1503 
Q 2597 2663 1972 2663 
Q 1597 2663 1315 2342 
Q 1034 2022 892 1576 
Q 750 1131 750 763 
Q 750 484 892 290 
Q 1034 97 1300 97 
z
" transform="scale(0.015625)"/>
     <path id="Cmr10-3b" d="M 634 -1153 
Q 634 -1125 647 -1113 
Q 1094 -628 1094 25 
L 1094 56 
Q 1000 0 891 0 
Q 744 0 641 103 
Q 538 206 538 353 
Q 538 503 641 603 
Q 744 703 891 703 
Q 1113 703 1186 498 
Q 1259 294 1259 25 
Q 1259 -200 1204 -419 
Q 1150 -638 1039 -847 
Q 928 -1056 775 -1222 
Q 756 -1241 728 -1241 
Q 697 -1241 665 -1212 
Q 634 -1184 634 -1153 
z
M 538 2406 
Q 538 2497 584 2578 
Q 631 2659 714 2709 
Q 797 2759 891 2759 
Q 981 2759 1064 2709 
Q 1147 2659 1194 2578 
Q 1241 2497 1241 2406 
Q 1241 2263 1139 2158 
Q 1038 2053 891 2053 
Q 747 2053 642 2158 
Q 538 2263 538 2406 
z
" transform="scale(0.015625)"/>
     <path id="Cmmi10-b9" d="M 178 -1203 
Q 178 -1166 184 -1153 
L 1125 2625 
Q 1153 2716 1226 2772 
Q 1300 2828 1394 2828 
Q 1475 2828 1531 2779 
Q 1588 2731 1588 2650 
Q 1588 2631 1586 2620 
Q 1584 2609 1581 2597 
L 1203 1100 
Q 1141 834 1141 641 
Q 1141 403 1253 250 
Q 1366 97 1594 97 
Q 2059 97 2413 678 
Q 2416 684 2417 687 
Q 2419 691 2419 697 
L 2881 2553 
Q 2903 2638 2981 2698 
Q 3059 2759 3150 2759 
Q 3225 2759 3283 2709 
Q 3341 2659 3341 2578 
Q 3341 2541 3334 2528 
L 2875 684 
Q 2828 503 2828 372 
Q 2828 97 3016 97 
Q 3216 97 3317 344 
Q 3419 591 3494 941 
Q 3506 978 3547 978 
L 3622 978 
Q 3647 978 3664 958 
Q 3681 938 3681 916 
Q 3569 469 3436 198 
Q 3303 -72 3003 -72 
Q 2791 -72 2627 50 
Q 2463 172 2413 378 
Q 2253 178 2039 53 
Q 1825 -72 1588 -72 
Q 1188 -72 959 116 
L 634 -1178 
Q 616 -1269 541 -1325 
Q 466 -1381 372 -1381 
Q 294 -1381 236 -1332 
Q 178 -1284 178 -1203 
z
" transform="scale(0.015625)"/>
     <path id="Cmr10-29" d="M 416 -1600 
Q 359 -1600 359 -1544 
Q 359 -1516 372 -1503 
Q 1466 -434 1466 1600 
Q 1466 3634 384 4691 
Q 359 4706 359 4744 
Q 359 4766 376 4783 
Q 394 4800 416 4800 
L 475 4800 
Q 494 4800 506 4788 
Q 966 4425 1272 3906 
Q 1578 3388 1720 2800 
Q 1863 2213 1863 1600 
Q 1863 1147 1786 708 
Q 1709 269 1542 -157 
Q 1375 -584 1119 -945 
Q 863 -1306 506 -1588 
Q 494 -1600 475 -1600 
L 416 -1600 
z
" transform="scale(0.015625)"/>
     <path id="Cmmi10-6e" d="M 494 109 
Q 494 147 500 166 
L 978 2075 
Q 1025 2253 1025 2388 
Q 1025 2663 838 2663 
Q 638 2663 541 2423 
Q 444 2184 353 1819 
Q 353 1800 334 1789 
Q 316 1778 300 1778 
L 225 1778 
Q 203 1778 187 1801 
Q 172 1825 172 1844 
Q 241 2122 305 2315 
Q 369 2509 505 2668 
Q 641 2828 844 2828 
Q 1084 2828 1268 2676 
Q 1453 2525 1453 2291 
Q 1644 2541 1900 2684 
Q 2156 2828 2444 2828 
Q 2672 2828 2837 2750 
Q 3003 2672 3095 2514 
Q 3188 2356 3188 2138 
Q 3188 1875 3070 1503 
Q 2953 1131 2778 672 
Q 2688 463 2688 288 
Q 2688 97 2834 97 
Q 3084 97 3251 365 
Q 3419 634 3488 941 
Q 3500 978 3541 978 
L 3616 978 
Q 3641 978 3658 962 
Q 3675 947 3675 922 
Q 3675 916 3669 903 
Q 3581 541 3364 234 
Q 3147 -72 2822 -72 
Q 2597 -72 2437 83 
Q 2278 238 2278 459 
Q 2278 578 2328 709 
Q 2409 919 2514 1209 
Q 2619 1500 2686 1765 
Q 2753 2031 2753 2234 
Q 2753 2413 2679 2538 
Q 2606 2663 2431 2663 
Q 2197 2663 2000 2559 
Q 1803 2456 1656 2286 
Q 1509 2116 1388 1881 
L 953 141 
Q 931 53 854 -9 
Q 778 -72 684 -72 
Q 606 -72 550 -22 
Q 494 28 494 109 
z
" transform="scale(0.015625)"/>
     <path id="Cmr10-2b" d="M 481 1472 
Q 428 1472 393 1512 
Q 359 1553 359 1600 
Q 359 1647 393 1687 
Q 428 1728 481 1728 
L 2363 1728 
L 2363 3616 
Q 2363 3666 2400 3698 
Q 2438 3731 2491 3731 
Q 2538 3731 2578 3698 
Q 2619 3666 2619 3616 
L 2619 1728 
L 4500 1728 
Q 4547 1728 4581 1687 
Q 4616 1647 4616 1600 
Q 4616 1553 4581 1512 
Q 4547 1472 4500 1472 
L 2619 1472 
L 2619 -416 
Q 2619 -466 2578 -498 
Q 2538 -531 2491 -531 
Q 2438 -531 2400 -498 
Q 2363 -466 2363 -416 
L 2363 1472 
L 481 1472 
z
" transform="scale(0.015625)"/>
     <path id="Cmr10-31" d="M 594 0 
L 594 225 
Q 1394 225 1394 428 
L 1394 3788 
Q 1063 3628 556 3628 
L 556 3853 
Q 1341 3853 1741 4263 
L 1831 4263 
Q 1853 4263 1873 4245 
Q 1894 4228 1894 4206 
L 1894 428 
Q 1894 225 2694 225 
L 2694 0 
L 594 0 
z
" transform="scale(0.015625)"/>
     <path id="Cmmi10-78" d="M 500 184 
Q 613 97 819 97 
Q 1019 97 1172 289 
Q 1325 481 1381 709 
L 1672 1844 
Q 1741 2153 1741 2266 
Q 1741 2425 1652 2544 
Q 1563 2663 1403 2663 
Q 1200 2663 1022 2536 
Q 844 2409 722 2214 
Q 600 2019 550 1819 
Q 538 1778 500 1778 
L 422 1778 
Q 372 1778 372 1838 
L 372 1856 
Q 434 2094 584 2320 
Q 734 2547 951 2687 
Q 1169 2828 1416 2828 
Q 1650 2828 1839 2703 
Q 2028 2578 2106 2363 
Q 2216 2559 2386 2693 
Q 2556 2828 2759 2828 
Q 2897 2828 3040 2779 
Q 3184 2731 3275 2631 
Q 3366 2531 3366 2381 
Q 3366 2219 3261 2101 
Q 3156 1984 2994 1984 
Q 2891 1984 2822 2050 
Q 2753 2116 2753 2216 
Q 2753 2350 2845 2451 
Q 2938 2553 3066 2572 
Q 2950 2663 2747 2663 
Q 2541 2663 2389 2472 
Q 2238 2281 2175 2047 
L 1894 916 
Q 1825 659 1825 494 
Q 1825 331 1917 214 
Q 2009 97 2163 97 
Q 2463 97 2698 361 
Q 2934 625 3009 941 
Q 3022 978 3059 978 
L 3138 978 
Q 3163 978 3178 961 
Q 3194 944 3194 922 
Q 3194 916 3188 903 
Q 3097 522 2806 225 
Q 2516 -72 2150 -72 
Q 1916 -72 1727 54 
Q 1538 181 1459 397 
Q 1359 209 1182 68 
Q 1006 -72 806 -72 
Q 669 -72 523 -23 
Q 378 25 287 125 
Q 197 225 197 378 
Q 197 528 301 651 
Q 406 775 563 775 
Q 669 775 741 711 
Q 813 647 813 544 
Q 813 409 723 309 
Q 634 209 500 184 
z
" transform="scale(0.015625)"/>
     <path id="Cmr10-3d" d="M 481 850 
Q 428 850 393 890 
Q 359 931 359 978 
Q 359 1031 393 1068 
Q 428 1106 481 1106 
L 4500 1106 
Q 4547 1106 4581 1068 
Q 4616 1031 4616 978 
Q 4616 931 4581 890 
Q 4547 850 4500 850 
L 481 850 
z
M 481 2094 
Q 428 2094 393 2131 
Q 359 2169 359 2222 
Q 359 2269 393 2309 
Q 428 2350 481 2350 
L 4500 2350 
Q 4547 2350 4581 2309 
Q 4616 2269 4616 2222 
Q 4616 2169 4581 2131 
Q 4547 2094 4500 2094 
L 481 2094 
z
" transform="scale(0.015625)"/>
     <path id="Cmr10-32" d="M 319 0 
L 319 172 
Q 319 188 331 206 
L 1325 1306 
Q 1550 1550 1690 1715 
Q 1831 1881 1968 2097 
Q 2106 2313 2186 2536 
Q 2266 2759 2266 3009 
Q 2266 3272 2169 3511 
Q 2072 3750 1880 3894 
Q 1688 4038 1416 4038 
Q 1138 4038 916 3870 
Q 694 3703 603 3438 
Q 628 3444 672 3444 
Q 816 3444 917 3347 
Q 1019 3250 1019 3097 
Q 1019 2950 917 2848 
Q 816 2747 672 2747 
Q 522 2747 420 2851 
Q 319 2956 319 3097 
Q 319 3338 409 3548 
Q 500 3759 670 3923 
Q 841 4088 1055 4175 
Q 1269 4263 1509 4263 
Q 1875 4263 2190 4108 
Q 2506 3953 2690 3670 
Q 2875 3388 2875 3009 
Q 2875 2731 2753 2481 
Q 2631 2231 2440 2026 
Q 2250 1822 1953 1562 
Q 1656 1303 1563 1216 
L 838 519 
L 1453 519 
Q 1906 519 2211 526 
Q 2516 534 2534 550 
Q 2609 631 2688 1141 
L 2875 1141 
L 2694 0 
L 319 0 
z
" transform="scale(0.015625)"/>
     <path id="Cmsy10-a2" d="M 538 1600 
Q 538 1691 584 1772 
Q 631 1853 714 1903 
Q 797 1953 891 1953 
Q 981 1953 1064 1903 
Q 1147 1853 1194 1772 
Q 1241 1691 1241 1600 
Q 1241 1456 1139 1351 
Q 1038 1247 891 1247 
Q 747 1247 642 1351 
Q 538 1456 538 1600 
z
" transform="scale(0.015625)"/>
     <path id="Cmsy10-a1" d="M 653 1472 
Q 600 1472 565 1512 
Q 531 1553 531 1600 
Q 531 1647 565 1687 
Q 600 1728 653 1728 
L 4325 1728 
Q 4375 1728 4408 1687 
Q 4441 1647 4441 1600 
Q 4441 1553 4408 1512 
Q 4375 1472 4325 1472 
L 653 1472 
z
" transform="scale(0.015625)"/>
    </defs>
    <use xlink:href="#Cmmi10-54" transform="translate(0 0.464063)"/>
    <use xlink:href="#Cmr10-28" transform="translate(69.767969 45.5875) scale(0.460359)"/>
    <use xlink:href="#Cmmi10-ae" transform="translate(87.638359 49.185938) scale(0.7)"/>
    <use xlink:href="#Cmr10-3b" transform="translate(132.37957 49.185938) scale(0.7)"/>
    <use xlink:href="#Cmmi10-b9" transform="translate(164.050468 49.185938) scale(0.7)"/>
    <use xlink:href="#Cmr10-29" transform="translate(206.194023 45.5875) scale(0.460359)"/>
    <use xlink:href="#Cmmi10-6e" transform="translate(58.398438 -25.045312) scale(0.7)"/>
    <use xlink:href="#Cmr10-2b" transform="translate(112.696289 -25.045312) scale(0.7)"/>
    <use xlink:href="#Cmr10-31" transform="translate(179.367188 -25.045312) scale(0.7)"/>
    <use xlink:href="#Cmr10-28" transform="translate(230.441757 10.667188) scale(0.453125)"/>
    <use xlink:href="#Cmmi10-78" transform="translate(248.031326 0.464063)"/>
    <use xlink:href="#Cmr10-29" transform="translate(305.111404 10.667188) scale(0.453125)"/>
    <use xlink:href="#Cmr10-3d" transform="translate(340.259567 0.464063)"/>
    <use xlink:href="#Cmr10-32" transform="translate(435.503708 0.464063)"/>
    <use xlink:href="#Cmsy10-a2" transform="translate(503.062302 0.464063)"/>
    <use xlink:href="#Cmmi10-78" transform="translate(548.306442 53.06875) scale(0.7)"/>
    <use xlink:href="#Cmsy10-a1" transform="translate(600.553513 53.06875) scale(0.7)"/>
    <use xlink:href="#Cmmi10-b9" transform="translate(667.224411 53.06875) scale(0.7)"/>
    <use xlink:href="#Cmmi10-ae" transform="translate(606.306442 -24.217187) scale(0.7)"/>
    <use xlink:href="#Cmsy10-a2" transform="translate(739.426559 0.464063)"/>
    <use xlink:href="#Cmmi10-54" transform="translate(784.6707 0.464063)"/>
    <use xlink:href="#Cmr10-28" transform="translate(854.438669 35.129688) scale(0.460359)"/>
    <use xlink:href="#Cmmi10-ae" transform="translate(872.309059 38.728125) scale(0.7)"/>
    <use xlink:href="#Cmr10-3b" transform="translate(917.05027 38.728125) scale(0.7)"/>
    <use xlink:href="#Cmmi10-b9" transform="translate(948.721169 38.728125) scale(0.7)"/>
    <use xlink:href="#Cmr10-29" transform="translate(990.864723 35.129688) scale(0.460359)"/>
    <use xlink:href="#Cmmi10-6e" transform="translate(843.069138 -25.045312) scale(0.7)"/>
    <use xlink:href="#Cmr10-28" transform="translate(1015.112457 10.667188) scale(0.453125)"/>
    <use xlink:href="#Cmmi10-78" transform="translate(1032.702026 0.464063)"/>
    <use xlink:href="#Cmr10-29" transform="translate(1089.782104 10.667188) scale(0.453125)"/>
    <use xlink:href="#Cmsy10-a1" transform="translate(1124.930267 0.464063)"/>
    <use xlink:href="#Cmmi10-54" transform="translate(1220.174408 0.464063)"/>
    <use xlink:href="#Cmr10-28" transform="translate(1289.942377 45.5875) scale(0.460359)"/>
    <use xlink:href="#Cmmi10-ae" transform="translate(1307.812767 49.185938) scale(0.7)"/>
    <use xlink:href="#Cmr10-3b" transform="translate(1352.553978 49.185938) scale(0.7)"/>
    <use xlink:href="#Cmmi10-b9" transform="translate(1384.224876 49.185938) scale(0.7)"/>
    <use xlink:href="#Cmr10-29" transform="translate(1426.368431 45.5875) scale(0.460359)"/>
    <use xlink:href="#Cmmi10-6e" transform="translate(1278.572845 -25.045312) scale(0.7)"/>
    <use xlink:href="#Cmsy10-a1" transform="translate(1332.870697 -25.045312) scale(0.7)"/>
    <use xlink:href="#Cmr10-31" transform="translate(1399.541595 -25.045312) scale(0.7)"/>
    <use xlink:href="#Cmr10-28" transform="translate(1450.616165 10.667188) scale(0.453125)"/>
    <use xlink:href="#Cmmi10-78" transform="translate(1468.205734 0.464063)"/>
    <use xlink:href="#Cmr10-29" transform="translate(1525.285812 10.667188) scale(0.453125)"/>
    <path d="M 548.306442 12.964063 
L 548.306442 19.214063 
L 709.367966 19.214063 
L 709.367966 12.964063 
L 548.306442 12.964063 
z
"/>
   </g>
   <!--  -->
   <g transform="translate(176.93 52.779875) scale(0.22 -0.22)"/>
   <!-- $T_{0}^{\left(\alpha;\mu\right)}\left(x\right)=1$ -->
   <g transform="translate(123.47 78.475187) scale(0.22 -0.22)">
    <defs>
     <path id="Cmr10-30" d="M 1600 -141 
Q 816 -141 533 504 
Q 250 1150 250 2041 
Q 250 2597 351 3087 
Q 453 3578 754 3920 
Q 1056 4263 1600 4263 
Q 2022 4263 2290 4056 
Q 2559 3850 2700 3523 
Q 2841 3197 2892 2823 
Q 2944 2450 2944 2041 
Q 2944 1491 2842 1011 
Q 2741 531 2444 195 
Q 2147 -141 1600 -141 
z
M 1600 25 
Q 1956 25 2131 390 
Q 2306 756 2347 1200 
Q 2388 1644 2388 2144 
Q 2388 2625 2347 3031 
Q 2306 3438 2132 3767 
Q 1959 4097 1600 4097 
Q 1238 4097 1063 3765 
Q 888 3434 847 3029 
Q 806 2625 806 2144 
Q 806 1788 823 1472 
Q 841 1156 916 820 
Q 991 484 1158 254 
Q 1325 25 1600 25 
z
" transform="scale(0.015625)"/>
    </defs>
    <use xlink:href="#Cmmi10-54" transform="translate(0 0.346875)"/>
    <use xlink:href="#Cmr10-28" transform="translate(69.767969 45.470312) scale(0.460359)"/>
    <use xlink:href="#Cmmi10-ae" transform="translate(87.638359 49.06875) scale(0.7)"/>
    <use xlink:href="#Cmr10-3b" transform="translate(132.37957 49.06875) scale(0.7)"/>
    <use xlink:href="#Cmmi10-b9" transform="translate(164.050468 49.06875) scale(0.7)"/>
    <use xlink:href="#Cmr10-29" transform="translate(206.194023 45.470312) scale(0.460359)"/>
    <use xlink:href="#Cmr10-30" transform="translate(58.398438 -25.1625) scale(0.7)"/>
    <use xlink:href="#Cmr10-28" transform="translate(230.441757 10.55) scale(0.453125)"/>
    <use xlink:href="#Cmmi10-78" transform="translate(248.031326 0.346875)"/>
    <use xlink:href="#Cmr10-29" transform="translate(305.111404 10.55) scale(0.453125)"/>
    <use xlink:href="#Cmr10-3d" transform="translate(340.259567 0.346875)"/>
    <use xlink:href="#Cmr10-31" transform="translate(435.503708 0.346875)"/>
   </g>
   <!--  -->
   <g transform="translate(176.93 104.695062) scale(0.22 -0.22)"/>
   <!-- $T_{1}^{\left(\alpha;\mu\right)}\left(x\right)=\frac{x-\mu}{\alpha}$ -->
   <g transform="translate(109.83 131.446375) scale(0.22 -0.22)">
    <use xlink:href="#Cmmi10-54" transform="translate(0 0.464063)"/>
    <use xlink:href="#Cmr10-28" transform="translate(69.767969 45.5875) scale(0.460359)"/>
    <use xlink:href="#Cmmi10-ae" transform="translate(87.638359 49.185938) scale(0.7)"/>
    <use xlink:href="#Cmr10-3b" transform="translate(132.37957 49.185938) scale(0.7)"/>
    <use xlink:href="#Cmmi10-b9" transform="translate(164.050468 49.185938) scale(0.7)"/>
    <use xlink:href="#Cmr10-29" transform="translate(206.194023 45.5875) scale(0.460359)"/>
    <use xlink:href="#Cmr10-31" transform="translate(58.398438 -25.045312) scale(0.7)"/>
    <use xlink:href="#Cmr10-28" transform="translate(230.441757 10.667188) scale(0.453125)"/>
    <use xlink:href="#Cmmi10-78" transform="translate(248.031326 0.464063)"/>
    <use xlink:href="#Cmr10-29" transform="translate(305.111404 10.667188) scale(0.453125)"/>
    <use xlink:href="#Cmr10-3d" transform="translate(340.259567 0.464063)"/>
    <use xlink:href="#Cmmi10-78" transform="translate(435.503708 53.06875) scale(0.7)"/>
    <use xlink:href="#Cmsy10-a1" transform="translate(487.750778 53.06875) scale(0.7)"/>
    <use xlink:href="#Cmmi10-b9" transform="translate(554.421677 53.06875) scale(0.7)"/>
    <use xlink:href="#Cmmi10-ae" transform="translate(493.503708 -24.217187) scale(0.7)"/>
    <path d="M 435.503708 12.964063 
L 435.503708 19.214063 
L 596.565231 19.214063 
L 596.565231 12.964063 
L 435.503708 12.964063 
z
"/>
   </g>
  </g>
 </g>
</svg>
