<?xml version="1.0" encoding="utf-8" standalone="no"?>
<!DOCTYPE svg PUBLIC "-//W3C//DTD SVG 1.1//EN"
  "http://www.w3.org/Graphics/SVG/1.1/DTD/svg11.dtd">
<svg xmlns:xlink="http://www.w3.org/1999/xlink" width="347.92pt" height="93.507188pt" viewBox="0 0 347.92 93.507188" xmlns="http://www.w3.org/2000/svg" version="1.1">
 <metadata>
  <rdf:RDF xmlns:dc="http://purl.org/dc/elements/1.1/" xmlns:cc="http://creativecommons.org/ns#" xmlns:rdf="http://www.w3.org/1999/02/22-rdf-syntax-ns#">
   <cc:Work>
    <dc:type rdf:resource="http://purl.org/dc/dcmitype/StillImage"/>
    <dc:date>2024-09-10T20:33:24.476322</dc:date>
    <dc:format>image/svg+xml</dc:format>
    <dc:creator>
     <cc:Agent>
      <dc:title>Matplotlib v3.9.1.post1, https://matplotlib.org/</dc:title>
     </cc:Agent>
    </dc:creator>
   </cc:Work>
  </rdf:RDF>
 </metadata>
 <defs>
  <style type="text/css">*{stroke-linejoin: round; stroke-linecap: butt}</style>
 </defs>
 <g id="figure_1">
  <g id="patch_1">
   <path d="M 0 93.507188 
L 347.92 93.507188 
L 347.92 0 
L 0 0 
z
" style="fill: #ffffff"/>
  </g>
  <g id="text_1">
   <!-- $\lambda_{n}^{\left(\beta;\gamma; t_{0};\omega_{0}\right)}\left( t\right)=\mathcal{F}^{-1}\left\{\Lambda_{n}^{\left(\beta;\gamma; t_{0};\omega_{0}\right)}\left(\omega\right)\right\}\left( t\right)$ -->
   <g transform="translate(7.2 26.56) scale(0.22 -0.22)">
    <defs>
     <path id="Cmmi10-b8" d="M 325 109 
Q 325 203 409 288 
L 2209 2053 
L 1575 3834 
Q 1500 4038 1417 4156 
Q 1334 4275 1178 4275 
Q 1106 4275 1106 4359 
Q 1113 4397 1138 4419 
Q 1163 4441 1203 4441 
Q 1875 4441 2016 4044 
L 3316 416 
Q 3400 144 3488 50 
Q 3519 3 3519 -13 
Q 3519 -72 3469 -72 
L 3122 -72 
Q 2963 -25 2869 206 
L 2284 1844 
L 738 25 
Q 622 -84 531 -84 
Q 450 -84 387 -28 
Q 325 28 325 109 
z
" transform="scale(0.015625)"/>
     <path id="Cmr10-28" d="M 1984 -1588 
Q 1628 -1306 1370 -942 
Q 1113 -578 948 -165 
Q 784 247 703 697 
Q 622 1147 622 1600 
Q 622 2059 703 2509 
Q 784 2959 951 3375 
Q 1119 3791 1378 4153 
Q 1638 4516 1984 4788 
Q 1984 4800 2016 4800 
L 2075 4800 
Q 2094 4800 2109 4783 
Q 2125 4766 2125 4744 
Q 2125 4716 2113 4703 
Q 1800 4397 1592 4047 
Q 1384 3697 1257 3301 
Q 1131 2906 1075 2482 
Q 1019 2059 1019 1600 
Q 1019 -434 2106 -1491 
Q 2125 -1509 2125 -1544 
Q 2125 -1559 2108 -1579 
Q 2091 -1600 2075 -1600 
L 2016 -1600 
Q 1984 -1600 1984 -1588 
z
" transform="scale(0.015625)"/>
     <path id="Cmmi10-af" d="M 172 -1241 
Q 153 -1241 137 -1219 
Q 122 -1197 122 -1178 
L 1106 2778 
Q 1191 3097 1353 3397 
Q 1516 3697 1761 3955 
Q 2006 4213 2300 4363 
Q 2594 4513 2925 4513 
Q 3163 4513 3355 4408 
Q 3547 4303 3658 4114 
Q 3769 3925 3769 3688 
Q 3769 3459 3681 3251 
Q 3594 3044 3437 2864 
Q 3281 2684 3103 2572 
Q 3206 2506 3287 2404 
Q 3369 2303 3419 2192 
Q 3469 2081 3497 1945 
Q 3525 1809 3525 1691 
Q 3525 1363 3384 1044 
Q 3244 725 3001 465 
Q 2759 206 2446 54 
Q 2134 -97 1806 -97 
Q 1447 -97 1159 100 
Q 872 297 763 634 
L 300 -1203 
Q 300 -1241 250 -1241 
L 172 -1241 
z
M 1819 78 
Q 2106 78 2339 267 
Q 2572 456 2723 742 
Q 2875 1028 2954 1348 
Q 3034 1669 3034 1931 
Q 3034 2256 2847 2444 
Q 2628 2363 2419 2363 
Q 1913 2363 1913 2534 
Q 1913 2759 2491 2759 
Q 2697 2759 2869 2694 
Q 3006 2800 3118 3006 
Q 3231 3213 3289 3438 
Q 3347 3663 3347 3859 
Q 3347 4069 3236 4208 
Q 3125 4347 2913 4347 
Q 2522 4347 2186 4106 
Q 1850 3866 1619 3498 
Q 1388 3131 1288 2741 
L 934 1325 
Q 900 1178 891 997 
Q 891 597 1153 337 
Q 1416 78 1819 78 
z
M 2106 2553 
Q 2203 2528 2425 2528 
Q 2534 2528 2644 2566 
Q 2638 2572 2619 2572 
Q 2550 2591 2472 2591 
Q 2181 2591 2106 2553 
z
" transform="scale(0.015625)"/>
     <path id="Cmr10-3b" d="M 634 -1153 
Q 634 -1125 647 -1113 
Q 1094 -628 1094 25 
L 1094 56 
Q 1000 0 891 0 
Q 744 0 641 103 
Q 538 206 538 353 
Q 538 503 641 603 
Q 744 703 891 703 
Q 1113 703 1186 498 
Q 1259 294 1259 25 
Q 1259 -200 1204 -419 
Q 1150 -638 1039 -847 
Q 928 -1056 775 -1222 
Q 756 -1241 728 -1241 
Q 697 -1241 665 -1212 
Q 634 -1184 634 -1153 
z
M 538 2406 
Q 538 2497 584 2578 
Q 631 2659 714 2709 
Q 797 2759 891 2759 
Q 981 2759 1064 2709 
Q 1147 2659 1194 2578 
Q 1241 2497 1241 2406 
Q 1241 2263 1139 2158 
Q 1038 2053 891 2053 
Q 747 2053 642 2158 
Q 538 2263 538 2406 
z
" transform="scale(0.015625)"/>
     <path id="Cmmi10-b0" d="M 1888 -1253 
Q 1888 -1109 1952 -834 
Q 2016 -559 2108 -248 
Q 2200 63 2266 263 
Q 2291 581 2291 744 
Q 2291 1156 2209 1511 
Q 2128 1866 1903 2105 
Q 1678 2344 1275 2344 
Q 1063 2344 852 2253 
Q 641 2163 489 2000 
Q 338 1838 281 1631 
Q 269 1594 231 1594 
L 153 1594 
Q 103 1594 103 1650 
L 103 1672 
Q 175 1959 358 2226 
Q 541 2494 805 2661 
Q 1069 2828 1363 2828 
Q 1663 2828 1881 2625 
Q 2100 2422 2231 2109 
Q 2363 1797 2420 1478 
Q 2478 1159 2478 878 
Q 2800 1753 3200 2534 
L 3297 2741 
Q 3316 2759 3341 2759 
L 3419 2759 
Q 3469 2759 3469 2700 
Q 3469 2688 3456 2663 
L 3359 2463 
Q 3081 1909 2848 1340 
Q 2616 772 2450 244 
Q 2425 28 2354 -347 
Q 2284 -722 2184 -1045 
Q 2084 -1369 1984 -1381 
Q 1888 -1381 1888 -1253 
z
" transform="scale(0.015625)"/>
     <path id="Cmmi10-74" d="M 397 519 
Q 397 613 416 697 
L 878 2534 
L 206 2534 
Q 141 2534 141 2619 
Q 166 2759 225 2759 
L 934 2759 
L 1191 3803 
Q 1216 3888 1291 3947 
Q 1366 4006 1459 4006 
Q 1541 4006 1595 3957 
Q 1650 3909 1650 3828 
Q 1650 3809 1648 3798 
Q 1647 3788 1644 3775 
L 1388 2759 
L 2047 2759 
Q 2113 2759 2113 2675 
Q 2109 2659 2100 2621 
Q 2091 2584 2075 2559 
Q 2059 2534 2028 2534 
L 1331 2534 
L 872 684 
Q 825 503 825 372 
Q 825 97 1013 97 
Q 1294 97 1511 361 
Q 1728 625 1844 941 
Q 1869 978 1894 978 
L 1972 978 
Q 1997 978 2012 961 
Q 2028 944 2028 922 
Q 2028 909 2022 903 
Q 1881 516 1612 222 
Q 1344 -72 997 -72 
Q 744 -72 570 93 
Q 397 259 397 519 
z
" transform="scale(0.015625)"/>
     <path id="Cmr10-30" d="M 1600 -141 
Q 816 -141 533 504 
Q 250 1150 250 2041 
Q 250 2597 351 3087 
Q 453 3578 754 3920 
Q 1056 4263 1600 4263 
Q 2022 4263 2290 4056 
Q 2559 3850 2700 3523 
Q 2841 3197 2892 2823 
Q 2944 2450 2944 2041 
Q 2944 1491 2842 1011 
Q 2741 531 2444 195 
Q 2147 -141 1600 -141 
z
M 1600 25 
Q 1956 25 2131 390 
Q 2306 756 2347 1200 
Q 2388 1644 2388 2144 
Q 2388 2625 2347 3031 
Q 2306 3438 2132 3767 
Q 1959 4097 1600 4097 
Q 1238 4097 1063 3765 
Q 888 3434 847 3029 
Q 806 2625 806 2144 
Q 806 1788 823 1472 
Q 841 1156 916 820 
Q 991 484 1158 254 
Q 1325 25 1600 25 
z
" transform="scale(0.015625)"/>
     <path id="Cmmi10-21" d="M 775 -72 
Q 413 -72 252 193 
Q 91 459 91 844 
Q 91 1097 136 1339 
Q 181 1581 273 1829 
Q 366 2078 484 2295 
Q 603 2513 750 2719 
Q 778 2759 825 2759 
Q 866 2759 891 2734 
Q 916 2709 916 2675 
Q 916 2641 897 2613 
Q 313 1809 313 1131 
Q 313 838 448 627 
Q 584 416 863 416 
Q 1103 416 1308 556 
Q 1513 697 1663 916 
Q 1663 1028 1702 1265 
Q 1741 1503 1823 1689 
Q 1906 1875 2022 1875 
Q 2169 1875 2169 1703 
Q 2169 1603 2126 1451 
Q 2084 1300 2032 1169 
Q 1981 1038 1906 872 
Q 1981 416 2363 416 
Q 2584 416 2807 544 
Q 3031 672 3203 880 
Q 3375 1088 3473 1328 
Q 3572 1569 3572 1784 
Q 3572 1978 3511 2086 
Q 3450 2194 3350 2312 
Q 3250 2431 3250 2503 
Q 3250 2628 3356 2731 
Q 3463 2834 3584 2834 
Q 3741 2834 3806 2692 
Q 3872 2550 3872 2369 
Q 3872 2075 3755 1628 
Q 3638 1181 3488 884 
Q 3281 481 2970 204 
Q 2659 -72 2272 -72 
Q 2025 -72 1873 76 
Q 1722 225 1678 481 
Q 1500 228 1272 78 
Q 1044 -72 775 -72 
z
" transform="scale(0.015625)"/>
     <path id="Cmr10-29" d="M 416 -1600 
Q 359 -1600 359 -1544 
Q 359 -1516 372 -1503 
Q 1466 -434 1466 1600 
Q 1466 3634 384 4691 
Q 359 4706 359 4744 
Q 359 4766 376 4783 
Q 394 4800 416 4800 
L 475 4800 
Q 494 4800 506 4788 
Q 966 4425 1272 3906 
Q 1578 3388 1720 2800 
Q 1863 2213 1863 1600 
Q 1863 1147 1786 708 
Q 1709 269 1542 -157 
Q 1375 -584 1119 -945 
Q 863 -1306 506 -1588 
Q 494 -1600 475 -1600 
L 416 -1600 
z
" transform="scale(0.015625)"/>
     <path id="Cmmi10-6e" d="M 494 109 
Q 494 147 500 166 
L 978 2075 
Q 1025 2253 1025 2388 
Q 1025 2663 838 2663 
Q 638 2663 541 2423 
Q 444 2184 353 1819 
Q 353 1800 334 1789 
Q 316 1778 300 1778 
L 225 1778 
Q 203 1778 187 1801 
Q 172 1825 172 1844 
Q 241 2122 305 2315 
Q 369 2509 505 2668 
Q 641 2828 844 2828 
Q 1084 2828 1268 2676 
Q 1453 2525 1453 2291 
Q 1644 2541 1900 2684 
Q 2156 2828 2444 2828 
Q 2672 2828 2837 2750 
Q 3003 2672 3095 2514 
Q 3188 2356 3188 2138 
Q 3188 1875 3070 1503 
Q 2953 1131 2778 672 
Q 2688 463 2688 288 
Q 2688 97 2834 97 
Q 3084 97 3251 365 
Q 3419 634 3488 941 
Q 3500 978 3541 978 
L 3616 978 
Q 3641 978 3658 962 
Q 3675 947 3675 922 
Q 3675 916 3669 903 
Q 3581 541 3364 234 
Q 3147 -72 2822 -72 
Q 2597 -72 2437 83 
Q 2278 238 2278 459 
Q 2278 578 2328 709 
Q 2409 919 2514 1209 
Q 2619 1500 2686 1765 
Q 2753 2031 2753 2234 
Q 2753 2413 2679 2538 
Q 2606 2663 2431 2663 
Q 2197 2663 2000 2559 
Q 1803 2456 1656 2286 
Q 1509 2116 1388 1881 
L 953 141 
Q 931 53 854 -9 
Q 778 -72 684 -72 
Q 606 -72 550 -22 
Q 494 28 494 109 
z
" transform="scale(0.015625)"/>
     <path id="Cmr10-3d" d="M 481 850 
Q 428 850 393 890 
Q 359 931 359 978 
Q 359 1031 393 1068 
Q 428 1106 481 1106 
L 4500 1106 
Q 4547 1106 4581 1068 
Q 4616 1031 4616 978 
Q 4616 931 4581 890 
Q 4547 850 4500 850 
L 481 850 
z
M 481 2094 
Q 428 2094 393 2131 
Q 359 2169 359 2222 
Q 359 2269 393 2309 
Q 428 2350 481 2350 
L 4500 2350 
Q 4547 2350 4581 2309 
Q 4616 2269 4616 2222 
Q 4616 2169 4581 2131 
Q 4547 2094 4500 2094 
L 481 2094 
z
" transform="scale(0.015625)"/>
     <path id="Cmsy10-46" d="M 109 288 
Q 109 400 290 508 
Q 472 616 594 628 
L 634 628 
Q 656 616 739 480 
Q 822 344 942 255 
Q 1063 166 1281 166 
Q 1325 222 1356 275 
Q 1816 1125 2138 2009 
Q 2313 2491 2452 3005 
Q 2591 3519 2669 3994 
L 2400 3994 
Q 1763 3994 1594 3397 
Q 1531 3284 1389 3200 
Q 1247 3116 1113 3103 
L 1075 3103 
Q 1031 3131 1031 3169 
Q 1128 3509 1414 3784 
Q 1700 4059 2078 4215 
Q 2456 4372 2809 4372 
L 4684 4372 
Q 5306 4372 5306 4128 
Q 5306 3988 5137 3873 
Q 4969 3759 4806 3744 
L 4775 3744 
Q 4728 3769 4728 3781 
Q 4731 3800 4734 3822 
Q 4738 3844 4738 3853 
Q 4738 3994 4206 3994 
L 3194 3994 
Q 3013 3097 2725 2303 
L 4341 2303 
Q 4384 2281 4384 2247 
Q 4344 2094 4194 1986 
Q 4044 1878 3878 1863 
L 3841 1863 
Q 3794 1888 3794 1913 
L 3794 1925 
L 2584 1925 
Q 2303 1206 1919 494 
Q 1759 209 1465 -2 
Q 1172 -213 878 -213 
L 844 -213 
Q 594 -213 394 -80 
Q 194 53 109 288 
z
" transform="scale(0.015625)"/>
     <path id="Cmsy10-a1" d="M 653 1472 
Q 600 1472 565 1512 
Q 531 1553 531 1600 
Q 531 1647 565 1687 
Q 600 1728 653 1728 
L 4325 1728 
Q 4375 1728 4408 1687 
Q 4441 1647 4441 1600 
Q 4441 1553 4408 1512 
Q 4375 1472 4325 1472 
L 653 1472 
z
" transform="scale(0.015625)"/>
     <path id="Cmr10-31" d="M 594 0 
L 594 225 
Q 1394 225 1394 428 
L 1394 3788 
Q 1063 3628 556 3628 
L 556 3853 
Q 1341 3853 1741 4263 
L 1831 4263 
Q 1853 4263 1873 4245 
Q 1894 4228 1894 4206 
L 1894 428 
Q 1894 225 2694 225 
L 2694 0 
L 594 0 
z
" transform="scale(0.015625)"/>
     <path id="Cmex10-a9" d="M 1631 -6425 
L 1631 -4556 
Q 1631 -4338 1503 -4159 
Q 1375 -3981 1184 -3867 
Q 994 -3753 756 -3675 
Q 709 -3650 709 -3622 
L 709 -3547 
Q 709 -3503 756 -3494 
Q 1128 -3366 1379 -3150 
Q 1631 -2934 1631 -2606 
L 1631 -738 
Q 1631 -325 2004 -95 
Q 2378 134 2888 256 
L 2963 256 
Q 2981 256 2998 242 
Q 3016 228 3016 206 
L 3016 128 
Q 3016 91 2975 78 
Q 2619 -31 2359 -232 
Q 2100 -434 2100 -750 
L 2100 -2619 
Q 2100 -2994 1804 -3214 
Q 1509 -3434 1056 -3584 
Q 1497 -3716 1798 -3939 
Q 2100 -4163 2100 -4544 
L 2100 -6413 
Q 2100 -6628 2231 -6790 
Q 2363 -6953 2556 -7059 
Q 2750 -7166 2975 -7238 
Q 3016 -7250 3016 -7291 
L 3016 -7366 
Q 3016 -7384 2998 -7401 
Q 2981 -7419 2963 -7419 
L 2888 -7419 
Q 2559 -7338 2292 -7227 
Q 2025 -7116 1828 -6914 
Q 1631 -6713 1631 -6425 
z
" transform="scale(0.015625)"/>
     <path id="Cmr10-a4" d="M 206 0 
L 206 225 
Q 706 225 831 603 
L 2081 4513 
Q 2103 4581 2175 4581 
L 2259 4581 
Q 2294 4581 2320 4562 
Q 2347 4544 2356 4513 
L 3659 428 
Q 3716 291 3859 258 
Q 4003 225 4231 225 
L 4231 0 
L 2497 0 
L 2497 225 
Q 3041 225 3041 397 
Q 3041 416 3034 428 
L 2022 3603 
L 1069 603 
Q 1056 559 1056 538 
Q 1056 378 1214 301 
Q 1372 225 1550 225 
L 1550 0 
L 206 0 
z
" transform="scale(0.015625)"/>
     <path id="Cmex10-aa" d="M 709 -7366 
L 709 -7291 
Q 709 -7247 756 -7238 
Q 1631 -6953 1631 -6413 
L 1631 -4544 
Q 1631 -3909 2669 -3584 
Q 2219 -3431 1925 -3209 
Q 1631 -2988 1631 -2619 
L 1631 -750 
Q 1631 -206 756 78 
Q 709 88 709 128 
L 709 206 
Q 709 256 769 256 
L 844 256 
Q 1359 131 1729 -97 
Q 2100 -325 2100 -738 
L 2100 -2606 
Q 2100 -2925 2354 -3142 
Q 2609 -3359 2975 -3494 
Q 3016 -3506 3016 -3547 
L 3016 -3622 
Q 3016 -3641 2975 -3675 
Q 2769 -3744 2566 -3864 
Q 2363 -3984 2231 -4161 
Q 2100 -4338 2100 -4556 
L 2100 -6425 
Q 2100 -6713 1901 -6914 
Q 1703 -7116 1437 -7227 
Q 1172 -7338 844 -7419 
L 769 -7419 
Q 744 -7419 726 -7401 
Q 709 -7384 709 -7366 
z
" transform="scale(0.015625)"/>
    </defs>
    <use xlink:href="#Cmmi10-b8" transform="translate(0 0.364063)"/>
    <use xlink:href="#Cmr10-28" transform="translate(69.896719 39.645313) scale(0.644656)"/>
    <use xlink:href="#Cmmi10-af" transform="translate(94.921217 38.628125) scale(0.7)"/>
    <use xlink:href="#Cmr10-3b" transform="translate(134.467115 38.628125) scale(0.7)"/>
    <use xlink:href="#Cmmi10-b0" transform="translate(166.138014 38.628125) scale(0.7)"/>
    <use xlink:href="#Cmr10-3b" transform="translate(202.334303 38.628125) scale(0.7)"/>
    <use xlink:href="#Cmmi10-74" transform="translate(234.005201 38.628125) scale(0.7)"/>
    <use xlink:href="#Cmr10-30" transform="translate(259.26399 26.72375) scale(0.49)"/>
    <use xlink:href="#Cmr10-3b" transform="translate(288.228131 38.628125) scale(0.7)"/>
    <use xlink:href="#Cmmi10-21" transform="translate(319.899029 38.628125) scale(0.7)"/>
    <use xlink:href="#Cmr10-30" transform="translate(363.443951 26.72375) scale(0.49)"/>
    <use xlink:href="#Cmr10-29" transform="translate(392.408092 39.645313) scale(0.644656)"/>
    <use xlink:href="#Cmmi10-6e" transform="translate(58.300781 -25.145312) scale(0.7)"/>
    <use xlink:href="#Cmr10-28" transform="translate(423.809933 15.176563) scale(0.637188)"/>
    <use xlink:href="#Cmmi10-74" transform="translate(448.544507 0.364063)"/>
    <use xlink:href="#Cmr10-29" transform="translate(484.628491 15.176563) scale(0.637188)"/>
    <use xlink:href="#Cmr10-3d" transform="translate(526.921658 0.364063)"/>
    <use xlink:href="#Cmsy10-46" transform="translate(622.165799 0.364063)"/>
    <use xlink:href="#Cmsy10-a1" transform="translate(698.407283 38.628125) scale(0.7)"/>
    <use xlink:href="#Cmr10-31" transform="translate(752.787166 38.628125) scale(0.7)"/>
    <use xlink:href="#Cmex10-a9" transform="translate(794.16451 84.192188) scale(0.950059)"/>
    <use xlink:href="#Cmr10-a4" transform="translate(849.550252 0.364063)"/>
    <use xlink:href="#Cmr10-28" transform="translate(923.399158 39.645313) scale(0.644656)"/>
    <use xlink:href="#Cmmi10-af" transform="translate(948.423656 38.628125) scale(0.7)"/>
    <use xlink:href="#Cmr10-3b" transform="translate(987.969555 38.628125) scale(0.7)"/>
    <use xlink:href="#Cmmi10-b0" transform="translate(1019.640453 38.628125) scale(0.7)"/>
    <use xlink:href="#Cmr10-3b" transform="translate(1055.836742 38.628125) scale(0.7)"/>
    <use xlink:href="#Cmmi10-74" transform="translate(1087.507641 38.628125) scale(0.7)"/>
    <use xlink:href="#Cmr10-30" transform="translate(1112.76643 26.72375) scale(0.49)"/>
    <use xlink:href="#Cmr10-3b" transform="translate(1141.73057 38.628125) scale(0.7)"/>
    <use xlink:href="#Cmmi10-21" transform="translate(1173.401469 38.628125) scale(0.7)"/>
    <use xlink:href="#Cmr10-30" transform="translate(1216.946391 26.72375) scale(0.49)"/>
    <use xlink:href="#Cmr10-29" transform="translate(1245.910531 39.645313) scale(0.644656)"/>
    <use xlink:href="#Cmmi10-6e" transform="translate(923.399158 -25.145312) scale(0.7)"/>
    <use xlink:href="#Cmr10-28" transform="translate(1277.312373 10.598438) scale(0.454062)"/>
    <use xlink:href="#Cmmi10-21" transform="translate(1294.938334 0.364063)"/>
    <use xlink:href="#Cmr10-29" transform="translate(1357.145366 10.598438) scale(0.454062)"/>
    <use xlink:href="#Cmex10-aa" transform="translate(1374.771327 84.192188) scale(0.950059)"/>
    <use xlink:href="#Cmr10-28" transform="translate(1430.157069 15.176563) scale(0.637188)"/>
    <use xlink:href="#Cmmi10-74" transform="translate(1454.891642 0.364063)"/>
    <use xlink:href="#Cmr10-29" transform="translate(1490.975627 15.176563) scale(0.637188)"/>
   </g>
   <!--  -->
   <g transform="translate(173.96 52.559875) scale(0.22 -0.22)"/>
   <!-- $\Lambda_{n}^{\left(\beta;\gamma; t_{0};\omega_{0}\right)}\left(\omega\right)=\mathcal{F}\left\{\lambda_{n}^{\left(\beta;\gamma; t_{0};\omega_{0}\right)}\left( t\right)\right\}\left(\omega\right)$ -->
   <g transform="translate(16.88 80.367188) scale(0.22 -0.22)">
    <use xlink:href="#Cmr10-a4" transform="translate(0 0.364063)"/>
    <use xlink:href="#Cmr10-28" transform="translate(73.848906 39.645313) scale(0.644656)"/>
    <use xlink:href="#Cmmi10-af" transform="translate(98.873404 38.628125) scale(0.7)"/>
    <use xlink:href="#Cmr10-3b" transform="translate(138.419303 38.628125) scale(0.7)"/>
    <use xlink:href="#Cmmi10-b0" transform="translate(170.090201 38.628125) scale(0.7)"/>
    <use xlink:href="#Cmr10-3b" transform="translate(206.28649 38.628125) scale(0.7)"/>
    <use xlink:href="#Cmmi10-74" transform="translate(237.957389 38.628125) scale(0.7)"/>
    <use xlink:href="#Cmr10-30" transform="translate(263.216178 26.72375) scale(0.49)"/>
    <use xlink:href="#Cmr10-3b" transform="translate(292.180318 38.628125) scale(0.7)"/>
    <use xlink:href="#Cmmi10-21" transform="translate(323.851217 38.628125) scale(0.7)"/>
    <use xlink:href="#Cmr10-30" transform="translate(367.396139 26.72375) scale(0.49)"/>
    <use xlink:href="#Cmr10-29" transform="translate(396.360279 39.645313) scale(0.644656)"/>
    <use xlink:href="#Cmmi10-6e" transform="translate(73.848906 -25.145312) scale(0.7)"/>
    <use xlink:href="#Cmr10-28" transform="translate(427.762121 10.598438) scale(0.454062)"/>
    <use xlink:href="#Cmmi10-21" transform="translate(445.388082 0.364063)"/>
    <use xlink:href="#Cmr10-29" transform="translate(507.595114 10.598438) scale(0.454062)"/>
    <use xlink:href="#Cmr10-3d" transform="translate(542.779669 0.364063)"/>
    <use xlink:href="#Cmsy10-46" transform="translate(638.023809 0.364063)"/>
    <use xlink:href="#Cmex10-a9" transform="translate(709.801153 84.192188) scale(0.950059)"/>
    <use xlink:href="#Cmmi10-b8" transform="translate(765.186895 0.364063)"/>
    <use xlink:href="#Cmr10-28" transform="translate(835.083614 39.645313) scale(0.644656)"/>
    <use xlink:href="#Cmmi10-af" transform="translate(860.108112 38.628125) scale(0.7)"/>
    <use xlink:href="#Cmr10-3b" transform="translate(899.65401 38.628125) scale(0.7)"/>
    <use xlink:href="#Cmmi10-b0" transform="translate(931.324909 38.628125) scale(0.7)"/>
    <use xlink:href="#Cmr10-3b" transform="translate(967.521198 38.628125) scale(0.7)"/>
    <use xlink:href="#Cmmi10-74" transform="translate(999.192096 38.628125) scale(0.7)"/>
    <use xlink:href="#Cmr10-30" transform="translate(1024.450885 26.72375) scale(0.49)"/>
    <use xlink:href="#Cmr10-3b" transform="translate(1053.415026 38.628125) scale(0.7)"/>
    <use xlink:href="#Cmmi10-21" transform="translate(1085.085924 38.628125) scale(0.7)"/>
    <use xlink:href="#Cmr10-30" transform="translate(1128.630846 26.72375) scale(0.49)"/>
    <use xlink:href="#Cmr10-29" transform="translate(1157.594987 39.645313) scale(0.644656)"/>
    <use xlink:href="#Cmmi10-6e" transform="translate(823.487676 -25.145312) scale(0.7)"/>
    <use xlink:href="#Cmr10-28" transform="translate(1188.996829 15.176563) scale(0.637188)"/>
    <use xlink:href="#Cmmi10-74" transform="translate(1213.731402 0.364063)"/>
    <use xlink:href="#Cmr10-29" transform="translate(1249.815386 15.176563) scale(0.637188)"/>
    <use xlink:href="#Cmex10-aa" transform="translate(1274.54996 84.192188) scale(0.950059)"/>
    <use xlink:href="#Cmr10-28" transform="translate(1329.935702 10.598438) scale(0.454062)"/>
    <use xlink:href="#Cmmi10-21" transform="translate(1347.561663 0.364063)"/>
    <use xlink:href="#Cmr10-29" transform="translate(1409.768694 10.598438) scale(0.454062)"/>
   </g>
  </g>
 </g>
</svg>
