<?xml version="1.0" encoding="utf-8" standalone="no"?>
<!DOCTYPE svg PUBLIC "-//W3C//DTD SVG 1.1//EN"
  "http://www.w3.org/Graphics/SVG/1.1/DTD/svg11.dtd">
<svg xmlns:xlink="http://www.w3.org/1999/xlink" width="761.62pt" height="606.047175pt" viewBox="0 0 761.62 606.047175" xmlns="http://www.w3.org/2000/svg" version="1.1">
 <metadata>
  <rdf:RDF xmlns:dc="http://purl.org/dc/elements/1.1/" xmlns:cc="http://creativecommons.org/ns#" xmlns:rdf="http://www.w3.org/1999/02/22-rdf-syntax-ns#">
   <cc:Work>
    <dc:type rdf:resource="http://purl.org/dc/dcmitype/StillImage"/>
    <dc:date>2024-09-02T20:31:08.321323</dc:date>
    <dc:format>image/svg+xml</dc:format>
    <dc:creator>
     <cc:Agent>
      <dc:title>Matplotlib v3.9.1.post1, https://matplotlib.org/</dc:title>
     </cc:Agent>
    </dc:creator>
   </cc:Work>
  </rdf:RDF>
 </metadata>
 <defs>
  <style type="text/css">*{stroke-linejoin: round; stroke-linecap: butt}</style>
 </defs>
 <g id="figure_1">
  <g id="patch_1">
   <path d="M 0 606.047175 
L 761.62 606.047175 
L 761.62 0 
L 0 0 
z
" style="fill: #ffffff"/>
  </g>
  <g id="axes_1">
   <g id="patch_2">
    <path d="M 84.82 555.8128 
L 754.42 555.8128 
L 754.42 112.2928 
L 84.82 112.2928 
z
" style="fill: #ffffff"/>
   </g>
   <g id="matplotlib.axis_1">
    <g id="xtick_1">
     <g id="line2d_1">
      <path d="M 158.0575 555.8128 
L 158.0575 112.2928 
" clip-path="url(#pdc008dcf97)" style="fill: none; stroke: #b0b0b0; stroke-width: 0.8; stroke-linecap: square"/>
     </g>
     <g id="line2d_2">
      <defs>
       <path id="mb465e3cd78" d="M 0 0 
L 0 3.5 
" style="stroke: #000000; stroke-width: 0.8"/>
      </defs>
      <g>
       <use xlink:href="#mb465e3cd78" x="158.0575" y="555.8128" style="stroke: #000000; stroke-width: 0.8"/>
      </g>
     </g>
     <g id="text_1">
      <!-- $\mathdefault{−100}$ -->
      <g transform="translate(138.8075 573.450612) scale(0.14 -0.14)">
       <defs>
        <path id="DejaVuSans-2212" d="M 678 2272 
L 4684 2272 
L 4684 1741 
L 678 1741 
L 678 2272 
z
" transform="scale(0.015625)"/>
        <path id="DejaVuSans-31" d="M 794 531 
L 1825 531 
L 1825 4091 
L 703 3866 
L 703 4441 
L 1819 4666 
L 2450 4666 
L 2450 531 
L 3481 531 
L 3481 0 
L 794 0 
L 794 531 
z
" transform="scale(0.015625)"/>
        <path id="DejaVuSans-30" d="M 2034 4250 
Q 1547 4250 1301 3770 
Q 1056 3291 1056 2328 
Q 1056 1369 1301 889 
Q 1547 409 2034 409 
Q 2525 409 2770 889 
Q 3016 1369 3016 2328 
Q 3016 3291 2770 3770 
Q 2525 4250 2034 4250 
z
M 2034 4750 
Q 2819 4750 3233 4129 
Q 3647 3509 3647 2328 
Q 3647 1150 3233 529 
Q 2819 -91 2034 -91 
Q 1250 -91 836 529 
Q 422 1150 422 2328 
Q 422 3509 836 4129 
Q 1250 4750 2034 4750 
z
" transform="scale(0.015625)"/>
       </defs>
       <use xlink:href="#DejaVuSans-2212" transform="translate(0 0.78125)"/>
       <use xlink:href="#DejaVuSans-31" transform="translate(83.789062 0.78125)"/>
       <use xlink:href="#DejaVuSans-30" transform="translate(147.412109 0.78125)"/>
       <use xlink:href="#DejaVuSans-30" transform="translate(211.035156 0.78125)"/>
      </g>
     </g>
    </g>
    <g id="xtick_2">
     <g id="line2d_3">
      <path d="M 262.6825 555.8128 
L 262.6825 112.2928 
" clip-path="url(#pdc008dcf97)" style="fill: none; stroke: #b0b0b0; stroke-width: 0.8; stroke-linecap: square"/>
     </g>
     <g id="line2d_4">
      <g>
       <use xlink:href="#mb465e3cd78" x="262.6825" y="555.8128" style="stroke: #000000; stroke-width: 0.8"/>
      </g>
     </g>
     <g id="text_2">
      <!-- $\mathdefault{0}$ -->
      <g transform="translate(258.2025 573.450612) scale(0.14 -0.14)">
       <use xlink:href="#DejaVuSans-30" transform="translate(0 0.78125)"/>
      </g>
     </g>
    </g>
    <g id="xtick_3">
     <g id="line2d_5">
      <path d="M 367.3075 555.8128 
L 367.3075 112.2928 
" clip-path="url(#pdc008dcf97)" style="fill: none; stroke: #b0b0b0; stroke-width: 0.8; stroke-linecap: square"/>
     </g>
     <g id="line2d_6">
      <g>
       <use xlink:href="#mb465e3cd78" x="367.3075" y="555.8128" style="stroke: #000000; stroke-width: 0.8"/>
      </g>
     </g>
     <g id="text_3">
      <!-- $\mathdefault{100}$ -->
      <g transform="translate(353.9375 573.450612) scale(0.14 -0.14)">
       <use xlink:href="#DejaVuSans-31" transform="translate(0 0.78125)"/>
       <use xlink:href="#DejaVuSans-30" transform="translate(63.623047 0.78125)"/>
       <use xlink:href="#DejaVuSans-30" transform="translate(127.246094 0.78125)"/>
      </g>
     </g>
    </g>
    <g id="xtick_4">
     <g id="line2d_7">
      <path d="M 471.9325 555.8128 
L 471.9325 112.2928 
" clip-path="url(#pdc008dcf97)" style="fill: none; stroke: #b0b0b0; stroke-width: 0.8; stroke-linecap: square"/>
     </g>
     <g id="line2d_8">
      <g>
       <use xlink:href="#mb465e3cd78" x="471.9325" y="555.8128" style="stroke: #000000; stroke-width: 0.8"/>
      </g>
     </g>
     <g id="text_4">
      <!-- $\mathdefault{200}$ -->
      <g transform="translate(458.5625 573.450612) scale(0.14 -0.14)">
       <defs>
        <path id="DejaVuSans-32" d="M 1228 531 
L 3431 531 
L 3431 0 
L 469 0 
L 469 531 
Q 828 903 1448 1529 
Q 2069 2156 2228 2338 
Q 2531 2678 2651 2914 
Q 2772 3150 2772 3378 
Q 2772 3750 2511 3984 
Q 2250 4219 1831 4219 
Q 1534 4219 1204 4116 
Q 875 4013 500 3803 
L 500 4441 
Q 881 4594 1212 4672 
Q 1544 4750 1819 4750 
Q 2544 4750 2975 4387 
Q 3406 4025 3406 3419 
Q 3406 3131 3298 2873 
Q 3191 2616 2906 2266 
Q 2828 2175 2409 1742 
Q 1991 1309 1228 531 
z
" transform="scale(0.015625)"/>
       </defs>
       <use xlink:href="#DejaVuSans-32" transform="translate(0 0.78125)"/>
       <use xlink:href="#DejaVuSans-30" transform="translate(63.623047 0.78125)"/>
       <use xlink:href="#DejaVuSans-30" transform="translate(127.246094 0.78125)"/>
      </g>
     </g>
    </g>
    <g id="xtick_5">
     <g id="line2d_9">
      <path d="M 576.5575 555.8128 
L 576.5575 112.2928 
" clip-path="url(#pdc008dcf97)" style="fill: none; stroke: #b0b0b0; stroke-width: 0.8; stroke-linecap: square"/>
     </g>
     <g id="line2d_10">
      <g>
       <use xlink:href="#mb465e3cd78" x="576.5575" y="555.8128" style="stroke: #000000; stroke-width: 0.8"/>
      </g>
     </g>
     <g id="text_5">
      <!-- $\mathdefault{300}$ -->
      <g transform="translate(563.1875 573.450612) scale(0.14 -0.14)">
       <defs>
        <path id="DejaVuSans-33" d="M 2597 2516 
Q 3050 2419 3304 2112 
Q 3559 1806 3559 1356 
Q 3559 666 3084 287 
Q 2609 -91 1734 -91 
Q 1441 -91 1130 -33 
Q 819 25 488 141 
L 488 750 
Q 750 597 1062 519 
Q 1375 441 1716 441 
Q 2309 441 2620 675 
Q 2931 909 2931 1356 
Q 2931 1769 2642 2001 
Q 2353 2234 1838 2234 
L 1294 2234 
L 1294 2753 
L 1863 2753 
Q 2328 2753 2575 2939 
Q 2822 3125 2822 3475 
Q 2822 3834 2567 4026 
Q 2313 4219 1838 4219 
Q 1578 4219 1281 4162 
Q 984 4106 628 3988 
L 628 4550 
Q 988 4650 1302 4700 
Q 1616 4750 1894 4750 
Q 2613 4750 3031 4423 
Q 3450 4097 3450 3541 
Q 3450 3153 3228 2886 
Q 3006 2619 2597 2516 
z
" transform="scale(0.015625)"/>
       </defs>
       <use xlink:href="#DejaVuSans-33" transform="translate(0 0.78125)"/>
       <use xlink:href="#DejaVuSans-30" transform="translate(63.623047 0.78125)"/>
       <use xlink:href="#DejaVuSans-30" transform="translate(127.246094 0.78125)"/>
      </g>
     </g>
    </g>
    <g id="xtick_6">
     <g id="line2d_11">
      <path d="M 681.1825 555.8128 
L 681.1825 112.2928 
" clip-path="url(#pdc008dcf97)" style="fill: none; stroke: #b0b0b0; stroke-width: 0.8; stroke-linecap: square"/>
     </g>
     <g id="line2d_12">
      <g>
       <use xlink:href="#mb465e3cd78" x="681.1825" y="555.8128" style="stroke: #000000; stroke-width: 0.8"/>
      </g>
     </g>
     <g id="text_6">
      <!-- $\mathdefault{400}$ -->
      <g transform="translate(667.8125 573.450612) scale(0.14 -0.14)">
       <defs>
        <path id="DejaVuSans-34" d="M 2419 4116 
L 825 1625 
L 2419 1625 
L 2419 4116 
z
M 2253 4666 
L 3047 4666 
L 3047 1625 
L 3713 1625 
L 3713 1100 
L 3047 1100 
L 3047 0 
L 2419 0 
L 2419 1100 
L 313 1100 
L 313 1709 
L 2253 4666 
z
" transform="scale(0.015625)"/>
       </defs>
       <use xlink:href="#DejaVuSans-34" transform="translate(0 0.78125)"/>
       <use xlink:href="#DejaVuSans-30" transform="translate(63.623047 0.78125)"/>
       <use xlink:href="#DejaVuSans-30" transform="translate(127.246094 0.78125)"/>
      </g>
     </g>
    </g>
    <g id="text_7">
     <!-- x -->
     <g transform="translate(414.885 595.519675) scale(0.16 -0.16)">
      <defs>
       <path id="DejaVuSans-78" d="M 3513 3500 
L 2247 1797 
L 3578 0 
L 2900 0 
L 1881 1375 
L 863 0 
L 184 0 
L 1544 1831 
L 300 3500 
L 978 3500 
L 1906 2253 
L 2834 3500 
L 3513 3500 
z
" transform="scale(0.015625)"/>
      </defs>
      <use xlink:href="#DejaVuSans-78"/>
     </g>
    </g>
   </g>
   <g id="matplotlib.axis_2">
    <g id="ytick_1">
     <g id="line2d_13">
      <path d="M 84.82 518.323574 
L 754.42 518.323574 
" clip-path="url(#pdc008dcf97)" style="fill: none; stroke: #b0b0b0; stroke-width: 0.8; stroke-linecap: square"/>
     </g>
     <g id="line2d_14">
      <defs>
       <path id="m9ba50d63f6" d="M 0 0 
L -3.5 0 
" style="stroke: #000000; stroke-width: 0.8"/>
      </defs>
      <g>
       <use xlink:href="#m9ba50d63f6" x="84.82" y="518.323574" style="stroke: #000000; stroke-width: 0.8"/>
      </g>
     </g>
     <g id="text_8">
      <!-- $\mathdefault{−0.10}$ -->
      <g transform="translate(34.84 523.64248) scale(0.14 -0.14)">
       <defs>
        <path id="DejaVuSans-2e" d="M 684 794 
L 1344 794 
L 1344 0 
L 684 0 
L 684 794 
z
" transform="scale(0.015625)"/>
       </defs>
       <use xlink:href="#DejaVuSans-2212" transform="translate(0 0.78125)"/>
       <use xlink:href="#DejaVuSans-30" transform="translate(83.789062 0.78125)"/>
       <use xlink:href="#DejaVuSans-2e" transform="translate(147.412109 0.78125)"/>
       <use xlink:href="#DejaVuSans-31" transform="translate(179.199219 0.78125)"/>
       <use xlink:href="#DejaVuSans-30" transform="translate(242.822266 0.78125)"/>
      </g>
     </g>
    </g>
    <g id="ytick_2">
     <g id="line2d_15">
      <path d="M 84.82 426.188187 
L 754.42 426.188187 
" clip-path="url(#pdc008dcf97)" style="fill: none; stroke: #b0b0b0; stroke-width: 0.8; stroke-linecap: square"/>
     </g>
     <g id="line2d_16">
      <g>
       <use xlink:href="#m9ba50d63f6" x="84.82" y="426.188187" style="stroke: #000000; stroke-width: 0.8"/>
      </g>
     </g>
     <g id="text_9">
      <!-- $\mathdefault{−0.05}$ -->
      <g transform="translate(34.84 431.507093) scale(0.14 -0.14)">
       <defs>
        <path id="DejaVuSans-35" d="M 691 4666 
L 3169 4666 
L 3169 4134 
L 1269 4134 
L 1269 2991 
Q 1406 3038 1543 3061 
Q 1681 3084 1819 3084 
Q 2600 3084 3056 2656 
Q 3513 2228 3513 1497 
Q 3513 744 3044 326 
Q 2575 -91 1722 -91 
Q 1428 -91 1123 -41 
Q 819 9 494 109 
L 494 744 
Q 775 591 1075 516 
Q 1375 441 1709 441 
Q 2250 441 2565 725 
Q 2881 1009 2881 1497 
Q 2881 1984 2565 2268 
Q 2250 2553 1709 2553 
Q 1456 2553 1204 2497 
Q 953 2441 691 2322 
L 691 4666 
z
" transform="scale(0.015625)"/>
       </defs>
       <use xlink:href="#DejaVuSans-2212" transform="translate(0 0.78125)"/>
       <use xlink:href="#DejaVuSans-30" transform="translate(83.789062 0.78125)"/>
       <use xlink:href="#DejaVuSans-2e" transform="translate(147.412109 0.78125)"/>
       <use xlink:href="#DejaVuSans-30" transform="translate(179.199219 0.78125)"/>
       <use xlink:href="#DejaVuSans-35" transform="translate(242.822266 0.78125)"/>
      </g>
     </g>
    </g>
    <g id="ytick_3">
     <g id="line2d_17">
      <path d="M 84.82 334.0528 
L 754.42 334.0528 
" clip-path="url(#pdc008dcf97)" style="fill: none; stroke: #b0b0b0; stroke-width: 0.8; stroke-linecap: square"/>
     </g>
     <g id="line2d_18">
      <g>
       <use xlink:href="#m9ba50d63f6" x="84.82" y="334.0528" style="stroke: #000000; stroke-width: 0.8"/>
      </g>
     </g>
     <g id="text_10">
      <!-- $\mathdefault{0.00}$ -->
      <g transform="translate(46.6 339.371706) scale(0.14 -0.14)">
       <use xlink:href="#DejaVuSans-30" transform="translate(0 0.78125)"/>
       <use xlink:href="#DejaVuSans-2e" transform="translate(63.623047 0.78125)"/>
       <use xlink:href="#DejaVuSans-30" transform="translate(95.410156 0.78125)"/>
       <use xlink:href="#DejaVuSans-30" transform="translate(159.033203 0.78125)"/>
      </g>
     </g>
    </g>
    <g id="ytick_4">
     <g id="line2d_19">
      <path d="M 84.82 241.917413 
L 754.42 241.917413 
" clip-path="url(#pdc008dcf97)" style="fill: none; stroke: #b0b0b0; stroke-width: 0.8; stroke-linecap: square"/>
     </g>
     <g id="line2d_20">
      <g>
       <use xlink:href="#m9ba50d63f6" x="84.82" y="241.917413" style="stroke: #000000; stroke-width: 0.8"/>
      </g>
     </g>
     <g id="text_11">
      <!-- $\mathdefault{0.05}$ -->
      <g transform="translate(46.6 247.236319) scale(0.14 -0.14)">
       <use xlink:href="#DejaVuSans-30" transform="translate(0 0.78125)"/>
       <use xlink:href="#DejaVuSans-2e" transform="translate(63.623047 0.78125)"/>
       <use xlink:href="#DejaVuSans-30" transform="translate(95.410156 0.78125)"/>
       <use xlink:href="#DejaVuSans-35" transform="translate(159.033203 0.78125)"/>
      </g>
     </g>
    </g>
    <g id="ytick_5">
     <g id="line2d_21">
      <path d="M 84.82 149.782026 
L 754.42 149.782026 
" clip-path="url(#pdc008dcf97)" style="fill: none; stroke: #b0b0b0; stroke-width: 0.8; stroke-linecap: square"/>
     </g>
     <g id="line2d_22">
      <g>
       <use xlink:href="#m9ba50d63f6" x="84.82" y="149.782026" style="stroke: #000000; stroke-width: 0.8"/>
      </g>
     </g>
     <g id="text_12">
      <!-- $\mathdefault{0.10}$ -->
      <g transform="translate(46.6 155.100933) scale(0.14 -0.14)">
       <use xlink:href="#DejaVuSans-30" transform="translate(0 0.78125)"/>
       <use xlink:href="#DejaVuSans-2e" transform="translate(63.623047 0.78125)"/>
       <use xlink:href="#DejaVuSans-31" transform="translate(95.410156 0.78125)"/>
       <use xlink:href="#DejaVuSans-30" transform="translate(159.033203 0.78125)"/>
      </g>
     </g>
    </g>
    <g id="text_13">
     <!-- $\psi_{25}^{\left(20; 150\right)}\left(x\right)$ -->
     <g transform="translate(23.2 376.0528) rotate(-90) scale(0.16 -0.16)">
      <defs>
       <path id="DejaVuSans-Oblique-3c8" d="M 1591 -78 
Q 891 38 616 341 
Q 278 713 425 1472 
L 819 3500 
L 1400 3500 
L 1009 1494 
Q 900 922 1119 684 
Q 1313 478 1691 434 
L 2284 3500 
L 2856 3500 
L 2263 438 
Q 2681 481 2928 688 
Q 3247 950 3353 1497 
L 3741 3500 
L 4322 3500 
L 3928 1475 
Q 3775 688 3300 344 
Q 2872 34 2163 -75 
L 1919 -1331 
L 1347 -1331 
L 1591 -78 
z
" transform="scale(0.015625)"/>
       <path id="DejaVuSans-28" d="M 1984 4856 
Q 1566 4138 1362 3434 
Q 1159 2731 1159 2009 
Q 1159 1288 1364 580 
Q 1569 -128 1984 -844 
L 1484 -844 
Q 1016 -109 783 600 
Q 550 1309 550 2009 
Q 550 2706 781 3412 
Q 1013 4119 1484 4856 
L 1984 4856 
z
" transform="scale(0.015625)"/>
       <path id="DejaVuSans-3b" d="M 750 3309 
L 1409 3309 
L 1409 2516 
L 750 2516 
L 750 3309 
z
M 750 794 
L 1409 794 
L 1409 256 
L 897 -744 
L 494 -744 
L 750 256 
L 750 794 
z
" transform="scale(0.015625)"/>
       <path id="DejaVuSans-29" d="M 513 4856 
L 1013 4856 
Q 1481 4119 1714 3412 
Q 1947 2706 1947 2009 
Q 1947 1309 1714 600 
Q 1481 -109 1013 -844 
L 513 -844 
Q 928 -128 1133 580 
Q 1338 1288 1338 2009 
Q 1338 2731 1133 3434 
Q 928 4138 513 4856 
z
" transform="scale(0.015625)"/>
       <path id="DejaVuSans-Oblique-78" d="M 3841 3500 
L 2234 1784 
L 3219 0 
L 2559 0 
L 1819 1388 
L 531 0 
L -166 0 
L 1556 1844 
L 641 3500 
L 1300 3500 
L 1972 2234 
L 3144 3500 
L 3841 3500 
z
" transform="scale(0.015625)"/>
      </defs>
      <use xlink:href="#DejaVuSans-Oblique-3c8" transform="translate(0 0.546875)"/>
      <use xlink:href="#DejaVuSans-28" transform="translate(70.432943 46.8875) scale(0.7)"/>
      <use xlink:href="#DejaVuSans-32" transform="translate(97.742513 46.8875) scale(0.7)"/>
      <use xlink:href="#DejaVuSans-30" transform="translate(142.278646 46.8875) scale(0.7)"/>
      <use xlink:href="#DejaVuSans-3b" transform="translate(186.814779 46.8875) scale(0.7)"/>
      <use xlink:href="#DejaVuSans-31" transform="translate(224.036458 46.8875) scale(0.7)"/>
      <use xlink:href="#DejaVuSans-35" transform="translate(268.572591 46.8875) scale(0.7)"/>
      <use xlink:href="#DejaVuSans-30" transform="translate(313.108724 46.8875) scale(0.7)"/>
      <use xlink:href="#DejaVuSans-29" transform="translate(357.644857 46.8875) scale(0.7)"/>
      <use xlink:href="#DejaVuSans-32" transform="translate(65.966797 -26.796875) scale(0.7)"/>
      <use xlink:href="#DejaVuSans-35" transform="translate(110.50293 -26.796875) scale(0.7)"/>
      <use xlink:href="#DejaVuSans-28" transform="translate(387.688802 0.546875)"/>
      <use xlink:href="#DejaVuSans-Oblique-78" transform="translate(426.702474 0.546875)"/>
      <use xlink:href="#DejaVuSans-29" transform="translate(485.882161 0.546875)"/>
     </g>
    </g>
   </g>
   <g id="line2d_23">
    <path d="M 419.62 555.8128 
L 419.62 112.2928 
" clip-path="url(#pdc008dcf97)" style="fill: none; stroke: #000000; stroke-width: 0.5; stroke-linecap: square"/>
   </g>
   <g id="line2d_24">
    <path d="M 84.82 334.0528 
L 754.42 334.0528 
" clip-path="url(#pdc008dcf97)" style="fill: none; stroke: #000000; stroke-width: 0.5; stroke-linecap: square"/>
   </g>
   <g id="patch_3">
    <path d="M 84.82 555.8128 
L 84.82 112.2928 
" style="fill: none; stroke: #000000; stroke-width: 0.8; stroke-linejoin: miter; stroke-linecap: square"/>
   </g>
   <g id="patch_4">
    <path d="M 754.42 555.8128 
L 754.42 112.2928 
" style="fill: none; stroke: #000000; stroke-width: 0.8; stroke-linejoin: miter; stroke-linecap: square"/>
   </g>
   <g id="patch_5">
    <path d="M 84.82 555.8128 
L 754.42 555.8128 
" style="fill: none; stroke: #000000; stroke-width: 0.8; stroke-linejoin: miter; stroke-linecap: square"/>
   </g>
   <g id="patch_6">
    <path d="M 84.82 112.2928 
L 754.42 112.2928 
" style="fill: none; stroke: #000000; stroke-width: 0.8; stroke-linejoin: miter; stroke-linecap: square"/>
   </g>
   <g id="line2d_25">
    <path d="M 84.82 334.0528 
L 231.984688 334.163525 
L 236.497792 334.407206 
L 239.43064 334.777355 
L 241.680496 335.278954 
L 243.528592 335.913701 
L 245.135632 336.69769 
L 246.581968 337.649331 
L 247.921168 338.79615 
L 249.193408 340.179217 
L 250.425472 341.849629 
L 251.644144 343.884611 
L 252.849424 346.33837 
L 254.068096 349.338946 
L 255.30016 352.98421 
L 256.545616 357.381003 
L 257.831248 362.764232 
L 259.157056 369.312622 
L 260.52304 377.214181 
L 261.955984 386.84687 
L 263.482672 398.676785 
L 265.14328 413.358802 
L 267.031552 432.142308 
L 269.49568 459.092934 
L 273.499888 502.969428 
L 274.973008 516.564922 
L 276.097936 525.042342 
L 276.9952 530.262264 
L 277.718368 533.288704 
L 278.294224 534.852002 
L 278.73616 535.499741 
L 279.07096 535.652785 
L 279.352192 535.547124 
L 279.6736 535.155734 
L 280.061968 534.285098 
L 280.530688 532.634385 
L 281.093152 529.755343 
L 281.735968 525.221904 
L 282.472528 518.34587 
L 283.302832 508.394686 
L 284.240272 494.341484 
L 285.29824 474.964408 
L 286.516912 448.309684 
L 287.963248 411.474448 
L 289.91848 355.414118 
L 293.587888 249.461038 
L 294.913696 218.062269 
L 295.94488 198.504916 
L 296.788576 186.390546 
L 297.471568 179.469458 
L 298.02064 175.916442 
L 298.435792 174.471078 
L 298.717024 174.113566 
L 298.904512 174.157603 
L 299.118784 174.486472 
L 299.413408 175.426075 
L 299.801776 177.529197 
L 300.283888 181.50454 
L 300.873136 188.390212 
L 301.56952 199.315693 
L 302.399824 216.054637 
L 303.404224 241.109365 
L 304.676464 278.850963 
L 306.832576 350.751131 
L 308.787808 412.987562 
L 309.952912 443.375834 
L 310.850176 461.47628 
L 311.573344 472.023961 
L 312.1492 477.575017 
L 312.591136 480.028059 
L 312.912544 480.798865 
L 313.100032 480.849494 
L 313.274128 480.631847 
L 313.515184 479.908898 
L 313.849984 478.093338 
L 314.278528 474.402303 
L 314.814208 467.671447 
L 315.470416 456.351005 
L 316.260544 438.573569 
L 317.23816 411.192553 
L 318.563968 367.162936 
L 322.112848 246.023084 
L 323.090464 221.499348 
L 323.8672 207.126535 
L 324.483232 199.428527 
L 324.965344 195.858619 
L 325.313536 194.668925 
L 325.527808 194.524478 
L 325.688512 194.71155 
L 325.916176 195.410473 
L 326.237584 197.260964 
L 326.652736 201.132808 
L 327.175024 208.317826 
L 327.81784 220.52323 
L 328.607968 240.129799 
L 329.612368 271.095995 
L 331.09888 324.752615 
L 333.429088 408.357626 
L 334.460272 437.416872 
L 335.2504 453.980016 
L 335.879824 462.972573 
L 336.361936 467.119465 
L 336.710128 468.575253 
L 336.937792 468.817427 
L 337.085104 468.673472 
L 337.285984 468.096179 
L 337.580608 466.456638 
L 337.968976 462.869696 
L 338.46448 455.998188 
L 339.080512 444.051379 
L 339.843856 424.523938 
L 340.821472 393.280885 
L 342.321376 337.139796 
L 344.383744 261.282861 
L 345.374752 232.688391 
L 346.138096 216.469677 
L 346.740736 207.888847 
L 347.209456 204.008916 
L 347.530864 202.814537 
L 347.731744 202.68241 
L 347.879056 202.887032 
L 348.093328 203.639884 
L 348.401344 205.662652 
L 348.803104 209.944366 
L 349.312 217.952021 
L 349.954816 231.927988 
L 350.758336 254.716556 
L 351.829696 292.103208 
L 355.53928 427.662898 
L 356.329408 446.325915 
L 356.958832 456.464636 
L 357.440944 461.106703 
L 357.789136 462.697784 
L 358.003408 462.929956 
L 358.137328 462.784702 
L 358.338208 462.14814 
L 358.61944 460.416641 
L 359.007808 456.435402 
L 359.503312 448.761263 
L 360.119344 435.420131 
L 360.89608 413.316051 
L 361.927264 376.99001 
L 365.636848 239.821771 
L 366.400192 222.067731 
L 367.002832 212.67621 
L 367.45816 208.540826 
L 367.779568 207.218091 
L 367.967056 207.065449 
L 368.100976 207.236634 
L 368.301856 207.930855 
L 368.59648 209.893368 
L 368.984848 214.169531 
L 369.480352 222.316892 
L 370.109776 236.712627 
L 370.899904 260.338363 
L 371.984656 300.171229 
L 375.118384 419.511136 
L 375.935296 440.745036 
L 376.578112 452.211035 
L 377.073616 457.521938 
L 377.421808 459.322287 
L 377.63608 459.622687 
L 377.77 459.496481 
L 377.957488 458.914261 
L 378.23872 457.15823 
L 378.613696 453.192826 
L 379.095808 445.457818 
L 379.698448 431.896792 
L 380.461792 409.303024 
L 381.492976 371.580063 
L 384.8008 245.419953 
L 385.577536 226.025367 
L 386.180176 215.858288 
L 386.648896 211.208515 
L 386.983696 209.710487 
L 387.171184 209.545668 
L 387.305104 209.725257 
L 387.505984 210.458542 
L 387.800608 212.53449 
L 388.188976 217.057 
L 388.68448 225.661723 
L 389.313904 240.821542 
L 390.117424 266.037493 
L 391.255744 309.618949 
L 393.880576 412.278849 
L 394.737664 436.336115 
L 395.393872 449.12462 
L 395.902768 455.211772 
L 396.277744 457.429186 
L 396.505408 457.816052 
L 396.625936 457.725753 
L 396.800032 457.234782 
L 397.05448 455.754188 
L 397.402672 452.278865 
L 397.858 445.283792 
L 398.433856 432.706476 
L 399.170416 411.273999 
L 400.161424 375.20773 
L 403.643344 242.149091 
L 404.379904 224.670182 
L 404.95576 215.703522 
L 405.384304 211.946806 
L 405.678928 210.860126 
L 405.839632 210.787148 
L 405.853024 210.797661 
L 406.000336 211.081721 
L 406.228 212.126416 
L 406.549408 214.841428 
L 406.96456 220.446335 
L 407.50024 230.997524 
L 408.16984 248.933353 
L 409.053712 279.162953 
L 410.473264 336.709874 
L 412.214224 405.061525 
L 413.111488 432.032897 
L 413.79448 446.568516 
L 414.33016 453.745402 
L 414.718528 456.465767 
L 414.972976 457.086412 
L 415.106896 457.041017 
L 415.2676 456.647825 
L 415.508656 455.368002 
L 415.843456 452.23298 
L 416.285392 445.745629 
L 416.847856 433.84855 
L 417.557632 413.673624 
L 418.508464 379.61307 
L 422.244832 237.999553 
L 422.941216 222.59702 
L 423.490288 214.837426 
L 423.892048 211.792627 
L 424.159888 211.034963 
L 424.3072 211.05564 
L 424.467904 211.432322 
L 424.70896 212.687383 
L 425.04376 215.788032 
L 425.485696 222.230112 
L 426.04816 234.070075 
L 426.757936 254.175079 
L 427.695376 287.630493 
L 429.623824 366.94502 
L 430.882672 413.315955 
L 431.726368 436.798881 
L 432.369184 449.127154 
L 432.864688 454.913751 
L 433.226272 456.982757 
L 433.453936 457.334973 
L 433.574464 457.222803 
L 433.761952 456.637931 
L 434.029792 454.94088 
L 434.391376 451.067495 
L 434.860096 443.435418 
L 435.462736 429.596509 
L 436.22608 406.44203 
L 437.270656 367.301384 
L 440.31064 249.222084 
L 441.11416 228.175297 
L 441.730192 217.226922 
L 442.198912 212.251022 
L 442.547104 210.518302 
L 442.747984 210.292132 
L 442.881904 210.456712 
L 443.082784 211.175604 
L 443.364016 213.126761 
L 443.752384 217.599549 
L 444.247888 226.180753 
L 444.877312 241.358337 
L 445.680832 266.637435 
L 446.819152 310.301468 
L 449.4172 411.985433 
L 450.274288 436.225101 
L 450.943888 449.451854 
L 451.452784 455.691082 
L 451.82776 458.058422 
L 452.068816 458.559932 
L 452.202736 458.491735 
L 452.376832 458.03309 
L 452.63128 456.614299 
L 452.979472 453.252202 
L 453.4348 446.455035 
L 454.010656 434.203685 
L 454.733824 413.712909 
L 455.698048 379.537292 
L 459.501376 237.255766 
L 460.224544 221.158999 
L 460.787008 212.988688 
L 461.215552 209.513653 
L 461.510176 208.54589 
L 461.67088 208.510408 
L 461.818192 208.783313 
L 462.045856 209.777601 
L 462.367264 212.352865 
L 462.782416 217.66125 
L 463.318096 227.651365 
L 463.987696 244.654864 
L 464.858176 272.951553 
L 466.1572 323.430662 
L 468.313312 406.873368 
L 469.23736 434.1428 
L 469.947136 449.216654 
L 470.5096 456.952535 
L 470.924752 460.109841 
L 471.219376 460.999703 
L 471.38008 461.008943 
L 471.540784 460.682177 
L 471.78184 459.564774 
L 472.11664 456.778318 
L 472.558576 450.959362 
L 473.107648 440.513131 
L 473.804032 422.640284 
L 474.701296 393.381007 
L 476.080672 340.035328 
L 478.129648 261.773783 
L 479.08048 233.692107 
L 479.81704 217.908061 
L 480.392896 209.801513 
L 480.834832 206.28105 
L 481.142848 205.253859 
L 481.316944 205.195742 
L 481.464256 205.441284 
L 481.69192 206.35011 
L 482.013328 208.716819 
L 482.42848 213.609994 
L 482.96416 222.845136 
L 483.63376 238.62837 
L 484.477456 264.186266 
L 485.669344 307.791317 
L 488.535232 415.06991 
L 489.445888 440.053426 
L 490.155664 454.084404 
L 490.718128 461.352045 
L 491.146672 464.465716 
L 491.454688 465.378312 
L 491.615392 465.41172 
L 491.776096 465.141765 
L 492.00376 464.242182 
L 492.325168 461.950269 
L 492.753712 457.074305 
L 493.289392 448.182063 
L 493.958992 433.049312 
L 494.802688 408.551219 
L 495.967792 367.544672 
L 499.289008 246.695876 
L 500.199664 223.16581 
L 500.90944 210.002036 
L 501.471904 203.179762 
L 501.900448 200.237522 
L 502.208464 199.352422 
L 502.38256 199.309281 
L 502.543264 199.562128 
L 502.78432 200.465804 
L 503.11912 202.754097 
L 503.547664 207.397708 
L 504.096736 216.041058 
L 504.779728 230.688728 
L 505.636816 254.338827 
L 506.775136 292.498683 
L 510.725776 430.544203 
L 511.609648 451.509711 
L 512.319424 463.604488 
L 512.89528 470.004349 
L 513.337216 472.750313 
L 513.645232 473.533979 
L 513.819328 473.565096 
L 513.993424 473.299454 
L 514.23448 472.444236 
L 514.56928 470.327352 
L 515.011216 465.914275 
L 515.560288 457.96828 
L 516.24328 444.546128 
L 517.086976 423.213294 
L 518.18512 389.291242 
L 520.019824 324.397332 
L 521.988448 257.323426 
L 523.113376 226.221975 
L 523.997248 207.455928 
L 524.720416 196.445037 
L 525.296272 190.689096 
L 525.7516 188.092192 
L 526.073008 187.309617 
L 526.273888 187.262165 
L 526.447984 187.494851 
L 526.702432 188.289476 
L 527.050624 190.241764 
L 527.49256 194.12862 
L 528.055024 201.269225 
L 528.738016 213.03264 
L 529.581712 231.750221 
L 530.63968 260.596676 
L 532.126192 307.905336 
L 535.608112 420.678311 
L 536.8 451.144881 
L 537.750832 470.200141 
L 538.54096 481.979008 
L 539.197168 488.777022 
L 539.732848 492.261923 
L 540.134608 493.648414 
L 540.41584 493.994652 
L 540.603328 493.941589 
L 540.8176 493.604895 
L 541.112224 492.665872 
L 541.500592 490.599248 
L 541.996096 486.63016 
L 542.612128 479.701152 
L 543.348688 468.707232 
L 544.245952 451.736347 
L 545.344096 426.467577 
L 546.790432 387.61663 
L 549.535792 306.329036 
L 551.745472 244.151031 
L 553.258768 207.537514 
L 554.517616 182.14073 
L 555.61576 164.193451 
L 556.593376 151.651991 
L 557.450464 143.322663 
L 558.200416 138.032905 
L 558.843232 134.931308 
L 559.378912 133.314984 
L 559.807456 132.628929 
L 560.142256 132.453543 
L 560.423488 132.542033 
L 560.744896 132.897738 
L 561.146656 133.709099 
L 561.655552 135.291159 
L 562.284976 138.043874 
L 563.04832 142.448603 
L 563.98576 149.2434 
L 565.150864 159.416365 
L 566.690944 174.971599 
L 569.288992 203.870861 
L 572.55664 239.575615 
L 574.552048 258.954687 
L 576.293008 273.764628 
L 577.886656 285.481676 
L 579.38656 294.916644 
L 580.819504 302.561634 
L 582.19888 308.756588 
L 583.53808 313.785538 
L 584.850496 317.8784 
L 586.136128 321.186438 
L 587.42176 323.89531 
L 588.694 326.072736 
L 589.979632 327.844522 
L 591.292048 329.283489 
L 592.658032 330.456269 
L 594.104368 331.40791 
L 595.684624 332.180803 
L 597.46576 332.800012 
L 599.554912 333.283067 
L 602.126176 333.639834 
L 605.581312 333.880827 
L 611.031856 334.013287 
L 624.624736 334.052156 
L 754.42 334.0528 
L 754.42 334.0528 
" clip-path="url(#pdc008dcf97)" style="fill: none; stroke: #ff8000; stroke-width: 2; stroke-linecap: square"/>
   </g>
   <g id="text_14">
    <!-- Special Points of the Hermite function $\psi_{25}^{\left(20; 150\right)}\left(x\right)$ -->
    <g transform="translate(198.85 25.2) scale(0.18 -0.18)">
     <defs>
      <path id="DejaVuSans-53" d="M 3425 4513 
L 3425 3897 
Q 3066 4069 2747 4153 
Q 2428 4238 2131 4238 
Q 1616 4238 1336 4038 
Q 1056 3838 1056 3469 
Q 1056 3159 1242 3001 
Q 1428 2844 1947 2747 
L 2328 2669 
Q 3034 2534 3370 2195 
Q 3706 1856 3706 1288 
Q 3706 609 3251 259 
Q 2797 -91 1919 -91 
Q 1588 -91 1214 -16 
Q 841 59 441 206 
L 441 856 
Q 825 641 1194 531 
Q 1563 422 1919 422 
Q 2459 422 2753 634 
Q 3047 847 3047 1241 
Q 3047 1584 2836 1778 
Q 2625 1972 2144 2069 
L 1759 2144 
Q 1053 2284 737 2584 
Q 422 2884 422 3419 
Q 422 4038 858 4394 
Q 1294 4750 2059 4750 
Q 2388 4750 2728 4690 
Q 3069 4631 3425 4513 
z
" transform="scale(0.015625)"/>
      <path id="DejaVuSans-70" d="M 1159 525 
L 1159 -1331 
L 581 -1331 
L 581 3500 
L 1159 3500 
L 1159 2969 
Q 1341 3281 1617 3432 
Q 1894 3584 2278 3584 
Q 2916 3584 3314 3078 
Q 3713 2572 3713 1747 
Q 3713 922 3314 415 
Q 2916 -91 2278 -91 
Q 1894 -91 1617 61 
Q 1341 213 1159 525 
z
M 3116 1747 
Q 3116 2381 2855 2742 
Q 2594 3103 2138 3103 
Q 1681 3103 1420 2742 
Q 1159 2381 1159 1747 
Q 1159 1113 1420 752 
Q 1681 391 2138 391 
Q 2594 391 2855 752 
Q 3116 1113 3116 1747 
z
" transform="scale(0.015625)"/>
      <path id="DejaVuSans-65" d="M 3597 1894 
L 3597 1613 
L 953 1613 
Q 991 1019 1311 708 
Q 1631 397 2203 397 
Q 2534 397 2845 478 
Q 3156 559 3463 722 
L 3463 178 
Q 3153 47 2828 -22 
Q 2503 -91 2169 -91 
Q 1331 -91 842 396 
Q 353 884 353 1716 
Q 353 2575 817 3079 
Q 1281 3584 2069 3584 
Q 2775 3584 3186 3129 
Q 3597 2675 3597 1894 
z
M 3022 2063 
Q 3016 2534 2758 2815 
Q 2500 3097 2075 3097 
Q 1594 3097 1305 2825 
Q 1016 2553 972 2059 
L 3022 2063 
z
" transform="scale(0.015625)"/>
      <path id="DejaVuSans-63" d="M 3122 3366 
L 3122 2828 
Q 2878 2963 2633 3030 
Q 2388 3097 2138 3097 
Q 1578 3097 1268 2742 
Q 959 2388 959 1747 
Q 959 1106 1268 751 
Q 1578 397 2138 397 
Q 2388 397 2633 464 
Q 2878 531 3122 666 
L 3122 134 
Q 2881 22 2623 -34 
Q 2366 -91 2075 -91 
Q 1284 -91 818 406 
Q 353 903 353 1747 
Q 353 2603 823 3093 
Q 1294 3584 2113 3584 
Q 2378 3584 2631 3529 
Q 2884 3475 3122 3366 
z
" transform="scale(0.015625)"/>
      <path id="DejaVuSans-69" d="M 603 3500 
L 1178 3500 
L 1178 0 
L 603 0 
L 603 3500 
z
M 603 4863 
L 1178 4863 
L 1178 4134 
L 603 4134 
L 603 4863 
z
" transform="scale(0.015625)"/>
      <path id="DejaVuSans-61" d="M 2194 1759 
Q 1497 1759 1228 1600 
Q 959 1441 959 1056 
Q 959 750 1161 570 
Q 1363 391 1709 391 
Q 2188 391 2477 730 
Q 2766 1069 2766 1631 
L 2766 1759 
L 2194 1759 
z
M 3341 1997 
L 3341 0 
L 2766 0 
L 2766 531 
Q 2569 213 2275 61 
Q 1981 -91 1556 -91 
Q 1019 -91 701 211 
Q 384 513 384 1019 
Q 384 1609 779 1909 
Q 1175 2209 1959 2209 
L 2766 2209 
L 2766 2266 
Q 2766 2663 2505 2880 
Q 2244 3097 1772 3097 
Q 1472 3097 1187 3025 
Q 903 2953 641 2809 
L 641 3341 
Q 956 3463 1253 3523 
Q 1550 3584 1831 3584 
Q 2591 3584 2966 3190 
Q 3341 2797 3341 1997 
z
" transform="scale(0.015625)"/>
      <path id="DejaVuSans-6c" d="M 603 4863 
L 1178 4863 
L 1178 0 
L 603 0 
L 603 4863 
z
" transform="scale(0.015625)"/>
      <path id="DejaVuSans-20" transform="scale(0.015625)"/>
      <path id="DejaVuSans-50" d="M 1259 4147 
L 1259 2394 
L 2053 2394 
Q 2494 2394 2734 2622 
Q 2975 2850 2975 3272 
Q 2975 3691 2734 3919 
Q 2494 4147 2053 4147 
L 1259 4147 
z
M 628 4666 
L 2053 4666 
Q 2838 4666 3239 4311 
Q 3641 3956 3641 3272 
Q 3641 2581 3239 2228 
Q 2838 1875 2053 1875 
L 1259 1875 
L 1259 0 
L 628 0 
L 628 4666 
z
" transform="scale(0.015625)"/>
      <path id="DejaVuSans-6f" d="M 1959 3097 
Q 1497 3097 1228 2736 
Q 959 2375 959 1747 
Q 959 1119 1226 758 
Q 1494 397 1959 397 
Q 2419 397 2687 759 
Q 2956 1122 2956 1747 
Q 2956 2369 2687 2733 
Q 2419 3097 1959 3097 
z
M 1959 3584 
Q 2709 3584 3137 3096 
Q 3566 2609 3566 1747 
Q 3566 888 3137 398 
Q 2709 -91 1959 -91 
Q 1206 -91 779 398 
Q 353 888 353 1747 
Q 353 2609 779 3096 
Q 1206 3584 1959 3584 
z
" transform="scale(0.015625)"/>
      <path id="DejaVuSans-6e" d="M 3513 2113 
L 3513 0 
L 2938 0 
L 2938 2094 
Q 2938 2591 2744 2837 
Q 2550 3084 2163 3084 
Q 1697 3084 1428 2787 
Q 1159 2491 1159 1978 
L 1159 0 
L 581 0 
L 581 3500 
L 1159 3500 
L 1159 2956 
Q 1366 3272 1645 3428 
Q 1925 3584 2291 3584 
Q 2894 3584 3203 3211 
Q 3513 2838 3513 2113 
z
" transform="scale(0.015625)"/>
      <path id="DejaVuSans-74" d="M 1172 4494 
L 1172 3500 
L 2356 3500 
L 2356 3053 
L 1172 3053 
L 1172 1153 
Q 1172 725 1289 603 
Q 1406 481 1766 481 
L 2356 481 
L 2356 0 
L 1766 0 
Q 1100 0 847 248 
Q 594 497 594 1153 
L 594 3053 
L 172 3053 
L 172 3500 
L 594 3500 
L 594 4494 
L 1172 4494 
z
" transform="scale(0.015625)"/>
      <path id="DejaVuSans-73" d="M 2834 3397 
L 2834 2853 
Q 2591 2978 2328 3040 
Q 2066 3103 1784 3103 
Q 1356 3103 1142 2972 
Q 928 2841 928 2578 
Q 928 2378 1081 2264 
Q 1234 2150 1697 2047 
L 1894 2003 
Q 2506 1872 2764 1633 
Q 3022 1394 3022 966 
Q 3022 478 2636 193 
Q 2250 -91 1575 -91 
Q 1294 -91 989 -36 
Q 684 19 347 128 
L 347 722 
Q 666 556 975 473 
Q 1284 391 1588 391 
Q 1994 391 2212 530 
Q 2431 669 2431 922 
Q 2431 1156 2273 1281 
Q 2116 1406 1581 1522 
L 1381 1569 
Q 847 1681 609 1914 
Q 372 2147 372 2553 
Q 372 3047 722 3315 
Q 1072 3584 1716 3584 
Q 2034 3584 2315 3537 
Q 2597 3491 2834 3397 
z
" transform="scale(0.015625)"/>
      <path id="DejaVuSans-66" d="M 2375 4863 
L 2375 4384 
L 1825 4384 
Q 1516 4384 1395 4259 
Q 1275 4134 1275 3809 
L 1275 3500 
L 2222 3500 
L 2222 3053 
L 1275 3053 
L 1275 0 
L 697 0 
L 697 3053 
L 147 3053 
L 147 3500 
L 697 3500 
L 697 3744 
Q 697 4328 969 4595 
Q 1241 4863 1831 4863 
L 2375 4863 
z
" transform="scale(0.015625)"/>
      <path id="DejaVuSans-68" d="M 3513 2113 
L 3513 0 
L 2938 0 
L 2938 2094 
Q 2938 2591 2744 2837 
Q 2550 3084 2163 3084 
Q 1697 3084 1428 2787 
Q 1159 2491 1159 1978 
L 1159 0 
L 581 0 
L 581 4863 
L 1159 4863 
L 1159 2956 
Q 1366 3272 1645 3428 
Q 1925 3584 2291 3584 
Q 2894 3584 3203 3211 
Q 3513 2838 3513 2113 
z
" transform="scale(0.015625)"/>
      <path id="DejaVuSans-48" d="M 628 4666 
L 1259 4666 
L 1259 2753 
L 3553 2753 
L 3553 4666 
L 4184 4666 
L 4184 0 
L 3553 0 
L 3553 2222 
L 1259 2222 
L 1259 0 
L 628 0 
L 628 4666 
z
" transform="scale(0.015625)"/>
      <path id="DejaVuSans-72" d="M 2631 2963 
Q 2534 3019 2420 3045 
Q 2306 3072 2169 3072 
Q 1681 3072 1420 2755 
Q 1159 2438 1159 1844 
L 1159 0 
L 581 0 
L 581 3500 
L 1159 3500 
L 1159 2956 
Q 1341 3275 1631 3429 
Q 1922 3584 2338 3584 
Q 2397 3584 2469 3576 
Q 2541 3569 2628 3553 
L 2631 2963 
z
" transform="scale(0.015625)"/>
      <path id="DejaVuSans-6d" d="M 3328 2828 
Q 3544 3216 3844 3400 
Q 4144 3584 4550 3584 
Q 5097 3584 5394 3201 
Q 5691 2819 5691 2113 
L 5691 0 
L 5113 0 
L 5113 2094 
Q 5113 2597 4934 2840 
Q 4756 3084 4391 3084 
Q 3944 3084 3684 2787 
Q 3425 2491 3425 1978 
L 3425 0 
L 2847 0 
L 2847 2094 
Q 2847 2600 2669 2842 
Q 2491 3084 2119 3084 
Q 1678 3084 1418 2786 
Q 1159 2488 1159 1978 
L 1159 0 
L 581 0 
L 581 3500 
L 1159 3500 
L 1159 2956 
Q 1356 3278 1631 3431 
Q 1906 3584 2284 3584 
Q 2666 3584 2933 3390 
Q 3200 3197 3328 2828 
z
" transform="scale(0.015625)"/>
      <path id="DejaVuSans-75" d="M 544 1381 
L 544 3500 
L 1119 3500 
L 1119 1403 
Q 1119 906 1312 657 
Q 1506 409 1894 409 
Q 2359 409 2629 706 
Q 2900 1003 2900 1516 
L 2900 3500 
L 3475 3500 
L 3475 0 
L 2900 0 
L 2900 538 
Q 2691 219 2414 64 
Q 2138 -91 1772 -91 
Q 1169 -91 856 284 
Q 544 659 544 1381 
z
M 1991 3584 
L 1991 3584 
z
" transform="scale(0.015625)"/>
     </defs>
     <use xlink:href="#DejaVuSans-53" transform="translate(0 0.546875)"/>
     <use xlink:href="#DejaVuSans-70" transform="translate(63.476562 0.546875)"/>
     <use xlink:href="#DejaVuSans-65" transform="translate(126.953125 0.546875)"/>
     <use xlink:href="#DejaVuSans-63" transform="translate(188.476562 0.546875)"/>
     <use xlink:href="#DejaVuSans-69" transform="translate(243.457031 0.546875)"/>
     <use xlink:href="#DejaVuSans-61" transform="translate(271.240234 0.546875)"/>
     <use xlink:href="#DejaVuSans-6c" transform="translate(332.519531 0.546875)"/>
     <use xlink:href="#DejaVuSans-20" transform="translate(360.302734 0.546875)"/>
     <use xlink:href="#DejaVuSans-50" transform="translate(392.089844 0.546875)"/>
     <use xlink:href="#DejaVuSans-6f" transform="translate(452.392578 0.546875)"/>
     <use xlink:href="#DejaVuSans-69" transform="translate(513.574219 0.546875)"/>
     <use xlink:href="#DejaVuSans-6e" transform="translate(541.357422 0.546875)"/>
     <use xlink:href="#DejaVuSans-74" transform="translate(604.736328 0.546875)"/>
     <use xlink:href="#DejaVuSans-73" transform="translate(643.945312 0.546875)"/>
     <use xlink:href="#DejaVuSans-20" transform="translate(696.044922 0.546875)"/>
     <use xlink:href="#DejaVuSans-6f" transform="translate(727.832031 0.546875)"/>
     <use xlink:href="#DejaVuSans-66" transform="translate(789.013672 0.546875)"/>
     <use xlink:href="#DejaVuSans-20" transform="translate(824.21875 0.546875)"/>
     <use xlink:href="#DejaVuSans-74" transform="translate(856.005859 0.546875)"/>
     <use xlink:href="#DejaVuSans-68" transform="translate(895.214844 0.546875)"/>
     <use xlink:href="#DejaVuSans-65" transform="translate(958.59375 0.546875)"/>
     <use xlink:href="#DejaVuSans-20" transform="translate(1020.117188 0.546875)"/>
     <use xlink:href="#DejaVuSans-48" transform="translate(1051.904297 0.546875)"/>
     <use xlink:href="#DejaVuSans-65" transform="translate(1127.099609 0.546875)"/>
     <use xlink:href="#DejaVuSans-72" transform="translate(1188.623047 0.546875)"/>
     <use xlink:href="#DejaVuSans-6d" transform="translate(1229.736328 0.546875)"/>
     <use xlink:href="#DejaVuSans-69" transform="translate(1327.148438 0.546875)"/>
     <use xlink:href="#DejaVuSans-74" transform="translate(1354.931641 0.546875)"/>
     <use xlink:href="#DejaVuSans-65" transform="translate(1394.140625 0.546875)"/>
     <use xlink:href="#DejaVuSans-20" transform="translate(1455.664062 0.546875)"/>
     <use xlink:href="#DejaVuSans-66" transform="translate(1487.451172 0.546875)"/>
     <use xlink:href="#DejaVuSans-75" transform="translate(1522.65625 0.546875)"/>
     <use xlink:href="#DejaVuSans-6e" transform="translate(1586.035156 0.546875)"/>
     <use xlink:href="#DejaVuSans-63" transform="translate(1649.414062 0.546875)"/>
     <use xlink:href="#DejaVuSans-74" transform="translate(1704.394531 0.546875)"/>
     <use xlink:href="#DejaVuSans-69" transform="translate(1743.603516 0.546875)"/>
     <use xlink:href="#DejaVuSans-6f" transform="translate(1771.386719 0.546875)"/>
     <use xlink:href="#DejaVuSans-6e" transform="translate(1832.568359 0.546875)"/>
     <use xlink:href="#DejaVuSans-20" transform="translate(1895.947266 0.546875)"/>
     <use xlink:href="#DejaVuSans-Oblique-3c8" transform="translate(1927.734375 0.546875)"/>
     <use xlink:href="#DejaVuSans-28" transform="translate(1998.167318 46.8875) scale(0.7)"/>
     <use xlink:href="#DejaVuSans-32" transform="translate(2025.476888 46.8875) scale(0.7)"/>
     <use xlink:href="#DejaVuSans-30" transform="translate(2070.013021 46.8875) scale(0.7)"/>
     <use xlink:href="#DejaVuSans-3b" transform="translate(2114.549154 46.8875) scale(0.7)"/>
     <use xlink:href="#DejaVuSans-31" transform="translate(2151.770833 46.8875) scale(0.7)"/>
     <use xlink:href="#DejaVuSans-35" transform="translate(2196.306966 46.8875) scale(0.7)"/>
     <use xlink:href="#DejaVuSans-30" transform="translate(2240.843099 46.8875) scale(0.7)"/>
     <use xlink:href="#DejaVuSans-29" transform="translate(2285.379232 46.8875) scale(0.7)"/>
     <use xlink:href="#DejaVuSans-32" transform="translate(1993.701172 -26.796875) scale(0.7)"/>
     <use xlink:href="#DejaVuSans-35" transform="translate(2038.237305 -26.796875) scale(0.7)"/>
     <use xlink:href="#DejaVuSans-28" transform="translate(2315.423177 0.546875)"/>
     <use xlink:href="#DejaVuSans-Oblique-78" transform="translate(2354.436849 0.546875)"/>
     <use xlink:href="#DejaVuSans-29" transform="translate(2413.616536 0.546875)"/>
    </g>
   </g>
   <g id="line2d_26">
    <path d="M 84.82 334.0528 
L 232.86856 334.163527 
L 236.61832 334.409203 
L 239.109232 334.786388 
L 241.03768 335.297764 
L 242.64472 335.949072 
L 244.064272 336.761516 
L 245.363296 337.760332 
L 246.59536 338.991554 
L 247.787248 340.504544 
L 248.952352 342.350072 
L 250.117456 344.622134 
L 251.295952 347.423387 
L 252.48784 350.844679 
L 253.719904 355.08201 
L 254.992144 360.287005 
L 256.317952 366.688796 
L 257.697328 374.478647 
L 259.170448 384.116436 
L 260.764096 396.071159 
L 262.545232 411.192862 
L 264.67456 431.293668 
L 268.330576 468.398652 
L 270.982192 494.19075 
L 272.682976 508.679584 
L 274.04896 518.522697 
L 275.200672 525.291842 
L 276.178288 529.794307 
L 277.008592 532.650451 
L 277.718368 534.353655 
L 278.307616 535.236519 
L 278.789728 535.59539 
L 279.20488 535.64072 
L 279.60664 535.452044 
L 280.048576 534.981106 
L 280.570864 534.071462 
L 281.186896 532.513892 
L 281.910064 530.032401 
L 282.75376 526.280911 
L 283.731376 520.85051 
L 284.869696 513.196809 
L 286.222288 502.50162 
L 287.90968 487.261338 
L 290.373808 462.734896 
L 294.860128 417.991057 
L 296.909104 399.934395 
L 298.676848 386.256807 
L 300.283888 375.505134 
L 301.7704 367.004923 
L 303.189952 360.138809 
L 304.542544 354.65875 
L 305.85496 350.243984 
L 307.1272 346.721985 
L 308.372656 343.908174 
L 309.60472 341.657973 
L 310.836784 339.859227 
L 312.08224 338.425231 
L 313.367872 337.278278 
L 314.733856 336.357827 
L 316.206976 335.633781 
L 317.880976 335.063921 
L 319.8496 334.635658 
L 322.340512 334.331982 
L 325.862608 334.144324 
L 332.277376 334.062395 
L 365.971648 334.0528 
L 754.42 334.0528 
L 754.42 334.0528 
" clip-path="url(#pdc008dcf97)" style="fill: none; stroke-dasharray: 7.4,3.2; stroke-dashoffset: 0; stroke: #990000; stroke-width: 2"/>
   </g>
   <g id="line2d_27">
    <path d="M 84.82 334.0528 
L 513.96664 333.94183 
L 517.7164 333.695679 
L 520.19392 333.32058 
L 522.122368 332.810047 
L 523.729408 332.159753 
L 525.14896 331.348511 
L 526.447984 330.351102 
L 527.680048 329.121535 
L 528.871936 327.61048 
L 530.03704 325.767197 
L 531.202144 323.497755 
L 532.38064 320.699554 
L 533.572528 317.281766 
L 534.804592 313.048487 
L 536.076832 307.848097 
L 537.389248 301.521321 
L 538.768624 293.748585 
L 540.241744 284.129432 
L 541.835392 272.194317 
L 543.616528 257.092285 
L 545.732464 237.140914 
L 549.308128 200.862962 
L 552.026704 174.342173 
L 553.74088 159.688868 
L 555.106864 149.801417 
L 556.258576 142.988569 
L 557.236192 138.445273 
L 558.066496 135.552344 
L 558.776272 133.816568 
L 559.36552 132.906128 
L 559.847632 132.524486 
L 560.262784 132.459486 
L 560.664544 132.629145 
L 561.10648 133.079263 
L 561.615376 133.9371 
L 562.218016 135.416634 
L 562.927792 137.789071 
L 563.758096 141.396622 
L 564.72232 146.646588 
L 565.847248 154.084348 
L 567.173056 164.421342 
L 568.820272 179.131837 
L 571.15048 202.158566 
L 576.132304 251.792338 
L 578.154496 269.437373 
L 579.895456 282.759668 
L 581.489104 293.300503 
L 582.975616 301.695709 
L 584.381776 308.408509 
L 585.734368 313.815128 
L 587.033392 318.125472 
L 588.305632 321.599784 
L 589.551088 324.372972 
L 590.783152 326.588727 
L 592.015216 328.3584 
L 593.260672 329.767999 
L 594.546304 330.894453 
L 595.912288 331.797635 
L 597.3988 332.512822 
L 599.086192 333.072666 
L 601.0816 333.493023 
L 603.62608 333.789674 
L 607.255312 333.969943 
L 614.07184 334.045437 
L 656.618224 334.0528 
L 754.42 334.0528 
L 754.42 334.0528 
" clip-path="url(#pdc008dcf97)" style="fill: none; stroke-dasharray: 7.4,3.2; stroke-dashoffset: 0; stroke: #990000; stroke-width: 2"/>
   </g>
   <g id="PathCollection_1">
    <path d="M 100.271846 342.713054 
L 108.9321 334.0528 
L 100.271846 325.392546 
L 91.611591 334.0528 
L 100.271846 342.713054 
z
" clip-path="url(#pdc008dcf97)" style="fill: none; stroke: #ff0000; stroke-width: 3"/>
    <path d="M 738.968154 342.713054 
L 747.628409 334.0528 
L 738.968154 325.392546 
L 730.3079 334.0528 
L 738.968154 342.713054 
z
" clip-path="url(#pdc008dcf97)" style="fill: none; stroke: #ff0000; stroke-width: 3"/>
   </g>
   <g id="legend_1">
    <g id="line2d_28">
     <path d="M 116.745625 57.352075 
L 128.745625 57.352075 
L 140.745625 57.352075 
" style="fill: none; stroke: #ff8000; stroke-width: 2; stroke-linecap: square"/>
    </g>
    <g id="text_15">
     <!-- Hermite function -->
     <g transform="translate(150.345625 61.552075) scale(0.12 -0.12)">
      <use xlink:href="#DejaVuSans-48"/>
      <use xlink:href="#DejaVuSans-65" x="75.195312"/>
      <use xlink:href="#DejaVuSans-72" x="136.71875"/>
      <use xlink:href="#DejaVuSans-6d" x="176.082031"/>
      <use xlink:href="#DejaVuSans-69" x="273.494141"/>
      <use xlink:href="#DejaVuSans-74" x="301.277344"/>
      <use xlink:href="#DejaVuSans-65" x="340.486328"/>
      <use xlink:href="#DejaVuSans-20" x="402.009766"/>
      <use xlink:href="#DejaVuSans-66" x="433.796875"/>
      <use xlink:href="#DejaVuSans-75" x="469.001953"/>
      <use xlink:href="#DejaVuSans-6e" x="532.380859"/>
      <use xlink:href="#DejaVuSans-63" x="595.759766"/>
      <use xlink:href="#DejaVuSans-74" x="650.740234"/>
      <use xlink:href="#DejaVuSans-69" x="689.949219"/>
      <use xlink:href="#DejaVuSans-6f" x="717.732422"/>
      <use xlink:href="#DejaVuSans-6e" x="778.914062"/>
     </g>
    </g>
    <g id="line2d_29">
     <path d="M 116.745625 74.965825 
L 128.745625 74.965825 
L 140.745625 74.965825 
" style="fill: none; stroke-dasharray: 7.4,3.2; stroke-dashoffset: 0; stroke: #990000; stroke-width: 2"/>
    </g>
    <g id="text_16">
     <!-- Gaussian approximation -->
     <g transform="translate(150.345625 79.165825) scale(0.12 -0.12)">
      <defs>
       <path id="DejaVuSans-47" d="M 3809 666 
L 3809 1919 
L 2778 1919 
L 2778 2438 
L 4434 2438 
L 4434 434 
Q 4069 175 3628 42 
Q 3188 -91 2688 -91 
Q 1594 -91 976 548 
Q 359 1188 359 2328 
Q 359 3472 976 4111 
Q 1594 4750 2688 4750 
Q 3144 4750 3555 4637 
Q 3966 4525 4313 4306 
L 4313 3634 
Q 3963 3931 3569 4081 
Q 3175 4231 2741 4231 
Q 1884 4231 1454 3753 
Q 1025 3275 1025 2328 
Q 1025 1384 1454 906 
Q 1884 428 2741 428 
Q 3075 428 3337 486 
Q 3600 544 3809 666 
z
" transform="scale(0.015625)"/>
      </defs>
      <use xlink:href="#DejaVuSans-47"/>
      <use xlink:href="#DejaVuSans-61" x="77.490234"/>
      <use xlink:href="#DejaVuSans-75" x="138.769531"/>
      <use xlink:href="#DejaVuSans-73" x="202.148438"/>
      <use xlink:href="#DejaVuSans-73" x="254.248047"/>
      <use xlink:href="#DejaVuSans-69" x="306.347656"/>
      <use xlink:href="#DejaVuSans-61" x="334.130859"/>
      <use xlink:href="#DejaVuSans-6e" x="395.410156"/>
      <use xlink:href="#DejaVuSans-20" x="458.789062"/>
      <use xlink:href="#DejaVuSans-61" x="490.576172"/>
      <use xlink:href="#DejaVuSans-70" x="551.855469"/>
      <use xlink:href="#DejaVuSans-70" x="615.332031"/>
      <use xlink:href="#DejaVuSans-72" x="678.808594"/>
      <use xlink:href="#DejaVuSans-6f" x="717.671875"/>
      <use xlink:href="#DejaVuSans-78" x="775.728516"/>
      <use xlink:href="#DejaVuSans-69" x="834.908203"/>
      <use xlink:href="#DejaVuSans-6d" x="862.691406"/>
      <use xlink:href="#DejaVuSans-61" x="960.103516"/>
      <use xlink:href="#DejaVuSans-74" x="1021.382812"/>
      <use xlink:href="#DejaVuSans-69" x="1060.591797"/>
      <use xlink:href="#DejaVuSans-6f" x="1088.375"/>
      <use xlink:href="#DejaVuSans-6e" x="1149.556641"/>
     </g>
    </g>
    <g id="PathCollection_2">
     <path d="M 128.745625 102.289829 
L 137.405879 93.629575 
L 128.745625 84.969321 
L 120.085371 93.629575 
L 128.745625 102.289829 
z
" style="fill: none; stroke: #ff0000; stroke-width: 3"/>
    </g>
    <g id="text_17">
     <!-- Numerical Fadeouts -->
     <g transform="translate(150.345625 96.779575) scale(0.12 -0.12)">
      <defs>
       <path id="DejaVuSans-4e" d="M 628 4666 
L 1478 4666 
L 3547 763 
L 3547 4666 
L 4159 4666 
L 4159 0 
L 3309 0 
L 1241 3903 
L 1241 0 
L 628 0 
L 628 4666 
z
" transform="scale(0.015625)"/>
       <path id="DejaVuSans-46" d="M 628 4666 
L 3309 4666 
L 3309 4134 
L 1259 4134 
L 1259 2759 
L 3109 2759 
L 3109 2228 
L 1259 2228 
L 1259 0 
L 628 0 
L 628 4666 
z
" transform="scale(0.015625)"/>
       <path id="DejaVuSans-64" d="M 2906 2969 
L 2906 4863 
L 3481 4863 
L 3481 0 
L 2906 0 
L 2906 525 
Q 2725 213 2448 61 
Q 2172 -91 1784 -91 
Q 1150 -91 751 415 
Q 353 922 353 1747 
Q 353 2572 751 3078 
Q 1150 3584 1784 3584 
Q 2172 3584 2448 3432 
Q 2725 3281 2906 2969 
z
M 947 1747 
Q 947 1113 1208 752 
Q 1469 391 1925 391 
Q 2381 391 2643 752 
Q 2906 1113 2906 1747 
Q 2906 2381 2643 2742 
Q 2381 3103 1925 3103 
Q 1469 3103 1208 2742 
Q 947 2381 947 1747 
z
" transform="scale(0.015625)"/>
      </defs>
      <use xlink:href="#DejaVuSans-4e"/>
      <use xlink:href="#DejaVuSans-75" x="74.804688"/>
      <use xlink:href="#DejaVuSans-6d" x="138.183594"/>
      <use xlink:href="#DejaVuSans-65" x="235.595703"/>
      <use xlink:href="#DejaVuSans-72" x="297.119141"/>
      <use xlink:href="#DejaVuSans-69" x="338.232422"/>
      <use xlink:href="#DejaVuSans-63" x="366.015625"/>
      <use xlink:href="#DejaVuSans-61" x="420.996094"/>
      <use xlink:href="#DejaVuSans-6c" x="482.275391"/>
      <use xlink:href="#DejaVuSans-20" x="510.058594"/>
      <use xlink:href="#DejaVuSans-46" x="541.845703"/>
      <use xlink:href="#DejaVuSans-61" x="590.240234"/>
      <use xlink:href="#DejaVuSans-64" x="651.519531"/>
      <use xlink:href="#DejaVuSans-65" x="714.996094"/>
      <use xlink:href="#DejaVuSans-6f" x="776.519531"/>
      <use xlink:href="#DejaVuSans-75" x="837.701172"/>
      <use xlink:href="#DejaVuSans-74" x="901.080078"/>
      <use xlink:href="#DejaVuSans-73" x="940.289062"/>
     </g>
    </g>
    <g id="PathCollection_3">
     <path d="M 331.89625 65.473143 
C 333.771519 65.473143 335.570235 64.72809 336.89625 63.402075 
C 338.222266 62.076059 338.967318 60.277344 338.967318 58.402075 
C 338.967318 56.526806 338.222266 54.72809 336.89625 53.402075 
C 335.570235 52.076059 333.771519 51.331007 331.89625 51.331007 
C 330.020981 51.331007 328.222266 52.076059 326.89625 53.402075 
C 325.570235 54.72809 324.825182 56.526806 324.825182 58.402075 
C 324.825182 60.277344 325.570235 62.076059 326.89625 63.402075 
C 328.222266 64.72809 330.020981 65.473143 331.89625 65.473143 
L 331.89625 65.473143 
z
" style="fill: none; stroke: #800080; stroke-width: 3"/>
    </g>
    <g id="text_18">
     <!-- Largest Zeros -->
     <g transform="translate(353.49625 61.552075) scale(0.12 -0.12)">
      <defs>
       <path id="DejaVuSans-4c" d="M 628 4666 
L 1259 4666 
L 1259 531 
L 3531 531 
L 3531 0 
L 628 0 
L 628 4666 
z
" transform="scale(0.015625)"/>
       <path id="DejaVuSans-67" d="M 2906 1791 
Q 2906 2416 2648 2759 
Q 2391 3103 1925 3103 
Q 1463 3103 1205 2759 
Q 947 2416 947 1791 
Q 947 1169 1205 825 
Q 1463 481 1925 481 
Q 2391 481 2648 825 
Q 2906 1169 2906 1791 
z
M 3481 434 
Q 3481 -459 3084 -895 
Q 2688 -1331 1869 -1331 
Q 1566 -1331 1297 -1286 
Q 1028 -1241 775 -1147 
L 775 -588 
Q 1028 -725 1275 -790 
Q 1522 -856 1778 -856 
Q 2344 -856 2625 -561 
Q 2906 -266 2906 331 
L 2906 616 
Q 2728 306 2450 153 
Q 2172 0 1784 0 
Q 1141 0 747 490 
Q 353 981 353 1791 
Q 353 2603 747 3093 
Q 1141 3584 1784 3584 
Q 2172 3584 2450 3431 
Q 2728 3278 2906 2969 
L 2906 3500 
L 3481 3500 
L 3481 434 
z
" transform="scale(0.015625)"/>
       <path id="DejaVuSans-5a" d="M 359 4666 
L 4025 4666 
L 4025 4184 
L 1075 531 
L 4097 531 
L 4097 0 
L 288 0 
L 288 481 
L 3238 4134 
L 359 4134 
L 359 4666 
z
" transform="scale(0.015625)"/>
      </defs>
      <use xlink:href="#DejaVuSans-4c"/>
      <use xlink:href="#DejaVuSans-61" x="55.712891"/>
      <use xlink:href="#DejaVuSans-72" x="116.992188"/>
      <use xlink:href="#DejaVuSans-67" x="156.355469"/>
      <use xlink:href="#DejaVuSans-65" x="219.832031"/>
      <use xlink:href="#DejaVuSans-73" x="281.355469"/>
      <use xlink:href="#DejaVuSans-74" x="333.455078"/>
      <use xlink:href="#DejaVuSans-20" x="372.664062"/>
      <use xlink:href="#DejaVuSans-5a" x="404.451172"/>
      <use xlink:href="#DejaVuSans-65" x="472.957031"/>
      <use xlink:href="#DejaVuSans-72" x="534.480469"/>
      <use xlink:href="#DejaVuSans-6f" x="573.34375"/>
      <use xlink:href="#DejaVuSans-73" x="634.525391"/>
     </g>
    </g>
    <g id="PathCollection_4">
     <path d="M 328.360716 83.086893 
L 331.89625 79.551359 
L 335.431784 83.086893 
L 338.967318 79.551359 
L 335.431784 76.015825 
L 338.967318 72.480291 
L 335.431784 68.944757 
L 331.89625 72.480291 
L 328.360716 68.944757 
L 324.825182 72.480291 
L 328.360716 76.015825 
L 324.825182 79.551359 
L 328.360716 83.086893 
z
" style="fill: none; stroke: #0000ff; stroke-width: 3"/>
    </g>
    <g id="text_19">
     <!-- Largest Extrema -->
     <g transform="translate(353.49625 79.165825) scale(0.12 -0.12)">
      <defs>
       <path id="DejaVuSans-45" d="M 628 4666 
L 3578 4666 
L 3578 4134 
L 1259 4134 
L 1259 2753 
L 3481 2753 
L 3481 2222 
L 1259 2222 
L 1259 531 
L 3634 531 
L 3634 0 
L 628 0 
L 628 4666 
z
" transform="scale(0.015625)"/>
      </defs>
      <use xlink:href="#DejaVuSans-4c"/>
      <use xlink:href="#DejaVuSans-61" x="55.712891"/>
      <use xlink:href="#DejaVuSans-72" x="116.992188"/>
      <use xlink:href="#DejaVuSans-67" x="156.355469"/>
      <use xlink:href="#DejaVuSans-65" x="219.832031"/>
      <use xlink:href="#DejaVuSans-73" x="281.355469"/>
      <use xlink:href="#DejaVuSans-74" x="333.455078"/>
      <use xlink:href="#DejaVuSans-20" x="372.664062"/>
      <use xlink:href="#DejaVuSans-45" x="404.451172"/>
      <use xlink:href="#DejaVuSans-78" x="467.634766"/>
      <use xlink:href="#DejaVuSans-74" x="526.814453"/>
      <use xlink:href="#DejaVuSans-72" x="566.023438"/>
      <use xlink:href="#DejaVuSans-65" x="604.886719"/>
      <use xlink:href="#DejaVuSans-6d" x="666.410156"/>
      <use xlink:href="#DejaVuSans-61" x="763.822266"/>
     </g>
    </g>
    <g id="PathCollection_5">
     <path d="M 486.152352 65.473143 
L 490.866398 65.473143 
L 490.866398 60.759098 
L 495.580443 60.759098 
L 495.580443 56.045052 
L 490.866398 56.045052 
L 490.866398 51.331007 
L 486.152352 51.331007 
L 486.152352 56.045052 
L 481.438307 56.045052 
L 481.438307 60.759098 
L 486.152352 60.759098 
L 486.152352 65.473143 
z
" style="fill: none; stroke: #ff007f; stroke-width: 3"/>
    </g>
    <g id="text_20">
     <!-- Gaussian 50% Level Approximation -->
     <g transform="translate(510.109375 61.552075) scale(0.12 -0.12)">
      <defs>
       <path id="DejaVuSans-25" d="M 4653 2053 
Q 4381 2053 4226 1822 
Q 4072 1591 4072 1178 
Q 4072 772 4226 539 
Q 4381 306 4653 306 
Q 4919 306 5073 539 
Q 5228 772 5228 1178 
Q 5228 1588 5073 1820 
Q 4919 2053 4653 2053 
z
M 4653 2450 
Q 5147 2450 5437 2106 
Q 5728 1763 5728 1178 
Q 5728 594 5436 251 
Q 5144 -91 4653 -91 
Q 4153 -91 3862 251 
Q 3572 594 3572 1178 
Q 3572 1766 3864 2108 
Q 4156 2450 4653 2450 
z
M 1428 4353 
Q 1159 4353 1004 4120 
Q 850 3888 850 3481 
Q 850 3069 1003 2837 
Q 1156 2606 1428 2606 
Q 1700 2606 1854 2837 
Q 2009 3069 2009 3481 
Q 2009 3884 1853 4118 
Q 1697 4353 1428 4353 
z
M 4250 4750 
L 4750 4750 
L 1831 -91 
L 1331 -91 
L 4250 4750 
z
M 1428 4750 
Q 1922 4750 2215 4408 
Q 2509 4066 2509 3481 
Q 2509 2891 2217 2550 
Q 1925 2209 1428 2209 
Q 931 2209 642 2551 
Q 353 2894 353 3481 
Q 353 4063 643 4406 
Q 934 4750 1428 4750 
z
" transform="scale(0.015625)"/>
       <path id="DejaVuSans-76" d="M 191 3500 
L 800 3500 
L 1894 563 
L 2988 3500 
L 3597 3500 
L 2284 0 
L 1503 0 
L 191 3500 
z
" transform="scale(0.015625)"/>
       <path id="DejaVuSans-41" d="M 2188 4044 
L 1331 1722 
L 3047 1722 
L 2188 4044 
z
M 1831 4666 
L 2547 4666 
L 4325 0 
L 3669 0 
L 3244 1197 
L 1141 1197 
L 716 0 
L 50 0 
L 1831 4666 
z
" transform="scale(0.015625)"/>
      </defs>
      <use xlink:href="#DejaVuSans-47"/>
      <use xlink:href="#DejaVuSans-61" x="77.490234"/>
      <use xlink:href="#DejaVuSans-75" x="138.769531"/>
      <use xlink:href="#DejaVuSans-73" x="202.148438"/>
      <use xlink:href="#DejaVuSans-73" x="254.248047"/>
      <use xlink:href="#DejaVuSans-69" x="306.347656"/>
      <use xlink:href="#DejaVuSans-61" x="334.130859"/>
      <use xlink:href="#DejaVuSans-6e" x="395.410156"/>
      <use xlink:href="#DejaVuSans-20" x="458.789062"/>
      <use xlink:href="#DejaVuSans-35" x="490.576172"/>
      <use xlink:href="#DejaVuSans-30" x="554.199219"/>
      <use xlink:href="#DejaVuSans-25" x="617.822266"/>
      <use xlink:href="#DejaVuSans-20" x="712.841797"/>
      <use xlink:href="#DejaVuSans-4c" x="744.628906"/>
      <use xlink:href="#DejaVuSans-65" x="798.591797"/>
      <use xlink:href="#DejaVuSans-76" x="860.115234"/>
      <use xlink:href="#DejaVuSans-65" x="919.294922"/>
      <use xlink:href="#DejaVuSans-6c" x="980.818359"/>
      <use xlink:href="#DejaVuSans-20" x="1008.601562"/>
      <use xlink:href="#DejaVuSans-41" x="1040.388672"/>
      <use xlink:href="#DejaVuSans-70" x="1108.796875"/>
      <use xlink:href="#DejaVuSans-70" x="1172.273438"/>
      <use xlink:href="#DejaVuSans-72" x="1235.75"/>
      <use xlink:href="#DejaVuSans-6f" x="1274.613281"/>
      <use xlink:href="#DejaVuSans-78" x="1332.669922"/>
      <use xlink:href="#DejaVuSans-69" x="1391.849609"/>
      <use xlink:href="#DejaVuSans-6d" x="1419.632812"/>
      <use xlink:href="#DejaVuSans-61" x="1517.044922"/>
      <use xlink:href="#DejaVuSans-74" x="1578.324219"/>
      <use xlink:href="#DejaVuSans-69" x="1617.533203"/>
      <use xlink:href="#DejaVuSans-6f" x="1645.316406"/>
      <use xlink:href="#DejaVuSans-6e" x="1706.498047"/>
     </g>
    </g>
    <g id="PathCollection_6">
     <path d="M 481.438307 83.086893 
L 495.580443 83.086893 
L 495.580443 68.944757 
L 481.438307 68.944757 
L 481.438307 83.086893 
z
" style="fill: none; stroke: #999900; stroke-width: 3"/>
    </g>
    <g id="text_21">
     <!-- Gaussian 1% Level Approximation -->
     <g transform="translate(510.109375 79.165825) scale(0.12 -0.12)">
      <use xlink:href="#DejaVuSans-47"/>
      <use xlink:href="#DejaVuSans-61" x="77.490234"/>
      <use xlink:href="#DejaVuSans-75" x="138.769531"/>
      <use xlink:href="#DejaVuSans-73" x="202.148438"/>
      <use xlink:href="#DejaVuSans-73" x="254.248047"/>
      <use xlink:href="#DejaVuSans-69" x="306.347656"/>
      <use xlink:href="#DejaVuSans-61" x="334.130859"/>
      <use xlink:href="#DejaVuSans-6e" x="395.410156"/>
      <use xlink:href="#DejaVuSans-20" x="458.789062"/>
      <use xlink:href="#DejaVuSans-31" x="490.576172"/>
      <use xlink:href="#DejaVuSans-25" x="554.199219"/>
      <use xlink:href="#DejaVuSans-20" x="649.21875"/>
      <use xlink:href="#DejaVuSans-4c" x="681.005859"/>
      <use xlink:href="#DejaVuSans-65" x="734.96875"/>
      <use xlink:href="#DejaVuSans-76" x="796.492188"/>
      <use xlink:href="#DejaVuSans-65" x="855.671875"/>
      <use xlink:href="#DejaVuSans-6c" x="917.195312"/>
      <use xlink:href="#DejaVuSans-20" x="944.978516"/>
      <use xlink:href="#DejaVuSans-41" x="976.765625"/>
      <use xlink:href="#DejaVuSans-70" x="1045.173828"/>
      <use xlink:href="#DejaVuSans-70" x="1108.650391"/>
      <use xlink:href="#DejaVuSans-72" x="1172.126953"/>
      <use xlink:href="#DejaVuSans-6f" x="1210.990234"/>
      <use xlink:href="#DejaVuSans-78" x="1269.046875"/>
      <use xlink:href="#DejaVuSans-69" x="1328.226562"/>
      <use xlink:href="#DejaVuSans-6d" x="1356.009766"/>
      <use xlink:href="#DejaVuSans-61" x="1453.421875"/>
      <use xlink:href="#DejaVuSans-74" x="1514.701172"/>
      <use xlink:href="#DejaVuSans-69" x="1553.910156"/>
      <use xlink:href="#DejaVuSans-6f" x="1581.693359"/>
      <use xlink:href="#DejaVuSans-6e" x="1642.875"/>
     </g>
    </g>
   </g>
   <g id="PathCollection_7">
    <defs>
     <path id="C0_0_9e917acc8a" d="M 0 7.071068 
C 1.875269 7.071068 3.673985 6.326016 5 5 
C 6.326016 3.673985 7.071068 1.875269 7.071068 -0 
C 7.071068 -1.875269 6.326016 -3.673985 5 -5 
C 3.673985 -6.326016 1.875269 -7.071068 0 -7.071068 
C -1.875269 -7.071068 -3.673985 -6.326016 -5 -5 
C -6.326016 -3.673985 -7.071068 -1.875269 -7.071068 0 
C -7.071068 1.875269 -6.326016 3.673985 -5 5 
C -3.673985 6.326016 -1.875269 7.071068 0 7.071068 
z
"/>
    </defs>
    <g clip-path="url(#pdc008dcf97)">
     <use xlink:href="#C0_0_9e917acc8a" x="290.632599" y="334.0528" style="fill: none; stroke: #800080; stroke-width: 3"/>
    </g>
    <g clip-path="url(#pdc008dcf97)">
     <use xlink:href="#C0_0_9e917acc8a" x="548.607401" y="334.0528" style="fill: none; stroke: #800080; stroke-width: 3"/>
    </g>
   </g>
   <g id="PathCollection_8">
    <defs>
     <path id="C1_0_1a6c357b29" d="M -3.535534 7.071068 
L 0 3.535534 
L 3.535534 7.071068 
L 7.071068 3.535534 
L 3.535534 -0 
L 7.071068 -3.535534 
L 3.535534 -7.071068 
L 0 -3.535534 
L -3.535534 -7.071068 
L -7.071068 -3.535534 
L -3.535534 0 
L -7.071068 3.535534 
z
"/>
    </defs>
    <g clip-path="url(#pdc008dcf97)">
     <use xlink:href="#C1_0_1a6c357b29" x="279.074335" y="535.6528" style="fill: none; stroke: #0000ff; stroke-width: 3"/>
    </g>
    <g clip-path="url(#pdc008dcf97)">
     <use xlink:href="#C1_0_1a6c357b29" x="560.165665" y="132.4528" style="fill: none; stroke: #0000ff; stroke-width: 3"/>
    </g>
   </g>
   <g id="PathCollection_9">
    <defs>
     <path id="C2_0_9a54489fd5" d="M -2.357023 7.071068 
L 2.357023 7.071068 
L 2.357023 2.357023 
L 7.071068 2.357023 
L 7.071068 -2.357023 
L 2.357023 -2.357023 
L 2.357023 -7.071068 
L -2.357023 -7.071068 
L -2.357023 -2.357023 
L -7.071068 -2.357023 
L -7.071068 2.357023 
L -2.357023 2.357023 
z
"/>
    </defs>
    <g clip-path="url(#pdc008dcf97)">
     <use xlink:href="#C2_0_9a54489fd5" x="265.03403" y="434.8528" style="fill: none; stroke: #ff007f; stroke-width: 3"/>
    </g>
    <g clip-path="url(#pdc008dcf97)">
     <use xlink:href="#C2_0_9a54489fd5" x="574.20597" y="233.2528" style="fill: none; stroke: #ff007f; stroke-width: 3"/>
    </g>
   </g>
   <g id="PathCollection_10">
    <path d="M 235.813429 343.139868 
L 249.955565 343.139868 
L 249.955565 328.997732 
L 235.813429 328.997732 
L 235.813429 343.139868 
z
" clip-path="url(#pdc008dcf97)" style="fill: none; stroke: #999900; stroke-width: 3"/>
    <path d="M 589.284435 339.107868 
L 603.426571 339.107868 
L 603.426571 324.965732 
L 589.284435 324.965732 
L 589.284435 339.107868 
z
" clip-path="url(#pdc008dcf97)" style="fill: none; stroke: #999900; stroke-width: 3"/>
   </g>
  </g>
 </g>
 <defs>
  <clipPath id="pdc008dcf97">
   <rect x="84.82" y="112.2928" width="669.6" height="443.52"/>
  </clipPath>
 </defs>
</svg>
