<?xml version="1.0" encoding="utf-8" standalone="no"?>
<!DOCTYPE svg PUBLIC "-//W3C//DTD SVG 1.1//EN"
  "http://www.w3.org/Graphics/SVG/1.1/DTD/svg11.dtd">
<svg xmlns:xlink="http://www.w3.org/1999/xlink" width="698.928562pt" height="413.648562pt" viewBox="0 0 698.928562 413.648562" xmlns="http://www.w3.org/2000/svg" version="1.1">
 <metadata>
  <rdf:RDF xmlns:dc="http://purl.org/dc/elements/1.1/" xmlns:cc="http://creativecommons.org/ns#" xmlns:rdf="http://www.w3.org/1999/02/22-rdf-syntax-ns#">
   <cc:Work>
    <dc:type rdf:resource="http://purl.org/dc/dcmitype/StillImage"/>
    <dc:date>2024-08-08T22:08:20.509176</dc:date>
    <dc:format>image/svg+xml</dc:format>
    <dc:creator>
     <cc:Agent>
      <dc:title>Matplotlib v3.9.1.post1, https://matplotlib.org/</dc:title>
     </cc:Agent>
    </dc:creator>
   </cc:Work>
  </rdf:RDF>
 </metadata>
 <defs>
  <style type="text/css">*{stroke-linejoin: round; stroke-linecap: butt}</style>
 </defs>
 <g id="figure_1">
  <g id="patch_1">
   <path d="M 0 413.648562 
L 698.928562 413.648562 
L 698.928562 0 
L 0 0 
z
" style="fill: #ffffff"/>
  </g>
  <g id="axes_1">
   <g id="patch_2">
    <path d="M 92.506675 354.349812 
L 517.777925 354.349812 
L 517.777925 57.837812 
L 92.506675 57.837812 
z
" style="fill: #ffffff"/>
   </g>
   <g id="matplotlib.axis_1">
    <g id="xtick_1">
     <g id="line2d_1">
      <path d="M 92.506675 354.349812 
L 92.506675 57.837812 
" clip-path="url(#p85a7087d70)" style="fill: none; stroke: #b0b0b0; stroke-width: 0.3; stroke-linecap: square"/>
     </g>
     <g id="line2d_2">
      <defs>
       <path id="m2d7d3db49e" d="M 0 0 
L 0 3.5 
" style="stroke: #000000; stroke-width: 0.4"/>
      </defs>
      <g>
       <use xlink:href="#m2d7d3db49e" x="92.506675" y="354.349812" style="stroke: #000000; stroke-width: 0.4"/>
      </g>
     </g>
     <g id="text_1">
      <!-- $\mathdefault{10^{0}}$ -->
      <g transform="translate(80.186675 371.987625) scale(0.14 -0.14)">
       <defs>
        <path id="DejaVuSans-31" d="M 794 531 
L 1825 531 
L 1825 4091 
L 703 3866 
L 703 4441 
L 1819 4666 
L 2450 4666 
L 2450 531 
L 3481 531 
L 3481 0 
L 794 0 
L 794 531 
z
" transform="scale(0.015625)"/>
        <path id="DejaVuSans-30" d="M 2034 4250 
Q 1547 4250 1301 3770 
Q 1056 3291 1056 2328 
Q 1056 1369 1301 889 
Q 1547 409 2034 409 
Q 2525 409 2770 889 
Q 3016 1369 3016 2328 
Q 3016 3291 2770 3770 
Q 2525 4250 2034 4250 
z
M 2034 4750 
Q 2819 4750 3233 4129 
Q 3647 3509 3647 2328 
Q 3647 1150 3233 529 
Q 2819 -91 2034 -91 
Q 1250 -91 836 529 
Q 422 1150 422 2328 
Q 422 3509 836 4129 
Q 1250 4750 2034 4750 
z
" transform="scale(0.015625)"/>
       </defs>
       <use xlink:href="#DejaVuSans-31" transform="translate(0 0.765625)"/>
       <use xlink:href="#DejaVuSans-30" transform="translate(63.623047 0.765625)"/>
       <use xlink:href="#DejaVuSans-30" transform="translate(128.203125 39.046875) scale(0.7)"/>
      </g>
     </g>
    </g>
    <g id="xtick_2">
     <g id="line2d_3">
      <path d="M 188.838363 354.349812 
L 188.838363 57.837812 
" clip-path="url(#p85a7087d70)" style="fill: none; stroke: #b0b0b0; stroke-width: 0.3; stroke-linecap: square"/>
     </g>
     <g id="line2d_4">
      <g>
       <use xlink:href="#m2d7d3db49e" x="188.838363" y="354.349812" style="stroke: #000000; stroke-width: 0.4"/>
      </g>
     </g>
     <g id="text_2">
      <!-- $\mathdefault{10^{1}}$ -->
      <g transform="translate(176.518363 371.987625) scale(0.14 -0.14)">
       <use xlink:href="#DejaVuSans-31" transform="translate(0 0.684375)"/>
       <use xlink:href="#DejaVuSans-30" transform="translate(63.623047 0.684375)"/>
       <use xlink:href="#DejaVuSans-31" transform="translate(128.203125 38.965625) scale(0.7)"/>
      </g>
     </g>
    </g>
    <g id="xtick_3">
     <g id="line2d_5">
      <path d="M 285.17005 354.349812 
L 285.17005 57.837812 
" clip-path="url(#p85a7087d70)" style="fill: none; stroke: #b0b0b0; stroke-width: 0.3; stroke-linecap: square"/>
     </g>
     <g id="line2d_6">
      <g>
       <use xlink:href="#m2d7d3db49e" x="285.17005" y="354.349812" style="stroke: #000000; stroke-width: 0.4"/>
      </g>
     </g>
     <g id="text_3">
      <!-- $\mathdefault{10^{2}}$ -->
      <g transform="translate(272.85005 371.987625) scale(0.14 -0.14)">
       <defs>
        <path id="DejaVuSans-32" d="M 1228 531 
L 3431 531 
L 3431 0 
L 469 0 
L 469 531 
Q 828 903 1448 1529 
Q 2069 2156 2228 2338 
Q 2531 2678 2651 2914 
Q 2772 3150 2772 3378 
Q 2772 3750 2511 3984 
Q 2250 4219 1831 4219 
Q 1534 4219 1204 4116 
Q 875 4013 500 3803 
L 500 4441 
Q 881 4594 1212 4672 
Q 1544 4750 1819 4750 
Q 2544 4750 2975 4387 
Q 3406 4025 3406 3419 
Q 3406 3131 3298 2873 
Q 3191 2616 2906 2266 
Q 2828 2175 2409 1742 
Q 1991 1309 1228 531 
z
" transform="scale(0.015625)"/>
       </defs>
       <use xlink:href="#DejaVuSans-31" transform="translate(0 0.765625)"/>
       <use xlink:href="#DejaVuSans-30" transform="translate(63.623047 0.765625)"/>
       <use xlink:href="#DejaVuSans-32" transform="translate(128.203125 39.046875) scale(0.7)"/>
      </g>
     </g>
    </g>
    <g id="xtick_4">
     <g id="line2d_7">
      <path d="M 381.501738 354.349812 
L 381.501738 57.837812 
" clip-path="url(#p85a7087d70)" style="fill: none; stroke: #b0b0b0; stroke-width: 0.3; stroke-linecap: square"/>
     </g>
     <g id="line2d_8">
      <g>
       <use xlink:href="#m2d7d3db49e" x="381.501738" y="354.349812" style="stroke: #000000; stroke-width: 0.4"/>
      </g>
     </g>
     <g id="text_4">
      <!-- $\mathdefault{10^{3}}$ -->
      <g transform="translate(369.181738 371.987625) scale(0.14 -0.14)">
       <defs>
        <path id="DejaVuSans-33" d="M 2597 2516 
Q 3050 2419 3304 2112 
Q 3559 1806 3559 1356 
Q 3559 666 3084 287 
Q 2609 -91 1734 -91 
Q 1441 -91 1130 -33 
Q 819 25 488 141 
L 488 750 
Q 750 597 1062 519 
Q 1375 441 1716 441 
Q 2309 441 2620 675 
Q 2931 909 2931 1356 
Q 2931 1769 2642 2001 
Q 2353 2234 1838 2234 
L 1294 2234 
L 1294 2753 
L 1863 2753 
Q 2328 2753 2575 2939 
Q 2822 3125 2822 3475 
Q 2822 3834 2567 4026 
Q 2313 4219 1838 4219 
Q 1578 4219 1281 4162 
Q 984 4106 628 3988 
L 628 4550 
Q 988 4650 1302 4700 
Q 1616 4750 1894 4750 
Q 2613 4750 3031 4423 
Q 3450 4097 3450 3541 
Q 3450 3153 3228 2886 
Q 3006 2619 2597 2516 
z
" transform="scale(0.015625)"/>
       </defs>
       <use xlink:href="#DejaVuSans-31" transform="translate(0 0.765625)"/>
       <use xlink:href="#DejaVuSans-30" transform="translate(63.623047 0.765625)"/>
       <use xlink:href="#DejaVuSans-33" transform="translate(128.203125 39.046875) scale(0.7)"/>
      </g>
     </g>
    </g>
    <g id="xtick_5">
     <g id="line2d_9">
      <path d="M 477.833426 354.349812 
L 477.833426 57.837812 
" clip-path="url(#p85a7087d70)" style="fill: none; stroke: #b0b0b0; stroke-width: 0.3; stroke-linecap: square"/>
     </g>
     <g id="line2d_10">
      <g>
       <use xlink:href="#m2d7d3db49e" x="477.833426" y="354.349812" style="stroke: #000000; stroke-width: 0.4"/>
      </g>
     </g>
     <g id="text_5">
      <!-- $\mathdefault{10^{4}}$ -->
      <g transform="translate(465.513426 371.987625) scale(0.14 -0.14)">
       <defs>
        <path id="DejaVuSans-34" d="M 2419 4116 
L 825 1625 
L 2419 1625 
L 2419 4116 
z
M 2253 4666 
L 3047 4666 
L 3047 1625 
L 3713 1625 
L 3713 1100 
L 3047 1100 
L 3047 0 
L 2419 0 
L 2419 1100 
L 313 1100 
L 313 1709 
L 2253 4666 
z
" transform="scale(0.015625)"/>
       </defs>
       <use xlink:href="#DejaVuSans-31" transform="translate(0 0.684375)"/>
       <use xlink:href="#DejaVuSans-30" transform="translate(63.623047 0.684375)"/>
       <use xlink:href="#DejaVuSans-34" transform="translate(128.203125 38.965625) scale(0.7)"/>
      </g>
     </g>
    </g>
    <g id="xtick_6">
     <g id="line2d_11">
      <path d="M 121.505403 354.349812 
L 121.505403 57.837812 
" clip-path="url(#p85a7087d70)" style="fill: none; stroke: #b0b0b0; stroke-width: 0.3; stroke-linecap: square"/>
     </g>
    </g>
    <g id="xtick_7">
     <g id="line2d_12">
      <path d="M 138.468571 354.349812 
L 138.468571 57.837812 
" clip-path="url(#p85a7087d70)" style="fill: none; stroke: #b0b0b0; stroke-width: 0.3; stroke-linecap: square"/>
     </g>
    </g>
    <g id="xtick_8">
     <g id="line2d_13">
      <path d="M 150.50413 354.349812 
L 150.50413 57.837812 
" clip-path="url(#p85a7087d70)" style="fill: none; stroke: #b0b0b0; stroke-width: 0.3; stroke-linecap: square"/>
     </g>
    </g>
    <g id="xtick_9">
     <g id="line2d_14">
      <path d="M 159.839635 354.349812 
L 159.839635 57.837812 
" clip-path="url(#p85a7087d70)" style="fill: none; stroke: #b0b0b0; stroke-width: 0.3; stroke-linecap: square"/>
     </g>
    </g>
    <g id="xtick_10">
     <g id="line2d_15">
      <path d="M 167.467298 354.349812 
L 167.467298 57.837812 
" clip-path="url(#p85a7087d70)" style="fill: none; stroke: #b0b0b0; stroke-width: 0.3; stroke-linecap: square"/>
     </g>
    </g>
    <g id="xtick_11">
     <g id="line2d_16">
      <path d="M 173.916395 354.349812 
L 173.916395 57.837812 
" clip-path="url(#p85a7087d70)" style="fill: none; stroke: #b0b0b0; stroke-width: 0.3; stroke-linecap: square"/>
     </g>
    </g>
    <g id="xtick_12">
     <g id="line2d_17">
      <path d="M 179.502858 354.349812 
L 179.502858 57.837812 
" clip-path="url(#p85a7087d70)" style="fill: none; stroke: #b0b0b0; stroke-width: 0.3; stroke-linecap: square"/>
     </g>
    </g>
    <g id="xtick_13">
     <g id="line2d_18">
      <path d="M 184.430466 354.349812 
L 184.430466 57.837812 
" clip-path="url(#p85a7087d70)" style="fill: none; stroke: #b0b0b0; stroke-width: 0.3; stroke-linecap: square"/>
     </g>
    </g>
    <g id="xtick_14">
     <g id="line2d_19">
      <path d="M 217.83709 354.349812 
L 217.83709 57.837812 
" clip-path="url(#p85a7087d70)" style="fill: none; stroke: #b0b0b0; stroke-width: 0.3; stroke-linecap: square"/>
     </g>
    </g>
    <g id="xtick_15">
     <g id="line2d_20">
      <path d="M 234.800258 354.349812 
L 234.800258 57.837812 
" clip-path="url(#p85a7087d70)" style="fill: none; stroke: #b0b0b0; stroke-width: 0.3; stroke-linecap: square"/>
     </g>
    </g>
    <g id="xtick_16">
     <g id="line2d_21">
      <path d="M 246.835818 354.349812 
L 246.835818 57.837812 
" clip-path="url(#p85a7087d70)" style="fill: none; stroke: #b0b0b0; stroke-width: 0.3; stroke-linecap: square"/>
     </g>
    </g>
    <g id="xtick_17">
     <g id="line2d_22">
      <path d="M 256.171323 354.349812 
L 256.171323 57.837812 
" clip-path="url(#p85a7087d70)" style="fill: none; stroke: #b0b0b0; stroke-width: 0.3; stroke-linecap: square"/>
     </g>
    </g>
    <g id="xtick_18">
     <g id="line2d_23">
      <path d="M 263.798986 354.349812 
L 263.798986 57.837812 
" clip-path="url(#p85a7087d70)" style="fill: none; stroke: #b0b0b0; stroke-width: 0.3; stroke-linecap: square"/>
     </g>
    </g>
    <g id="xtick_19">
     <g id="line2d_24">
      <path d="M 270.248083 354.349812 
L 270.248083 57.837812 
" clip-path="url(#p85a7087d70)" style="fill: none; stroke: #b0b0b0; stroke-width: 0.3; stroke-linecap: square"/>
     </g>
    </g>
    <g id="xtick_20">
     <g id="line2d_25">
      <path d="M 275.834545 354.349812 
L 275.834545 57.837812 
" clip-path="url(#p85a7087d70)" style="fill: none; stroke: #b0b0b0; stroke-width: 0.3; stroke-linecap: square"/>
     </g>
    </g>
    <g id="xtick_21">
     <g id="line2d_26">
      <path d="M 280.762154 354.349812 
L 280.762154 57.837812 
" clip-path="url(#p85a7087d70)" style="fill: none; stroke: #b0b0b0; stroke-width: 0.3; stroke-linecap: square"/>
     </g>
    </g>
    <g id="xtick_22">
     <g id="line2d_27">
      <path d="M 314.168778 354.349812 
L 314.168778 57.837812 
" clip-path="url(#p85a7087d70)" style="fill: none; stroke: #b0b0b0; stroke-width: 0.3; stroke-linecap: square"/>
     </g>
    </g>
    <g id="xtick_23">
     <g id="line2d_28">
      <path d="M 331.131946 354.349812 
L 331.131946 57.837812 
" clip-path="url(#p85a7087d70)" style="fill: none; stroke: #b0b0b0; stroke-width: 0.3; stroke-linecap: square"/>
     </g>
    </g>
    <g id="xtick_24">
     <g id="line2d_29">
      <path d="M 343.167506 354.349812 
L 343.167506 57.837812 
" clip-path="url(#p85a7087d70)" style="fill: none; stroke: #b0b0b0; stroke-width: 0.3; stroke-linecap: square"/>
     </g>
    </g>
    <g id="xtick_25">
     <g id="line2d_30">
      <path d="M 352.503011 354.349812 
L 352.503011 57.837812 
" clip-path="url(#p85a7087d70)" style="fill: none; stroke: #b0b0b0; stroke-width: 0.3; stroke-linecap: square"/>
     </g>
    </g>
    <g id="xtick_26">
     <g id="line2d_31">
      <path d="M 360.130674 354.349812 
L 360.130674 57.837812 
" clip-path="url(#p85a7087d70)" style="fill: none; stroke: #b0b0b0; stroke-width: 0.3; stroke-linecap: square"/>
     </g>
    </g>
    <g id="xtick_27">
     <g id="line2d_32">
      <path d="M 366.579771 354.349812 
L 366.579771 57.837812 
" clip-path="url(#p85a7087d70)" style="fill: none; stroke: #b0b0b0; stroke-width: 0.3; stroke-linecap: square"/>
     </g>
    </g>
    <g id="xtick_28">
     <g id="line2d_33">
      <path d="M 372.166233 354.349812 
L 372.166233 57.837812 
" clip-path="url(#p85a7087d70)" style="fill: none; stroke: #b0b0b0; stroke-width: 0.3; stroke-linecap: square"/>
     </g>
    </g>
    <g id="xtick_29">
     <g id="line2d_34">
      <path d="M 377.093842 354.349812 
L 377.093842 57.837812 
" clip-path="url(#p85a7087d70)" style="fill: none; stroke: #b0b0b0; stroke-width: 0.3; stroke-linecap: square"/>
     </g>
    </g>
    <g id="xtick_30">
     <g id="line2d_35">
      <path d="M 410.500466 354.349812 
L 410.500466 57.837812 
" clip-path="url(#p85a7087d70)" style="fill: none; stroke: #b0b0b0; stroke-width: 0.3; stroke-linecap: square"/>
     </g>
    </g>
    <g id="xtick_31">
     <g id="line2d_36">
      <path d="M 427.463634 354.349812 
L 427.463634 57.837812 
" clip-path="url(#p85a7087d70)" style="fill: none; stroke: #b0b0b0; stroke-width: 0.3; stroke-linecap: square"/>
     </g>
    </g>
    <g id="xtick_32">
     <g id="line2d_37">
      <path d="M 439.499193 354.349812 
L 439.499193 57.837812 
" clip-path="url(#p85a7087d70)" style="fill: none; stroke: #b0b0b0; stroke-width: 0.3; stroke-linecap: square"/>
     </g>
    </g>
    <g id="xtick_33">
     <g id="line2d_38">
      <path d="M 448.834698 354.349812 
L 448.834698 57.837812 
" clip-path="url(#p85a7087d70)" style="fill: none; stroke: #b0b0b0; stroke-width: 0.3; stroke-linecap: square"/>
     </g>
    </g>
    <g id="xtick_34">
     <g id="line2d_39">
      <path d="M 456.462361 354.349812 
L 456.462361 57.837812 
" clip-path="url(#p85a7087d70)" style="fill: none; stroke: #b0b0b0; stroke-width: 0.3; stroke-linecap: square"/>
     </g>
    </g>
    <g id="xtick_35">
     <g id="line2d_40">
      <path d="M 462.911459 354.349812 
L 462.911459 57.837812 
" clip-path="url(#p85a7087d70)" style="fill: none; stroke: #b0b0b0; stroke-width: 0.3; stroke-linecap: square"/>
     </g>
    </g>
    <g id="xtick_36">
     <g id="line2d_41">
      <path d="M 468.497921 354.349812 
L 468.497921 57.837812 
" clip-path="url(#p85a7087d70)" style="fill: none; stroke: #b0b0b0; stroke-width: 0.3; stroke-linecap: square"/>
     </g>
    </g>
    <g id="xtick_37">
     <g id="line2d_42">
      <path d="M 473.42553 354.349812 
L 473.42553 57.837812 
" clip-path="url(#p85a7087d70)" style="fill: none; stroke: #b0b0b0; stroke-width: 0.3; stroke-linecap: square"/>
     </g>
    </g>
    <g id="xtick_38">
     <g id="line2d_43">
      <path d="M 506.832153 354.349812 
L 506.832153 57.837812 
" clip-path="url(#p85a7087d70)" style="fill: none; stroke: #b0b0b0; stroke-width: 0.3; stroke-linecap: square"/>
     </g>
    </g>
    <g id="text_6">
     <!-- Order of the Hermite Function Basis -->
     <g transform="translate(179.647612 403.537) scale(0.14 -0.14)">
      <defs>
       <path id="DejaVuSans-4f" d="M 2522 4238 
Q 1834 4238 1429 3725 
Q 1025 3213 1025 2328 
Q 1025 1447 1429 934 
Q 1834 422 2522 422 
Q 3209 422 3611 934 
Q 4013 1447 4013 2328 
Q 4013 3213 3611 3725 
Q 3209 4238 2522 4238 
z
M 2522 4750 
Q 3503 4750 4090 4092 
Q 4678 3434 4678 2328 
Q 4678 1225 4090 567 
Q 3503 -91 2522 -91 
Q 1538 -91 948 565 
Q 359 1222 359 2328 
Q 359 3434 948 4092 
Q 1538 4750 2522 4750 
z
" transform="scale(0.015625)"/>
       <path id="DejaVuSans-72" d="M 2631 2963 
Q 2534 3019 2420 3045 
Q 2306 3072 2169 3072 
Q 1681 3072 1420 2755 
Q 1159 2438 1159 1844 
L 1159 0 
L 581 0 
L 581 3500 
L 1159 3500 
L 1159 2956 
Q 1341 3275 1631 3429 
Q 1922 3584 2338 3584 
Q 2397 3584 2469 3576 
Q 2541 3569 2628 3553 
L 2631 2963 
z
" transform="scale(0.015625)"/>
       <path id="DejaVuSans-64" d="M 2906 2969 
L 2906 4863 
L 3481 4863 
L 3481 0 
L 2906 0 
L 2906 525 
Q 2725 213 2448 61 
Q 2172 -91 1784 -91 
Q 1150 -91 751 415 
Q 353 922 353 1747 
Q 353 2572 751 3078 
Q 1150 3584 1784 3584 
Q 2172 3584 2448 3432 
Q 2725 3281 2906 2969 
z
M 947 1747 
Q 947 1113 1208 752 
Q 1469 391 1925 391 
Q 2381 391 2643 752 
Q 2906 1113 2906 1747 
Q 2906 2381 2643 2742 
Q 2381 3103 1925 3103 
Q 1469 3103 1208 2742 
Q 947 2381 947 1747 
z
" transform="scale(0.015625)"/>
       <path id="DejaVuSans-65" d="M 3597 1894 
L 3597 1613 
L 953 1613 
Q 991 1019 1311 708 
Q 1631 397 2203 397 
Q 2534 397 2845 478 
Q 3156 559 3463 722 
L 3463 178 
Q 3153 47 2828 -22 
Q 2503 -91 2169 -91 
Q 1331 -91 842 396 
Q 353 884 353 1716 
Q 353 2575 817 3079 
Q 1281 3584 2069 3584 
Q 2775 3584 3186 3129 
Q 3597 2675 3597 1894 
z
M 3022 2063 
Q 3016 2534 2758 2815 
Q 2500 3097 2075 3097 
Q 1594 3097 1305 2825 
Q 1016 2553 972 2059 
L 3022 2063 
z
" transform="scale(0.015625)"/>
       <path id="DejaVuSans-20" transform="scale(0.015625)"/>
       <path id="DejaVuSans-6f" d="M 1959 3097 
Q 1497 3097 1228 2736 
Q 959 2375 959 1747 
Q 959 1119 1226 758 
Q 1494 397 1959 397 
Q 2419 397 2687 759 
Q 2956 1122 2956 1747 
Q 2956 2369 2687 2733 
Q 2419 3097 1959 3097 
z
M 1959 3584 
Q 2709 3584 3137 3096 
Q 3566 2609 3566 1747 
Q 3566 888 3137 398 
Q 2709 -91 1959 -91 
Q 1206 -91 779 398 
Q 353 888 353 1747 
Q 353 2609 779 3096 
Q 1206 3584 1959 3584 
z
" transform="scale(0.015625)"/>
       <path id="DejaVuSans-66" d="M 2375 4863 
L 2375 4384 
L 1825 4384 
Q 1516 4384 1395 4259 
Q 1275 4134 1275 3809 
L 1275 3500 
L 2222 3500 
L 2222 3053 
L 1275 3053 
L 1275 0 
L 697 0 
L 697 3053 
L 147 3053 
L 147 3500 
L 697 3500 
L 697 3744 
Q 697 4328 969 4595 
Q 1241 4863 1831 4863 
L 2375 4863 
z
" transform="scale(0.015625)"/>
       <path id="DejaVuSans-74" d="M 1172 4494 
L 1172 3500 
L 2356 3500 
L 2356 3053 
L 1172 3053 
L 1172 1153 
Q 1172 725 1289 603 
Q 1406 481 1766 481 
L 2356 481 
L 2356 0 
L 1766 0 
Q 1100 0 847 248 
Q 594 497 594 1153 
L 594 3053 
L 172 3053 
L 172 3500 
L 594 3500 
L 594 4494 
L 1172 4494 
z
" transform="scale(0.015625)"/>
       <path id="DejaVuSans-68" d="M 3513 2113 
L 3513 0 
L 2938 0 
L 2938 2094 
Q 2938 2591 2744 2837 
Q 2550 3084 2163 3084 
Q 1697 3084 1428 2787 
Q 1159 2491 1159 1978 
L 1159 0 
L 581 0 
L 581 4863 
L 1159 4863 
L 1159 2956 
Q 1366 3272 1645 3428 
Q 1925 3584 2291 3584 
Q 2894 3584 3203 3211 
Q 3513 2838 3513 2113 
z
" transform="scale(0.015625)"/>
       <path id="DejaVuSans-48" d="M 628 4666 
L 1259 4666 
L 1259 2753 
L 3553 2753 
L 3553 4666 
L 4184 4666 
L 4184 0 
L 3553 0 
L 3553 2222 
L 1259 2222 
L 1259 0 
L 628 0 
L 628 4666 
z
" transform="scale(0.015625)"/>
       <path id="DejaVuSans-6d" d="M 3328 2828 
Q 3544 3216 3844 3400 
Q 4144 3584 4550 3584 
Q 5097 3584 5394 3201 
Q 5691 2819 5691 2113 
L 5691 0 
L 5113 0 
L 5113 2094 
Q 5113 2597 4934 2840 
Q 4756 3084 4391 3084 
Q 3944 3084 3684 2787 
Q 3425 2491 3425 1978 
L 3425 0 
L 2847 0 
L 2847 2094 
Q 2847 2600 2669 2842 
Q 2491 3084 2119 3084 
Q 1678 3084 1418 2786 
Q 1159 2488 1159 1978 
L 1159 0 
L 581 0 
L 581 3500 
L 1159 3500 
L 1159 2956 
Q 1356 3278 1631 3431 
Q 1906 3584 2284 3584 
Q 2666 3584 2933 3390 
Q 3200 3197 3328 2828 
z
" transform="scale(0.015625)"/>
       <path id="DejaVuSans-69" d="M 603 3500 
L 1178 3500 
L 1178 0 
L 603 0 
L 603 3500 
z
M 603 4863 
L 1178 4863 
L 1178 4134 
L 603 4134 
L 603 4863 
z
" transform="scale(0.015625)"/>
       <path id="DejaVuSans-46" d="M 628 4666 
L 3309 4666 
L 3309 4134 
L 1259 4134 
L 1259 2759 
L 3109 2759 
L 3109 2228 
L 1259 2228 
L 1259 0 
L 628 0 
L 628 4666 
z
" transform="scale(0.015625)"/>
       <path id="DejaVuSans-75" d="M 544 1381 
L 544 3500 
L 1119 3500 
L 1119 1403 
Q 1119 906 1312 657 
Q 1506 409 1894 409 
Q 2359 409 2629 706 
Q 2900 1003 2900 1516 
L 2900 3500 
L 3475 3500 
L 3475 0 
L 2900 0 
L 2900 538 
Q 2691 219 2414 64 
Q 2138 -91 1772 -91 
Q 1169 -91 856 284 
Q 544 659 544 1381 
z
M 1991 3584 
L 1991 3584 
z
" transform="scale(0.015625)"/>
       <path id="DejaVuSans-6e" d="M 3513 2113 
L 3513 0 
L 2938 0 
L 2938 2094 
Q 2938 2591 2744 2837 
Q 2550 3084 2163 3084 
Q 1697 3084 1428 2787 
Q 1159 2491 1159 1978 
L 1159 0 
L 581 0 
L 581 3500 
L 1159 3500 
L 1159 2956 
Q 1366 3272 1645 3428 
Q 1925 3584 2291 3584 
Q 2894 3584 3203 3211 
Q 3513 2838 3513 2113 
z
" transform="scale(0.015625)"/>
       <path id="DejaVuSans-63" d="M 3122 3366 
L 3122 2828 
Q 2878 2963 2633 3030 
Q 2388 3097 2138 3097 
Q 1578 3097 1268 2742 
Q 959 2388 959 1747 
Q 959 1106 1268 751 
Q 1578 397 2138 397 
Q 2388 397 2633 464 
Q 2878 531 3122 666 
L 3122 134 
Q 2881 22 2623 -34 
Q 2366 -91 2075 -91 
Q 1284 -91 818 406 
Q 353 903 353 1747 
Q 353 2603 823 3093 
Q 1294 3584 2113 3584 
Q 2378 3584 2631 3529 
Q 2884 3475 3122 3366 
z
" transform="scale(0.015625)"/>
       <path id="DejaVuSans-42" d="M 1259 2228 
L 1259 519 
L 2272 519 
Q 2781 519 3026 730 
Q 3272 941 3272 1375 
Q 3272 1813 3026 2020 
Q 2781 2228 2272 2228 
L 1259 2228 
z
M 1259 4147 
L 1259 2741 
L 2194 2741 
Q 2656 2741 2882 2914 
Q 3109 3088 3109 3444 
Q 3109 3797 2882 3972 
Q 2656 4147 2194 4147 
L 1259 4147 
z
M 628 4666 
L 2241 4666 
Q 2963 4666 3353 4366 
Q 3744 4066 3744 3513 
Q 3744 3084 3544 2831 
Q 3344 2578 2956 2516 
Q 3422 2416 3680 2098 
Q 3938 1781 3938 1306 
Q 3938 681 3513 340 
Q 3088 0 2303 0 
L 628 0 
L 628 4666 
z
" transform="scale(0.015625)"/>
       <path id="DejaVuSans-61" d="M 2194 1759 
Q 1497 1759 1228 1600 
Q 959 1441 959 1056 
Q 959 750 1161 570 
Q 1363 391 1709 391 
Q 2188 391 2477 730 
Q 2766 1069 2766 1631 
L 2766 1759 
L 2194 1759 
z
M 3341 1997 
L 3341 0 
L 2766 0 
L 2766 531 
Q 2569 213 2275 61 
Q 1981 -91 1556 -91 
Q 1019 -91 701 211 
Q 384 513 384 1019 
Q 384 1609 779 1909 
Q 1175 2209 1959 2209 
L 2766 2209 
L 2766 2266 
Q 2766 2663 2505 2880 
Q 2244 3097 1772 3097 
Q 1472 3097 1187 3025 
Q 903 2953 641 2809 
L 641 3341 
Q 956 3463 1253 3523 
Q 1550 3584 1831 3584 
Q 2591 3584 2966 3190 
Q 3341 2797 3341 1997 
z
" transform="scale(0.015625)"/>
       <path id="DejaVuSans-73" d="M 2834 3397 
L 2834 2853 
Q 2591 2978 2328 3040 
Q 2066 3103 1784 3103 
Q 1356 3103 1142 2972 
Q 928 2841 928 2578 
Q 928 2378 1081 2264 
Q 1234 2150 1697 2047 
L 1894 2003 
Q 2506 1872 2764 1633 
Q 3022 1394 3022 966 
Q 3022 478 2636 193 
Q 2250 -91 1575 -91 
Q 1294 -91 989 -36 
Q 684 19 347 128 
L 347 722 
Q 666 556 975 473 
Q 1284 391 1588 391 
Q 1994 391 2212 530 
Q 2431 669 2431 922 
Q 2431 1156 2273 1281 
Q 2116 1406 1581 1522 
L 1381 1569 
Q 847 1681 609 1914 
Q 372 2147 372 2553 
Q 372 3047 722 3315 
Q 1072 3584 1716 3584 
Q 2034 3584 2315 3537 
Q 2597 3491 2834 3397 
z
" transform="scale(0.015625)"/>
      </defs>
      <use xlink:href="#DejaVuSans-4f"/>
      <use xlink:href="#DejaVuSans-72" x="78.710938"/>
      <use xlink:href="#DejaVuSans-64" x="118.074219"/>
      <use xlink:href="#DejaVuSans-65" x="181.550781"/>
      <use xlink:href="#DejaVuSans-72" x="243.074219"/>
      <use xlink:href="#DejaVuSans-20" x="284.1875"/>
      <use xlink:href="#DejaVuSans-6f" x="315.974609"/>
      <use xlink:href="#DejaVuSans-66" x="377.15625"/>
      <use xlink:href="#DejaVuSans-20" x="412.361328"/>
      <use xlink:href="#DejaVuSans-74" x="444.148438"/>
      <use xlink:href="#DejaVuSans-68" x="483.357422"/>
      <use xlink:href="#DejaVuSans-65" x="546.736328"/>
      <use xlink:href="#DejaVuSans-20" x="608.259766"/>
      <use xlink:href="#DejaVuSans-48" x="640.046875"/>
      <use xlink:href="#DejaVuSans-65" x="715.242188"/>
      <use xlink:href="#DejaVuSans-72" x="776.765625"/>
      <use xlink:href="#DejaVuSans-6d" x="816.128906"/>
      <use xlink:href="#DejaVuSans-69" x="913.541016"/>
      <use xlink:href="#DejaVuSans-74" x="941.324219"/>
      <use xlink:href="#DejaVuSans-65" x="980.533203"/>
      <use xlink:href="#DejaVuSans-20" x="1042.056641"/>
      <use xlink:href="#DejaVuSans-46" x="1073.84375"/>
      <use xlink:href="#DejaVuSans-75" x="1125.863281"/>
      <use xlink:href="#DejaVuSans-6e" x="1189.242188"/>
      <use xlink:href="#DejaVuSans-63" x="1252.621094"/>
      <use xlink:href="#DejaVuSans-74" x="1307.601562"/>
      <use xlink:href="#DejaVuSans-69" x="1346.810547"/>
      <use xlink:href="#DejaVuSans-6f" x="1374.59375"/>
      <use xlink:href="#DejaVuSans-6e" x="1435.775391"/>
      <use xlink:href="#DejaVuSans-20" x="1499.154297"/>
      <use xlink:href="#DejaVuSans-42" x="1530.941406"/>
      <use xlink:href="#DejaVuSans-61" x="1599.544922"/>
      <use xlink:href="#DejaVuSans-73" x="1660.824219"/>
      <use xlink:href="#DejaVuSans-69" x="1712.923828"/>
      <use xlink:href="#DejaVuSans-73" x="1740.707031"/>
     </g>
    </g>
   </g>
   <g id="matplotlib.axis_2">
    <g id="ytick_1">
     <g id="line2d_44">
      <defs>
       <path id="m5a20457cbb" d="M 0 0 
L -3.5 0 
" style="stroke: #000000; stroke-width: 0.3"/>
      </defs>
      <g>
       <use xlink:href="#m5a20457cbb" x="92.506675" y="350.427423" style="stroke: #000000; stroke-width: 0.3"/>
      </g>
     </g>
     <g id="text_7">
      <!-- $\mathdefault{10^{-4}}$ -->
      <g transform="translate(52.606675 355.746329) scale(0.14 -0.14)">
       <defs>
        <path id="DejaVuSans-2212" d="M 678 2272 
L 4684 2272 
L 4684 1741 
L 678 1741 
L 678 2272 
z
" transform="scale(0.015625)"/>
       </defs>
       <use xlink:href="#DejaVuSans-31" transform="translate(0 0.684375)"/>
       <use xlink:href="#DejaVuSans-30" transform="translate(63.623047 0.684375)"/>
       <use xlink:href="#DejaVuSans-2212" transform="translate(128.203125 38.965625) scale(0.7)"/>
       <use xlink:href="#DejaVuSans-34" transform="translate(186.855469 38.965625) scale(0.7)"/>
      </g>
     </g>
    </g>
    <g id="ytick_2">
     <g id="line2d_45">
      <g>
       <use xlink:href="#m5a20457cbb" x="92.506675" y="286.62827" style="stroke: #000000; stroke-width: 0.3"/>
      </g>
     </g>
     <g id="text_8">
      <!-- $\mathdefault{10^{-3}}$ -->
      <g transform="translate(52.606675 291.947176) scale(0.14 -0.14)">
       <use xlink:href="#DejaVuSans-31" transform="translate(0 0.765625)"/>
       <use xlink:href="#DejaVuSans-30" transform="translate(63.623047 0.765625)"/>
       <use xlink:href="#DejaVuSans-2212" transform="translate(128.203125 39.046875) scale(0.7)"/>
       <use xlink:href="#DejaVuSans-33" transform="translate(186.855469 39.046875) scale(0.7)"/>
      </g>
     </g>
    </g>
    <g id="ytick_3">
     <g id="line2d_46">
      <g>
       <use xlink:href="#m5a20457cbb" x="92.506675" y="222.829116" style="stroke: #000000; stroke-width: 0.3"/>
      </g>
     </g>
     <g id="text_9">
      <!-- $\mathdefault{10^{-2}}$ -->
      <g transform="translate(52.606675 228.148023) scale(0.14 -0.14)">
       <use xlink:href="#DejaVuSans-31" transform="translate(0 0.765625)"/>
       <use xlink:href="#DejaVuSans-30" transform="translate(63.623047 0.765625)"/>
       <use xlink:href="#DejaVuSans-2212" transform="translate(128.203125 39.046875) scale(0.7)"/>
       <use xlink:href="#DejaVuSans-32" transform="translate(186.855469 39.046875) scale(0.7)"/>
      </g>
     </g>
    </g>
    <g id="ytick_4">
     <g id="line2d_47">
      <g>
       <use xlink:href="#m5a20457cbb" x="92.506675" y="159.029963" style="stroke: #000000; stroke-width: 0.3"/>
      </g>
     </g>
     <g id="text_10">
      <!-- $\mathdefault{10^{-1}}$ -->
      <g transform="translate(52.606675 164.348869) scale(0.14 -0.14)">
       <use xlink:href="#DejaVuSans-31" transform="translate(0 0.684375)"/>
       <use xlink:href="#DejaVuSans-30" transform="translate(63.623047 0.684375)"/>
       <use xlink:href="#DejaVuSans-2212" transform="translate(128.203125 38.965625) scale(0.7)"/>
       <use xlink:href="#DejaVuSans-31" transform="translate(186.855469 38.965625) scale(0.7)"/>
      </g>
     </g>
    </g>
    <g id="ytick_5">
     <g id="line2d_48">
      <g>
       <use xlink:href="#m5a20457cbb" x="92.506675" y="95.23081" style="stroke: #000000; stroke-width: 0.3"/>
      </g>
     </g>
     <g id="text_11">
      <!-- $\mathdefault{10^{0}}$ -->
      <g transform="translate(60.866675 100.549716) scale(0.14 -0.14)">
       <use xlink:href="#DejaVuSans-31" transform="translate(0 0.765625)"/>
       <use xlink:href="#DejaVuSans-30" transform="translate(63.623047 0.765625)"/>
       <use xlink:href="#DejaVuSans-30" transform="translate(128.203125 39.046875) scale(0.7)"/>
      </g>
     </g>
    </g>
    <g id="ytick_6">
     <g id="line2d_49">
      <path d="M 92.506675 353.346712 
L 517.777925 353.346712 
" clip-path="url(#p85a7087d70)" style="fill: none; stroke: #b0b0b0; stroke-width: 0.3; stroke-linecap: square"/>
     </g>
    </g>
    <g id="ytick_7">
     <g id="line2d_50">
      <path d="M 92.506675 331.221964 
L 517.777925 331.221964 
" clip-path="url(#p85a7087d70)" style="fill: none; stroke: #b0b0b0; stroke-width: 0.3; stroke-linecap: square"/>
     </g>
    </g>
    <g id="ytick_8">
     <g id="line2d_51">
      <path d="M 92.506675 319.987491 
L 517.777925 319.987491 
" clip-path="url(#p85a7087d70)" style="fill: none; stroke: #b0b0b0; stroke-width: 0.3; stroke-linecap: square"/>
     </g>
    </g>
    <g id="ytick_9">
     <g id="line2d_52">
      <path d="M 92.506675 312.016505 
L 517.777925 312.016505 
" clip-path="url(#p85a7087d70)" style="fill: none; stroke: #b0b0b0; stroke-width: 0.3; stroke-linecap: square"/>
     </g>
    </g>
    <g id="ytick_10">
     <g id="line2d_53">
      <path d="M 92.506675 305.833729 
L 517.777925 305.833729 
" clip-path="url(#p85a7087d70)" style="fill: none; stroke: #b0b0b0; stroke-width: 0.3; stroke-linecap: square"/>
     </g>
    </g>
    <g id="ytick_11">
     <g id="line2d_54">
      <path d="M 92.506675 300.782032 
L 517.777925 300.782032 
" clip-path="url(#p85a7087d70)" style="fill: none; stroke: #b0b0b0; stroke-width: 0.3; stroke-linecap: square"/>
     </g>
    </g>
    <g id="ytick_12">
     <g id="line2d_55">
      <path d="M 92.506675 296.510884 
L 517.777925 296.510884 
" clip-path="url(#p85a7087d70)" style="fill: none; stroke: #b0b0b0; stroke-width: 0.3; stroke-linecap: square"/>
     </g>
    </g>
    <g id="ytick_13">
     <g id="line2d_56">
      <path d="M 92.506675 292.811046 
L 517.777925 292.811046 
" clip-path="url(#p85a7087d70)" style="fill: none; stroke: #b0b0b0; stroke-width: 0.3; stroke-linecap: square"/>
     </g>
    </g>
    <g id="ytick_14">
     <g id="line2d_57">
      <path d="M 92.506675 289.547559 
L 517.777925 289.547559 
" clip-path="url(#p85a7087d70)" style="fill: none; stroke: #b0b0b0; stroke-width: 0.3; stroke-linecap: square"/>
     </g>
    </g>
    <g id="ytick_15">
     <g id="line2d_58">
      <path d="M 92.506675 267.422811 
L 517.777925 267.422811 
" clip-path="url(#p85a7087d70)" style="fill: none; stroke: #b0b0b0; stroke-width: 0.3; stroke-linecap: square"/>
     </g>
    </g>
    <g id="ytick_16">
     <g id="line2d_59">
      <path d="M 92.506675 256.188338 
L 517.777925 256.188338 
" clip-path="url(#p85a7087d70)" style="fill: none; stroke: #b0b0b0; stroke-width: 0.3; stroke-linecap: square"/>
     </g>
    </g>
    <g id="ytick_17">
     <g id="line2d_60">
      <path d="M 92.506675 248.217352 
L 517.777925 248.217352 
" clip-path="url(#p85a7087d70)" style="fill: none; stroke: #b0b0b0; stroke-width: 0.3; stroke-linecap: square"/>
     </g>
    </g>
    <g id="ytick_18">
     <g id="line2d_61">
      <path d="M 92.506675 242.034575 
L 517.777925 242.034575 
" clip-path="url(#p85a7087d70)" style="fill: none; stroke: #b0b0b0; stroke-width: 0.3; stroke-linecap: square"/>
     </g>
    </g>
    <g id="ytick_19">
     <g id="line2d_62">
      <path d="M 92.506675 236.982879 
L 517.777925 236.982879 
" clip-path="url(#p85a7087d70)" style="fill: none; stroke: #b0b0b0; stroke-width: 0.3; stroke-linecap: square"/>
     </g>
    </g>
    <g id="ytick_20">
     <g id="line2d_63">
      <path d="M 92.506675 232.71173 
L 517.777925 232.71173 
" clip-path="url(#p85a7087d70)" style="fill: none; stroke: #b0b0b0; stroke-width: 0.3; stroke-linecap: square"/>
     </g>
    </g>
    <g id="ytick_21">
     <g id="line2d_64">
      <path d="M 92.506675 229.011893 
L 517.777925 229.011893 
" clip-path="url(#p85a7087d70)" style="fill: none; stroke: #b0b0b0; stroke-width: 0.3; stroke-linecap: square"/>
     </g>
    </g>
    <g id="ytick_22">
     <g id="line2d_65">
      <path d="M 92.506675 225.748406 
L 517.777925 225.748406 
" clip-path="url(#p85a7087d70)" style="fill: none; stroke: #b0b0b0; stroke-width: 0.3; stroke-linecap: square"/>
     </g>
    </g>
    <g id="ytick_23">
     <g id="line2d_66">
      <path d="M 92.506675 203.623658 
L 517.777925 203.623658 
" clip-path="url(#p85a7087d70)" style="fill: none; stroke: #b0b0b0; stroke-width: 0.3; stroke-linecap: square"/>
     </g>
    </g>
    <g id="ytick_24">
     <g id="line2d_67">
      <path d="M 92.506675 192.389184 
L 517.777925 192.389184 
" clip-path="url(#p85a7087d70)" style="fill: none; stroke: #b0b0b0; stroke-width: 0.3; stroke-linecap: square"/>
     </g>
    </g>
    <g id="ytick_25">
     <g id="line2d_68">
      <path d="M 92.506675 184.418199 
L 517.777925 184.418199 
" clip-path="url(#p85a7087d70)" style="fill: none; stroke: #b0b0b0; stroke-width: 0.3; stroke-linecap: square"/>
     </g>
    </g>
    <g id="ytick_26">
     <g id="line2d_69">
      <path d="M 92.506675 178.235422 
L 517.777925 178.235422 
" clip-path="url(#p85a7087d70)" style="fill: none; stroke: #b0b0b0; stroke-width: 0.3; stroke-linecap: square"/>
     </g>
    </g>
    <g id="ytick_27">
     <g id="line2d_70">
      <path d="M 92.506675 173.183725 
L 517.777925 173.183725 
" clip-path="url(#p85a7087d70)" style="fill: none; stroke: #b0b0b0; stroke-width: 0.3; stroke-linecap: square"/>
     </g>
    </g>
    <g id="ytick_28">
     <g id="line2d_71">
      <path d="M 92.506675 168.912577 
L 517.777925 168.912577 
" clip-path="url(#p85a7087d70)" style="fill: none; stroke: #b0b0b0; stroke-width: 0.3; stroke-linecap: square"/>
     </g>
    </g>
    <g id="ytick_29">
     <g id="line2d_72">
      <path d="M 92.506675 165.21274 
L 517.777925 165.21274 
" clip-path="url(#p85a7087d70)" style="fill: none; stroke: #b0b0b0; stroke-width: 0.3; stroke-linecap: square"/>
     </g>
    </g>
    <g id="ytick_30">
     <g id="line2d_73">
      <path d="M 92.506675 161.949252 
L 517.777925 161.949252 
" clip-path="url(#p85a7087d70)" style="fill: none; stroke: #b0b0b0; stroke-width: 0.3; stroke-linecap: square"/>
     </g>
    </g>
    <g id="ytick_31">
     <g id="line2d_74">
      <path d="M 92.506675 139.824504 
L 517.777925 139.824504 
" clip-path="url(#p85a7087d70)" style="fill: none; stroke: #b0b0b0; stroke-width: 0.3; stroke-linecap: square"/>
     </g>
    </g>
    <g id="ytick_32">
     <g id="line2d_75">
      <path d="M 92.506675 128.590031 
L 517.777925 128.590031 
" clip-path="url(#p85a7087d70)" style="fill: none; stroke: #b0b0b0; stroke-width: 0.3; stroke-linecap: square"/>
     </g>
    </g>
    <g id="ytick_33">
     <g id="line2d_76">
      <path d="M 92.506675 120.619045 
L 517.777925 120.619045 
" clip-path="url(#p85a7087d70)" style="fill: none; stroke: #b0b0b0; stroke-width: 0.3; stroke-linecap: square"/>
     </g>
    </g>
    <g id="ytick_34">
     <g id="line2d_77">
      <path d="M 92.506675 114.436269 
L 517.777925 114.436269 
" clip-path="url(#p85a7087d70)" style="fill: none; stroke: #b0b0b0; stroke-width: 0.3; stroke-linecap: square"/>
     </g>
    </g>
    <g id="ytick_35">
     <g id="line2d_78">
      <path d="M 92.506675 109.384572 
L 517.777925 109.384572 
" clip-path="url(#p85a7087d70)" style="fill: none; stroke: #b0b0b0; stroke-width: 0.3; stroke-linecap: square"/>
     </g>
    </g>
    <g id="ytick_36">
     <g id="line2d_79">
      <path d="M 92.506675 105.113424 
L 517.777925 105.113424 
" clip-path="url(#p85a7087d70)" style="fill: none; stroke: #b0b0b0; stroke-width: 0.3; stroke-linecap: square"/>
     </g>
    </g>
    <g id="ytick_37">
     <g id="line2d_80">
      <path d="M 92.506675 101.413587 
L 517.777925 101.413587 
" clip-path="url(#p85a7087d70)" style="fill: none; stroke: #b0b0b0; stroke-width: 0.3; stroke-linecap: square"/>
     </g>
    </g>
    <g id="ytick_38">
     <g id="line2d_81">
      <path d="M 92.506675 98.150099 
L 517.777925 98.150099 
" clip-path="url(#p85a7087d70)" style="fill: none; stroke: #b0b0b0; stroke-width: 0.3; stroke-linecap: square"/>
     </g>
    </g>
    <g id="ytick_39">
     <g id="line2d_82">
      <path d="M 92.506675 76.025351 
L 517.777925 76.025351 
" clip-path="url(#p85a7087d70)" style="fill: none; stroke: #b0b0b0; stroke-width: 0.3; stroke-linecap: square"/>
     </g>
    </g>
    <g id="ytick_40">
     <g id="line2d_83">
      <path d="M 92.506675 64.790878 
L 517.777925 64.790878 
" clip-path="url(#p85a7087d70)" style="fill: none; stroke: #b0b0b0; stroke-width: 0.3; stroke-linecap: square"/>
     </g>
    </g>
    <g id="text_12">
     <!-- Runtime [s] -->
     <g transform="translate(7.2 62.668047) scale(0.14 -0.14)">
      <defs>
       <path id="DejaVuSans-52" d="M 2841 2188 
Q 3044 2119 3236 1894 
Q 3428 1669 3622 1275 
L 4263 0 
L 3584 0 
L 2988 1197 
Q 2756 1666 2539 1819 
Q 2322 1972 1947 1972 
L 1259 1972 
L 1259 0 
L 628 0 
L 628 4666 
L 2053 4666 
Q 2853 4666 3247 4331 
Q 3641 3997 3641 3322 
Q 3641 2881 3436 2590 
Q 3231 2300 2841 2188 
z
M 1259 4147 
L 1259 2491 
L 2053 2491 
Q 2509 2491 2742 2702 
Q 2975 2913 2975 3322 
Q 2975 3731 2742 3939 
Q 2509 4147 2053 4147 
L 1259 4147 
z
" transform="scale(0.015625)"/>
       <path id="DejaVuSans-5b" d="M 550 4863 
L 1875 4863 
L 1875 4416 
L 1125 4416 
L 1125 -397 
L 1875 -397 
L 1875 -844 
L 550 -844 
L 550 4863 
z
" transform="scale(0.015625)"/>
       <path id="DejaVuSans-5d" d="M 1947 4863 
L 1947 -844 
L 622 -844 
L 622 -397 
L 1369 -397 
L 1369 4416 
L 622 4416 
L 622 4863 
L 1947 4863 
z
" transform="scale(0.015625)"/>
      </defs>
      <use xlink:href="#DejaVuSans-52"/>
      <use xlink:href="#DejaVuSans-75" x="64.982422"/>
      <use xlink:href="#DejaVuSans-6e" x="128.361328"/>
      <use xlink:href="#DejaVuSans-74" x="191.740234"/>
      <use xlink:href="#DejaVuSans-69" x="230.949219"/>
      <use xlink:href="#DejaVuSans-6d" x="258.732422"/>
      <use xlink:href="#DejaVuSans-65" x="356.144531"/>
      <use xlink:href="#DejaVuSans-20" x="417.667969"/>
      <use xlink:href="#DejaVuSans-5b" x="449.455078"/>
      <use xlink:href="#DejaVuSans-73" x="488.46875"/>
      <use xlink:href="#DejaVuSans-5d" x="540.568359"/>
     </g>
    </g>
   </g>
   <g id="line2d_84">
    <path d="M 92.506675 318.18197 
L 92.506675 339.602338 
L 92.506675 331.444517 
L 92.506675 331.584525 
L 121.505403 327.688874 
L 138.468571 317.371873 
L 138.468571 313.930608 
L 159.839635 298.530158 
L 167.467298 295.989378 
L 173.916395 297.77422 
L 188.838363 281.615854 
L 196.466026 287.238977 
L 205.801531 283.012375 
L 217.83709 271.961704 
L 227.172595 270.377527 
L 236.172064 261.244468 
L 246.835818 257.209 
L 256.171323 247.725092 
L 265.840187 241.874335 
L 275.834545 228.022595 
L 285.586336 226.971677 
L 295.169638 218.336482 
L 305.093936 213.332458 
L 314.791663 183.128818 
L 324.332752 196.28084 
L 334.092664 196.090605 
L 343.79039 186.148246 
L 353.413431 166.95857 
L 363.091391 150.463922 
L 372.789118 153.896028 
L 382.453075 145.313648 
L 392.122588 142.834932 
L 401.787845 125.619903 
L 411.451802 123.679053 
L 421.121315 120.887939 
L 430.786573 115.241104 
L 440.45053 108.658481 
L 450.120043 97.998948 
L 459.7853 93.674551 
L 469.449257 89.066967 
L 479.114713 80.742318 
L 488.780808 77.338099 
L 498.447985 67.370219 
L 508.113441 61.504225 
L 517.777925 57.837812 
" clip-path="url(#p85a7087d70)" style="fill: none; stroke: #1f77b4; stroke-width: 1.5; stroke-linecap: square"/>
   </g>
   <g id="line2d_85">
    <path d="M 92.506675 339.677426 
L 92.506675 354.349812 
L 92.506675 354.000885 
L 92.506675 352.289618 
L 121.505403 340.401103 
L 138.468571 334.84275 
L 138.468571 335.176293 
L 159.839635 313.263275 
L 167.467298 318.035255 
L 173.916395 314.477807 
L 188.838363 305.634948 
L 196.466026 300.251464 
L 205.801531 294.662131 
L 217.83709 286.341599 
L 227.172595 280.567675 
L 236.172064 274.383563 
L 246.835818 267.938791 
L 256.171323 261.888156 
L 265.840187 250.413449 
L 275.834545 243.502495 
L 285.586336 236.534886 
L 295.169638 228.725565 
L 305.093936 225.250173 
L 314.791663 205.305673 
L 324.332752 201.30791 
L 334.092664 205.174819 
L 343.79039 198.725818 
L 353.413431 175.873482 
L 363.091391 161.675046 
L 372.789118 168.060927 
L 382.453075 154.699592 
L 392.122588 153.955302 
L 401.787845 144.331168 
L 411.451802 137.916563 
L 421.121315 128.271121 
L 430.786573 126.614667 
L 440.45053 119.753938 
L 450.120043 112.948401 
L 459.7853 107.155873 
L 469.449257 96.847668 
L 479.114713 95.154343 
L 488.780808 88.226647 
L 498.447985 79.378275 
L 508.113441 74.926563 
L 517.777925 69.989023 
" clip-path="url(#p85a7087d70)" style="fill: none; stroke: #ff7f0e; stroke-width: 1.5; stroke-linecap: square"/>
   </g>
   <g id="line2d_86">
    <path d="M 92.506675 137.05814 
L 92.506675 145.875861 
L 92.506675 134.334927 
L 92.506675 136.291353 
L 121.505403 140.419906 
L 138.468571 138.91864 
L 138.468571 138.500868 
L 159.839635 133.589221 
L 167.467298 136.589835 
L 173.916395 136.676558 
L 188.838363 132.84156 
L 196.466026 136.88378 
L 205.801531 136.115568 
L 217.83709 138.378954 
L 227.172595 136.34383 
L 236.172064 136.312886 
L 246.835818 136.056858 
L 256.171323 136.984681 
L 265.840187 139.391196 
L 275.834545 135.971351 
L 285.586336 139.036574 
L 295.169638 134.593887 
L 305.093936 134.954634 
L 314.791663 135.874801 
L 324.332752 136.173116 
L 334.092664 138.638409 
L 343.79039 136.946494 
L 353.413431 138.843455 
L 363.091391 137.92889 
L 372.789118 136.471954 
L 382.453075 137.035595 
L 392.122588 133.690369 
L 401.787845 138.971008 
L 411.451802 134.069797 
L 421.121315 136.969542 
L 430.786573 139.143412 
L 440.45053 134.812446 
L 450.120043 132.274609 
L 459.7853 142.160421 
L 469.449257 138.370027 
L 479.114713 139.72506 
L 488.780808 140.448924 
L 498.447985 139.044762 
L 508.113441 136.724877 
L 517.777925 135.731601 
" clip-path="url(#p85a7087d70)" style="fill: none; stroke: #2ca02c; stroke-width: 1.5; stroke-linecap: square"/>
   </g>
   <g id="patch_3">
    <path d="M 92.506675 354.349812 
L 92.506675 57.837812 
" style="fill: none; stroke: #000000; stroke-width: 0.5; stroke-linejoin: miter; stroke-linecap: square"/>
   </g>
   <g id="patch_4">
    <path d="M 517.777925 354.349812 
L 517.777925 57.837812 
" style="fill: none; stroke: #000000; stroke-width: 0.5; stroke-linejoin: miter; stroke-linecap: square"/>
   </g>
   <g id="patch_5">
    <path d="M 92.506675 354.349812 
L 517.777925 354.349812 
" style="fill: none; stroke: #000000; stroke-width: 0.5; stroke-linejoin: miter; stroke-linecap: square"/>
   </g>
   <g id="patch_6">
    <path d="M 92.506675 57.837812 
L 517.777925 57.837812 
" style="fill: none; stroke: #000000; stroke-width: 0.5; stroke-linejoin: miter; stroke-linecap: square"/>
   </g>
   <g id="text_13">
    <!-- NumPy Full Basis -->
    <g style="fill: #1f77b4" transform="translate(530.536062 59.976879) scale(0.14 -0.14)">
     <defs>
      <path id="DejaVuSans-4e" d="M 628 4666 
L 1478 4666 
L 3547 763 
L 3547 4666 
L 4159 4666 
L 4159 0 
L 3309 0 
L 1241 3903 
L 1241 0 
L 628 0 
L 628 4666 
z
" transform="scale(0.015625)"/>
      <path id="DejaVuSans-50" d="M 1259 4147 
L 1259 2394 
L 2053 2394 
Q 2494 2394 2734 2622 
Q 2975 2850 2975 3272 
Q 2975 3691 2734 3919 
Q 2494 4147 2053 4147 
L 1259 4147 
z
M 628 4666 
L 2053 4666 
Q 2838 4666 3239 4311 
Q 3641 3956 3641 3272 
Q 3641 2581 3239 2228 
Q 2838 1875 2053 1875 
L 1259 1875 
L 1259 0 
L 628 0 
L 628 4666 
z
" transform="scale(0.015625)"/>
      <path id="DejaVuSans-79" d="M 2059 -325 
Q 1816 -950 1584 -1140 
Q 1353 -1331 966 -1331 
L 506 -1331 
L 506 -850 
L 844 -850 
Q 1081 -850 1212 -737 
Q 1344 -625 1503 -206 
L 1606 56 
L 191 3500 
L 800 3500 
L 1894 763 
L 2988 3500 
L 3597 3500 
L 2059 -325 
z
" transform="scale(0.015625)"/>
      <path id="DejaVuSans-6c" d="M 603 4863 
L 1178 4863 
L 1178 0 
L 603 0 
L 603 4863 
z
" transform="scale(0.015625)"/>
     </defs>
     <use xlink:href="#DejaVuSans-4e"/>
     <use xlink:href="#DejaVuSans-75" x="74.804688"/>
     <use xlink:href="#DejaVuSans-6d" x="138.183594"/>
     <use xlink:href="#DejaVuSans-50" x="235.595703"/>
     <use xlink:href="#DejaVuSans-79" x="295.898438"/>
     <use xlink:href="#DejaVuSans-20" x="355.078125"/>
     <use xlink:href="#DejaVuSans-46" x="386.865234"/>
     <use xlink:href="#DejaVuSans-75" x="438.884766"/>
     <use xlink:href="#DejaVuSans-6c" x="502.263672"/>
     <use xlink:href="#DejaVuSans-6c" x="530.046875"/>
     <use xlink:href="#DejaVuSans-20" x="557.830078"/>
     <use xlink:href="#DejaVuSans-42" x="589.617188"/>
     <use xlink:href="#DejaVuSans-61" x="658.220703"/>
     <use xlink:href="#DejaVuSans-73" x="719.5"/>
     <use xlink:href="#DejaVuSans-69" x="771.599609"/>
     <use xlink:href="#DejaVuSans-73" x="799.382812"/>
    </g>
   </g>
   <g id="text_14">
    <!-- Numba Full Basis -->
    <g style="fill: #ff7f0e" transform="translate(530.536062 75.576206) scale(0.14 -0.14)">
     <defs>
      <path id="DejaVuSans-62" d="M 3116 1747 
Q 3116 2381 2855 2742 
Q 2594 3103 2138 3103 
Q 1681 3103 1420 2742 
Q 1159 2381 1159 1747 
Q 1159 1113 1420 752 
Q 1681 391 2138 391 
Q 2594 391 2855 752 
Q 3116 1113 3116 1747 
z
M 1159 2969 
Q 1341 3281 1617 3432 
Q 1894 3584 2278 3584 
Q 2916 3584 3314 3078 
Q 3713 2572 3713 1747 
Q 3713 922 3314 415 
Q 2916 -91 2278 -91 
Q 1894 -91 1617 61 
Q 1341 213 1159 525 
L 1159 0 
L 581 0 
L 581 4863 
L 1159 4863 
L 1159 2969 
z
" transform="scale(0.015625)"/>
     </defs>
     <use xlink:href="#DejaVuSans-4e"/>
     <use xlink:href="#DejaVuSans-75" x="74.804688"/>
     <use xlink:href="#DejaVuSans-6d" x="138.183594"/>
     <use xlink:href="#DejaVuSans-62" x="235.595703"/>
     <use xlink:href="#DejaVuSans-61" x="299.072266"/>
     <use xlink:href="#DejaVuSans-20" x="360.351562"/>
     <use xlink:href="#DejaVuSans-46" x="392.138672"/>
     <use xlink:href="#DejaVuSans-75" x="444.158203"/>
     <use xlink:href="#DejaVuSans-6c" x="507.537109"/>
     <use xlink:href="#DejaVuSans-6c" x="535.320312"/>
     <use xlink:href="#DejaVuSans-20" x="563.103516"/>
     <use xlink:href="#DejaVuSans-42" x="594.890625"/>
     <use xlink:href="#DejaVuSans-61" x="663.494141"/>
     <use xlink:href="#DejaVuSans-73" x="724.773438"/>
     <use xlink:href="#DejaVuSans-69" x="776.873047"/>
     <use xlink:href="#DejaVuSans-73" x="804.65625"/>
    </g>
   </g>
   <g id="text_15">
    <!-- NumPy Single Function -->
    <g style="fill: #2ca02c" transform="translate(530.536062 139.594726) scale(0.14 -0.14)">
     <defs>
      <path id="DejaVuSans-53" d="M 3425 4513 
L 3425 3897 
Q 3066 4069 2747 4153 
Q 2428 4238 2131 4238 
Q 1616 4238 1336 4038 
Q 1056 3838 1056 3469 
Q 1056 3159 1242 3001 
Q 1428 2844 1947 2747 
L 2328 2669 
Q 3034 2534 3370 2195 
Q 3706 1856 3706 1288 
Q 3706 609 3251 259 
Q 2797 -91 1919 -91 
Q 1588 -91 1214 -16 
Q 841 59 441 206 
L 441 856 
Q 825 641 1194 531 
Q 1563 422 1919 422 
Q 2459 422 2753 634 
Q 3047 847 3047 1241 
Q 3047 1584 2836 1778 
Q 2625 1972 2144 2069 
L 1759 2144 
Q 1053 2284 737 2584 
Q 422 2884 422 3419 
Q 422 4038 858 4394 
Q 1294 4750 2059 4750 
Q 2388 4750 2728 4690 
Q 3069 4631 3425 4513 
z
" transform="scale(0.015625)"/>
      <path id="DejaVuSans-67" d="M 2906 1791 
Q 2906 2416 2648 2759 
Q 2391 3103 1925 3103 
Q 1463 3103 1205 2759 
Q 947 2416 947 1791 
Q 947 1169 1205 825 
Q 1463 481 1925 481 
Q 2391 481 2648 825 
Q 2906 1169 2906 1791 
z
M 3481 434 
Q 3481 -459 3084 -895 
Q 2688 -1331 1869 -1331 
Q 1566 -1331 1297 -1286 
Q 1028 -1241 775 -1147 
L 775 -588 
Q 1028 -725 1275 -790 
Q 1522 -856 1778 -856 
Q 2344 -856 2625 -561 
Q 2906 -266 2906 331 
L 2906 616 
Q 2728 306 2450 153 
Q 2172 0 1784 0 
Q 1141 0 747 490 
Q 353 981 353 1791 
Q 353 2603 747 3093 
Q 1141 3584 1784 3584 
Q 2172 3584 2450 3431 
Q 2728 3278 2906 2969 
L 2906 3500 
L 3481 3500 
L 3481 434 
z
" transform="scale(0.015625)"/>
     </defs>
     <use xlink:href="#DejaVuSans-4e"/>
     <use xlink:href="#DejaVuSans-75" x="74.804688"/>
     <use xlink:href="#DejaVuSans-6d" x="138.183594"/>
     <use xlink:href="#DejaVuSans-50" x="235.595703"/>
     <use xlink:href="#DejaVuSans-79" x="295.898438"/>
     <use xlink:href="#DejaVuSans-20" x="355.078125"/>
     <use xlink:href="#DejaVuSans-53" x="386.865234"/>
     <use xlink:href="#DejaVuSans-69" x="450.341797"/>
     <use xlink:href="#DejaVuSans-6e" x="478.125"/>
     <use xlink:href="#DejaVuSans-67" x="541.503906"/>
     <use xlink:href="#DejaVuSans-6c" x="604.980469"/>
     <use xlink:href="#DejaVuSans-65" x="632.763672"/>
     <use xlink:href="#DejaVuSans-20" x="694.287109"/>
     <use xlink:href="#DejaVuSans-46" x="726.074219"/>
     <use xlink:href="#DejaVuSans-75" x="778.09375"/>
     <use xlink:href="#DejaVuSans-6e" x="841.472656"/>
     <use xlink:href="#DejaVuSans-63" x="904.851562"/>
     <use xlink:href="#DejaVuSans-74" x="959.832031"/>
     <use xlink:href="#DejaVuSans-69" x="999.041016"/>
     <use xlink:href="#DejaVuSans-6f" x="1026.824219"/>
     <use xlink:href="#DejaVuSans-6e" x="1088.005859"/>
    </g>
   </g>
   <g id="text_16">
    <!-- Performance of Hermite Function for 2501 x-values -->
    <g transform="translate(126.087769 17.837812) scale(0.14 -0.14)">
     <defs>
      <path id="DejaVuSans-35" d="M 691 4666 
L 3169 4666 
L 3169 4134 
L 1269 4134 
L 1269 2991 
Q 1406 3038 1543 3061 
Q 1681 3084 1819 3084 
Q 2600 3084 3056 2656 
Q 3513 2228 3513 1497 
Q 3513 744 3044 326 
Q 2575 -91 1722 -91 
Q 1428 -91 1123 -41 
Q 819 9 494 109 
L 494 744 
Q 775 591 1075 516 
Q 1375 441 1709 441 
Q 2250 441 2565 725 
Q 2881 1009 2881 1497 
Q 2881 1984 2565 2268 
Q 2250 2553 1709 2553 
Q 1456 2553 1204 2497 
Q 953 2441 691 2322 
L 691 4666 
z
" transform="scale(0.015625)"/>
      <path id="DejaVuSans-78" d="M 3513 3500 
L 2247 1797 
L 3578 0 
L 2900 0 
L 1881 1375 
L 863 0 
L 184 0 
L 1544 1831 
L 300 3500 
L 978 3500 
L 1906 2253 
L 2834 3500 
L 3513 3500 
z
" transform="scale(0.015625)"/>
      <path id="DejaVuSans-2d" d="M 313 2009 
L 1997 2009 
L 1997 1497 
L 313 1497 
L 313 2009 
z
" transform="scale(0.015625)"/>
      <path id="DejaVuSans-76" d="M 191 3500 
L 800 3500 
L 1894 563 
L 2988 3500 
L 3597 3500 
L 2284 0 
L 1503 0 
L 191 3500 
z
" transform="scale(0.015625)"/>
     </defs>
     <use xlink:href="#DejaVuSans-50"/>
     <use xlink:href="#DejaVuSans-65" x="56.677734"/>
     <use xlink:href="#DejaVuSans-72" x="118.201172"/>
     <use xlink:href="#DejaVuSans-66" x="159.314453"/>
     <use xlink:href="#DejaVuSans-6f" x="194.519531"/>
     <use xlink:href="#DejaVuSans-72" x="255.701172"/>
     <use xlink:href="#DejaVuSans-6d" x="295.064453"/>
     <use xlink:href="#DejaVuSans-61" x="392.476562"/>
     <use xlink:href="#DejaVuSans-6e" x="453.755859"/>
     <use xlink:href="#DejaVuSans-63" x="517.134766"/>
     <use xlink:href="#DejaVuSans-65" x="572.115234"/>
     <use xlink:href="#DejaVuSans-20" x="633.638672"/>
     <use xlink:href="#DejaVuSans-6f" x="665.425781"/>
     <use xlink:href="#DejaVuSans-66" x="726.607422"/>
     <use xlink:href="#DejaVuSans-20" x="761.8125"/>
     <use xlink:href="#DejaVuSans-48" x="793.599609"/>
     <use xlink:href="#DejaVuSans-65" x="868.794922"/>
     <use xlink:href="#DejaVuSans-72" x="930.318359"/>
     <use xlink:href="#DejaVuSans-6d" x="969.681641"/>
     <use xlink:href="#DejaVuSans-69" x="1067.09375"/>
     <use xlink:href="#DejaVuSans-74" x="1094.876953"/>
     <use xlink:href="#DejaVuSans-65" x="1134.085938"/>
     <use xlink:href="#DejaVuSans-20" x="1195.609375"/>
     <use xlink:href="#DejaVuSans-46" x="1227.396484"/>
     <use xlink:href="#DejaVuSans-75" x="1279.416016"/>
     <use xlink:href="#DejaVuSans-6e" x="1342.794922"/>
     <use xlink:href="#DejaVuSans-63" x="1406.173828"/>
     <use xlink:href="#DejaVuSans-74" x="1461.154297"/>
     <use xlink:href="#DejaVuSans-69" x="1500.363281"/>
     <use xlink:href="#DejaVuSans-6f" x="1528.146484"/>
     <use xlink:href="#DejaVuSans-6e" x="1589.328125"/>
     <use xlink:href="#DejaVuSans-20" x="1652.707031"/>
     <use xlink:href="#DejaVuSans-66" x="1684.494141"/>
     <use xlink:href="#DejaVuSans-6f" x="1719.699219"/>
     <use xlink:href="#DejaVuSans-72" x="1780.880859"/>
     <use xlink:href="#DejaVuSans-20" x="1821.994141"/>
     <use xlink:href="#DejaVuSans-32" x="1853.78125"/>
     <use xlink:href="#DejaVuSans-35" x="1917.404297"/>
     <use xlink:href="#DejaVuSans-30" x="1981.027344"/>
     <use xlink:href="#DejaVuSans-31" x="2044.650391"/>
     <use xlink:href="#DejaVuSans-20" x="2108.273438"/>
     <use xlink:href="#DejaVuSans-78" x="2140.060547"/>
     <use xlink:href="#DejaVuSans-2d" x="2199.240234"/>
     <use xlink:href="#DejaVuSans-76" x="2232.699219"/>
     <use xlink:href="#DejaVuSans-61" x="2291.878906"/>
     <use xlink:href="#DejaVuSans-6c" x="2353.158203"/>
     <use xlink:href="#DejaVuSans-75" x="2380.941406"/>
     <use xlink:href="#DejaVuSans-65" x="2444.320312"/>
     <use xlink:href="#DejaVuSans-73" x="2505.84375"/>
    </g>
   </g>
  </g>
 </g>
 <defs>
  <clipPath id="p85a7087d70">
   <rect x="92.506675" y="57.837812" width="425.27125" height="296.512"/>
  </clipPath>
 </defs>
</svg>
