<?xml version="1.0" encoding="utf-8" standalone="no"?>
<!DOCTYPE svg PUBLIC "-//W3C//DTD SVG 1.1//EN"
  "http://www.w3.org/Graphics/SVG/1.1/DTD/svg11.dtd">
<svg xmlns:xlink="http://www.w3.org/1999/xlink" width="761.62pt" height="543.954375pt" viewBox="0 0 761.62 543.954375" xmlns="http://www.w3.org/2000/svg" version="1.1">
 <metadata>
  <rdf:RDF xmlns:dc="http://purl.org/dc/elements/1.1/" xmlns:cc="http://creativecommons.org/ns#" xmlns:rdf="http://www.w3.org/1999/02/22-rdf-syntax-ns#">
   <cc:Work>
    <dc:type rdf:resource="http://purl.org/dc/dcmitype/StillImage"/>
    <dc:date>2024-08-04T18:25:14.502172</dc:date>
    <dc:format>image/svg+xml</dc:format>
    <dc:creator>
     <cc:Agent>
      <dc:title>Matplotlib v3.9.1, https://matplotlib.org/</dc:title>
     </cc:Agent>
    </dc:creator>
   </cc:Work>
  </rdf:RDF>
 </metadata>
 <defs>
  <style type="text/css">*{stroke-linejoin: round; stroke-linecap: butt}</style>
 </defs>
 <g id="figure_1">
  <g id="patch_1">
   <path d="M 0 543.954375 
L 761.62 543.954375 
L 761.62 0 
L 0 0 
z
" style="fill: #ffffff"/>
  </g>
  <g id="axes_1">
   <g id="patch_2">
    <path d="M 84.82 493.72 
L 754.42 493.72 
L 754.42 50.2 
L 84.82 50.2 
z
" style="fill: #ffffff"/>
   </g>
   <g id="matplotlib.axis_1">
    <g id="xtick_1">
     <g id="line2d_1">
      <path d="M 158.0575 493.72 
L 158.0575 50.2 
" clip-path="url(#pf44fbb66c0)" style="fill: none; stroke: #b0b0b0; stroke-width: 0.8; stroke-linecap: square"/>
     </g>
     <g id="line2d_2">
      <defs>
       <path id="m7c7908d5c9" d="M 0 0 
L 0 3.5 
" style="stroke: #000000; stroke-width: 0.8"/>
      </defs>
      <g>
       <use xlink:href="#m7c7908d5c9" x="158.0575" y="493.72" style="stroke: #000000; stroke-width: 0.8"/>
      </g>
     </g>
     <g id="text_1">
      <!-- $\mathdefault{−100}$ -->
      <g transform="translate(138.8075 511.357812) scale(0.14 -0.14)">
       <defs>
        <path id="DejaVuSans-2212" d="M 678 2272 
L 4684 2272 
L 4684 1741 
L 678 1741 
L 678 2272 
z
" transform="scale(0.015625)"/>
        <path id="DejaVuSans-31" d="M 794 531 
L 1825 531 
L 1825 4091 
L 703 3866 
L 703 4441 
L 1819 4666 
L 2450 4666 
L 2450 531 
L 3481 531 
L 3481 0 
L 794 0 
L 794 531 
z
" transform="scale(0.015625)"/>
        <path id="DejaVuSans-30" d="M 2034 4250 
Q 1547 4250 1301 3770 
Q 1056 3291 1056 2328 
Q 1056 1369 1301 889 
Q 1547 409 2034 409 
Q 2525 409 2770 889 
Q 3016 1369 3016 2328 
Q 3016 3291 2770 3770 
Q 2525 4250 2034 4250 
z
M 2034 4750 
Q 2819 4750 3233 4129 
Q 3647 3509 3647 2328 
Q 3647 1150 3233 529 
Q 2819 -91 2034 -91 
Q 1250 -91 836 529 
Q 422 1150 422 2328 
Q 422 3509 836 4129 
Q 1250 4750 2034 4750 
z
" transform="scale(0.015625)"/>
       </defs>
       <use xlink:href="#DejaVuSans-2212" transform="translate(0 0.78125)"/>
       <use xlink:href="#DejaVuSans-31" transform="translate(83.789062 0.78125)"/>
       <use xlink:href="#DejaVuSans-30" transform="translate(147.412109 0.78125)"/>
       <use xlink:href="#DejaVuSans-30" transform="translate(211.035156 0.78125)"/>
      </g>
     </g>
    </g>
    <g id="xtick_2">
     <g id="line2d_3">
      <path d="M 262.6825 493.72 
L 262.6825 50.2 
" clip-path="url(#pf44fbb66c0)" style="fill: none; stroke: #b0b0b0; stroke-width: 0.8; stroke-linecap: square"/>
     </g>
     <g id="line2d_4">
      <g>
       <use xlink:href="#m7c7908d5c9" x="262.6825" y="493.72" style="stroke: #000000; stroke-width: 0.8"/>
      </g>
     </g>
     <g id="text_2">
      <!-- $\mathdefault{0}$ -->
      <g transform="translate(258.2025 511.357812) scale(0.14 -0.14)">
       <use xlink:href="#DejaVuSans-30" transform="translate(0 0.78125)"/>
      </g>
     </g>
    </g>
    <g id="xtick_3">
     <g id="line2d_5">
      <path d="M 367.3075 493.72 
L 367.3075 50.2 
" clip-path="url(#pf44fbb66c0)" style="fill: none; stroke: #b0b0b0; stroke-width: 0.8; stroke-linecap: square"/>
     </g>
     <g id="line2d_6">
      <g>
       <use xlink:href="#m7c7908d5c9" x="367.3075" y="493.72" style="stroke: #000000; stroke-width: 0.8"/>
      </g>
     </g>
     <g id="text_3">
      <!-- $\mathdefault{100}$ -->
      <g transform="translate(353.9375 511.357812) scale(0.14 -0.14)">
       <use xlink:href="#DejaVuSans-31" transform="translate(0 0.78125)"/>
       <use xlink:href="#DejaVuSans-30" transform="translate(63.623047 0.78125)"/>
       <use xlink:href="#DejaVuSans-30" transform="translate(127.246094 0.78125)"/>
      </g>
     </g>
    </g>
    <g id="xtick_4">
     <g id="line2d_7">
      <path d="M 471.9325 493.72 
L 471.9325 50.2 
" clip-path="url(#pf44fbb66c0)" style="fill: none; stroke: #b0b0b0; stroke-width: 0.8; stroke-linecap: square"/>
     </g>
     <g id="line2d_8">
      <g>
       <use xlink:href="#m7c7908d5c9" x="471.9325" y="493.72" style="stroke: #000000; stroke-width: 0.8"/>
      </g>
     </g>
     <g id="text_4">
      <!-- $\mathdefault{200}$ -->
      <g transform="translate(458.5625 511.357812) scale(0.14 -0.14)">
       <defs>
        <path id="DejaVuSans-32" d="M 1228 531 
L 3431 531 
L 3431 0 
L 469 0 
L 469 531 
Q 828 903 1448 1529 
Q 2069 2156 2228 2338 
Q 2531 2678 2651 2914 
Q 2772 3150 2772 3378 
Q 2772 3750 2511 3984 
Q 2250 4219 1831 4219 
Q 1534 4219 1204 4116 
Q 875 4013 500 3803 
L 500 4441 
Q 881 4594 1212 4672 
Q 1544 4750 1819 4750 
Q 2544 4750 2975 4387 
Q 3406 4025 3406 3419 
Q 3406 3131 3298 2873 
Q 3191 2616 2906 2266 
Q 2828 2175 2409 1742 
Q 1991 1309 1228 531 
z
" transform="scale(0.015625)"/>
       </defs>
       <use xlink:href="#DejaVuSans-32" transform="translate(0 0.78125)"/>
       <use xlink:href="#DejaVuSans-30" transform="translate(63.623047 0.78125)"/>
       <use xlink:href="#DejaVuSans-30" transform="translate(127.246094 0.78125)"/>
      </g>
     </g>
    </g>
    <g id="xtick_5">
     <g id="line2d_9">
      <path d="M 576.5575 493.72 
L 576.5575 50.2 
" clip-path="url(#pf44fbb66c0)" style="fill: none; stroke: #b0b0b0; stroke-width: 0.8; stroke-linecap: square"/>
     </g>
     <g id="line2d_10">
      <g>
       <use xlink:href="#m7c7908d5c9" x="576.5575" y="493.72" style="stroke: #000000; stroke-width: 0.8"/>
      </g>
     </g>
     <g id="text_5">
      <!-- $\mathdefault{300}$ -->
      <g transform="translate(563.1875 511.357812) scale(0.14 -0.14)">
       <defs>
        <path id="DejaVuSans-33" d="M 2597 2516 
Q 3050 2419 3304 2112 
Q 3559 1806 3559 1356 
Q 3559 666 3084 287 
Q 2609 -91 1734 -91 
Q 1441 -91 1130 -33 
Q 819 25 488 141 
L 488 750 
Q 750 597 1062 519 
Q 1375 441 1716 441 
Q 2309 441 2620 675 
Q 2931 909 2931 1356 
Q 2931 1769 2642 2001 
Q 2353 2234 1838 2234 
L 1294 2234 
L 1294 2753 
L 1863 2753 
Q 2328 2753 2575 2939 
Q 2822 3125 2822 3475 
Q 2822 3834 2567 4026 
Q 2313 4219 1838 4219 
Q 1578 4219 1281 4162 
Q 984 4106 628 3988 
L 628 4550 
Q 988 4650 1302 4700 
Q 1616 4750 1894 4750 
Q 2613 4750 3031 4423 
Q 3450 4097 3450 3541 
Q 3450 3153 3228 2886 
Q 3006 2619 2597 2516 
z
" transform="scale(0.015625)"/>
       </defs>
       <use xlink:href="#DejaVuSans-33" transform="translate(0 0.78125)"/>
       <use xlink:href="#DejaVuSans-30" transform="translate(63.623047 0.78125)"/>
       <use xlink:href="#DejaVuSans-30" transform="translate(127.246094 0.78125)"/>
      </g>
     </g>
    </g>
    <g id="xtick_6">
     <g id="line2d_11">
      <path d="M 681.1825 493.72 
L 681.1825 50.2 
" clip-path="url(#pf44fbb66c0)" style="fill: none; stroke: #b0b0b0; stroke-width: 0.8; stroke-linecap: square"/>
     </g>
     <g id="line2d_12">
      <g>
       <use xlink:href="#m7c7908d5c9" x="681.1825" y="493.72" style="stroke: #000000; stroke-width: 0.8"/>
      </g>
     </g>
     <g id="text_6">
      <!-- $\mathdefault{400}$ -->
      <g transform="translate(667.8125 511.357812) scale(0.14 -0.14)">
       <defs>
        <path id="DejaVuSans-34" d="M 2419 4116 
L 825 1625 
L 2419 1625 
L 2419 4116 
z
M 2253 4666 
L 3047 4666 
L 3047 1625 
L 3713 1625 
L 3713 1100 
L 3047 1100 
L 3047 0 
L 2419 0 
L 2419 1100 
L 313 1100 
L 313 1709 
L 2253 4666 
z
" transform="scale(0.015625)"/>
       </defs>
       <use xlink:href="#DejaVuSans-34" transform="translate(0 0.78125)"/>
       <use xlink:href="#DejaVuSans-30" transform="translate(63.623047 0.78125)"/>
       <use xlink:href="#DejaVuSans-30" transform="translate(127.246094 0.78125)"/>
      </g>
     </g>
    </g>
    <g id="text_7">
     <!-- x -->
     <g transform="translate(414.885 533.426875) scale(0.16 -0.16)">
      <defs>
       <path id="DejaVuSans-78" d="M 3513 3500 
L 2247 1797 
L 3578 0 
L 2900 0 
L 1881 1375 
L 863 0 
L 184 0 
L 1544 1831 
L 300 3500 
L 978 3500 
L 1906 2253 
L 2834 3500 
L 3513 3500 
z
" transform="scale(0.015625)"/>
      </defs>
      <use xlink:href="#DejaVuSans-78"/>
     </g>
    </g>
   </g>
   <g id="matplotlib.axis_2">
    <g id="ytick_1">
     <g id="line2d_13">
      <path d="M 84.82 456.230774 
L 754.42 456.230774 
" clip-path="url(#pf44fbb66c0)" style="fill: none; stroke: #b0b0b0; stroke-width: 0.8; stroke-linecap: square"/>
     </g>
     <g id="line2d_14">
      <defs>
       <path id="ma0ed77bdfe" d="M 0 0 
L -3.5 0 
" style="stroke: #000000; stroke-width: 0.8"/>
      </defs>
      <g>
       <use xlink:href="#ma0ed77bdfe" x="84.82" y="456.230774" style="stroke: #000000; stroke-width: 0.8"/>
      </g>
     </g>
     <g id="text_8">
      <!-- $\mathdefault{−0.10}$ -->
      <g transform="translate(34.84 461.54968) scale(0.14 -0.14)">
       <defs>
        <path id="DejaVuSans-2e" d="M 684 794 
L 1344 794 
L 1344 0 
L 684 0 
L 684 794 
z
" transform="scale(0.015625)"/>
       </defs>
       <use xlink:href="#DejaVuSans-2212" transform="translate(0 0.78125)"/>
       <use xlink:href="#DejaVuSans-30" transform="translate(83.789062 0.78125)"/>
       <use xlink:href="#DejaVuSans-2e" transform="translate(147.412109 0.78125)"/>
       <use xlink:href="#DejaVuSans-31" transform="translate(179.199219 0.78125)"/>
       <use xlink:href="#DejaVuSans-30" transform="translate(242.822266 0.78125)"/>
      </g>
     </g>
    </g>
    <g id="ytick_2">
     <g id="line2d_15">
      <path d="M 84.82 364.095387 
L 754.42 364.095387 
" clip-path="url(#pf44fbb66c0)" style="fill: none; stroke: #b0b0b0; stroke-width: 0.8; stroke-linecap: square"/>
     </g>
     <g id="line2d_16">
      <g>
       <use xlink:href="#ma0ed77bdfe" x="84.82" y="364.095387" style="stroke: #000000; stroke-width: 0.8"/>
      </g>
     </g>
     <g id="text_9">
      <!-- $\mathdefault{−0.05}$ -->
      <g transform="translate(34.84 369.414293) scale(0.14 -0.14)">
       <defs>
        <path id="DejaVuSans-35" d="M 691 4666 
L 3169 4666 
L 3169 4134 
L 1269 4134 
L 1269 2991 
Q 1406 3038 1543 3061 
Q 1681 3084 1819 3084 
Q 2600 3084 3056 2656 
Q 3513 2228 3513 1497 
Q 3513 744 3044 326 
Q 2575 -91 1722 -91 
Q 1428 -91 1123 -41 
Q 819 9 494 109 
L 494 744 
Q 775 591 1075 516 
Q 1375 441 1709 441 
Q 2250 441 2565 725 
Q 2881 1009 2881 1497 
Q 2881 1984 2565 2268 
Q 2250 2553 1709 2553 
Q 1456 2553 1204 2497 
Q 953 2441 691 2322 
L 691 4666 
z
" transform="scale(0.015625)"/>
       </defs>
       <use xlink:href="#DejaVuSans-2212" transform="translate(0 0.78125)"/>
       <use xlink:href="#DejaVuSans-30" transform="translate(83.789062 0.78125)"/>
       <use xlink:href="#DejaVuSans-2e" transform="translate(147.412109 0.78125)"/>
       <use xlink:href="#DejaVuSans-30" transform="translate(179.199219 0.78125)"/>
       <use xlink:href="#DejaVuSans-35" transform="translate(242.822266 0.78125)"/>
      </g>
     </g>
    </g>
    <g id="ytick_3">
     <g id="line2d_17">
      <path d="M 84.82 271.96 
L 754.42 271.96 
" clip-path="url(#pf44fbb66c0)" style="fill: none; stroke: #b0b0b0; stroke-width: 0.8; stroke-linecap: square"/>
     </g>
     <g id="line2d_18">
      <g>
       <use xlink:href="#ma0ed77bdfe" x="84.82" y="271.96" style="stroke: #000000; stroke-width: 0.8"/>
      </g>
     </g>
     <g id="text_10">
      <!-- $\mathdefault{0.00}$ -->
      <g transform="translate(46.6 277.278906) scale(0.14 -0.14)">
       <use xlink:href="#DejaVuSans-30" transform="translate(0 0.78125)"/>
       <use xlink:href="#DejaVuSans-2e" transform="translate(63.623047 0.78125)"/>
       <use xlink:href="#DejaVuSans-30" transform="translate(95.410156 0.78125)"/>
       <use xlink:href="#DejaVuSans-30" transform="translate(159.033203 0.78125)"/>
      </g>
     </g>
    </g>
    <g id="ytick_4">
     <g id="line2d_19">
      <path d="M 84.82 179.824613 
L 754.42 179.824613 
" clip-path="url(#pf44fbb66c0)" style="fill: none; stroke: #b0b0b0; stroke-width: 0.8; stroke-linecap: square"/>
     </g>
     <g id="line2d_20">
      <g>
       <use xlink:href="#ma0ed77bdfe" x="84.82" y="179.824613" style="stroke: #000000; stroke-width: 0.8"/>
      </g>
     </g>
     <g id="text_11">
      <!-- $\mathdefault{0.05}$ -->
      <g transform="translate(46.6 185.143519) scale(0.14 -0.14)">
       <use xlink:href="#DejaVuSans-30" transform="translate(0 0.78125)"/>
       <use xlink:href="#DejaVuSans-2e" transform="translate(63.623047 0.78125)"/>
       <use xlink:href="#DejaVuSans-30" transform="translate(95.410156 0.78125)"/>
       <use xlink:href="#DejaVuSans-35" transform="translate(159.033203 0.78125)"/>
      </g>
     </g>
    </g>
    <g id="ytick_5">
     <g id="line2d_21">
      <path d="M 84.82 87.689226 
L 754.42 87.689226 
" clip-path="url(#pf44fbb66c0)" style="fill: none; stroke: #b0b0b0; stroke-width: 0.8; stroke-linecap: square"/>
     </g>
     <g id="line2d_22">
      <g>
       <use xlink:href="#ma0ed77bdfe" x="84.82" y="87.689226" style="stroke: #000000; stroke-width: 0.8"/>
      </g>
     </g>
     <g id="text_12">
      <!-- $\mathdefault{0.10}$ -->
      <g transform="translate(46.6 93.008133) scale(0.14 -0.14)">
       <use xlink:href="#DejaVuSans-30" transform="translate(0 0.78125)"/>
       <use xlink:href="#DejaVuSans-2e" transform="translate(63.623047 0.78125)"/>
       <use xlink:href="#DejaVuSans-31" transform="translate(95.410156 0.78125)"/>
       <use xlink:href="#DejaVuSans-30" transform="translate(159.033203 0.78125)"/>
      </g>
     </g>
    </g>
    <g id="text_13">
     <!-- $\psi_{25}^{\left(20; 150\right)}\left(x\right)$ -->
     <g transform="translate(23.2 313.96) rotate(-90) scale(0.16 -0.16)">
      <defs>
       <path id="DejaVuSans-Oblique-3c8" d="M 1591 -78 
Q 891 38 616 341 
Q 278 713 425 1472 
L 819 3500 
L 1400 3500 
L 1009 1494 
Q 900 922 1119 684 
Q 1313 478 1691 434 
L 2284 3500 
L 2856 3500 
L 2263 438 
Q 2681 481 2928 688 
Q 3247 950 3353 1497 
L 3741 3500 
L 4322 3500 
L 3928 1475 
Q 3775 688 3300 344 
Q 2872 34 2163 -75 
L 1919 -1331 
L 1347 -1331 
L 1591 -78 
z
" transform="scale(0.015625)"/>
       <path id="DejaVuSans-28" d="M 1984 4856 
Q 1566 4138 1362 3434 
Q 1159 2731 1159 2009 
Q 1159 1288 1364 580 
Q 1569 -128 1984 -844 
L 1484 -844 
Q 1016 -109 783 600 
Q 550 1309 550 2009 
Q 550 2706 781 3412 
Q 1013 4119 1484 4856 
L 1984 4856 
z
" transform="scale(0.015625)"/>
       <path id="DejaVuSans-3b" d="M 750 3309 
L 1409 3309 
L 1409 2516 
L 750 2516 
L 750 3309 
z
M 750 794 
L 1409 794 
L 1409 256 
L 897 -744 
L 494 -744 
L 750 256 
L 750 794 
z
" transform="scale(0.015625)"/>
       <path id="DejaVuSans-29" d="M 513 4856 
L 1013 4856 
Q 1481 4119 1714 3412 
Q 1947 2706 1947 2009 
Q 1947 1309 1714 600 
Q 1481 -109 1013 -844 
L 513 -844 
Q 928 -128 1133 580 
Q 1338 1288 1338 2009 
Q 1338 2731 1133 3434 
Q 928 4138 513 4856 
z
" transform="scale(0.015625)"/>
       <path id="DejaVuSans-Oblique-78" d="M 3841 3500 
L 2234 1784 
L 3219 0 
L 2559 0 
L 1819 1388 
L 531 0 
L -166 0 
L 1556 1844 
L 641 3500 
L 1300 3500 
L 1972 2234 
L 3144 3500 
L 3841 3500 
z
" transform="scale(0.015625)"/>
      </defs>
      <use xlink:href="#DejaVuSans-Oblique-3c8" transform="translate(0 0.546875)"/>
      <use xlink:href="#DejaVuSans-28" transform="translate(70.432943 46.8875) scale(0.7)"/>
      <use xlink:href="#DejaVuSans-32" transform="translate(97.742513 46.8875) scale(0.7)"/>
      <use xlink:href="#DejaVuSans-30" transform="translate(142.278646 46.8875) scale(0.7)"/>
      <use xlink:href="#DejaVuSans-3b" transform="translate(186.814779 46.8875) scale(0.7)"/>
      <use xlink:href="#DejaVuSans-31" transform="translate(224.036458 46.8875) scale(0.7)"/>
      <use xlink:href="#DejaVuSans-35" transform="translate(268.572591 46.8875) scale(0.7)"/>
      <use xlink:href="#DejaVuSans-30" transform="translate(313.108724 46.8875) scale(0.7)"/>
      <use xlink:href="#DejaVuSans-29" transform="translate(357.644857 46.8875) scale(0.7)"/>
      <use xlink:href="#DejaVuSans-32" transform="translate(65.966797 -26.796875) scale(0.7)"/>
      <use xlink:href="#DejaVuSans-35" transform="translate(110.50293 -26.796875) scale(0.7)"/>
      <use xlink:href="#DejaVuSans-28" transform="translate(387.688802 0.546875)"/>
      <use xlink:href="#DejaVuSans-Oblique-78" transform="translate(426.702474 0.546875)"/>
      <use xlink:href="#DejaVuSans-29" transform="translate(485.882161 0.546875)"/>
     </g>
    </g>
   </g>
   <g id="line2d_23">
    <path d="M 419.62 493.72 
L 419.62 50.2 
" clip-path="url(#pf44fbb66c0)" style="fill: none; stroke: #000000; stroke-width: 0.5; stroke-linecap: square"/>
   </g>
   <g id="line2d_24">
    <path d="M 84.82 271.96 
L 754.42 271.96 
" clip-path="url(#pf44fbb66c0)" style="fill: none; stroke: #000000; stroke-width: 0.5; stroke-linecap: square"/>
   </g>
   <g id="patch_3">
    <path d="M 84.82 493.72 
L 84.82 50.2 
" style="fill: none; stroke: #000000; stroke-width: 0.8; stroke-linejoin: miter; stroke-linecap: square"/>
   </g>
   <g id="patch_4">
    <path d="M 754.42 493.72 
L 754.42 50.2 
" style="fill: none; stroke: #000000; stroke-width: 0.8; stroke-linejoin: miter; stroke-linecap: square"/>
   </g>
   <g id="patch_5">
    <path d="M 84.82 493.72 
L 754.42 493.72 
" style="fill: none; stroke: #000000; stroke-width: 0.8; stroke-linejoin: miter; stroke-linecap: square"/>
   </g>
   <g id="patch_6">
    <path d="M 84.82 50.2 
L 754.42 50.2 
" style="fill: none; stroke: #000000; stroke-width: 0.8; stroke-linejoin: miter; stroke-linecap: square"/>
   </g>
   <g id="line2d_25">
    <path d="M 84.82 271.96 
L 231.984688 272.070725 
L 236.497792 272.314406 
L 239.43064 272.684555 
L 241.680496 273.186154 
L 243.528592 273.820901 
L 245.135632 274.60489 
L 246.581968 275.556531 
L 247.921168 276.70335 
L 249.193408 278.086417 
L 250.425472 279.756829 
L 251.644144 281.791811 
L 252.849424 284.24557 
L 254.068096 287.246146 
L 255.30016 290.89141 
L 256.545616 295.288203 
L 257.831248 300.671432 
L 259.157056 307.219822 
L 260.52304 315.121381 
L 261.955984 324.75407 
L 263.482672 336.583985 
L 265.14328 351.266002 
L 267.031552 370.049508 
L 269.49568 397.000134 
L 273.499888 440.876628 
L 274.973008 454.472122 
L 276.097936 462.949542 
L 276.9952 468.169464 
L 277.718368 471.195904 
L 278.294224 472.759202 
L 278.73616 473.406941 
L 279.07096 473.559985 
L 279.352192 473.454324 
L 279.6736 473.062934 
L 280.061968 472.192298 
L 280.530688 470.541585 
L 281.093152 467.662543 
L 281.735968 463.129104 
L 282.472528 456.25307 
L 283.302832 446.301886 
L 284.240272 432.248684 
L 285.29824 412.871608 
L 286.516912 386.216884 
L 287.963248 349.381648 
L 289.91848 293.321318 
L 293.587888 187.368238 
L 294.913696 155.969469 
L 295.94488 136.412116 
L 296.788576 124.297746 
L 297.471568 117.376658 
L 298.02064 113.823642 
L 298.435792 112.378278 
L 298.717024 112.020766 
L 298.904512 112.064803 
L 299.118784 112.393672 
L 299.413408 113.333275 
L 299.801776 115.436397 
L 300.283888 119.41174 
L 300.873136 126.297412 
L 301.56952 137.222893 
L 302.399824 153.961837 
L 303.404224 179.016565 
L 304.676464 216.758163 
L 306.832576 288.658331 
L 308.787808 350.894762 
L 309.952912 381.283034 
L 310.850176 399.38348 
L 311.573344 409.931161 
L 312.1492 415.482217 
L 312.591136 417.935259 
L 312.912544 418.706065 
L 313.100032 418.756694 
L 313.274128 418.539047 
L 313.515184 417.816098 
L 313.849984 416.000538 
L 314.278528 412.309503 
L 314.814208 405.578647 
L 315.470416 394.258205 
L 316.260544 376.480769 
L 317.23816 349.099753 
L 318.563968 305.070136 
L 322.112848 183.930284 
L 323.090464 159.406548 
L 323.8672 145.033735 
L 324.483232 137.335727 
L 324.965344 133.765819 
L 325.313536 132.576125 
L 325.527808 132.431678 
L 325.688512 132.61875 
L 325.916176 133.317673 
L 326.237584 135.168164 
L 326.652736 139.040008 
L 327.175024 146.225026 
L 327.81784 158.43043 
L 328.607968 178.036999 
L 329.612368 209.003195 
L 331.09888 262.659815 
L 333.429088 346.264826 
L 334.460272 375.324072 
L 335.2504 391.887216 
L 335.879824 400.879773 
L 336.361936 405.026665 
L 336.710128 406.482453 
L 336.937792 406.724627 
L 337.085104 406.580672 
L 337.285984 406.003379 
L 337.580608 404.363838 
L 337.968976 400.776896 
L 338.46448 393.905388 
L 339.080512 381.958579 
L 339.843856 362.431138 
L 340.821472 331.188085 
L 342.321376 275.046996 
L 344.383744 199.190061 
L 345.374752 170.595591 
L 346.138096 154.376877 
L 346.740736 145.796047 
L 347.209456 141.916116 
L 347.530864 140.721737 
L 347.731744 140.58961 
L 347.879056 140.794232 
L 348.093328 141.547084 
L 348.401344 143.569852 
L 348.803104 147.851566 
L 349.312 155.859221 
L 349.954816 169.835188 
L 350.758336 192.623756 
L 351.829696 230.010408 
L 355.53928 365.570098 
L 356.329408 384.233115 
L 356.958832 394.371836 
L 357.440944 399.013903 
L 357.789136 400.604984 
L 358.003408 400.837156 
L 358.137328 400.691902 
L 358.338208 400.05534 
L 358.61944 398.323841 
L 359.007808 394.342602 
L 359.503312 386.668463 
L 360.119344 373.327331 
L 360.89608 351.223251 
L 361.927264 314.89721 
L 365.636848 177.728971 
L 366.400192 159.974931 
L 367.002832 150.58341 
L 367.45816 146.448026 
L 367.779568 145.125291 
L 367.967056 144.972649 
L 368.100976 145.143834 
L 368.301856 145.838055 
L 368.59648 147.800568 
L 368.984848 152.076731 
L 369.480352 160.224092 
L 370.109776 174.619827 
L 370.899904 198.245563 
L 371.984656 238.078429 
L 375.118384 357.418336 
L 375.935296 378.652236 
L 376.578112 390.118235 
L 377.073616 395.429138 
L 377.421808 397.229487 
L 377.63608 397.529887 
L 377.77 397.403681 
L 377.957488 396.821461 
L 378.23872 395.06543 
L 378.613696 391.100026 
L 379.095808 383.365018 
L 379.698448 369.803992 
L 380.461792 347.210224 
L 381.492976 309.487263 
L 384.8008 183.327153 
L 385.577536 163.932567 
L 386.180176 153.765488 
L 386.648896 149.115715 
L 386.983696 147.617687 
L 387.171184 147.452868 
L 387.305104 147.632457 
L 387.505984 148.365742 
L 387.800608 150.44169 
L 388.188976 154.9642 
L 388.68448 163.568923 
L 389.313904 178.728742 
L 390.117424 203.944693 
L 391.255744 247.526149 
L 393.880576 350.186049 
L 394.737664 374.243315 
L 395.393872 387.03182 
L 395.902768 393.118972 
L 396.277744 395.336386 
L 396.505408 395.723252 
L 396.625936 395.632953 
L 396.800032 395.141982 
L 397.05448 393.661388 
L 397.402672 390.186065 
L 397.858 383.190992 
L 398.433856 370.613676 
L 399.170416 349.181199 
L 400.161424 313.11493 
L 403.643344 180.056291 
L 404.379904 162.577382 
L 404.95576 153.610722 
L 405.384304 149.854006 
L 405.678928 148.767326 
L 405.839632 148.694348 
L 405.853024 148.704861 
L 406.000336 148.988921 
L 406.228 150.033616 
L 406.549408 152.748628 
L 406.96456 158.353535 
L 407.50024 168.904724 
L 408.16984 186.840553 
L 409.053712 217.070153 
L 410.473264 274.617074 
L 412.214224 342.968725 
L 413.111488 369.940097 
L 413.79448 384.475716 
L 414.33016 391.652602 
L 414.718528 394.372967 
L 414.972976 394.993612 
L 415.106896 394.948217 
L 415.2676 394.555025 
L 415.508656 393.275202 
L 415.843456 390.14018 
L 416.285392 383.652829 
L 416.847856 371.75575 
L 417.557632 351.580824 
L 418.508464 317.52027 
L 422.244832 175.906753 
L 422.941216 160.50422 
L 423.490288 152.744626 
L 423.892048 149.699827 
L 424.159888 148.942163 
L 424.3072 148.96284 
L 424.467904 149.339522 
L 424.70896 150.594583 
L 425.04376 153.695232 
L 425.485696 160.137312 
L 426.04816 171.977275 
L 426.757936 192.082279 
L 427.695376 225.537693 
L 429.623824 304.85222 
L 430.882672 351.223155 
L 431.726368 374.706081 
L 432.369184 387.034354 
L 432.864688 392.820951 
L 433.226272 394.889957 
L 433.453936 395.242173 
L 433.574464 395.130003 
L 433.761952 394.545131 
L 434.029792 392.84808 
L 434.391376 388.974695 
L 434.860096 381.342618 
L 435.462736 367.503709 
L 436.22608 344.34923 
L 437.270656 305.208584 
L 440.31064 187.129284 
L 441.11416 166.082497 
L 441.730192 155.134122 
L 442.198912 150.158222 
L 442.547104 148.425502 
L 442.747984 148.199332 
L 442.881904 148.363912 
L 443.082784 149.082804 
L 443.364016 151.033961 
L 443.752384 155.506749 
L 444.247888 164.087953 
L 444.877312 179.265537 
L 445.680832 204.544635 
L 446.819152 248.208668 
L 449.4172 349.892633 
L 450.274288 374.132301 
L 450.943888 387.359054 
L 451.452784 393.598282 
L 451.82776 395.965622 
L 452.068816 396.467132 
L 452.202736 396.398935 
L 452.376832 395.94029 
L 452.63128 394.521499 
L 452.979472 391.159402 
L 453.4348 384.362235 
L 454.010656 372.110885 
L 454.733824 351.620109 
L 455.698048 317.444492 
L 459.501376 175.162966 
L 460.224544 159.066199 
L 460.787008 150.895888 
L 461.215552 147.420853 
L 461.510176 146.45309 
L 461.67088 146.417608 
L 461.818192 146.690513 
L 462.045856 147.684801 
L 462.367264 150.260065 
L 462.782416 155.56845 
L 463.318096 165.558565 
L 463.987696 182.562064 
L 464.858176 210.858753 
L 466.1572 261.337862 
L 468.313312 344.780568 
L 469.23736 372.05 
L 469.947136 387.123854 
L 470.5096 394.859735 
L 470.924752 398.017041 
L 471.219376 398.906903 
L 471.38008 398.916143 
L 471.540784 398.589377 
L 471.78184 397.471974 
L 472.11664 394.685518 
L 472.558576 388.866562 
L 473.107648 378.420331 
L 473.804032 360.547484 
L 474.701296 331.288207 
L 476.080672 277.942528 
L 478.129648 199.680983 
L 479.08048 171.599307 
L 479.81704 155.815261 
L 480.392896 147.708713 
L 480.834832 144.18825 
L 481.142848 143.161059 
L 481.316944 143.102942 
L 481.464256 143.348484 
L 481.69192 144.25731 
L 482.013328 146.624019 
L 482.42848 151.517194 
L 482.96416 160.752336 
L 483.63376 176.53557 
L 484.477456 202.093466 
L 485.669344 245.698517 
L 488.535232 352.97711 
L 489.445888 377.960626 
L 490.155664 391.991604 
L 490.718128 399.259245 
L 491.146672 402.372916 
L 491.454688 403.285512 
L 491.615392 403.31892 
L 491.776096 403.048965 
L 492.00376 402.149382 
L 492.325168 399.857469 
L 492.753712 394.981505 
L 493.289392 386.089263 
L 493.958992 370.956512 
L 494.802688 346.458419 
L 495.967792 305.451872 
L 499.289008 184.603076 
L 500.199664 161.07301 
L 500.90944 147.909236 
L 501.471904 141.086962 
L 501.900448 138.144722 
L 502.208464 137.259622 
L 502.38256 137.216481 
L 502.543264 137.469328 
L 502.78432 138.373004 
L 503.11912 140.661297 
L 503.547664 145.304908 
L 504.096736 153.948258 
L 504.779728 168.595928 
L 505.636816 192.246027 
L 506.775136 230.405883 
L 510.725776 368.451403 
L 511.609648 389.416911 
L 512.319424 401.511688 
L 512.89528 407.911549 
L 513.337216 410.657513 
L 513.645232 411.441179 
L 513.819328 411.472296 
L 513.993424 411.206654 
L 514.23448 410.351436 
L 514.56928 408.234552 
L 515.011216 403.821475 
L 515.560288 395.87548 
L 516.24328 382.453328 
L 517.086976 361.120494 
L 518.18512 327.198442 
L 520.019824 262.304532 
L 521.988448 195.230626 
L 523.113376 164.129175 
L 523.997248 145.363128 
L 524.720416 134.352237 
L 525.296272 128.596296 
L 525.7516 125.999392 
L 526.073008 125.216817 
L 526.273888 125.169365 
L 526.447984 125.402051 
L 526.702432 126.196676 
L 527.050624 128.148964 
L 527.49256 132.03582 
L 528.055024 139.176425 
L 528.738016 150.93984 
L 529.581712 169.657421 
L 530.63968 198.503876 
L 532.126192 245.812536 
L 535.608112 358.585511 
L 536.8 389.052081 
L 537.750832 408.107341 
L 538.54096 419.886208 
L 539.197168 426.684222 
L 539.732848 430.169123 
L 540.134608 431.555614 
L 540.41584 431.901852 
L 540.603328 431.848789 
L 540.8176 431.512095 
L 541.112224 430.573072 
L 541.500592 428.506448 
L 541.996096 424.53736 
L 542.612128 417.608352 
L 543.348688 406.614432 
L 544.245952 389.643547 
L 545.344096 364.374777 
L 546.790432 325.52383 
L 549.535792 244.236236 
L 551.745472 182.058231 
L 553.258768 145.444714 
L 554.517616 120.04793 
L 555.61576 102.100651 
L 556.593376 89.559191 
L 557.450464 81.229863 
L 558.200416 75.940105 
L 558.843232 72.838508 
L 559.378912 71.222184 
L 559.807456 70.536129 
L 560.142256 70.360743 
L 560.423488 70.449233 
L 560.744896 70.804938 
L 561.146656 71.616299 
L 561.655552 73.198359 
L 562.284976 75.951074 
L 563.04832 80.355803 
L 563.98576 87.1506 
L 565.150864 97.323565 
L 566.690944 112.878799 
L 569.288992 141.778061 
L 572.55664 177.482815 
L 574.552048 196.861887 
L 576.293008 211.671828 
L 577.886656 223.388876 
L 579.38656 232.823844 
L 580.819504 240.468834 
L 582.19888 246.663788 
L 583.53808 251.692738 
L 584.850496 255.7856 
L 586.136128 259.093638 
L 587.42176 261.80251 
L 588.694 263.979936 
L 589.979632 265.751722 
L 591.292048 267.190689 
L 592.658032 268.363469 
L 594.104368 269.31511 
L 595.684624 270.088003 
L 597.46576 270.707212 
L 599.554912 271.190267 
L 602.126176 271.547034 
L 605.581312 271.788027 
L 611.031856 271.920487 
L 624.624736 271.959356 
L 754.42 271.96 
L 754.42 271.96 
" clip-path="url(#pf44fbb66c0)" style="fill: none; stroke: #ff0000; stroke-width: 2; stroke-linecap: square"/>
   </g>
   <g id="text_14">
    <!-- Special Points of the Hermite function $\psi_{25}^{\left(20; 150\right)}\left(x\right)$ -->
    <g transform="translate(198.85 25.2) scale(0.18 -0.18)">
     <defs>
      <path id="DejaVuSans-53" d="M 3425 4513 
L 3425 3897 
Q 3066 4069 2747 4153 
Q 2428 4238 2131 4238 
Q 1616 4238 1336 4038 
Q 1056 3838 1056 3469 
Q 1056 3159 1242 3001 
Q 1428 2844 1947 2747 
L 2328 2669 
Q 3034 2534 3370 2195 
Q 3706 1856 3706 1288 
Q 3706 609 3251 259 
Q 2797 -91 1919 -91 
Q 1588 -91 1214 -16 
Q 841 59 441 206 
L 441 856 
Q 825 641 1194 531 
Q 1563 422 1919 422 
Q 2459 422 2753 634 
Q 3047 847 3047 1241 
Q 3047 1584 2836 1778 
Q 2625 1972 2144 2069 
L 1759 2144 
Q 1053 2284 737 2584 
Q 422 2884 422 3419 
Q 422 4038 858 4394 
Q 1294 4750 2059 4750 
Q 2388 4750 2728 4690 
Q 3069 4631 3425 4513 
z
" transform="scale(0.015625)"/>
      <path id="DejaVuSans-70" d="M 1159 525 
L 1159 -1331 
L 581 -1331 
L 581 3500 
L 1159 3500 
L 1159 2969 
Q 1341 3281 1617 3432 
Q 1894 3584 2278 3584 
Q 2916 3584 3314 3078 
Q 3713 2572 3713 1747 
Q 3713 922 3314 415 
Q 2916 -91 2278 -91 
Q 1894 -91 1617 61 
Q 1341 213 1159 525 
z
M 3116 1747 
Q 3116 2381 2855 2742 
Q 2594 3103 2138 3103 
Q 1681 3103 1420 2742 
Q 1159 2381 1159 1747 
Q 1159 1113 1420 752 
Q 1681 391 2138 391 
Q 2594 391 2855 752 
Q 3116 1113 3116 1747 
z
" transform="scale(0.015625)"/>
      <path id="DejaVuSans-65" d="M 3597 1894 
L 3597 1613 
L 953 1613 
Q 991 1019 1311 708 
Q 1631 397 2203 397 
Q 2534 397 2845 478 
Q 3156 559 3463 722 
L 3463 178 
Q 3153 47 2828 -22 
Q 2503 -91 2169 -91 
Q 1331 -91 842 396 
Q 353 884 353 1716 
Q 353 2575 817 3079 
Q 1281 3584 2069 3584 
Q 2775 3584 3186 3129 
Q 3597 2675 3597 1894 
z
M 3022 2063 
Q 3016 2534 2758 2815 
Q 2500 3097 2075 3097 
Q 1594 3097 1305 2825 
Q 1016 2553 972 2059 
L 3022 2063 
z
" transform="scale(0.015625)"/>
      <path id="DejaVuSans-63" d="M 3122 3366 
L 3122 2828 
Q 2878 2963 2633 3030 
Q 2388 3097 2138 3097 
Q 1578 3097 1268 2742 
Q 959 2388 959 1747 
Q 959 1106 1268 751 
Q 1578 397 2138 397 
Q 2388 397 2633 464 
Q 2878 531 3122 666 
L 3122 134 
Q 2881 22 2623 -34 
Q 2366 -91 2075 -91 
Q 1284 -91 818 406 
Q 353 903 353 1747 
Q 353 2603 823 3093 
Q 1294 3584 2113 3584 
Q 2378 3584 2631 3529 
Q 2884 3475 3122 3366 
z
" transform="scale(0.015625)"/>
      <path id="DejaVuSans-69" d="M 603 3500 
L 1178 3500 
L 1178 0 
L 603 0 
L 603 3500 
z
M 603 4863 
L 1178 4863 
L 1178 4134 
L 603 4134 
L 603 4863 
z
" transform="scale(0.015625)"/>
      <path id="DejaVuSans-61" d="M 2194 1759 
Q 1497 1759 1228 1600 
Q 959 1441 959 1056 
Q 959 750 1161 570 
Q 1363 391 1709 391 
Q 2188 391 2477 730 
Q 2766 1069 2766 1631 
L 2766 1759 
L 2194 1759 
z
M 3341 1997 
L 3341 0 
L 2766 0 
L 2766 531 
Q 2569 213 2275 61 
Q 1981 -91 1556 -91 
Q 1019 -91 701 211 
Q 384 513 384 1019 
Q 384 1609 779 1909 
Q 1175 2209 1959 2209 
L 2766 2209 
L 2766 2266 
Q 2766 2663 2505 2880 
Q 2244 3097 1772 3097 
Q 1472 3097 1187 3025 
Q 903 2953 641 2809 
L 641 3341 
Q 956 3463 1253 3523 
Q 1550 3584 1831 3584 
Q 2591 3584 2966 3190 
Q 3341 2797 3341 1997 
z
" transform="scale(0.015625)"/>
      <path id="DejaVuSans-6c" d="M 603 4863 
L 1178 4863 
L 1178 0 
L 603 0 
L 603 4863 
z
" transform="scale(0.015625)"/>
      <path id="DejaVuSans-20" transform="scale(0.015625)"/>
      <path id="DejaVuSans-50" d="M 1259 4147 
L 1259 2394 
L 2053 2394 
Q 2494 2394 2734 2622 
Q 2975 2850 2975 3272 
Q 2975 3691 2734 3919 
Q 2494 4147 2053 4147 
L 1259 4147 
z
M 628 4666 
L 2053 4666 
Q 2838 4666 3239 4311 
Q 3641 3956 3641 3272 
Q 3641 2581 3239 2228 
Q 2838 1875 2053 1875 
L 1259 1875 
L 1259 0 
L 628 0 
L 628 4666 
z
" transform="scale(0.015625)"/>
      <path id="DejaVuSans-6f" d="M 1959 3097 
Q 1497 3097 1228 2736 
Q 959 2375 959 1747 
Q 959 1119 1226 758 
Q 1494 397 1959 397 
Q 2419 397 2687 759 
Q 2956 1122 2956 1747 
Q 2956 2369 2687 2733 
Q 2419 3097 1959 3097 
z
M 1959 3584 
Q 2709 3584 3137 3096 
Q 3566 2609 3566 1747 
Q 3566 888 3137 398 
Q 2709 -91 1959 -91 
Q 1206 -91 779 398 
Q 353 888 353 1747 
Q 353 2609 779 3096 
Q 1206 3584 1959 3584 
z
" transform="scale(0.015625)"/>
      <path id="DejaVuSans-6e" d="M 3513 2113 
L 3513 0 
L 2938 0 
L 2938 2094 
Q 2938 2591 2744 2837 
Q 2550 3084 2163 3084 
Q 1697 3084 1428 2787 
Q 1159 2491 1159 1978 
L 1159 0 
L 581 0 
L 581 3500 
L 1159 3500 
L 1159 2956 
Q 1366 3272 1645 3428 
Q 1925 3584 2291 3584 
Q 2894 3584 3203 3211 
Q 3513 2838 3513 2113 
z
" transform="scale(0.015625)"/>
      <path id="DejaVuSans-74" d="M 1172 4494 
L 1172 3500 
L 2356 3500 
L 2356 3053 
L 1172 3053 
L 1172 1153 
Q 1172 725 1289 603 
Q 1406 481 1766 481 
L 2356 481 
L 2356 0 
L 1766 0 
Q 1100 0 847 248 
Q 594 497 594 1153 
L 594 3053 
L 172 3053 
L 172 3500 
L 594 3500 
L 594 4494 
L 1172 4494 
z
" transform="scale(0.015625)"/>
      <path id="DejaVuSans-73" d="M 2834 3397 
L 2834 2853 
Q 2591 2978 2328 3040 
Q 2066 3103 1784 3103 
Q 1356 3103 1142 2972 
Q 928 2841 928 2578 
Q 928 2378 1081 2264 
Q 1234 2150 1697 2047 
L 1894 2003 
Q 2506 1872 2764 1633 
Q 3022 1394 3022 966 
Q 3022 478 2636 193 
Q 2250 -91 1575 -91 
Q 1294 -91 989 -36 
Q 684 19 347 128 
L 347 722 
Q 666 556 975 473 
Q 1284 391 1588 391 
Q 1994 391 2212 530 
Q 2431 669 2431 922 
Q 2431 1156 2273 1281 
Q 2116 1406 1581 1522 
L 1381 1569 
Q 847 1681 609 1914 
Q 372 2147 372 2553 
Q 372 3047 722 3315 
Q 1072 3584 1716 3584 
Q 2034 3584 2315 3537 
Q 2597 3491 2834 3397 
z
" transform="scale(0.015625)"/>
      <path id="DejaVuSans-66" d="M 2375 4863 
L 2375 4384 
L 1825 4384 
Q 1516 4384 1395 4259 
Q 1275 4134 1275 3809 
L 1275 3500 
L 2222 3500 
L 2222 3053 
L 1275 3053 
L 1275 0 
L 697 0 
L 697 3053 
L 147 3053 
L 147 3500 
L 697 3500 
L 697 3744 
Q 697 4328 969 4595 
Q 1241 4863 1831 4863 
L 2375 4863 
z
" transform="scale(0.015625)"/>
      <path id="DejaVuSans-68" d="M 3513 2113 
L 3513 0 
L 2938 0 
L 2938 2094 
Q 2938 2591 2744 2837 
Q 2550 3084 2163 3084 
Q 1697 3084 1428 2787 
Q 1159 2491 1159 1978 
L 1159 0 
L 581 0 
L 581 4863 
L 1159 4863 
L 1159 2956 
Q 1366 3272 1645 3428 
Q 1925 3584 2291 3584 
Q 2894 3584 3203 3211 
Q 3513 2838 3513 2113 
z
" transform="scale(0.015625)"/>
      <path id="DejaVuSans-48" d="M 628 4666 
L 1259 4666 
L 1259 2753 
L 3553 2753 
L 3553 4666 
L 4184 4666 
L 4184 0 
L 3553 0 
L 3553 2222 
L 1259 2222 
L 1259 0 
L 628 0 
L 628 4666 
z
" transform="scale(0.015625)"/>
      <path id="DejaVuSans-72" d="M 2631 2963 
Q 2534 3019 2420 3045 
Q 2306 3072 2169 3072 
Q 1681 3072 1420 2755 
Q 1159 2438 1159 1844 
L 1159 0 
L 581 0 
L 581 3500 
L 1159 3500 
L 1159 2956 
Q 1341 3275 1631 3429 
Q 1922 3584 2338 3584 
Q 2397 3584 2469 3576 
Q 2541 3569 2628 3553 
L 2631 2963 
z
" transform="scale(0.015625)"/>
      <path id="DejaVuSans-6d" d="M 3328 2828 
Q 3544 3216 3844 3400 
Q 4144 3584 4550 3584 
Q 5097 3584 5394 3201 
Q 5691 2819 5691 2113 
L 5691 0 
L 5113 0 
L 5113 2094 
Q 5113 2597 4934 2840 
Q 4756 3084 4391 3084 
Q 3944 3084 3684 2787 
Q 3425 2491 3425 1978 
L 3425 0 
L 2847 0 
L 2847 2094 
Q 2847 2600 2669 2842 
Q 2491 3084 2119 3084 
Q 1678 3084 1418 2786 
Q 1159 2488 1159 1978 
L 1159 0 
L 581 0 
L 581 3500 
L 1159 3500 
L 1159 2956 
Q 1356 3278 1631 3431 
Q 1906 3584 2284 3584 
Q 2666 3584 2933 3390 
Q 3200 3197 3328 2828 
z
" transform="scale(0.015625)"/>
      <path id="DejaVuSans-75" d="M 544 1381 
L 544 3500 
L 1119 3500 
L 1119 1403 
Q 1119 906 1312 657 
Q 1506 409 1894 409 
Q 2359 409 2629 706 
Q 2900 1003 2900 1516 
L 2900 3500 
L 3475 3500 
L 3475 0 
L 2900 0 
L 2900 538 
Q 2691 219 2414 64 
Q 2138 -91 1772 -91 
Q 1169 -91 856 284 
Q 544 659 544 1381 
z
M 1991 3584 
L 1991 3584 
z
" transform="scale(0.015625)"/>
     </defs>
     <use xlink:href="#DejaVuSans-53" transform="translate(0 0.546875)"/>
     <use xlink:href="#DejaVuSans-70" transform="translate(63.476562 0.546875)"/>
     <use xlink:href="#DejaVuSans-65" transform="translate(126.953125 0.546875)"/>
     <use xlink:href="#DejaVuSans-63" transform="translate(188.476562 0.546875)"/>
     <use xlink:href="#DejaVuSans-69" transform="translate(243.457031 0.546875)"/>
     <use xlink:href="#DejaVuSans-61" transform="translate(271.240234 0.546875)"/>
     <use xlink:href="#DejaVuSans-6c" transform="translate(332.519531 0.546875)"/>
     <use xlink:href="#DejaVuSans-20" transform="translate(360.302734 0.546875)"/>
     <use xlink:href="#DejaVuSans-50" transform="translate(392.089844 0.546875)"/>
     <use xlink:href="#DejaVuSans-6f" transform="translate(452.392578 0.546875)"/>
     <use xlink:href="#DejaVuSans-69" transform="translate(513.574219 0.546875)"/>
     <use xlink:href="#DejaVuSans-6e" transform="translate(541.357422 0.546875)"/>
     <use xlink:href="#DejaVuSans-74" transform="translate(604.736328 0.546875)"/>
     <use xlink:href="#DejaVuSans-73" transform="translate(643.945312 0.546875)"/>
     <use xlink:href="#DejaVuSans-20" transform="translate(696.044922 0.546875)"/>
     <use xlink:href="#DejaVuSans-6f" transform="translate(727.832031 0.546875)"/>
     <use xlink:href="#DejaVuSans-66" transform="translate(789.013672 0.546875)"/>
     <use xlink:href="#DejaVuSans-20" transform="translate(824.21875 0.546875)"/>
     <use xlink:href="#DejaVuSans-74" transform="translate(856.005859 0.546875)"/>
     <use xlink:href="#DejaVuSans-68" transform="translate(895.214844 0.546875)"/>
     <use xlink:href="#DejaVuSans-65" transform="translate(958.59375 0.546875)"/>
     <use xlink:href="#DejaVuSans-20" transform="translate(1020.117188 0.546875)"/>
     <use xlink:href="#DejaVuSans-48" transform="translate(1051.904297 0.546875)"/>
     <use xlink:href="#DejaVuSans-65" transform="translate(1127.099609 0.546875)"/>
     <use xlink:href="#DejaVuSans-72" transform="translate(1188.623047 0.546875)"/>
     <use xlink:href="#DejaVuSans-6d" transform="translate(1229.736328 0.546875)"/>
     <use xlink:href="#DejaVuSans-69" transform="translate(1327.148438 0.546875)"/>
     <use xlink:href="#DejaVuSans-74" transform="translate(1354.931641 0.546875)"/>
     <use xlink:href="#DejaVuSans-65" transform="translate(1394.140625 0.546875)"/>
     <use xlink:href="#DejaVuSans-20" transform="translate(1455.664062 0.546875)"/>
     <use xlink:href="#DejaVuSans-66" transform="translate(1487.451172 0.546875)"/>
     <use xlink:href="#DejaVuSans-75" transform="translate(1522.65625 0.546875)"/>
     <use xlink:href="#DejaVuSans-6e" transform="translate(1586.035156 0.546875)"/>
     <use xlink:href="#DejaVuSans-63" transform="translate(1649.414062 0.546875)"/>
     <use xlink:href="#DejaVuSans-74" transform="translate(1704.394531 0.546875)"/>
     <use xlink:href="#DejaVuSans-69" transform="translate(1743.603516 0.546875)"/>
     <use xlink:href="#DejaVuSans-6f" transform="translate(1771.386719 0.546875)"/>
     <use xlink:href="#DejaVuSans-6e" transform="translate(1832.568359 0.546875)"/>
     <use xlink:href="#DejaVuSans-20" transform="translate(1895.947266 0.546875)"/>
     <use xlink:href="#DejaVuSans-Oblique-3c8" transform="translate(1927.734375 0.546875)"/>
     <use xlink:href="#DejaVuSans-28" transform="translate(1998.167318 46.8875) scale(0.7)"/>
     <use xlink:href="#DejaVuSans-32" transform="translate(2025.476888 46.8875) scale(0.7)"/>
     <use xlink:href="#DejaVuSans-30" transform="translate(2070.013021 46.8875) scale(0.7)"/>
     <use xlink:href="#DejaVuSans-3b" transform="translate(2114.549154 46.8875) scale(0.7)"/>
     <use xlink:href="#DejaVuSans-31" transform="translate(2151.770833 46.8875) scale(0.7)"/>
     <use xlink:href="#DejaVuSans-35" transform="translate(2196.306966 46.8875) scale(0.7)"/>
     <use xlink:href="#DejaVuSans-30" transform="translate(2240.843099 46.8875) scale(0.7)"/>
     <use xlink:href="#DejaVuSans-29" transform="translate(2285.379232 46.8875) scale(0.7)"/>
     <use xlink:href="#DejaVuSans-32" transform="translate(1993.701172 -26.796875) scale(0.7)"/>
     <use xlink:href="#DejaVuSans-35" transform="translate(2038.237305 -26.796875) scale(0.7)"/>
     <use xlink:href="#DejaVuSans-28" transform="translate(2315.423177 0.546875)"/>
     <use xlink:href="#DejaVuSans-Oblique-78" transform="translate(2354.436849 0.546875)"/>
     <use xlink:href="#DejaVuSans-29" transform="translate(2413.616536 0.546875)"/>
    </g>
   </g>
   <g id="PathCollection_1">
    <path d="M 100.271846 280.620254 
L 108.9321 271.96 
L 100.271846 263.299746 
L 91.611591 271.96 
L 100.271846 280.620254 
z
" clip-path="url(#pf44fbb66c0)" style="fill: none; stroke: #00cccc; stroke-width: 3"/>
    <path d="M 738.968154 280.620254 
L 747.628409 271.96 
L 738.968154 263.299746 
L 730.3079 271.96 
L 738.968154 280.620254 
z
" clip-path="url(#pf44fbb66c0)" style="fill: none; stroke: #00cccc; stroke-width: 3"/>
   </g>
   <g id="PathCollection_2">
    <defs>
     <path id="C0_0_dd519bf4e8" d="M 0 7.071068 
C 1.875269 7.071068 3.673985 6.326016 5 5 
C 6.326016 3.673985 7.071068 1.875269 7.071068 -0 
C 7.071068 -1.875269 6.326016 -3.673985 5 -5 
C 3.673985 -6.326016 1.875269 -7.071068 0 -7.071068 
C -1.875269 -7.071068 -3.673985 -6.326016 -5 -5 
C -6.326016 -3.673985 -7.071068 -1.875269 -7.071068 0 
C -7.071068 1.875269 -6.326016 3.673985 -5 5 
C -3.673985 6.326016 -1.875269 7.071068 0 7.071068 
z
"/>
    </defs>
    <g clip-path="url(#pf44fbb66c0)">
     <use xlink:href="#C0_0_dd519bf4e8" x="290.632599" y="271.96" style="fill: none; stroke: #800080; stroke-width: 3"/>
    </g>
    <g clip-path="url(#pf44fbb66c0)">
     <use xlink:href="#C0_0_dd519bf4e8" x="548.607401" y="271.96" style="fill: none; stroke: #800080; stroke-width: 3"/>
    </g>
   </g>
   <g id="legend_1">
    <g id="line2d_26">
     <path d="M 100.253 77.984662 
L 114.253 77.984662 
L 128.253 77.984662 
" style="fill: none; stroke: #ff0000; stroke-width: 2; stroke-linecap: square"/>
    </g>
    <g id="text_15">
     <!-- Hermite function -->
     <g transform="translate(139.453 82.884662) scale(0.14 -0.14)">
      <use xlink:href="#DejaVuSans-48"/>
      <use xlink:href="#DejaVuSans-65" x="75.195312"/>
      <use xlink:href="#DejaVuSans-72" x="136.71875"/>
      <use xlink:href="#DejaVuSans-6d" x="176.082031"/>
      <use xlink:href="#DejaVuSans-69" x="273.494141"/>
      <use xlink:href="#DejaVuSans-74" x="301.277344"/>
      <use xlink:href="#DejaVuSans-65" x="340.486328"/>
      <use xlink:href="#DejaVuSans-20" x="402.009766"/>
      <use xlink:href="#DejaVuSans-66" x="433.796875"/>
      <use xlink:href="#DejaVuSans-75" x="469.001953"/>
      <use xlink:href="#DejaVuSans-6e" x="532.380859"/>
      <use xlink:href="#DejaVuSans-63" x="595.759766"/>
      <use xlink:href="#DejaVuSans-74" x="650.740234"/>
      <use xlink:href="#DejaVuSans-69" x="689.949219"/>
      <use xlink:href="#DejaVuSans-6f" x="717.732422"/>
      <use xlink:href="#DejaVuSans-6e" x="778.914062"/>
     </g>
    </g>
    <g id="PathCollection_3">
     <path d="M 114.253 108.419292 
L 122.913254 99.759037 
L 114.253 91.098783 
L 105.592746 99.759037 
L 114.253 108.419292 
z
" style="fill: none; stroke: #00cccc; stroke-width: 3"/>
    </g>
    <g id="text_16">
     <!-- Numerical Fadeouts -->
     <g transform="translate(139.453 103.434037) scale(0.14 -0.14)">
      <defs>
       <path id="DejaVuSans-4e" d="M 628 4666 
L 1478 4666 
L 3547 763 
L 3547 4666 
L 4159 4666 
L 4159 0 
L 3309 0 
L 1241 3903 
L 1241 0 
L 628 0 
L 628 4666 
z
" transform="scale(0.015625)"/>
       <path id="DejaVuSans-46" d="M 628 4666 
L 3309 4666 
L 3309 4134 
L 1259 4134 
L 1259 2759 
L 3109 2759 
L 3109 2228 
L 1259 2228 
L 1259 0 
L 628 0 
L 628 4666 
z
" transform="scale(0.015625)"/>
       <path id="DejaVuSans-64" d="M 2906 2969 
L 2906 4863 
L 3481 4863 
L 3481 0 
L 2906 0 
L 2906 525 
Q 2725 213 2448 61 
Q 2172 -91 1784 -91 
Q 1150 -91 751 415 
Q 353 922 353 1747 
Q 353 2572 751 3078 
Q 1150 3584 1784 3584 
Q 2172 3584 2448 3432 
Q 2725 3281 2906 2969 
z
M 947 1747 
Q 947 1113 1208 752 
Q 1469 391 1925 391 
Q 2381 391 2643 752 
Q 2906 1113 2906 1747 
Q 2906 2381 2643 2742 
Q 2381 3103 1925 3103 
Q 1469 3103 1208 2742 
Q 947 2381 947 1747 
z
" transform="scale(0.015625)"/>
      </defs>
      <use xlink:href="#DejaVuSans-4e"/>
      <use xlink:href="#DejaVuSans-75" x="74.804688"/>
      <use xlink:href="#DejaVuSans-6d" x="138.183594"/>
      <use xlink:href="#DejaVuSans-65" x="235.595703"/>
      <use xlink:href="#DejaVuSans-72" x="297.119141"/>
      <use xlink:href="#DejaVuSans-69" x="338.232422"/>
      <use xlink:href="#DejaVuSans-63" x="366.015625"/>
      <use xlink:href="#DejaVuSans-61" x="420.996094"/>
      <use xlink:href="#DejaVuSans-6c" x="482.275391"/>
      <use xlink:href="#DejaVuSans-20" x="510.058594"/>
      <use xlink:href="#DejaVuSans-46" x="541.845703"/>
      <use xlink:href="#DejaVuSans-61" x="590.240234"/>
      <use xlink:href="#DejaVuSans-64" x="651.519531"/>
      <use xlink:href="#DejaVuSans-65" x="714.996094"/>
      <use xlink:href="#DejaVuSans-6f" x="776.519531"/>
      <use xlink:href="#DejaVuSans-75" x="837.701172"/>
      <use xlink:href="#DejaVuSans-74" x="901.080078"/>
      <use xlink:href="#DejaVuSans-73" x="940.289062"/>
     </g>
    </g>
    <g id="PathCollection_4">
     <path d="M 320.387687 86.28073 
C 322.262957 86.28073 324.061672 85.535678 325.387687 84.209662 
C 326.713703 82.883647 327.458755 81.084932 327.458755 79.209662 
C 327.458755 77.334393 326.713703 75.535678 325.387687 74.209662 
C 324.061672 72.883647 322.262957 72.138595 320.387687 72.138595 
C 318.512418 72.138595 316.713703 72.883647 315.387687 74.209662 
C 314.061672 75.535678 313.31662 77.334393 313.31662 79.209662 
C 313.31662 81.084932 314.061672 82.883647 315.387687 84.209662 
C 316.713703 85.535678 318.512418 86.28073 320.387687 86.28073 
L 320.387687 86.28073 
z
" style="fill: none; stroke: #800080; stroke-width: 3"/>
    </g>
    <g id="text_17">
     <!-- Largest Zeros -->
     <g transform="translate(345.587687 82.884662) scale(0.14 -0.14)">
      <defs>
       <path id="DejaVuSans-4c" d="M 628 4666 
L 1259 4666 
L 1259 531 
L 3531 531 
L 3531 0 
L 628 0 
L 628 4666 
z
" transform="scale(0.015625)"/>
       <path id="DejaVuSans-67" d="M 2906 1791 
Q 2906 2416 2648 2759 
Q 2391 3103 1925 3103 
Q 1463 3103 1205 2759 
Q 947 2416 947 1791 
Q 947 1169 1205 825 
Q 1463 481 1925 481 
Q 2391 481 2648 825 
Q 2906 1169 2906 1791 
z
M 3481 434 
Q 3481 -459 3084 -895 
Q 2688 -1331 1869 -1331 
Q 1566 -1331 1297 -1286 
Q 1028 -1241 775 -1147 
L 775 -588 
Q 1028 -725 1275 -790 
Q 1522 -856 1778 -856 
Q 2344 -856 2625 -561 
Q 2906 -266 2906 331 
L 2906 616 
Q 2728 306 2450 153 
Q 2172 0 1784 0 
Q 1141 0 747 490 
Q 353 981 353 1791 
Q 353 2603 747 3093 
Q 1141 3584 1784 3584 
Q 2172 3584 2450 3431 
Q 2728 3278 2906 2969 
L 2906 3500 
L 3481 3500 
L 3481 434 
z
" transform="scale(0.015625)"/>
       <path id="DejaVuSans-5a" d="M 359 4666 
L 4025 4666 
L 4025 4184 
L 1075 531 
L 4097 531 
L 4097 0 
L 288 0 
L 288 481 
L 3238 4134 
L 359 4134 
L 359 4666 
z
" transform="scale(0.015625)"/>
      </defs>
      <use xlink:href="#DejaVuSans-4c"/>
      <use xlink:href="#DejaVuSans-61" x="55.712891"/>
      <use xlink:href="#DejaVuSans-72" x="116.992188"/>
      <use xlink:href="#DejaVuSans-67" x="156.355469"/>
      <use xlink:href="#DejaVuSans-65" x="219.832031"/>
      <use xlink:href="#DejaVuSans-73" x="281.355469"/>
      <use xlink:href="#DejaVuSans-74" x="333.455078"/>
      <use xlink:href="#DejaVuSans-20" x="372.664062"/>
      <use xlink:href="#DejaVuSans-5a" x="404.451172"/>
      <use xlink:href="#DejaVuSans-65" x="472.957031"/>
      <use xlink:href="#DejaVuSans-72" x="534.480469"/>
      <use xlink:href="#DejaVuSans-6f" x="573.34375"/>
      <use xlink:href="#DejaVuSans-73" x="634.525391"/>
     </g>
    </g>
    <g id="PathCollection_5">
     <path d="M 316.852154 106.830105 
L 320.387687 103.294571 
L 323.923221 106.830105 
L 327.458755 103.294571 
L 323.923221 99.759037 
L 327.458755 96.223504 
L 323.923221 92.68797 
L 320.387687 96.223504 
L 316.852154 92.68797 
L 313.31662 96.223504 
L 316.852154 99.759037 
L 313.31662 103.294571 
L 316.852154 106.830105 
z
" style="fill: none; stroke: #0000ff; stroke-width: 3"/>
    </g>
    <g id="text_18">
     <!-- Largest Extrema -->
     <g transform="translate(345.587687 103.434037) scale(0.14 -0.14)">
      <defs>
       <path id="DejaVuSans-45" d="M 628 4666 
L 3578 4666 
L 3578 4134 
L 1259 4134 
L 1259 2753 
L 3481 2753 
L 3481 2222 
L 1259 2222 
L 1259 531 
L 3634 531 
L 3634 0 
L 628 0 
L 628 4666 
z
" transform="scale(0.015625)"/>
      </defs>
      <use xlink:href="#DejaVuSans-4c"/>
      <use xlink:href="#DejaVuSans-61" x="55.712891"/>
      <use xlink:href="#DejaVuSans-72" x="116.992188"/>
      <use xlink:href="#DejaVuSans-67" x="156.355469"/>
      <use xlink:href="#DejaVuSans-65" x="219.832031"/>
      <use xlink:href="#DejaVuSans-73" x="281.355469"/>
      <use xlink:href="#DejaVuSans-74" x="333.455078"/>
      <use xlink:href="#DejaVuSans-20" x="372.664062"/>
      <use xlink:href="#DejaVuSans-45" x="404.451172"/>
      <use xlink:href="#DejaVuSans-78" x="467.634766"/>
      <use xlink:href="#DejaVuSans-74" x="526.814453"/>
      <use xlink:href="#DejaVuSans-72" x="566.023438"/>
      <use xlink:href="#DejaVuSans-65" x="604.886719"/>
      <use xlink:href="#DejaVuSans-6d" x="666.410156"/>
      <use xlink:href="#DejaVuSans-61" x="763.822266"/>
     </g>
    </g>
   </g>
   <g id="PathCollection_6">
    <defs>
     <path id="C1_0_a070c2883f" d="M -3.535534 7.071068 
L 0 3.535534 
L 3.535534 7.071068 
L 7.071068 3.535534 
L 3.535534 -0 
L 7.071068 -3.535534 
L 3.535534 -7.071068 
L 0 -3.535534 
L -3.535534 -7.071068 
L -7.071068 -3.535534 
L -3.535534 0 
L -7.071068 3.535534 
z
"/>
    </defs>
    <g clip-path="url(#pf44fbb66c0)">
     <use xlink:href="#C1_0_a070c2883f" x="279.074335" y="473.56" style="fill: none; stroke: #0000ff; stroke-width: 3"/>
    </g>
    <g clip-path="url(#pf44fbb66c0)">
     <use xlink:href="#C1_0_a070c2883f" x="560.165665" y="70.36" style="fill: none; stroke: #0000ff; stroke-width: 3"/>
    </g>
   </g>
  </g>
 </g>
 <defs>
  <clipPath id="pf44fbb66c0">
   <rect x="84.82" y="50.2" width="669.6" height="443.52"/>
  </clipPath>
 </defs>
</svg>
